M48
;Layer_Color=9474304
;FILE_FORMAT=2:4
INCH,LZ
;TYPE=PLATED
T1F00S00C0.0079
T2F00S00C0.0100
T3F00S00C0.0118
T5F00S00C0.0350
T6F00S00C0.0394
T7F00S00C0.0400
T8F00S00C0.0433
T9F00S00C0.0450
T10F00S00C0.0550
T11F00S00C0.0591
T12F00S00C0.0630
T13F00S00C0.0669
;TYPE=NON_PLATED
T14F00S00C0.0256
T15F00S00C0.1280
T16F00S00C0.1378
%
T01
X017236Y012739
X018496Y012009
X019176Y012309
X021196Y012949
X021626Y013509
X021856Y013859
X021226Y014439
X023306Y015439
X024426Y014929
X025566Y015419
X027026Y015449
X029356Y015429
X030786Y015439
X028206Y014195
X018006Y014499
X031986Y014219
X033136Y015429
X034546Y015449
X036936Y015439
X038336Y015449
X040686Y015439
X042096
X044456Y015449
X045856Y015459
X043296Y014179
X039526Y014169
X035806Y014259
X047096Y014209
X048256Y015479
X049656Y015429
X052016Y015419
X052216Y014819
X051916Y014329
X051666Y014289
X050866Y014248
X051976Y013349
X052876Y012609
X054026Y013359
X054006Y013619
X054246Y014258
X05423Y014495
X054516Y014949
X054126Y015219
X054516Y012939
X054206Y015829
X054086Y016559
X054326Y017018
X053886Y017059
X053646Y017235
X052786Y016719
X052006Y017109
X051506Y016019
X051066Y018199
X051036Y019029
X051566Y019219
X051596Y019799
X049836Y019789
X050056Y019199
X047806
X047506Y019479
X047296Y018199
X048166Y017049
X047786Y016029
X049156Y016589
X049496Y017179
X052928Y018151
X053246Y018929
X053456Y019769
X053936Y019899
X053986Y019549
X054516Y019899
X054806Y019739
X055326Y019789
Y018719
X055266Y017929
X055536Y017079
X054836Y016449
X056106Y020179
X056096Y021279
X054576
X053776Y020978
X052786Y020959
X052816Y022029
X052885Y022774
X053152Y022699
X053429Y022696
X05341Y023084
X053133Y023095
X052668Y022946
X05253Y023186
X052492Y023461
X052018Y023596
X051741Y023598
X051471Y023659
X051206Y02374
X050979Y023899
X050816Y024124
X051245Y024184
X051213Y024459
X051746Y024379
X052039Y024089
X052366Y024319
X052826Y024429
X052794Y023807
X053896Y023779
X053386Y024629
X053806Y025529
X053136Y026239
X052876Y026459
X053016Y026849
X052876Y027269
X052306Y027549
X052036Y026449
X051566Y026089
X051256Y02611
X051226Y026399
X050626Y026239
X050276Y026619
X049866Y026169
X049411
X048956
Y025539
X049411
X049406Y024899
X048956
X049106Y024499
X049386Y024469
X049365Y02385
X049556Y023709
X049286Y023539
X048796Y022899
X047816Y022959
X047576Y022729
X047016Y022949
X047196Y021929
X048786Y021459
X049221Y021474
X049146Y021249
X049636Y022039
X050816Y022089
X051266Y021659
X051516Y021869
X051626Y022649
X051966
X052316Y022699
X051286Y022659
X051488Y02405
X051198Y025333
X051356Y025509
X051535Y025698
X050656Y025299
X050612Y027727
X050017Y02825
X04965Y028204
X049689Y028469
X049566Y027529
X048897Y027678
X048837Y027399
X047856Y027219
X046966Y026679
X047777Y025359
X047634Y025169
X047642Y024932
X047634Y024695
X047836Y02457
X048506Y024679
X048696Y024469
X047806Y029989
X047707Y030415
X047076Y029929
X049856Y031249
X053216Y030969
X053866Y021939
X046536Y022969
X045166Y022401
X045156Y021919
X045176Y023589
X044376Y023549
X044476Y023329
X044146Y023649
X043976Y023862
X043776Y023989
Y024279
X043716Y024559
X043736Y025459
X044016Y025429
X043206Y025159
X042226Y025089
X041186Y024949
X041116Y025209
X041106Y025849
X040436Y025729
X040026
X039656Y025719
X039346Y025239
X039384Y024959
X038966Y025019
X038336Y024739
X038276Y023979
X038836Y023839
X038966Y024069
X039386Y023809
X039816Y023109
X040436Y023299
X041356Y023089
X042186Y023229
X042516Y023559
X041146Y023999
Y022279
X040726
X039646Y022349
X038966Y019759
X038736Y019089
X039966Y019119
X039726Y018219
X040246Y018089
X040606Y017029
X041666Y016959
X041726Y016609
X040256Y016009
X037976Y016589
X038176Y017199
X036876Y017029
X036486Y016039
X034766Y017059
X034186Y016589
X033096Y017029
X032786Y017468
X032046
X031666Y017779
X031386Y018049
X032196Y019039
Y019429
X032406Y019269
X032786Y019339
X033001Y018427
X033283Y018459
X033926Y018439
X033776Y019028
X033536Y018939
X034676Y018819
X034986Y019999
X034996Y020429
X035246Y019739
X036136Y020179
X036236Y019089
X034766Y021199
X034106Y021099
X033666Y021159
X033386Y021199
X032406Y020799
X032136Y020449
X032196Y020169
X032206Y022359
X032216Y022609
X032846Y022549
X032946Y022319
X034506Y022689
X034546Y022999
X034406Y023489
X034462Y023742
X034889Y024289
X035536Y024099
X033972Y024556
X033915Y025089
X034265Y025225
X034265Y02491
X034611Y025513
X034926Y026139
X034293Y02614
X034296Y026449
X034578Y026425
X034624Y027078
X034617Y027387
X034606Y027691
X034916Y027701
X034928Y027395
X034929Y027068
X034307Y027077
X034264Y027374
X033951Y027374
X033666Y027389
X033356Y027419
X033364Y027094
X033351Y026769
X033054Y026768
X032979Y027059
X032453Y027045
X032097Y027056
X032091Y026775
X031734Y026783
X03145Y026807
X031456Y026459
X031785Y026468
X031801Y026114
X032116Y026169
X032358Y026515
X032691Y026484
X033Y026222
X033023Y025865
X033034Y025508
X033336Y025509
X033346Y025199
X03274
X032416
X032095Y02518
X032673Y024867
X033042Y024896
X033031Y024539
X032746Y024224
X033334Y026151
X033346Y026469
X033983Y026138
X033956Y027029
X033951Y027689
X034223Y027669
X034223Y027959
X034296Y028329
X03393Y02819
X033675Y028358
X033666Y028659
X033361Y028661
X033976Y028639
X033982Y028996
X033936Y029279
X03332Y029441
X032453Y028958
X032396Y028659
X032718Y028637
X032729Y02835
X032496Y028308
X032376Y028004
X03269Y028003
X032413Y027702
X032434Y027407
X032715Y027392
X032081Y027386
X031789Y027386
X031493Y027394
X031472Y027701
X031766Y027701
X031472Y028024
X031776Y028349
X032077Y028358
X032096Y028959
X032084Y029809
X032476Y030109
X033754Y030599
X034696Y029829
X034894Y028942
X035856Y029019
X036786Y029129
X037143Y029053
X037507Y028878
X037337Y028708
X038016Y028861
X038256Y028969
X038515Y028912
X0385Y028658
X038566Y028049
X038376Y027819
X039536Y027469
X039346Y026969
X039966Y027029
X040286
X040866Y027127
X041116Y027059
X041074Y027434
X041066Y027696
X041086Y028579
X041255Y029052
X041456Y029199
X041931Y028355
X042136Y028153
X042347Y027559
X041975Y027446
X042086Y027139
X042526Y026559
X043326Y026539
X043632Y026583
X043506Y026329
Y026049
X044596Y026288
X0446Y026589
X04533Y026103
X045356Y025169
X046196Y025379
X046626Y025609
X046656Y025844
X046656Y026969
X046486Y027759
X046536Y028739
X044906Y02884
X044906Y028249
X044906Y027659
X044316Y027659
X043725Y027659
X043725Y028249
X044316
X044316Y02884
X043725
X043076Y030129
X042306Y030759
X041806Y030769
X041341Y030718
X040696Y031189
X039686Y031183
X039406Y031231
X039336Y030389
X039696Y030459
X040566Y029879
X040826Y029939
X039576Y028301
X038806Y026609
X038916Y02637
X038966Y026138
X038126Y026519
X037656Y026359
X037246Y026449
X037016Y026271
X036977Y026963
X037086Y027441
X036766Y027798
X036456Y026469
X035736Y026339
X035416Y026437
X035237Y026616
X03539Y027484
X034623Y028038
X033691Y028004
X033654Y027726
X033329Y028036
X031447Y028673
X035636Y030639
X036056Y030769
X036276Y030699
X036226Y030919
X036586Y030689
X036876Y030819
X037146Y030899
X037396Y030731
X037806
X037996Y030449
X040716Y026549
X041086Y026629
X040256Y025219
X046046Y026519
X045016Y029889
X044466Y030289
X044916Y030959
X046816Y031169
X046436Y020249
X046286Y019809
Y019209
X045796Y020539
X043566Y021019
X043646Y019169
X043996Y019209
X043546Y018169
X044444Y017067
X045476Y016959
X045496Y016599
X044036Y016069
X042526Y019239
X042716Y019739
X034506Y021869
X032696Y016029
X030426Y016589
X030646Y017249
X031096Y017289
Y017599
X031213Y017887
X030606Y019129
X029886Y019379
X029316Y019639
X029506Y019919
X029416Y018639
X029646Y017409
X029226Y016219
X028326Y017879
X027416Y018169
X026876Y017249
X026636Y016589
X025506Y016139
X025796Y017439
X023086Y017239
X022836Y016609
X021316Y016639
X021376Y017749
X021336Y018139
X021386Y021309
X020116Y021419
X018506Y021879
X018526Y022669
X019186Y022949
X017256Y023349
Y026519
X018506Y025859
Y025289
X019166Y026109
X020076Y026369
X0204Y025783
X020666Y025769
X021266Y025089
X021216Y023549
X022246Y024439
X023316Y024929
X025886Y025229
X025986Y024709
X025996Y024409
X028206Y025019
X028462Y025015
X028586Y026009
X029256Y026339
X029476Y026349
X029506Y026569
X029596Y025989
X030204Y026149
X031158Y026139
Y025831
Y025188
X030904Y026488
X031166Y026749
X031148Y027106
X031149Y027704
X031172Y028003
X030514Y028007
X030826Y028335
X031137Y028668
X030506Y028679
X029486Y028299
X029186Y028131
X028889Y028085
X029566Y027709
X028504Y027316
X027706Y027979
X027836Y028209
X027556Y028199
X027026Y027919
X026656Y031229
X028566Y031029
X024716Y030899
X024646Y029919
X023226Y029799
X022396Y029899
X022356Y030427
X022066Y030259
X021693Y030159
X021666Y030559
X022486Y029159
X022366Y028759
X021696Y028219
X021606Y026709
X019836Y028078
X019596Y027899
X019176Y029019
X018496Y028809
X018506Y028449
X017196Y029439
X017206Y019909
X018516Y019189
X019176Y019449
X018046Y018149
X017226Y016429
X018536Y015729
X019186Y015959
X023916Y019739
X023776Y019979
X024064Y020507
X027246Y020669
X027906Y020909
X027526Y019889
X027536Y019639
X028366Y019469
X029346Y021409
X029086Y021789
X029236Y022019
X030266Y021039
X031006Y019849
X030841Y023357
X031212Y023323
X030486Y023258
X030229Y024283
X015596Y035659
X015046Y036529
X014906Y037111
X014466Y037029
X014216Y036989
X013846Y037019
X013936Y037389
X014376Y037409
X015246
X013636Y038319
X013206Y039659
X013596Y041439
X014106
X014606
X015096
X014636Y043669
X014036
X013366Y043659
X013426Y044409
X013956Y044399
X015346Y044549
X015936Y043129
X016106Y042019
X015886Y040859
X016386Y040139
X016146Y039379
X016526Y037779
X016366Y037399
X016496Y037039
X015686Y037579
X015846Y036179
X015746Y035329
X015916Y034649
X016366Y035089
X017336Y034749
X017276Y034419
X017866Y035658
X019446Y035099
X019656Y034249
X019986Y034119
X019746Y033449
X020496Y033479
X020846Y033839
X020844Y032479
X021056Y032229
X021016Y031889
X021336Y031849
X021716Y032439
X022236
X022696Y032219
X023232Y032211
X024396Y032189
X024856Y032499
X025046Y033859
X025526Y033879
X024516
Y035789
X024886Y035589
X025206
X025356Y035389
X025036
X025667Y03681
X025346Y038319
X024736
X023746Y038309
X023656Y039029
X022716Y037659
X022286Y036239
X020896Y036299
Y035529
X020106Y035519
Y036309
Y037139
X020896
X019316
X018556Y038019
X018676Y039209
X018734Y040008
X019176Y040199
X020246Y040139
X019626Y039489
X018046Y040369
X017576Y039939
X018286Y045329
X018991Y045306
X019706Y045309
X020356
X020376Y045899
X020866Y046629
X021516Y046599
X021976Y045739
X020936Y044619
X022151Y043754
X022711
X022421Y043314
X022171Y042894
X022711Y042864
X022736Y041599
X023646Y041529
X024266Y041519
X024486Y042019
X025586Y042359
X026286Y042229
Y042549
X026366Y042849
X025766Y043089
X027866Y042429
Y042086
Y041742
Y041399
X029296Y041389
X029276Y041709
X029766Y041799
X029776Y042309
X029056Y042599
X029136Y040309
X029346Y039649
X030226Y040139
X029796Y038399
X029486
X029176
X028866
X029036Y038129
X029366
X029656
X030426Y038079
X030466Y037339
X031096Y037429
X029896Y036559
X029661Y034954
X029641Y034594
X029292Y034774
X028941Y034584
Y034964
X029116Y033839
X029456Y033849
X029926Y033059
X029136Y032909
X028576
X027806
X027326Y033239
X026626Y033609
Y034269
X026316Y032949
X027846Y031829
X028696Y031899
X027996Y034009
X027886Y035959
X027836Y037529
X028546Y037049
X028006Y040009
X030456Y034969
X022966Y033209
X022446Y033219
X022376Y031599
X020156Y031609
X019836Y031649
X019376Y031609
X019836Y032469
X020106Y032619
X020476Y032589
X018756Y033239
X017946Y032829
X016936Y032549
X017416Y031519
X018096Y031339
X022026Y042099
X016606Y046809
X033516Y044349
X033906Y044359
X035936Y044339
X036356Y044329
X037036Y044319
X037476Y044309
X041256Y044329
X041656Y044319
X042406
X042816
X043046Y037919
X043516Y037249
X042586Y036779
X042196Y036659
X042266Y035609
X041926Y035269
X041386Y034799
X040616Y034689
X040596Y035089
X040619Y034202
X040506Y033399
X040166Y033199
X039776
X039376Y033279
X038778Y033299
X038396Y033189
X038086Y033299
X037752Y033196
X037781Y032449
X038096
X038524Y032178
X039156Y032099
X039186Y031729
X038846Y031339
X038636Y031529
X038416Y031299
X038147Y03137
X039886Y031829
X040226Y032008
X041539Y032026
X041749Y031917
X041776Y032209
X041397Y032383
X041376Y032649
X041046Y033189
X042296Y032641
X042586Y032709
X042136Y032439
X042556Y031629
X043076Y031779
X043466Y031789
X043876Y031779
X044256
X044596Y032139
X044706Y031369
X045626Y032139
X046256Y032149
X046486Y032139
X046456Y032439
X046226Y033219
X045986Y033889
X045406Y033939
X045036Y033899
X044386Y034399
X043806Y034079
X043396Y034289
X043096Y034099
Y034519
Y034939
X043766Y035219
X044086Y03333
X043832Y032905
X045266Y032569
X045726Y035549
X041396Y035809
X04062Y035979
X040366Y036559
X041016
X039576Y036569
X039618Y0373
X039528Y038498
X039336Y038359
X038647Y038202
X038528Y038407
X037576Y038419
X037716Y038199
X036826Y037759
X036496Y037699
Y037929
Y037469
X037206Y036919
X038146Y036479
X038796Y036539
X037396Y035679
X037336Y034889
X036526Y034779
X035656Y035139
X035396Y035259
X034096Y034959
X033805Y03423
X033827Y033748
X033816Y033319
X033826Y032789
X032907Y032749
X032516Y033559
X032246
X032136Y034509
X032416
X032686
X032606Y035279
X032596Y036429
X031876Y035969
X031476Y035409
X031576Y033049
X034766Y032199
X035266Y032629
X036196Y031959
X036866Y032449
X037346Y033909
X035856Y036579
X033286Y037359
X032656Y037589
X032526Y038479
X032626Y038649
X032406Y038689
X032946Y038679
X032856Y038469
X033226Y038749
X031716Y039089
X031966Y038099
X041256Y037959
X042659Y033817
X047425Y037349
X047306Y044309
X046896Y044319
X047886
X048316
X050256Y044329
X050666
X055546
X053226Y031389
X050396Y031689
X050026Y031709
X049706Y031559
X028686Y047459
X028343Y047278
X027927Y047419
X027548Y047735
X026996Y047709
X026686
X026846Y047939
X027156
X026496
X026091Y048254
X025886Y048049
X024776Y048639
X024786Y048979
Y049349
Y049669
X024756Y050989
X026796Y051159
X026826Y050639
X0272Y050319
X028346Y050339
X028786Y050629
X028716Y051139
X027917Y0514
X028046Y051599
X027516Y051509
X027256Y051539
X028376Y048889
X028716Y049079
X028426Y047979
X020116Y049719
X013236Y049469
T02
X03773Y033631
X03773Y034135
X038234
X038229Y033665
X038738Y033631
X039242
X039746Y033631
X04025
Y034135
X039746
X039242
X039242Y034639
Y035143
X039242Y035647
X039746
X04025
Y036151
X039746
X039242Y036151
X038738
X038234Y036151
X03773
X03773Y035647
X038234
Y035143
X038738
X038738Y035647
X038738Y034639
X038234
X03773
X038738Y034135
X039746Y034639
Y035143
X04025
Y034639
T03
X053882Y018089
Y018483
X054276
Y018089
X044426Y029948
X043417Y029915
X042336Y029169
X042318Y028359
X033876Y020199
X033482
Y019805
X033876
T05
X048303Y033194
X048303Y034194
X048303Y035194
Y036194
Y037194
X049303Y036694
Y035694
Y034694
Y033694
Y037694
X053403Y038108
Y037108
X053403Y033878
X053403Y032878
T06
X019894Y051627
X020908
X025238
X015563
T07
X031446Y041438
X032246
X033046
X033446Y042438
X034246
X035046
X035846
X036246Y041438
X036946
X037746
X038546
X038146Y042438
X038946
X039746Y042438
X040546Y042438
X041346Y042438
X041746Y041438
X042446
X043246
X044046
X043646Y042438
X044446Y042438
X045246Y042438
X046046
X046846
X046446Y041438
X045646
X042846Y042438
X040946Y041438
X040146
X037346Y042438
X035446Y041438
X034646
X032646Y042438
X031846Y042438
X047246Y041438
X047946
X048746
X049546
X049946Y042438
X050746
X051546Y042438
X052346Y042438
X052746Y041438
X051946
X051146
X049146Y042438
X048346
T08
X025396Y040119
Y041119
X055267Y041324
Y042324
Y043324
Y040324
T09
X031446Y040438
X032446Y040438
X035246
X036246
X036946Y040438
X037946
X040746
X041746Y040438
X042446
X043446Y040438
X046246
X047246Y040438
X047946Y040438
X048946
X051746
X052746Y040438
T10
X030671Y045188
X053521
Y049688
X030671
T11
X037466Y024919
X024671Y028561
Y021277
T12
X050602Y032354
Y038535
T13
X016744Y04769
X018713
X022089
X024057Y04769
T14
X053755Y012706
Y014981
X028989Y050298
X026714
T15
X051803Y033198
Y03769
X052846Y048438
X031346
T16
X013937Y010669
X055276
Y051811
X013937
M30
