G04*
G04 #@! TF.GenerationSoftware,Altium Limited,Altium Designer,21.6.4 (81)*
G04*
G04 Layer_Color=2752767*
%FSTAX24Y24*%
%MOIN*%
G70*
G04*
G04 #@! TF.SameCoordinates,CFC9D6D8-CD49-4BFF-A4EB-002DC6F40297*
G04*
G04*
G04 #@! TF.FilePolarity,Positive*
G04*
G01*
G75*
%ADD293C,0.0020*%
%ADD294C,0.0027*%
%ADD295C,0.0013*%
D293*
X037386Y024839D02*
Y024999D01*
X037546D01*
Y024839D01*
X037386D01*
X024591Y028481D02*
Y028641D01*
X024751D01*
Y028481D01*
X024591D01*
Y021197D02*
Y021357D01*
X024751D01*
Y021197D01*
X024591D01*
X055204Y012063D02*
X055124Y012223D01*
X055284D01*
X055204Y012063D01*
Y015464D02*
X055124Y015624D01*
X055284D01*
X055204Y015464D01*
X053755Y014901D02*
X053795Y014941D01*
X053835D01*
X053795Y014981D01*
X053835Y015021D01*
X053795D01*
X053755Y015061D01*
X053715Y015021D01*
X053675D01*
X053715Y014981D01*
X053675Y014941D01*
X053715D01*
X053755Y014901D01*
Y012626D02*
X053795Y012666D01*
X053835D01*
X053795Y012706D01*
X053835Y012746D01*
X053795D01*
X053755Y012786D01*
X053715Y012746D01*
X053675D01*
X053715Y012706D01*
X053675Y012666D01*
X053715D01*
X053755Y012626D01*
X055196Y010589D02*
X055236Y010669D01*
X055196Y010749D01*
X055276Y010709D01*
X055356Y010749D01*
X055316Y010669D01*
X055356Y010589D01*
X055276Y010629D01*
X055196Y010589D01*
X015523Y051587D02*
Y051547D01*
X015603D01*
Y051587D01*
X015643D01*
Y051667D01*
X015603D01*
Y051707D01*
X015523D01*
Y051667D01*
X015483D01*
Y051587D01*
X015523D01*
X019854D02*
Y051547D01*
X019934D01*
Y051587D01*
X019974D01*
Y051667D01*
X019934D01*
Y051707D01*
X019854D01*
Y051667D01*
X019814D01*
Y051587D01*
X019854D01*
X016664Y04761D02*
X016704D01*
X016744Y04765D01*
X016784Y04761D01*
X016824D01*
Y04765D01*
X016784Y04769D01*
X016824Y04773D01*
Y04777D01*
X016784D01*
X016744Y04773D01*
X016704Y04777D01*
X016664D01*
Y04773D01*
X016704Y04769D01*
X016664Y04765D01*
Y04761D01*
X018633D02*
X018673D01*
X018713Y04765D01*
X018753Y04761D01*
X018793D01*
Y04765D01*
X018753Y04769D01*
X018793Y04773D01*
Y04777D01*
X018753D01*
X018713Y04773D01*
X018673Y04777D01*
X018633D01*
Y04773D01*
X018673Y04769D01*
X018633Y04765D01*
Y04761D01*
X028989Y050218D02*
X029029Y050258D01*
X029069D01*
X029029Y050298D01*
X029069Y050338D01*
X029029D01*
X028989Y050378D01*
X028949Y050338D01*
X028909D01*
X028949Y050298D01*
X028909Y050258D01*
X028949D01*
X028989Y050218D01*
X026714D02*
X026754Y050258D01*
X026794D01*
X026754Y050298D01*
X026794Y050338D01*
X026754D01*
X026714Y050378D01*
X026674Y050338D01*
X026634D01*
X026674Y050298D01*
X026634Y050258D01*
X026674D01*
X026714Y050218D01*
X029552Y051667D02*
X029472Y051827D01*
X029632D01*
X029552Y051667D01*
X026151D02*
X026071Y051827D01*
X026231D01*
X026151Y051667D01*
X025316Y041119D02*
X025396Y041199D01*
X025476Y041119D01*
X025396Y041039D01*
X025316Y041119D01*
Y040119D02*
X025396Y040199D01*
X025476Y040119D01*
X025396Y040039D01*
X025316Y040119D01*
X036166Y041358D02*
Y041518D01*
X036326D01*
Y041358D01*
X036166D01*
X036206Y041398D02*
Y041478D01*
X036286D01*
Y041398D01*
X036206D01*
X035366Y041358D02*
Y041518D01*
X035526D01*
Y041358D01*
X035366D01*
X035406Y041398D02*
Y041478D01*
X035486D01*
Y041398D01*
X035406D01*
X034566Y041358D02*
Y041518D01*
X034726D01*
Y041358D01*
X034566D01*
X034606Y041398D02*
Y041478D01*
X034686D01*
Y041398D01*
X034606D01*
X032966Y041358D02*
Y041518D01*
X033126D01*
Y041358D01*
X032966D01*
X033006Y041398D02*
Y041478D01*
X033086D01*
Y041398D01*
X033006D01*
X032166Y041358D02*
Y041518D01*
X032326D01*
Y041358D01*
X032166D01*
X032206Y041398D02*
Y041478D01*
X032286D01*
Y041398D01*
X032206D01*
X031366Y041358D02*
Y041518D01*
X031526D01*
Y041358D01*
X031366D01*
X031406Y041398D02*
Y041478D01*
X031486D01*
Y041398D01*
X031406D01*
X041666Y041358D02*
Y041518D01*
X041826D01*
Y041358D01*
X041666D01*
X041706Y041398D02*
Y041478D01*
X041786D01*
Y041398D01*
X041706D01*
X040866Y041358D02*
Y041518D01*
X041026D01*
Y041358D01*
X040866D01*
X040906Y041398D02*
Y041478D01*
X040986D01*
Y041398D01*
X040906D01*
X040066Y041358D02*
Y041518D01*
X040226D01*
Y041358D01*
X040066D01*
X040106Y041398D02*
Y041478D01*
X040186D01*
Y041398D01*
X040106D01*
X038466Y041358D02*
Y041518D01*
X038626D01*
Y041358D01*
X038466D01*
X038506Y041398D02*
Y041478D01*
X038586D01*
Y041398D01*
X038506D01*
X037666Y041358D02*
Y041518D01*
X037826D01*
Y041358D01*
X037666D01*
X037706Y041398D02*
Y041478D01*
X037786D01*
Y041398D01*
X037706D01*
X036866Y041358D02*
Y041518D01*
X037026D01*
Y041358D01*
X036866D01*
X036906Y041398D02*
Y041478D01*
X036986D01*
Y041398D01*
X036906D01*
X035766Y042358D02*
Y042518D01*
X035926D01*
Y042358D01*
X035766D01*
X035806Y042398D02*
Y042478D01*
X035886D01*
Y042398D01*
X035806D01*
X034966Y042358D02*
Y042518D01*
X035126D01*
Y042358D01*
X034966D01*
X035006Y042398D02*
Y042478D01*
X035086D01*
Y042398D01*
X035006D01*
X034166Y042358D02*
Y042518D01*
X034326D01*
Y042358D01*
X034166D01*
X034206Y042398D02*
Y042478D01*
X034286D01*
Y042398D01*
X034206D01*
X033366Y042358D02*
Y042518D01*
X033526D01*
Y042358D01*
X033366D01*
X033406Y042398D02*
Y042478D01*
X033486D01*
Y042398D01*
X033406D01*
X032566Y042358D02*
Y042518D01*
X032726D01*
Y042358D01*
X032566D01*
X032606Y042398D02*
Y042478D01*
X032686D01*
Y042398D01*
X032606D01*
X031766Y042358D02*
Y042518D01*
X031926D01*
Y042358D01*
X031766D01*
X031806Y042398D02*
Y042478D01*
X031886D01*
Y042398D01*
X031806D01*
X041266Y042358D02*
Y042518D01*
X041426D01*
Y042358D01*
X041266D01*
X041306Y042398D02*
Y042478D01*
X041386D01*
Y042398D01*
X041306D01*
X040466Y042358D02*
Y042518D01*
X040626D01*
Y042358D01*
X040466D01*
X040506Y042398D02*
Y042478D01*
X040586D01*
Y042398D01*
X040506D01*
X039666Y042358D02*
Y042518D01*
X039826D01*
Y042358D01*
X039666D01*
X039706Y042398D02*
Y042478D01*
X039786D01*
Y042398D01*
X039706D01*
X038866Y042358D02*
Y042518D01*
X039026D01*
Y042358D01*
X038866D01*
X038906Y042398D02*
Y042478D01*
X038986D01*
Y042398D01*
X038906D01*
X038066Y042358D02*
Y042518D01*
X038226D01*
Y042358D01*
X038066D01*
X038106Y042398D02*
Y042478D01*
X038186D01*
Y042398D01*
X038106D01*
X037266Y042358D02*
Y042518D01*
X037426D01*
Y042358D01*
X037266D01*
X037306Y042398D02*
Y042478D01*
X037386D01*
Y042398D01*
X037306D01*
X047166Y041358D02*
Y041518D01*
X047326D01*
Y041358D01*
X047166D01*
X047206Y041398D02*
Y041478D01*
X047286D01*
Y041398D01*
X047206D01*
X046366Y041358D02*
Y041518D01*
X046526D01*
Y041358D01*
X046366D01*
X046406Y041398D02*
Y041478D01*
X046486D01*
Y041398D01*
X046406D01*
X045566Y041358D02*
Y041518D01*
X045726D01*
Y041358D01*
X045566D01*
X045606Y041398D02*
Y041478D01*
X045686D01*
Y041398D01*
X045606D01*
X043966Y041358D02*
Y041518D01*
X044126D01*
Y041358D01*
X043966D01*
X044006Y041398D02*
Y041478D01*
X044086D01*
Y041398D01*
X044006D01*
X043166Y041358D02*
Y041518D01*
X043326D01*
Y041358D01*
X043166D01*
X043206Y041398D02*
Y041478D01*
X043286D01*
Y041398D01*
X043206D01*
X042366Y041358D02*
Y041518D01*
X042526D01*
Y041358D01*
X042366D01*
X042406Y041398D02*
Y041478D01*
X042486D01*
Y041398D01*
X042406D01*
X052666Y041358D02*
Y041518D01*
X052826D01*
Y041358D01*
X052666D01*
X052706Y041398D02*
Y041478D01*
X052786D01*
Y041398D01*
X052706D01*
X051866Y041358D02*
Y041518D01*
X052026D01*
Y041358D01*
X051866D01*
X051906Y041398D02*
Y041478D01*
X051986D01*
Y041398D01*
X051906D01*
X051066Y041358D02*
Y041518D01*
X051226D01*
Y041358D01*
X051066D01*
X051106Y041398D02*
Y041478D01*
X051186D01*
Y041398D01*
X051106D01*
X049466Y041358D02*
Y041518D01*
X049626D01*
Y041358D01*
X049466D01*
X049506Y041398D02*
Y041478D01*
X049586D01*
Y041398D01*
X049506D01*
X048666Y041358D02*
Y041518D01*
X048826D01*
Y041358D01*
X048666D01*
X048706Y041398D02*
Y041478D01*
X048786D01*
Y041398D01*
X048706D01*
X047866Y041358D02*
Y041518D01*
X048026D01*
Y041358D01*
X047866D01*
X047906Y041398D02*
Y041478D01*
X047986D01*
Y041398D01*
X047906D01*
X030671Y045108D02*
X030591Y045268D01*
X030751D01*
X030671Y045108D01*
Y045148D02*
X030631Y045228D01*
X030711D01*
X030671Y045148D01*
X053521Y045108D02*
X053441Y045268D01*
X053601D01*
X053521Y045108D01*
Y045148D02*
X053481Y045228D01*
X053561D01*
X053521Y045148D01*
X046766Y042358D02*
Y042518D01*
X046926D01*
Y042358D01*
X046766D01*
X046806Y042398D02*
Y042478D01*
X046886D01*
Y042398D01*
X046806D01*
X045966Y042358D02*
Y042518D01*
X046126D01*
Y042358D01*
X045966D01*
X046006Y042398D02*
Y042478D01*
X046086D01*
Y042398D01*
X046006D01*
X045166Y042358D02*
Y042518D01*
X045326D01*
Y042358D01*
X045166D01*
X045206Y042398D02*
Y042478D01*
X045286D01*
Y042398D01*
X045206D01*
X044366Y042358D02*
Y042518D01*
X044526D01*
Y042358D01*
X044366D01*
X044406Y042398D02*
Y042478D01*
X044486D01*
Y042398D01*
X044406D01*
X043566Y042358D02*
Y042518D01*
X043726D01*
Y042358D01*
X043566D01*
X043606Y042398D02*
Y042478D01*
X043686D01*
Y042398D01*
X043606D01*
X042766Y042358D02*
Y042518D01*
X042926D01*
Y042358D01*
X042766D01*
X042806Y042398D02*
Y042478D01*
X042886D01*
Y042398D01*
X042806D01*
X052266Y042358D02*
Y042518D01*
X052426D01*
Y042358D01*
X052266D01*
X052306Y042398D02*
Y042478D01*
X052386D01*
Y042398D01*
X052306D01*
X051466Y042358D02*
Y042518D01*
X051626D01*
Y042358D01*
X051466D01*
X051506Y042398D02*
Y042478D01*
X051586D01*
Y042398D01*
X051506D01*
X050666Y042358D02*
Y042518D01*
X050826D01*
Y042358D01*
X050666D01*
X050706Y042398D02*
Y042478D01*
X050786D01*
Y042398D01*
X050706D01*
X049866Y042358D02*
Y042518D01*
X050026D01*
Y042358D01*
X049866D01*
X049906Y042398D02*
Y042478D01*
X049986D01*
Y042398D01*
X049906D01*
X049066Y042358D02*
Y042518D01*
X049226D01*
Y042358D01*
X049066D01*
X049106Y042398D02*
Y042478D01*
X049186D01*
Y042398D01*
X049106D01*
X048266Y042358D02*
Y042518D01*
X048426D01*
Y042358D01*
X048266D01*
X048306Y042398D02*
Y042478D01*
X048386D01*
Y042398D01*
X048306D01*
X053521Y049608D02*
X053441Y049768D01*
X053601D01*
X053521Y049608D01*
Y049648D02*
X053481Y049728D01*
X053561D01*
X053521Y049648D01*
X030671Y049608D02*
X030591Y049768D01*
X030751D01*
X030671Y049608D01*
Y049648D02*
X030631Y049728D01*
X030711D01*
X030671Y049648D01*
X052846Y048358D02*
X052886Y048398D01*
X052926D01*
X052886Y048438D01*
X052926Y048478D01*
X052886D01*
X052846Y048518D01*
X052806Y048478D01*
X052766D01*
X052806Y048438D01*
X052766Y048398D01*
X052806D01*
X052846Y048358D01*
Y048398D02*
X052866Y048418D01*
X052886D01*
X052866Y048438D01*
X052886Y048458D01*
X052866D01*
X052846Y048478D01*
X052826Y048458D01*
X052806D01*
X052826Y048438D01*
X052806Y048418D01*
X052826D01*
X052846Y048398D01*
X031346Y048358D02*
X031386Y048398D01*
X031426D01*
X031386Y048438D01*
X031426Y048478D01*
X031386D01*
X031346Y048518D01*
X031306Y048478D01*
X031266D01*
X031306Y048438D01*
X031266Y048398D01*
X031306D01*
X031346Y048358D01*
Y048398D02*
X031366Y048418D01*
X031386D01*
X031366Y048438D01*
X031386Y048458D01*
X031366D01*
X031346Y048478D01*
X031326Y048458D01*
X031306D01*
X031326Y048438D01*
X031306Y048418D01*
X031326D01*
X031346Y048398D01*
X055187Y042324D02*
X055267Y042404D01*
X055347Y042324D01*
X055267Y042244D01*
X055187Y042324D01*
Y041324D02*
X055267Y041404D01*
X055347Y041324D01*
X055267Y041244D01*
X055187Y041324D01*
Y040324D02*
X055267Y040404D01*
X055347Y040324D01*
X055267Y040244D01*
X055187Y040324D01*
Y043324D02*
X055267Y043404D01*
X055347Y043324D01*
X055267Y043244D01*
X055187Y043324D01*
X049223Y033614D02*
X049263Y033694D01*
X049223Y033774D01*
X049303Y033734D01*
X049383Y033774D01*
X049343Y033694D01*
X049383Y033614D01*
X049303Y033654D01*
X049223Y033614D01*
X049263Y033654D02*
X049283Y033694D01*
X049263Y033734D01*
X049303Y033714D01*
X049343Y033734D01*
X049323Y033694D01*
X049343Y033654D01*
X049303Y033674D01*
X049263Y033654D01*
X048223Y034114D02*
X048263Y034194D01*
X048223Y034274D01*
X048303Y034234D01*
X048383Y034274D01*
X048343Y034194D01*
X048383Y034114D01*
X048303Y034154D01*
X048223Y034114D01*
X048263Y034154D02*
X048283Y034194D01*
X048263Y034234D01*
X048303Y034214D01*
X048343Y034234D01*
X048323Y034194D01*
X048343Y034154D01*
X048303Y034174D01*
X048263Y034154D01*
X049223Y034614D02*
X049263Y034694D01*
X049223Y034774D01*
X049303Y034734D01*
X049383Y034774D01*
X049343Y034694D01*
X049383Y034614D01*
X049303Y034654D01*
X049223Y034614D01*
X049263Y034654D02*
X049283Y034694D01*
X049263Y034734D01*
X049303Y034714D01*
X049343Y034734D01*
X049323Y034694D01*
X049343Y034654D01*
X049303Y034674D01*
X049263Y034654D01*
X048223Y035114D02*
X048263Y035194D01*
X048223Y035274D01*
X048303Y035234D01*
X048383Y035274D01*
X048343Y035194D01*
X048383Y035114D01*
X048303Y035154D01*
X048223Y035114D01*
X048263Y035154D02*
X048283Y035194D01*
X048263Y035234D01*
X048303Y035214D01*
X048343Y035234D01*
X048323Y035194D01*
X048343Y035154D01*
X048303Y035174D01*
X048263Y035154D01*
X049223Y035614D02*
X049263Y035694D01*
X049223Y035774D01*
X049303Y035734D01*
X049383Y035774D01*
X049343Y035694D01*
X049383Y035614D01*
X049303Y035654D01*
X049223Y035614D01*
X049263Y035654D02*
X049283Y035694D01*
X049263Y035734D01*
X049303Y035714D01*
X049343Y035734D01*
X049323Y035694D01*
X049343Y035654D01*
X049303Y035674D01*
X049263Y035654D01*
X048223Y036114D02*
X048263Y036194D01*
X048223Y036274D01*
X048303Y036234D01*
X048383Y036274D01*
X048343Y036194D01*
X048383Y036114D01*
X048303Y036154D01*
X048223Y036114D01*
X048263Y036154D02*
X048283Y036194D01*
X048263Y036234D01*
X048303Y036214D01*
X048343Y036234D01*
X048323Y036194D01*
X048343Y036154D01*
X048303Y036174D01*
X048263Y036154D01*
X049223Y036614D02*
X049263Y036694D01*
X049223Y036774D01*
X049303Y036734D01*
X049383Y036774D01*
X049343Y036694D01*
X049383Y036614D01*
X049303Y036654D01*
X049223Y036614D01*
X049263Y036654D02*
X049283Y036694D01*
X049263Y036734D01*
X049303Y036714D01*
X049343Y036734D01*
X049323Y036694D01*
X049343Y036654D01*
X049303Y036674D01*
X049263Y036654D01*
X048223Y037114D02*
X048263Y037194D01*
X048223Y037274D01*
X048303Y037234D01*
X048383Y037274D01*
X048343Y037194D01*
X048383Y037114D01*
X048303Y037154D01*
X048223Y037114D01*
X048263Y037154D02*
X048283Y037194D01*
X048263Y037234D01*
X048303Y037214D01*
X048343Y037234D01*
X048323Y037194D01*
X048343Y037154D01*
X048303Y037174D01*
X048263Y037154D01*
X049223Y037614D02*
X049263Y037694D01*
X049223Y037774D01*
X049303Y037734D01*
X049383Y037774D01*
X049343Y037694D01*
X049383Y037614D01*
X049303Y037654D01*
X049223Y037614D01*
X049263Y037654D02*
X049283Y037694D01*
X049263Y037734D01*
X049303Y037714D01*
X049343Y037734D01*
X049323Y037694D01*
X049343Y037654D01*
X049303Y037674D01*
X049263Y037654D01*
X051803Y033118D02*
X051843Y033158D01*
X051883D01*
X051843Y033198D01*
X051883Y033238D01*
X051843D01*
X051803Y033278D01*
X051763Y033238D01*
X051723D01*
X051763Y033198D01*
X051723Y033158D01*
X051763D01*
X051803Y033118D01*
Y033158D02*
X051823Y033178D01*
X051843D01*
X051823Y033198D01*
X051843Y033218D01*
X051823D01*
X051803Y033238D01*
X051783Y033218D01*
X051763D01*
X051783Y033198D01*
X051763Y033178D01*
X051783D01*
X051803Y033158D01*
Y03761D02*
X051843Y03765D01*
X051883D01*
X051843Y03769D01*
X051883Y03773D01*
X051843D01*
X051803Y03777D01*
X051763Y03773D01*
X051723D01*
X051763Y03769D01*
X051723Y03765D01*
X051763D01*
X051803Y03761D01*
Y03765D02*
X051823Y03767D01*
X051843D01*
X051823Y03769D01*
X051843Y03771D01*
X051823D01*
X051803Y03773D01*
X051783Y03771D01*
X051763D01*
X051783Y03769D01*
X051763Y03767D01*
X051783D01*
X051803Y03765D01*
X050562Y032314D02*
Y032274D01*
X050642D01*
Y032314D01*
X050682D01*
Y032394D01*
X050642D01*
Y032434D01*
X050562D01*
Y032394D01*
X050522D01*
Y032314D01*
X050562D01*
X050582Y032334D02*
Y032314D01*
X050622D01*
Y032334D01*
X050642D01*
Y032374D01*
X050622D01*
Y032394D01*
X050582D01*
Y032374D01*
X050562D01*
Y032334D01*
X050582D01*
X050562Y038495D02*
Y038455D01*
X050642D01*
Y038495D01*
X050682D01*
Y038575D01*
X050642D01*
Y038615D01*
X050562D01*
Y038575D01*
X050522D01*
Y038495D01*
X050562D01*
X050582Y038515D02*
Y038495D01*
X050622D01*
Y038515D01*
X050642D01*
Y038555D01*
X050622D01*
Y038575D01*
X050582D01*
Y038555D01*
X050562D01*
Y038515D01*
X050582D01*
X053323Y032798D02*
X053363Y032878D01*
X053323Y032958D01*
X053403Y032918D01*
X053483Y032958D01*
X053443Y032878D01*
X053483Y032798D01*
X053403Y032838D01*
X053323Y032798D01*
X053363Y032838D02*
X053383Y032878D01*
X053363Y032918D01*
X053403Y032898D01*
X053443Y032918D01*
X053423Y032878D01*
X053443Y032838D01*
X053403Y032858D01*
X053363Y032838D01*
X053323Y033798D02*
X053363Y033878D01*
X053323Y033958D01*
X053403Y033918D01*
X053483Y033958D01*
X053443Y033878D01*
X053483Y033798D01*
X053403Y033838D01*
X053323Y033798D01*
X053363Y033838D02*
X053383Y033878D01*
X053363Y033918D01*
X053403Y033898D01*
X053443Y033918D01*
X053423Y033878D01*
X053443Y033838D01*
X053403Y033858D01*
X053363Y033838D01*
X053323Y037028D02*
X053363Y037108D01*
X053323Y037188D01*
X053403Y037148D01*
X053483Y037188D01*
X053443Y037108D01*
X053483Y037028D01*
X053403Y037068D01*
X053323Y037028D01*
X053363Y037068D02*
X053383Y037108D01*
X053363Y037148D01*
X053403Y037128D01*
X053443Y037148D01*
X053423Y037108D01*
X053443Y037068D01*
X053403Y037088D01*
X053363Y037068D01*
X053323Y038028D02*
X053363Y038108D01*
X053323Y038188D01*
X053403Y038148D01*
X053483Y038188D01*
X053443Y038108D01*
X053483Y038028D01*
X053403Y038068D01*
X053323Y038028D01*
X053363Y038068D02*
X053383Y038108D01*
X053363Y038148D01*
X053403Y038128D01*
X053443Y038148D01*
X053423Y038108D01*
X053443Y038068D01*
X053403Y038088D01*
X053363Y038068D01*
X048223Y033114D02*
X048263Y033194D01*
X048223Y033274D01*
X048303Y033234D01*
X048383Y033274D01*
X048343Y033194D01*
X048383Y033114D01*
X048303Y033154D01*
X048223Y033114D01*
X048263Y033154D02*
X048283Y033194D01*
X048263Y033234D01*
X048303Y033214D01*
X048343Y033234D01*
X048323Y033194D01*
X048343Y033154D01*
X048303Y033174D01*
X048263Y033154D01*
X054196Y018403D02*
X054236D01*
X054276Y018443D01*
X054316Y018403D01*
X054356D01*
Y018443D01*
X054316Y018483D01*
X054356Y018523D01*
Y018563D01*
X054316D01*
X054276Y018523D01*
X054236Y018563D01*
X054196D01*
Y018523D01*
X054236Y018483D01*
X054196Y018443D01*
Y018403D01*
X054236Y018443D02*
X054256D01*
X054276Y018463D01*
X054296Y018443D01*
X054316D01*
Y018463D01*
X054296Y018483D01*
X054316Y018503D01*
Y018523D01*
X054296D01*
X054276Y018503D01*
X054256Y018523D01*
X054236D01*
Y018503D01*
X054256Y018483D01*
X054236Y018463D01*
Y018443D01*
X053802Y018403D02*
X053842D01*
X053882Y018443D01*
X053922Y018403D01*
X053962D01*
Y018443D01*
X053922Y018483D01*
X053962Y018523D01*
Y018563D01*
X053922D01*
X053882Y018523D01*
X053842Y018563D01*
X053802D01*
Y018523D01*
X053842Y018483D01*
X053802Y018443D01*
Y018403D01*
X053842Y018443D02*
X053862D01*
X053882Y018463D01*
X053902Y018443D01*
X053922D01*
Y018463D01*
X053902Y018483D01*
X053922Y018503D01*
Y018523D01*
X053902D01*
X053882Y018503D01*
X053862Y018523D01*
X053842D01*
Y018503D01*
X053862Y018483D01*
X053842Y018463D01*
Y018443D01*
X053802Y018009D02*
X053842D01*
X053882Y018049D01*
X053922Y018009D01*
X053962D01*
Y018049D01*
X053922Y018089D01*
X053962Y018129D01*
Y018169D01*
X053922D01*
X053882Y018129D01*
X053842Y018169D01*
X053802D01*
Y018129D01*
X053842Y018089D01*
X053802Y018049D01*
Y018009D01*
X053842Y018049D02*
X053862D01*
X053882Y018069D01*
X053902Y018049D01*
X053922D01*
Y018069D01*
X053902Y018089D01*
X053922Y018109D01*
Y018129D01*
X053902D01*
X053882Y018109D01*
X053862Y018129D01*
X053842D01*
Y018109D01*
X053862Y018089D01*
X053842Y018069D01*
Y018049D01*
X054196Y018009D02*
X054236D01*
X054276Y018049D01*
X054316Y018009D01*
X054356D01*
Y018049D01*
X054316Y018089D01*
X054356Y018129D01*
Y018169D01*
X054316D01*
X054276Y018129D01*
X054236Y018169D01*
X054196D01*
Y018129D01*
X054236Y018089D01*
X054196Y018049D01*
Y018009D01*
X054236Y018049D02*
X054256D01*
X054276Y018069D01*
X054296Y018049D01*
X054316D01*
Y018069D01*
X054296Y018089D01*
X054316Y018109D01*
Y018129D01*
X054296D01*
X054276Y018109D01*
X054256Y018129D01*
X054236D01*
Y018109D01*
X054256Y018089D01*
X054236Y018069D01*
Y018049D01*
X023977Y04761D02*
X024017D01*
X024057Y04765D01*
X024097Y04761D01*
X024137D01*
Y04765D01*
X024097Y04769D01*
X024137Y04773D01*
Y04777D01*
X024097D01*
X024057Y04773D01*
X024017Y04777D01*
X023977D01*
Y04773D01*
X024017Y04769D01*
X023977Y04765D01*
Y04761D01*
X033796Y020119D02*
X033836D01*
X033876Y020159D01*
X033916Y020119D01*
X033956D01*
Y020159D01*
X033916Y020199D01*
X033956Y020239D01*
Y020279D01*
X033916D01*
X033876Y020239D01*
X033836Y020279D01*
X033796D01*
Y020239D01*
X033836Y020199D01*
X033796Y020159D01*
Y020119D01*
X033836Y020159D02*
X033856D01*
X033876Y020179D01*
X033896Y020159D01*
X033916D01*
Y020179D01*
X033896Y020199D01*
X033916Y020219D01*
Y020239D01*
X033896D01*
X033876Y020219D01*
X033856Y020239D01*
X033836D01*
Y020219D01*
X033856Y020199D01*
X033836Y020179D01*
Y020159D01*
X033402Y020119D02*
X033442D01*
X033482Y020159D01*
X033522Y020119D01*
X033562D01*
Y020159D01*
X033522Y020199D01*
X033562Y020239D01*
Y020279D01*
X033522D01*
X033482Y020239D01*
X033442Y020279D01*
X033402D01*
Y020239D01*
X033442Y020199D01*
X033402Y020159D01*
Y020119D01*
X033442Y020159D02*
X033462D01*
X033482Y020179D01*
X033502Y020159D01*
X033522D01*
Y020179D01*
X033502Y020199D01*
X033522Y020219D01*
Y020239D01*
X033502D01*
X033482Y020219D01*
X033462Y020239D01*
X033442D01*
Y020219D01*
X033462Y020199D01*
X033442Y020179D01*
Y020159D01*
X033402Y019725D02*
X033442D01*
X033482Y019765D01*
X033522Y019725D01*
X033562D01*
Y019765D01*
X033522Y019805D01*
X033562Y019845D01*
Y019885D01*
X033522D01*
X033482Y019845D01*
X033442Y019885D01*
X033402D01*
Y019845D01*
X033442Y019805D01*
X033402Y019765D01*
Y019725D01*
X033442Y019765D02*
X033462D01*
X033482Y019785D01*
X033502Y019765D01*
X033522D01*
Y019785D01*
X033502Y019805D01*
X033522Y019825D01*
Y019845D01*
X033502D01*
X033482Y019825D01*
X033462Y019845D01*
X033442D01*
Y019825D01*
X033462Y019805D01*
X033442Y019785D01*
Y019765D01*
X033796Y019725D02*
X033836D01*
X033876Y019765D01*
X033916Y019725D01*
X033956D01*
Y019765D01*
X033916Y019805D01*
X033956Y019845D01*
Y019885D01*
X033916D01*
X033876Y019845D01*
X033836Y019885D01*
X033796D01*
Y019845D01*
X033836Y019805D01*
X033796Y019765D01*
Y019725D01*
X033836Y019765D02*
X033856D01*
X033876Y019785D01*
X033896Y019765D01*
X033916D01*
Y019785D01*
X033896Y019805D01*
X033916Y019825D01*
Y019845D01*
X033896D01*
X033876Y019825D01*
X033856Y019845D01*
X033836D01*
Y019825D01*
X033856Y019805D01*
X033836Y019785D01*
Y019765D01*
X022009Y04761D02*
X022049D01*
X022089Y04765D01*
X022129Y04761D01*
X022169D01*
Y04765D01*
X022129Y04769D01*
X022169Y04773D01*
Y04777D01*
X022129D01*
X022089Y04773D01*
X022049Y04777D01*
X022009D01*
Y04773D01*
X022049Y04769D01*
X022009Y04765D01*
Y04761D01*
X025198Y051587D02*
Y051547D01*
X025278D01*
Y051587D01*
X025318D01*
Y051667D01*
X025278D01*
Y051707D01*
X025198D01*
Y051667D01*
X025158D01*
Y051587D01*
X025198D01*
X020868D02*
Y051547D01*
X020948D01*
Y051587D01*
X020988D01*
Y051667D01*
X020948D01*
Y051707D01*
X020868D01*
Y051667D01*
X020828D01*
Y051587D01*
X020868D01*
X013857Y051731D02*
X013897Y051811D01*
X013857Y051891D01*
X013937Y051851D01*
X014017Y051891D01*
X013977Y051811D01*
X014017Y051731D01*
X013937Y051771D01*
X013857Y051731D01*
X055196D02*
X055236Y051811D01*
X055196Y051891D01*
X055276Y051851D01*
X055356Y051891D01*
X055316Y051811D01*
X055356Y051731D01*
X055276Y051771D01*
X055196Y051731D01*
X013857Y010589D02*
X013897Y010669D01*
X013857Y010749D01*
X013937Y010709D01*
X014017Y010749D01*
X013977Y010669D01*
X014017Y010589D01*
X013937Y010629D01*
X013857Y010589D01*
X038528Y038407D02*
Y03854D01*
X038595Y038607D01*
X038661Y03854D01*
Y038407D01*
Y038507D01*
X038528D01*
X038647Y038202D02*
Y038335D01*
X038713Y038401D01*
X03878Y038335D01*
Y038202D01*
Y038301D01*
X038647D01*
X039618Y0373D02*
Y037434D01*
X039684Y0375D01*
X039751Y037434D01*
Y0373D01*
Y0374D01*
X039618D01*
X039186Y031729D02*
Y031862D01*
X039252Y031929D01*
X039319Y031862D01*
Y031729D01*
Y031829D01*
X039186D01*
X041539Y032026D02*
Y03216D01*
X041605Y032226D01*
X041672Y03216D01*
Y032026D01*
Y032126D01*
X041539D01*
X041749Y031917D02*
Y032051D01*
X041816Y032117D01*
X041883Y032051D01*
Y031917D01*
Y032017D01*
X041749D01*
X018756Y033239D02*
Y033372D01*
X018822Y033439D01*
X018889Y033372D01*
Y033239D01*
Y033339D01*
X018756D01*
X053866Y021939D02*
Y022072D01*
X053932Y022139D01*
X053999Y022072D01*
Y021939D01*
Y022039D01*
X053866D01*
X056106Y020179D02*
Y020312D01*
X056172Y020379D01*
X056239Y020312D01*
Y020179D01*
Y020279D01*
X056106D01*
X056096Y021279D02*
Y021412D01*
X056162Y021479D01*
X056229Y021412D01*
Y021279D01*
Y021379D01*
X056096D01*
X054576Y021279D02*
Y021412D01*
X054642Y021479D01*
X054709Y021412D01*
Y021279D01*
Y021379D01*
X054576D01*
X020116Y021419D02*
Y021552D01*
X020182Y021619D01*
X020249Y021552D01*
Y021419D01*
Y021519D01*
X020116D01*
X013636Y038319D02*
Y038452D01*
X013702Y038519D01*
X013769Y038452D01*
Y038319D01*
Y038419D01*
X013636D01*
X013206Y039659D02*
Y039792D01*
X013272Y039859D01*
X013339Y039792D01*
Y039659D01*
Y039759D01*
X013206D01*
X016106Y042019D02*
Y042152D01*
X016172Y042219D01*
X016239Y042152D01*
Y042019D01*
Y042119D01*
X016106D01*
X015346Y044549D02*
Y044682D01*
X015412Y044749D01*
X015479Y044682D01*
Y044549D01*
Y044649D01*
X015346D01*
X015936Y043129D02*
Y043262D01*
X016002Y043329D01*
X016069Y043262D01*
Y043129D01*
Y043229D01*
X015936D01*
X013236Y049469D02*
Y049602D01*
X013302Y049669D01*
X013369Y049602D01*
Y049469D01*
Y049569D01*
X013236D01*
X016606Y046809D02*
Y046942D01*
X016672Y047009D01*
X016739Y046942D01*
Y046809D01*
Y046909D01*
X016606D01*
X026316Y032949D02*
Y033082D01*
X026382Y033149D01*
X026449Y033082D01*
Y032949D01*
Y033049D01*
X026316D01*
X024856Y032499D02*
Y032632D01*
X024922Y032699D01*
X024989Y032632D01*
Y032499D01*
Y032599D01*
X024856D01*
X023226Y029799D02*
Y029932D01*
X023292Y029999D01*
X023359Y029932D01*
Y029799D01*
Y029899D01*
X023226D01*
X024716Y030899D02*
Y031032D01*
X024782Y031099D01*
X024849Y031032D01*
Y030899D01*
Y030999D01*
X024716D01*
X024646Y029919D02*
Y030052D01*
X024712Y030119D01*
X024779Y030052D01*
Y029919D01*
Y030019D01*
X024646D01*
X035656Y035139D02*
Y035272D01*
X035722Y035339D01*
X035789Y035272D01*
Y035139D01*
Y035239D01*
X035656D01*
X035396Y035259D02*
Y035392D01*
X035462Y035459D01*
X035529Y035392D01*
Y035259D01*
Y035359D01*
X035396D01*
X030506Y028679D02*
Y028812D01*
X030572Y028879D01*
X030639Y028812D01*
Y028679D01*
Y028779D01*
X030506D01*
X039336Y038359D02*
Y038492D01*
X039402Y038559D01*
X039469Y038492D01*
Y038359D01*
Y038459D01*
X039336D01*
X039528Y038498D02*
Y038631D01*
X039595Y038698D01*
X039661Y038631D01*
Y038498D01*
Y038598D01*
X039528D01*
X042659Y033817D02*
Y03395D01*
X042725Y034017D01*
X042792Y03395D01*
Y033817D01*
Y033917D01*
X042659D01*
X042256Y029089D02*
X042296D01*
X042336Y029129D01*
X042376Y029089D01*
X042416D01*
Y029129D01*
X042376Y029169D01*
X042416Y029209D01*
Y029249D01*
X042376D01*
X042336Y029209D01*
X042296Y029249D01*
X042256D01*
Y029209D01*
X042296Y029169D01*
X042256Y029129D01*
Y029089D01*
X042296Y029129D02*
X042316D01*
X042336Y029149D01*
X042356Y029129D01*
X042376D01*
Y029149D01*
X042356Y029169D01*
X042376Y029189D01*
Y029209D01*
X042356D01*
X042336Y029189D01*
X042316Y029209D01*
X042296D01*
Y029189D01*
X042316Y029169D01*
X042296Y029149D01*
Y029129D01*
X041975Y027446D02*
Y027579D01*
X042042Y027646D01*
X042109Y027579D01*
Y027446D01*
Y027546D01*
X041975D01*
X041255Y029052D02*
Y029185D01*
X041322Y029252D01*
X041389Y029185D01*
Y029052D01*
Y029152D01*
X041255D01*
X041456Y029199D02*
Y029332D01*
X041522Y029399D01*
X041589Y029332D01*
Y029199D01*
Y029299D01*
X041456D01*
X041341Y030718D02*
Y030851D01*
X041408Y030918D01*
X041475Y030851D01*
Y030718D01*
Y030818D01*
X041341D01*
X043076Y030129D02*
Y030262D01*
X043142Y030329D01*
X043209Y030262D01*
Y030129D01*
Y030229D01*
X043076D01*
X043337Y029835D02*
X043377D01*
X043417Y029875D01*
X043457Y029835D01*
X043497D01*
Y029875D01*
X043457Y029915D01*
X043497Y029955D01*
Y029995D01*
X043457D01*
X043417Y029955D01*
X043377Y029995D01*
X043337D01*
Y029955D01*
X043377Y029915D01*
X043337Y029875D01*
Y029835D01*
X043377Y029875D02*
X043397D01*
X043417Y029895D01*
X043437Y029875D01*
X043457D01*
Y029895D01*
X043437Y029915D01*
X043457Y029935D01*
Y029955D01*
X043437D01*
X043417Y029935D01*
X043397Y029955D01*
X043377D01*
Y029935D01*
X043397Y029915D01*
X043377Y029895D01*
Y029875D01*
X016146Y039379D02*
Y039512D01*
X016212Y039579D01*
X016279Y039512D01*
Y039379D01*
Y039479D01*
X016146D01*
X017276Y034419D02*
Y034552D01*
X017342Y034619D01*
X017409Y034552D01*
Y034419D01*
Y034519D01*
X017276D01*
X049636Y022039D02*
Y022172D01*
X049702Y022239D01*
X049769Y022172D01*
Y022039D01*
Y022139D01*
X049636D01*
X047576Y022729D02*
Y022862D01*
X047642Y022929D01*
X047709Y022862D01*
Y022729D01*
Y022829D01*
X047576D01*
X048796Y022899D02*
Y023032D01*
X048862Y023099D01*
X048929Y023032D01*
Y022899D01*
Y022999D01*
X048796D01*
X033926Y018439D02*
Y018572D01*
X033992Y018639D01*
X034059Y018572D01*
Y018439D01*
Y018539D01*
X033926D01*
X027246Y020669D02*
Y020802D01*
X027312Y020869D01*
X027379Y020802D01*
Y020669D01*
Y020769D01*
X027246D01*
X029346Y021409D02*
Y021542D01*
X029412Y021609D01*
X029479Y021542D01*
Y021409D01*
Y021509D01*
X029346D01*
X034506Y021869D02*
Y022002D01*
X034572Y022069D01*
X034639Y022002D01*
Y021869D01*
Y021969D01*
X034506D01*
X038276Y023979D02*
Y024112D01*
X038342Y024179D01*
X038409Y024112D01*
Y023979D01*
Y024079D01*
X038276D01*
X038836Y023839D02*
Y023972D01*
X038902Y024039D01*
X038969Y023972D01*
Y023839D01*
Y023939D01*
X038836D01*
X042186Y023229D02*
Y023362D01*
X042252Y023429D01*
X042319Y023362D01*
Y023229D01*
Y023329D01*
X042186D01*
X042226Y025089D02*
Y025222D01*
X042292Y025289D01*
X042359Y025222D01*
Y025089D01*
Y025189D01*
X042226D01*
X041186Y024949D02*
Y025082D01*
X041252Y025149D01*
X041319Y025082D01*
Y024949D01*
Y025049D01*
X041186D01*
X043506Y026329D02*
Y026462D01*
X043572Y026529D01*
X043639Y026462D01*
Y026329D01*
Y026429D01*
X043506D01*
X040566Y029879D02*
Y030012D01*
X040632Y030079D01*
X040699Y030012D01*
Y029879D01*
Y029979D01*
X040566D01*
X042306Y030759D02*
Y030892D01*
X042372Y030959D01*
X042439Y030892D01*
Y030759D01*
Y030859D01*
X042306D01*
X041806Y030769D02*
Y030902D01*
X041872Y030969D01*
X041939Y030902D01*
Y030769D01*
Y030869D01*
X041806D01*
X043396Y034289D02*
Y034422D01*
X043462Y034489D01*
X043529Y034422D01*
Y034289D01*
Y034389D01*
X043396D01*
X042196Y036659D02*
Y036792D01*
X042262Y036859D01*
X042329Y036792D01*
Y036659D01*
Y036759D01*
X042196D01*
X037206Y036919D02*
Y037052D01*
X037272Y037119D01*
X037339Y037052D01*
Y036919D01*
Y037019D01*
X037206D01*
X050666Y044329D02*
Y044462D01*
X050732Y044529D01*
X050799Y044462D01*
Y044329D01*
Y044429D01*
X050666D01*
X050256Y044329D02*
Y044462D01*
X050322Y044529D01*
X050389Y044462D01*
Y044329D01*
Y044429D01*
X050256D01*
X048316Y044319D02*
Y044452D01*
X048382Y044519D01*
X048449Y044452D01*
Y044319D01*
Y044419D01*
X048316D01*
X047886Y044319D02*
Y044452D01*
X047952Y044519D01*
X048019Y044452D01*
Y044319D01*
Y044419D01*
X047886D01*
X047306Y044309D02*
Y044442D01*
X047372Y044509D01*
X047439Y044442D01*
Y044309D01*
Y044409D01*
X047306D01*
X046896Y044319D02*
Y044452D01*
X046962Y044519D01*
X047029Y044452D01*
Y044319D01*
Y044419D01*
X046896D01*
X042816Y044319D02*
Y044452D01*
X042882Y044519D01*
X042949Y044452D01*
Y044319D01*
Y044419D01*
X042816D01*
X042406Y044319D02*
Y044452D01*
X042472Y044519D01*
X042539Y044452D01*
Y044319D01*
Y044419D01*
X042406D01*
X041656Y044319D02*
Y044452D01*
X041722Y044519D01*
X041789Y044452D01*
Y044319D01*
Y044419D01*
X041656D01*
X041256Y044329D02*
Y044462D01*
X041322Y044529D01*
X041389Y044462D01*
Y044329D01*
Y044429D01*
X041256D01*
X037476Y044309D02*
Y044442D01*
X037542Y044509D01*
X037609Y044442D01*
Y044309D01*
Y044409D01*
X037476D01*
X037036Y044319D02*
Y044452D01*
X037102Y044519D01*
X037169Y044452D01*
Y044319D01*
Y044419D01*
X037036D01*
X036356Y044329D02*
Y044462D01*
X036422Y044529D01*
X036489Y044462D01*
Y044329D01*
Y044429D01*
X036356D01*
X035936Y044339D02*
Y044472D01*
X036002Y044539D01*
X036069Y044472D01*
Y044339D01*
Y044439D01*
X035936D01*
X033906Y044359D02*
Y044492D01*
X033972Y044559D01*
X034039Y044492D01*
Y044359D01*
Y044459D01*
X033906D01*
X033516Y044349D02*
Y044482D01*
X033582Y044549D01*
X033649Y044482D01*
Y044349D01*
Y044449D01*
X033516D01*
X037752Y033196D02*
Y033329D01*
X037819Y033396D01*
X037885Y033329D01*
Y033196D01*
Y033296D01*
X037752D01*
X038086Y033299D02*
Y033432D01*
X038152Y033499D01*
X038219Y033432D01*
Y033299D01*
Y033399D01*
X038086D01*
X038096Y032449D02*
Y032582D01*
X038162Y032649D01*
X038229Y032582D01*
Y032449D01*
Y032549D01*
X038096D01*
X037146Y030899D02*
Y031032D01*
X037212Y031099D01*
X037279Y031032D01*
Y030899D01*
Y030999D01*
X037146D01*
X039886Y031829D02*
Y031962D01*
X039952Y032029D01*
X040019Y031962D01*
Y031829D01*
Y031929D01*
X039886D01*
X040226Y032008D02*
Y032142D01*
X040293Y032208D01*
X040359Y032142D01*
Y032008D01*
Y032108D01*
X040226D01*
X038147Y03137D02*
Y031504D01*
X038214Y03157D01*
X03828Y031504D01*
Y03137D01*
Y03147D01*
X038147D01*
X037806Y030731D02*
Y030864D01*
X037872Y03093D01*
X037939Y030864D01*
Y030731D01*
Y030831D01*
X037806D01*
X038636Y031529D02*
Y031662D01*
X038702Y031729D01*
X038769Y031662D01*
Y031529D01*
Y031629D01*
X038636D01*
X039686Y031183D02*
Y031317D01*
X039752Y031383D01*
X039819Y031317D01*
Y031183D01*
Y031283D01*
X039686D01*
X028716Y051139D02*
Y051272D01*
X028782Y051339D01*
X028849Y051272D01*
Y051139D01*
Y051239D01*
X028716D01*
X026796Y051159D02*
Y051292D01*
X026862Y051359D01*
X026929Y051292D01*
Y051159D01*
Y051259D01*
X026796D01*
X024756Y050989D02*
Y051122D01*
X024822Y051189D01*
X024889Y051122D01*
Y050989D01*
Y051089D01*
X024756D01*
X020116Y049719D02*
Y049852D01*
X020182Y049919D01*
X020249Y049852D01*
Y049719D01*
Y049819D01*
X020116D01*
X055546Y044329D02*
Y044462D01*
X055612Y044529D01*
X055679Y044462D01*
Y044329D01*
Y044429D01*
X055546D01*
X035856Y036579D02*
Y036712D01*
X035922Y036779D01*
X035989Y036712D01*
Y036579D01*
Y036679D01*
X035856D01*
X037716Y038199D02*
Y038332D01*
X037782Y038399D01*
X037849Y038332D01*
Y038199D01*
Y038299D01*
X037716D01*
X041256Y037959D02*
Y038092D01*
X041322Y038159D01*
X041389Y038092D01*
Y037959D01*
Y038059D01*
X041256D01*
X043046Y037919D02*
Y038052D01*
X043112Y038119D01*
X043179Y038052D01*
Y037919D01*
Y038019D01*
X043046D01*
X043516Y037249D02*
Y037382D01*
X043582Y037449D01*
X043649Y037382D01*
Y037249D01*
Y037349D01*
X043516D01*
X042586Y036779D02*
Y036912D01*
X042652Y036979D01*
X042719Y036912D01*
Y036779D01*
Y036879D01*
X042586D01*
X042266Y035609D02*
Y035742D01*
X042332Y035809D01*
X042399Y035742D01*
Y035609D01*
Y035709D01*
X042266D01*
X043096Y034939D02*
Y035072D01*
X043162Y035139D01*
X043229Y035072D01*
Y034939D01*
Y035039D01*
X043096D01*
X044386Y034399D02*
Y034532D01*
X044452Y034599D01*
X044519Y034532D01*
Y034399D01*
Y034499D01*
X044386D01*
X045986Y033889D02*
Y034022D01*
X046052Y034089D01*
X046119Y034022D01*
Y033889D01*
Y033989D01*
X045986D01*
X049706Y031559D02*
Y031692D01*
X049772Y031759D01*
X049839Y031692D01*
Y031559D01*
Y031659D01*
X049706D01*
X050396Y031689D02*
Y031822D01*
X050462Y031889D01*
X050529Y031822D01*
Y031689D01*
Y031789D01*
X050396D01*
X049856Y031249D02*
Y031382D01*
X049922Y031449D01*
X049989Y031382D01*
Y031249D01*
Y031349D01*
X049856D01*
X050026Y031709D02*
Y031842D01*
X050092Y031909D01*
X050159Y031842D01*
Y031709D01*
Y031809D01*
X050026D01*
X029596Y025989D02*
Y026122D01*
X029662Y026189D01*
X029729Y026122D01*
Y025989D01*
Y026089D01*
X029596D01*
X036196Y031959D02*
Y032092D01*
X036262Y032159D01*
X036329Y032092D01*
Y031959D01*
Y032059D01*
X036196D01*
X035636Y030639D02*
Y030772D01*
X035702Y030839D01*
X035769Y030772D01*
Y030639D01*
Y030739D01*
X035636D01*
X036456Y026469D02*
Y026602D01*
X036522Y026669D01*
X036589Y026602D01*
Y026469D01*
Y026569D01*
X036456D01*
X041086Y026629D02*
Y026762D01*
X041152Y026829D01*
X041219Y026762D01*
Y026629D01*
Y026729D01*
X041086D01*
X040716Y026549D02*
Y026682D01*
X040782Y026749D01*
X040849Y026682D01*
Y026549D01*
Y026649D01*
X040716D01*
X039536Y027469D02*
Y027602D01*
X039602Y027669D01*
X039669Y027602D01*
Y027469D01*
Y027569D01*
X039536D01*
X036977Y026963D02*
Y027097D01*
X037044Y027163D01*
X03711Y027097D01*
Y026963D01*
Y027063D01*
X036977D01*
X037086Y027441D02*
Y027574D01*
X037152Y02764D01*
X037219Y027574D01*
Y027441D01*
Y027541D01*
X037086D01*
X039576Y028301D02*
Y028434D01*
X039642Y0285D01*
X039709Y028434D01*
Y028301D01*
Y028401D01*
X039576D01*
X0385Y028658D02*
Y028791D01*
X038567Y028858D01*
X038633Y028791D01*
Y028658D01*
Y028758D01*
X0385D01*
X038515Y028912D02*
Y029046D01*
X038582Y029112D01*
X038648Y029046D01*
Y028912D01*
Y029012D01*
X038515D01*
X039336Y030389D02*
Y030522D01*
X039402Y030589D01*
X039469Y030522D01*
Y030389D01*
Y030489D01*
X039336D01*
X040696Y031189D02*
Y031322D01*
X040762Y031389D01*
X040829Y031322D01*
Y031189D01*
Y031289D01*
X040696D01*
X044916Y030959D02*
Y031092D01*
X044982Y031159D01*
X045049Y031092D01*
Y030959D01*
Y031059D01*
X044916D01*
X045626Y032139D02*
Y032272D01*
X045692Y032339D01*
X045759Y032272D01*
Y032139D01*
Y032239D01*
X045626D01*
X044596Y032139D02*
Y032272D01*
X044662Y032339D01*
X044729Y032272D01*
Y032139D01*
Y032239D01*
X044596D01*
X047806Y029989D02*
Y030122D01*
X047872Y030189D01*
X047939Y030122D01*
Y029989D01*
Y030089D01*
X047806D01*
X047707Y030415D02*
Y030548D01*
X047774Y030615D01*
X04784Y030548D01*
Y030415D01*
Y030515D01*
X047707D01*
X051746Y024379D02*
Y024512D01*
X051812Y024579D01*
X051879Y024512D01*
Y024379D01*
Y024479D01*
X051746D01*
X052366Y024319D02*
Y024452D01*
X052432Y024519D01*
X052499Y024452D01*
Y024319D01*
Y024419D01*
X052366D01*
X045166Y022401D02*
Y022534D01*
X045232Y0226D01*
X045299Y022534D01*
Y022401D01*
Y022501D01*
X045166D01*
X050816Y022089D02*
Y022222D01*
X050882Y022289D01*
X050949Y022222D01*
Y022089D01*
Y022189D01*
X050816D01*
X051966Y022649D02*
Y022782D01*
X052032Y022849D01*
X052099Y022782D01*
Y022649D01*
Y022749D01*
X051966D01*
X051626Y022649D02*
Y022782D01*
X051692Y022849D01*
X051759Y022782D01*
Y022649D01*
Y022749D01*
X051626D01*
X051286Y022659D02*
Y022792D01*
X051352Y022859D01*
X051419Y022792D01*
Y022659D01*
Y022759D01*
X051286D01*
X052816Y022029D02*
Y022162D01*
X052882Y022229D01*
X052949Y022162D01*
Y022029D01*
Y022129D01*
X052816D01*
X053896Y023779D02*
Y023912D01*
X053962Y023979D01*
X054029Y023912D01*
Y023779D01*
Y023879D01*
X053896D01*
X053386Y024629D02*
Y024762D01*
X053452Y024829D01*
X053519Y024762D01*
Y024629D01*
Y024729D01*
X053386D01*
X052826Y024429D02*
Y024562D01*
X052892Y024629D01*
X052959Y024562D01*
Y024429D01*
Y024529D01*
X052826D01*
X053016Y026849D02*
Y026982D01*
X053082Y027049D01*
X053149Y026982D01*
Y026849D01*
Y026949D01*
X053016D01*
X050017Y02825D02*
Y028383D01*
X050084Y02845D01*
X050151Y028383D01*
Y02825D01*
Y02835D01*
X050017D01*
X047856Y027219D02*
Y027352D01*
X047922Y027419D01*
X047989Y027352D01*
Y027219D01*
Y027319D01*
X047856D01*
X046046Y026519D02*
Y026652D01*
X046112Y026719D01*
X046179Y026652D01*
Y026519D01*
Y026619D01*
X046046D01*
X043736Y025459D02*
Y025592D01*
X043802Y025659D01*
X043869Y025592D01*
Y025459D01*
Y025559D01*
X043736D01*
X045176Y023589D02*
Y023722D01*
X045242Y023789D01*
X045309Y023722D01*
Y023589D01*
Y023689D01*
X045176D01*
X045356Y025169D02*
Y025302D01*
X045422Y025369D01*
X045489Y025302D01*
Y025169D01*
Y025269D01*
X045356D01*
X04533Y026103D02*
Y026237D01*
X045396Y026303D01*
X045463Y026237D01*
Y026103D01*
Y026203D01*
X04533D01*
X046196Y025379D02*
Y025512D01*
X046262Y025579D01*
X046329Y025512D01*
Y025379D01*
Y025479D01*
X046196D01*
X040436Y023299D02*
Y023432D01*
X040502Y023499D01*
X040569Y023432D01*
Y023299D01*
Y023399D01*
X040436D01*
X039646Y022349D02*
Y022482D01*
X039712Y022549D01*
X039779Y022482D01*
Y022349D01*
Y022449D01*
X039646D01*
X040726Y022279D02*
Y022412D01*
X040792Y022479D01*
X040859Y022412D01*
Y022279D01*
Y022379D01*
X040726D01*
X041146Y022279D02*
Y022412D01*
X041212Y022479D01*
X041279Y022412D01*
Y022279D01*
Y022379D01*
X041146D01*
X036136Y020179D02*
Y020312D01*
X036202Y020379D01*
X036269Y020312D01*
Y020179D01*
Y020279D01*
X036136D01*
X036236Y019089D02*
Y019222D01*
X036302Y019289D01*
X036369Y019222D01*
Y019089D01*
Y019189D01*
X036236D01*
X039966Y019119D02*
Y019252D01*
X040032Y019319D01*
X040099Y019252D01*
Y019119D01*
Y019219D01*
X039966D01*
X039726Y018219D02*
Y018352D01*
X039792Y018419D01*
X039859Y018352D01*
Y018219D01*
Y018319D01*
X039726D01*
X043646Y019169D02*
Y019302D01*
X043712Y019369D01*
X043779Y019302D01*
Y019169D01*
Y019269D01*
X043646D01*
X043546Y018169D02*
Y018302D01*
X043612Y018369D01*
X043679Y018302D01*
Y018169D01*
Y018269D01*
X043546D01*
X046436Y020249D02*
Y020382D01*
X046502Y020449D01*
X046569Y020382D01*
Y020249D01*
Y020349D01*
X046436D01*
X047506Y019479D02*
Y019612D01*
X047572Y019679D01*
X047639Y019612D01*
Y019479D01*
Y019579D01*
X047506D01*
X047296Y018199D02*
Y018332D01*
X047362Y018399D01*
X047429Y018332D01*
Y018199D01*
Y018299D01*
X047296D01*
X051036Y019029D02*
Y019162D01*
X051102Y019229D01*
X051169Y019162D01*
Y019029D01*
Y019129D01*
X051036D01*
X051066Y018199D02*
Y018332D01*
X051132Y018399D01*
X051199Y018332D01*
Y018199D01*
Y018299D01*
X051066D01*
X051596Y019799D02*
Y019932D01*
X051662Y019999D01*
X051729Y019932D01*
Y019799D01*
Y019899D01*
X051596D01*
X055326Y019789D02*
Y019922D01*
X055392Y019989D01*
X055459Y019922D01*
Y019789D01*
Y019889D01*
X055326D01*
X052928Y018151D02*
Y018284D01*
X052995Y018351D01*
X053062Y018284D01*
Y018151D01*
Y018251D01*
X052928D01*
X055536Y017079D02*
Y017212D01*
X055602Y017279D01*
X055669Y017212D01*
Y017079D01*
Y017179D01*
X055536D01*
X054206Y015829D02*
Y015962D01*
X054272Y016029D01*
X054339Y015962D01*
Y015829D01*
Y015929D01*
X054206D01*
X054126Y015219D02*
Y015352D01*
X054192Y015419D01*
X054259Y015352D01*
Y015219D01*
Y015319D01*
X054126D01*
X052876Y012609D02*
Y012742D01*
X052942Y012809D01*
X053009Y012742D01*
Y012609D01*
Y012709D01*
X052876D01*
X051976Y013349D02*
Y013482D01*
X052042Y013549D01*
X052109Y013482D01*
Y013349D01*
Y013449D01*
X051976D01*
X050866Y014248D02*
Y014381D01*
X050933Y014448D01*
X050999Y014381D01*
Y014248D01*
Y014348D01*
X050866D01*
X052216Y014819D02*
Y014952D01*
X052282Y015019D01*
X052349Y014952D01*
Y014819D01*
Y014919D01*
X052216D01*
X052006Y017109D02*
Y017242D01*
X052072Y017309D01*
X052139Y017242D01*
Y017109D01*
Y017209D01*
X052006D01*
X051506Y016019D02*
Y016152D01*
X051572Y016219D01*
X051639Y016152D01*
Y016019D01*
Y016119D01*
X051506D01*
X049496Y017179D02*
Y017312D01*
X049562Y017379D01*
X049629Y017312D01*
Y017179D01*
Y017279D01*
X049496D01*
X048166Y017049D02*
Y017182D01*
X048232Y017249D01*
X048299Y017182D01*
Y017049D01*
Y017149D01*
X048166D01*
X047786Y016029D02*
Y016162D01*
X047852Y016229D01*
X047919Y016162D01*
Y016029D01*
Y016129D01*
X047786D01*
X045476Y016959D02*
Y017092D01*
X045542Y017159D01*
X045609Y017092D01*
Y016959D01*
Y017059D01*
X045476D01*
X044444Y017067D02*
Y017201D01*
X044511Y017267D01*
X044577Y017201D01*
Y017067D01*
Y017167D01*
X044444D01*
X044036Y016069D02*
Y016202D01*
X044102Y016269D01*
X044169Y016202D01*
Y016069D01*
Y016169D01*
X044036D01*
X041666Y016959D02*
Y017092D01*
X041732Y017159D01*
X041799Y017092D01*
Y016959D01*
Y017059D01*
X041666D01*
X040606Y017029D02*
Y017162D01*
X040672Y017229D01*
X040739Y017162D01*
Y017029D01*
Y017129D01*
X040606D01*
X040256Y016009D02*
Y016142D01*
X040322Y016209D01*
X040389Y016142D01*
Y016009D01*
Y016109D01*
X040256D01*
X038176Y017199D02*
Y017332D01*
X038242Y017399D01*
X038309Y017332D01*
Y017199D01*
Y017299D01*
X038176D01*
X036876Y017029D02*
Y017162D01*
X036942Y017229D01*
X037009Y017162D01*
Y017029D01*
Y017129D01*
X036876D01*
X036486Y016039D02*
Y016172D01*
X036552Y016239D01*
X036619Y016172D01*
Y016039D01*
Y016139D01*
X036486D01*
X034766Y017059D02*
Y017192D01*
X034832Y017259D01*
X034899Y017192D01*
Y017059D01*
Y017159D01*
X034766D01*
X033096Y017029D02*
Y017162D01*
X033162Y017229D01*
X033229Y017162D01*
Y017029D01*
Y017129D01*
X033096D01*
X032696Y016029D02*
Y016162D01*
X032762Y016229D01*
X032829Y016162D01*
Y016029D01*
Y016129D01*
X032696D01*
X032196Y019039D02*
Y019172D01*
X032262Y019239D01*
X032329Y019172D01*
Y019039D01*
Y019139D01*
X032196D01*
Y019429D02*
Y019562D01*
X032262Y019629D01*
X032329Y019562D01*
Y019429D01*
Y019529D01*
X032196D01*
X028366Y019469D02*
Y019602D01*
X028432Y019669D01*
X028499Y019602D01*
Y019469D01*
Y019569D01*
X028366D01*
X029506Y019919D02*
Y020052D01*
X029572Y020119D01*
X029639Y020052D01*
Y019919D01*
Y020019D01*
X029506D01*
X028326Y017879D02*
Y018012D01*
X028392Y018079D01*
X028459Y018012D01*
Y017879D01*
Y017979D01*
X028326D01*
X029646Y017409D02*
Y017542D01*
X029712Y017609D01*
X029779Y017542D01*
Y017409D01*
Y017509D01*
X029646D01*
X030646Y017249D02*
Y017382D01*
X030712Y017449D01*
X030779Y017382D01*
Y017249D01*
Y017349D01*
X030646D01*
X029226Y016219D02*
Y016352D01*
X029292Y016419D01*
X029359Y016352D01*
Y016219D01*
Y016319D01*
X029226D01*
X047096Y014209D02*
Y014342D01*
X047162Y014409D01*
X047229Y014342D01*
Y014209D01*
Y014309D01*
X047096D01*
X043296Y014179D02*
Y014312D01*
X043362Y014379D01*
X043429Y014312D01*
Y014179D01*
Y014279D01*
X043296D01*
X039526Y014169D02*
Y014302D01*
X039592Y014369D01*
X039659Y014302D01*
Y014169D01*
Y014269D01*
X039526D01*
X035806Y014259D02*
Y014392D01*
X035872Y014459D01*
X035939Y014392D01*
Y014259D01*
Y014359D01*
X035806D01*
X031986Y014219D02*
Y014352D01*
X032052Y014419D01*
X032119Y014352D01*
Y014219D01*
Y014319D01*
X031986D01*
X028206Y014195D02*
Y014328D01*
X028273Y014394D01*
X02834Y014328D01*
Y014195D01*
Y014295D01*
X028206D01*
X026876Y017249D02*
Y017382D01*
X026942Y017449D01*
X027009Y017382D01*
Y017249D01*
Y017349D01*
X026876D01*
X025796Y017439D02*
Y017572D01*
X025862Y017639D01*
X025929Y017572D01*
Y017439D01*
Y017539D01*
X025796D01*
X025506Y016139D02*
Y016272D01*
X025572Y016339D01*
X025639Y016272D01*
Y016139D01*
Y016239D01*
X025506D01*
X024426Y014929D02*
Y015062D01*
X024492Y015129D01*
X024559Y015062D01*
Y014929D01*
Y015029D01*
X024426D01*
X025886Y025229D02*
Y025362D01*
X025952Y025429D01*
X026019Y025362D01*
Y025229D01*
Y025329D01*
X025886D01*
X021056Y032229D02*
Y032362D01*
X021122Y032429D01*
X021189Y032362D01*
Y032229D01*
Y032329D01*
X021056D01*
X022236Y032439D02*
Y032572D01*
X022302Y032639D01*
X022369Y032572D01*
Y032439D01*
Y032539D01*
X022236D01*
X021716Y032439D02*
Y032572D01*
X021782Y032639D01*
X021849Y032572D01*
Y032439D01*
Y032539D01*
X021716D01*
X023232Y032211D02*
Y032344D01*
X023299Y032411D01*
X023365Y032344D01*
Y032211D01*
Y032311D01*
X023232D01*
X022696Y032219D02*
Y032352D01*
X022762Y032419D01*
X022829Y032352D01*
Y032219D01*
Y032319D01*
X022696D01*
X022376Y031599D02*
Y031732D01*
X022442Y031799D01*
X022509Y031732D01*
Y031599D01*
Y031699D01*
X022376D01*
X021666Y030559D02*
Y030692D01*
X021732Y030759D01*
X021799Y030692D01*
Y030559D01*
Y030659D01*
X021666D01*
X021696Y028219D02*
Y028352D01*
X021762Y028419D01*
X021829Y028352D01*
Y028219D01*
Y028319D01*
X021696D01*
X022246Y024439D02*
Y024572D01*
X022312Y024639D01*
X022379Y024572D01*
Y024439D01*
Y024539D01*
X022246D01*
X021386Y021309D02*
Y021442D01*
X021452Y021509D01*
X021519Y021442D01*
Y021309D01*
Y021409D01*
X021386D01*
X023086Y017239D02*
Y017372D01*
X023152Y017439D01*
X023219Y017372D01*
Y017239D01*
Y017339D01*
X023086D01*
X021376Y017749D02*
Y017882D01*
X021442Y017949D01*
X021509Y017882D01*
Y017749D01*
Y017849D01*
X021376D01*
X021856Y013859D02*
Y013992D01*
X021922Y014059D01*
X021989Y013992D01*
Y013859D01*
Y013959D01*
X021856D01*
X019176Y012309D02*
Y012442D01*
X019242Y012509D01*
X019309Y012442D01*
Y012309D01*
Y012409D01*
X019176D01*
X017236Y012739D02*
Y012872D01*
X017302Y012939D01*
X017369Y012872D01*
Y012739D01*
Y012839D01*
X017236D01*
X018006Y014499D02*
Y014632D01*
X018072Y014699D01*
X018139Y014632D01*
Y014499D01*
Y014599D01*
X018006D01*
X019186Y015959D02*
Y016092D01*
X019252Y016159D01*
X019319Y016092D01*
Y015959D01*
Y016059D01*
X019186D01*
X017226Y016429D02*
Y016562D01*
X017292Y016629D01*
X017359Y016562D01*
Y016429D01*
Y016529D01*
X017226D01*
X018046Y018149D02*
Y018282D01*
X018112Y018349D01*
X018179Y018282D01*
Y018149D01*
Y018249D01*
X018046D01*
X019176Y019449D02*
Y019582D01*
X019242Y019649D01*
X019309Y019582D01*
Y019449D01*
Y019549D01*
X019176D01*
X017206Y019909D02*
Y020042D01*
X017272Y020109D01*
X017339Y020042D01*
Y019909D01*
Y020009D01*
X017206D01*
X018506Y021879D02*
Y022012D01*
X018572Y022079D01*
X018639Y022012D01*
Y021879D01*
Y021979D01*
X018506D01*
X019186Y022949D02*
Y023082D01*
X019252Y023149D01*
X019319Y023082D01*
Y022949D01*
Y023049D01*
X019186D01*
X017256Y023349D02*
Y023482D01*
X017322Y023549D01*
X017389Y023482D01*
Y023349D01*
Y023449D01*
X017256D01*
X018506Y025289D02*
Y025422D01*
X018572Y025489D01*
X018639Y025422D01*
Y025289D01*
Y025389D01*
X018506D01*
X019166Y026109D02*
Y026242D01*
X019232Y026309D01*
X019299Y026242D01*
Y026109D01*
Y026209D01*
X019166D01*
X017256Y026519D02*
Y026652D01*
X017322Y026719D01*
X017389Y026652D01*
Y026519D01*
Y026619D01*
X017256D01*
X018506Y028449D02*
Y028582D01*
X018572Y028649D01*
X018639Y028582D01*
Y028449D01*
Y028549D01*
X018506D01*
X019176Y029019D02*
Y029152D01*
X019242Y029219D01*
X019309Y029152D01*
Y029019D01*
Y029119D01*
X019176D01*
X017196Y029439D02*
Y029572D01*
X017262Y029639D01*
X017329Y029572D01*
Y029439D01*
Y029539D01*
X017196D01*
X018096Y031339D02*
Y031472D01*
X018162Y031539D01*
X018229Y031472D01*
Y031339D01*
Y031439D01*
X018096D01*
X020156Y031609D02*
Y031742D01*
X020222Y031809D01*
X020289Y031742D01*
Y031609D01*
Y031709D01*
X020156D01*
X019376Y031609D02*
Y031742D01*
X019442Y031809D01*
X019509Y031742D01*
Y031609D01*
Y031709D01*
X019376D01*
X017946Y032829D02*
Y032962D01*
X018012Y033029D01*
X018079Y032962D01*
Y032829D01*
Y032929D01*
X017946D01*
X015916Y034649D02*
Y034782D01*
X015982Y034849D01*
X016049Y034782D01*
Y034649D01*
Y034749D01*
X015916D01*
X015746Y035329D02*
Y035462D01*
X015812Y035529D01*
X015879Y035462D01*
Y035329D01*
Y035429D01*
X015746D01*
X015846Y036179D02*
Y036312D01*
X015912Y036379D01*
X015979Y036312D01*
Y036179D01*
Y036279D01*
X015846D01*
X016366Y037399D02*
Y037532D01*
X016432Y037599D01*
X016499Y037532D01*
Y037399D01*
Y037499D01*
X016366D01*
X015686Y037579D02*
Y037712D01*
X015752Y037779D01*
X015819Y037712D01*
Y037579D01*
Y037679D01*
X015686D01*
X015046Y036529D02*
Y036662D01*
X015112Y036729D01*
X015179Y036662D01*
Y036529D01*
Y036629D01*
X015046D01*
X014466Y037029D02*
Y037162D01*
X014532Y037229D01*
X014599Y037162D01*
Y037029D01*
Y037129D01*
X014466D01*
X014216Y036989D02*
Y037122D01*
X014282Y037189D01*
X014349Y037122D01*
Y036989D01*
Y037089D01*
X014216D01*
X013846Y037019D02*
Y037152D01*
X013912Y037219D01*
X013979Y037152D01*
Y037019D01*
Y037119D01*
X013846D01*
X022716Y037659D02*
Y037792D01*
X022782Y037859D01*
X022849Y037792D01*
Y037659D01*
Y037759D01*
X022716D01*
X023746Y038309D02*
Y038442D01*
X023812Y038509D01*
X023879Y038442D01*
Y038309D01*
Y038409D01*
X023746D01*
X025346Y038319D02*
Y038452D01*
X025412Y038519D01*
X025479Y038452D01*
Y038319D01*
Y038419D01*
X025346D01*
X024736Y038319D02*
Y038452D01*
X024802Y038519D01*
X024869Y038452D01*
Y038319D01*
Y038419D01*
X024736D01*
X024516Y035789D02*
Y035922D01*
X024582Y035989D01*
X024649Y035922D01*
Y035789D01*
Y035889D01*
X024516D01*
Y033879D02*
Y034012D01*
X024582Y034079D01*
X024649Y034012D01*
Y033879D01*
Y033979D01*
X024516D01*
X025046Y033859D02*
Y033992D01*
X025112Y034059D01*
X025179Y033992D01*
Y033859D01*
Y033959D01*
X025046D01*
X028696Y031899D02*
Y032032D01*
X028762Y032099D01*
X028829Y032032D01*
Y031899D01*
Y031999D01*
X028696D01*
X027806Y032909D02*
Y033042D01*
X027872Y033109D01*
X027939Y033042D01*
Y032909D01*
Y033009D01*
X027806D01*
X028576Y032909D02*
Y033042D01*
X028642Y033109D01*
X028709Y033042D01*
Y032909D01*
Y033009D01*
X028576D01*
X029926Y033059D02*
Y033192D01*
X029992Y033259D01*
X030059Y033192D01*
Y033059D01*
Y033159D01*
X029926D01*
X027996Y034009D02*
Y034142D01*
X028062Y034209D01*
X028129Y034142D01*
Y034009D01*
Y034109D01*
X027996D01*
X030456Y034969D02*
Y035102D01*
X030522Y035169D01*
X030589Y035102D01*
Y034969D01*
Y035069D01*
X030456D01*
X029896Y036559D02*
Y036692D01*
X029962Y036759D01*
X030029Y036692D01*
Y036559D01*
Y036659D01*
X029896D01*
X027886Y035959D02*
Y036092D01*
X027952Y036159D01*
X028019Y036092D01*
Y035959D01*
Y036059D01*
X027886D01*
X028546Y037049D02*
Y037182D01*
X028612Y037249D01*
X028679Y037182D01*
Y037049D01*
Y037149D01*
X028546D01*
X027836Y037529D02*
Y037662D01*
X027902Y037729D01*
X027969Y037662D01*
Y037529D01*
Y037629D01*
X027836D01*
X032596Y036429D02*
Y036562D01*
X032662Y036629D01*
X032729Y036562D01*
Y036429D01*
Y036529D01*
X032596D01*
X031876Y035969D02*
Y036102D01*
X031942Y036169D01*
X032009Y036102D01*
Y035969D01*
Y036069D01*
X031876D01*
X033286Y037359D02*
Y037492D01*
X033352Y037559D01*
X033419Y037492D01*
Y037359D01*
Y037459D01*
X033286D01*
X032656Y037589D02*
Y037722D01*
X032722Y037789D01*
X032789Y037722D01*
Y037589D01*
Y037689D01*
X032656D01*
X030466Y037339D02*
Y037472D01*
X030532Y037539D01*
X030599Y037472D01*
Y037339D01*
Y037439D01*
X030466D01*
X030426Y038079D02*
Y038212D01*
X030492Y038279D01*
X030559Y038212D01*
Y038079D01*
Y038179D01*
X030426D01*
X031966Y038099D02*
Y038232D01*
X032032Y038299D01*
X032099Y038232D01*
Y038099D01*
Y038199D01*
X031966D01*
X031716Y039089D02*
Y039222D01*
X031782Y039289D01*
X031849Y039222D01*
Y039089D01*
Y039189D01*
X031716D01*
X028006Y040009D02*
Y040142D01*
X028072Y040209D01*
X028139Y040142D01*
Y040009D01*
Y040109D01*
X028006D01*
X029346Y039649D02*
Y039782D01*
X029412Y039849D01*
X029479Y039782D01*
Y039649D01*
Y039749D01*
X029346D01*
X030226Y040139D02*
Y040272D01*
X030292Y040339D01*
X030359Y040272D01*
Y040139D01*
Y040239D01*
X030226D01*
X029296Y041389D02*
Y041522D01*
X029362Y041589D01*
X029429Y041522D01*
Y041389D01*
Y041489D01*
X029296D01*
X029276Y041709D02*
Y041842D01*
X029342Y041909D01*
X029409Y041842D01*
Y041709D01*
Y041809D01*
X029276D01*
X029776Y042309D02*
Y042442D01*
X029842Y042509D01*
X029909Y042442D01*
Y042309D01*
Y042409D01*
X029776D01*
X027548Y047735D02*
Y047869D01*
X027615Y047935D01*
X027682Y047869D01*
Y047735D01*
Y047835D01*
X027548D01*
X028376Y048889D02*
Y049022D01*
X028442Y049089D01*
X028509Y049022D01*
Y048889D01*
Y048989D01*
X028376D01*
X028426Y047979D02*
Y048112D01*
X028492Y048179D01*
X028559Y048112D01*
Y047979D01*
Y048079D01*
X028426D01*
X025766Y043089D02*
Y043222D01*
X025832Y043289D01*
X025899Y043222D01*
Y043089D01*
Y043189D01*
X025766D01*
X026286Y042549D02*
Y042682D01*
X026352Y042749D01*
X026419Y042682D01*
Y042549D01*
Y042649D01*
X026286D01*
X026366Y042849D02*
Y042982D01*
X026432Y043049D01*
X026499Y042982D01*
Y042849D01*
Y042949D01*
X026366D01*
X026286Y042229D02*
Y042362D01*
X026352Y042429D01*
X026419Y042362D01*
Y042229D01*
Y042329D01*
X026286D01*
X024266Y041519D02*
Y041652D01*
X024332Y041719D01*
X024399Y041652D01*
Y041519D01*
Y041619D01*
X024266D01*
X023646Y041529D02*
Y041662D01*
X023712Y041729D01*
X023779Y041662D01*
Y041529D01*
Y041629D01*
X023646D01*
X022736Y041599D02*
Y041732D01*
X022802Y041799D01*
X022869Y041732D01*
Y041599D01*
Y041699D01*
X022736D01*
X022026Y042099D02*
Y042232D01*
X022092Y042299D01*
X022159Y042232D01*
Y042099D01*
Y042199D01*
X022026D01*
X020376Y045899D02*
Y046032D01*
X020442Y046099D01*
X020509Y046032D01*
Y045899D01*
Y045999D01*
X020376D01*
X021976Y045739D02*
Y045872D01*
X022042Y045939D01*
X022109Y045872D01*
Y045739D01*
Y045839D01*
X021976D01*
X020866Y046629D02*
Y046762D01*
X020932Y046829D01*
X020999Y046762D01*
Y046629D01*
Y046729D01*
X020866D01*
X021516Y046599D02*
Y046732D01*
X021582Y046799D01*
X021649Y046732D01*
Y046599D01*
Y046699D01*
X021516D01*
X020936Y044619D02*
Y044752D01*
X021002Y044819D01*
X021069Y044752D01*
Y044619D01*
Y044719D01*
X020936D01*
X020356Y045309D02*
Y045442D01*
X020422Y045509D01*
X020489Y045442D01*
Y045309D01*
Y045409D01*
X020356D01*
X018991Y045306D02*
Y045439D01*
X019058Y045506D01*
X019125Y045439D01*
Y045306D01*
Y045406D01*
X018991D01*
X019706Y045309D02*
Y045442D01*
X019772Y045509D01*
X019839Y045442D01*
Y045309D01*
Y045409D01*
X019706D01*
X018286Y045329D02*
Y045462D01*
X018352Y045529D01*
X018419Y045462D01*
Y045329D01*
Y045429D01*
X018286D01*
X013366Y043659D02*
Y043792D01*
X013432Y043859D01*
X013499Y043792D01*
Y043659D01*
Y043759D01*
X013366D01*
X014036Y043669D02*
Y043802D01*
X014102Y043869D01*
X014169Y043802D01*
Y043669D01*
Y043769D01*
X014036D01*
X014636Y043669D02*
Y043802D01*
X014702Y043869D01*
X014769Y043802D01*
Y043669D01*
Y043769D01*
X014636D01*
X013956Y044399D02*
Y044532D01*
X014022Y044599D01*
X014089Y044532D01*
Y044399D01*
Y044499D01*
X013956D01*
X013426Y044409D02*
Y044542D01*
X013492Y044609D01*
X013559Y044542D01*
Y044409D01*
Y044509D01*
X013426D01*
X015096Y041439D02*
Y041572D01*
X015162Y041639D01*
X015229Y041572D01*
Y041439D01*
Y041539D01*
X015096D01*
X014606Y041439D02*
Y041572D01*
X014672Y041639D01*
X014739Y041572D01*
Y041439D01*
Y041539D01*
X014606D01*
X014106Y041439D02*
Y041572D01*
X014172Y041639D01*
X014239Y041572D01*
Y041439D01*
Y041539D01*
X014106D01*
X013596Y041439D02*
Y041572D01*
X013662Y041639D01*
X013729Y041572D01*
Y041439D01*
Y041539D01*
X013596D01*
X018734Y040008D02*
Y040141D01*
X0188Y040208D01*
X018867Y040141D01*
Y040008D01*
Y040108D01*
X018734D01*
X018046Y040369D02*
Y040502D01*
X018112Y040569D01*
X018179Y040502D01*
Y040369D01*
Y040469D01*
X018046D01*
X019176Y040199D02*
Y040332D01*
X019242Y040399D01*
X019309Y040332D01*
Y040199D01*
Y040299D01*
X019176D01*
X019626Y039489D02*
Y039622D01*
X019692Y039689D01*
X019759Y039622D01*
Y039489D01*
Y039589D01*
X019626D01*
X018556Y038019D02*
Y038152D01*
X018622Y038219D01*
X018689Y038152D01*
Y038019D01*
Y038119D01*
X018556D01*
X028586Y026009D02*
Y026142D01*
X028652Y026209D01*
X028719Y026142D01*
Y026009D01*
Y026109D01*
X028586D01*
X032406Y020799D02*
Y020932D01*
X032472Y020999D01*
X032539Y020932D01*
Y020799D01*
Y020899D01*
X032406D01*
X034986Y019999D02*
Y020132D01*
X035052Y020199D01*
X035119Y020132D01*
Y019999D01*
Y020099D01*
X034986D01*
X048506Y024679D02*
Y024812D01*
X048572Y024879D01*
X048639Y024812D01*
Y024679D01*
Y024779D01*
X048506D01*
X026091Y048254D02*
Y048387D01*
X026157Y048454D01*
X026224Y048387D01*
Y048254D01*
Y048354D01*
X026091D01*
X028686Y047459D02*
Y047592D01*
X028752Y047659D01*
X028819Y047592D01*
Y047459D01*
Y047559D01*
X028686D01*
X028504Y027316D02*
Y027449D01*
X028571Y027516D01*
X028638Y027449D01*
Y027316D01*
Y027416D01*
X028504D01*
X028343Y047278D02*
Y047411D01*
X02841Y047478D01*
X028477Y047411D01*
Y047278D01*
Y047378D01*
X028343D01*
X027927Y047419D02*
Y047552D01*
X027994Y047619D01*
X028061Y047552D01*
Y047419D01*
Y047519D01*
X027927D01*
X027866Y042429D02*
Y042562D01*
X027932Y042629D01*
X027999Y042562D01*
Y042429D01*
Y042529D01*
X027866D01*
Y041742D02*
Y041876D01*
X027932Y041942D01*
X027999Y041876D01*
Y041742D01*
Y041842D01*
X027866D01*
Y042086D02*
Y042219D01*
X027932Y042286D01*
X027999Y042219D01*
Y042086D01*
Y042186D01*
X027866D01*
Y041399D02*
Y041532D01*
X027932Y041599D01*
X027999Y041532D01*
Y041399D01*
Y041499D01*
X027866D01*
X027846Y031829D02*
Y031962D01*
X027912Y032029D01*
X027979Y031962D01*
Y031829D01*
Y031929D01*
X027846D01*
X027836Y028209D02*
Y028342D01*
X027902Y028409D01*
X027969Y028342D01*
Y028209D01*
Y028309D01*
X027836D01*
X048837Y027399D02*
Y027532D01*
X048904Y027599D01*
X048971Y027532D01*
Y027399D01*
Y027499D01*
X048837D01*
X048897Y027678D02*
Y027811D01*
X048964Y027878D01*
X04903Y027811D01*
Y027678D01*
Y027778D01*
X048897D01*
X048786Y021459D02*
Y021592D01*
X048852Y021659D01*
X048919Y021592D01*
Y021459D01*
Y021559D01*
X048786D01*
X047816Y022959D02*
Y023092D01*
X047882Y023159D01*
X047949Y023092D01*
Y022959D01*
Y023059D01*
X047816D01*
X025886Y048049D02*
Y048182D01*
X025952Y048249D01*
X026019Y048182D01*
Y048049D01*
Y048149D01*
X025886D01*
X052786Y016719D02*
Y016852D01*
X052852Y016919D01*
X052919Y016852D01*
Y016719D01*
Y016819D01*
X052786D01*
X054246Y014258D02*
Y014391D01*
X054313Y014458D01*
X05438Y014391D01*
Y014258D01*
Y014358D01*
X054246D01*
X054516Y014949D02*
Y015082D01*
X054582Y015149D01*
X054649Y015082D01*
Y014949D01*
Y015049D01*
X054516D01*
X05423Y014495D02*
Y014628D01*
X054297Y014695D01*
X054363Y014628D01*
Y014495D01*
Y014595D01*
X05423D01*
X054516Y012939D02*
Y013072D01*
X054582Y013139D01*
X054649Y013072D01*
Y012939D01*
Y013039D01*
X054516D01*
X053886Y017059D02*
Y017192D01*
X053952Y017259D01*
X054019Y017192D01*
Y017059D01*
Y017159D01*
X053886D01*
X054326Y017018D02*
Y017151D01*
X054392Y017218D01*
X054459Y017151D01*
Y017018D01*
Y017118D01*
X054326D01*
X054086Y016559D02*
Y016692D01*
X054152Y016759D01*
X054219Y016692D01*
Y016559D01*
Y016659D01*
X054086D01*
X053646Y017235D02*
Y017368D01*
X053712Y017435D01*
X053779Y017368D01*
Y017235D01*
Y017335D01*
X053646D01*
X028786Y050629D02*
Y050762D01*
X028852Y050829D01*
X028919Y050762D01*
Y050629D01*
Y050729D01*
X028786D01*
X026826Y050639D02*
Y050772D01*
X026892Y050839D01*
X026959Y050772D01*
Y050639D01*
Y050739D01*
X026826D01*
X0272Y050319D02*
Y050452D01*
X027267Y050519D01*
X027334Y050452D01*
Y050319D01*
Y050419D01*
X0272D01*
X029456Y033849D02*
Y033982D01*
X029522Y034049D01*
X029589Y033982D01*
Y033849D01*
Y033949D01*
X029456D01*
X029116Y033839D02*
Y033972D01*
X029182Y034039D01*
X029249Y033972D01*
Y033839D01*
Y033939D01*
X029116D01*
X013936Y037389D02*
Y037522D01*
X014002Y037589D01*
X014069Y037522D01*
Y037389D01*
Y037489D01*
X013936D01*
X014906Y037111D02*
Y037244D01*
X014972Y03731D01*
X015039Y037244D01*
Y037111D01*
Y037211D01*
X014906D01*
X023656Y039029D02*
Y039162D01*
X023722Y039229D01*
X023789Y039162D01*
Y039029D01*
Y039129D01*
X023656D01*
X023776Y019979D02*
Y020112D01*
X023842Y020179D01*
X023909Y020112D01*
Y019979D01*
Y020079D01*
X023776D01*
X034996Y020429D02*
Y020562D01*
X035062Y020629D01*
X035129Y020562D01*
Y020429D01*
Y020529D01*
X034996D01*
X026996Y047709D02*
Y047842D01*
X027062Y047909D01*
X027129Y047842D01*
Y047709D01*
Y047809D01*
X026996D01*
X026686Y047709D02*
Y047842D01*
X026752Y047909D01*
X026819Y047842D01*
Y047709D01*
Y047809D01*
X026686D01*
X027156Y047939D02*
Y048072D01*
X027222Y048139D01*
X027289Y048072D01*
Y047939D01*
Y048039D01*
X027156D01*
X026846Y047939D02*
Y048072D01*
X026912Y048139D01*
X026979Y048072D01*
Y047939D01*
Y048039D01*
X026846D01*
X026496Y047939D02*
Y048072D01*
X026562Y048139D01*
X026629Y048072D01*
Y047939D01*
Y048039D01*
X026496D01*
X028716Y049079D02*
Y049212D01*
X028782Y049279D01*
X028849Y049212D01*
Y049079D01*
Y049179D01*
X028716D01*
X029766Y041799D02*
Y041932D01*
X029832Y041999D01*
X029899Y041932D01*
Y041799D01*
Y041899D01*
X029766D01*
X029656Y038129D02*
Y038262D01*
X029722Y038329D01*
X029789Y038262D01*
Y038129D01*
Y038229D01*
X029656D01*
X029366Y038129D02*
Y038262D01*
X029432Y038329D01*
X029499Y038262D01*
Y038129D01*
Y038229D01*
X029366D01*
X029036Y038129D02*
Y038262D01*
X029102Y038329D01*
X029169Y038262D01*
Y038129D01*
Y038229D01*
X029036D01*
X028866Y038399D02*
Y038532D01*
X028932Y038599D01*
X028999Y038532D01*
Y038399D01*
Y038499D01*
X028866D01*
X029176Y038399D02*
Y038532D01*
X029242Y038599D01*
X029309Y038532D01*
Y038399D01*
Y038499D01*
X029176D01*
X029486Y038399D02*
Y038532D01*
X029552Y038599D01*
X029619Y038532D01*
Y038399D01*
Y038499D01*
X029486D01*
X029796Y038399D02*
Y038532D01*
X029862Y038599D01*
X029929Y038532D01*
Y038399D01*
Y038499D01*
X029796D01*
X023316Y024929D02*
Y025062D01*
X023382Y025129D01*
X023449Y025062D01*
Y024929D01*
Y025029D01*
X023316D01*
X018496Y028809D02*
Y028942D01*
X018562Y029009D01*
X018629Y028942D01*
Y028809D01*
Y028909D01*
X018496D01*
X018506Y025859D02*
Y025992D01*
X018572Y026059D01*
X018639Y025992D01*
Y025859D01*
Y025959D01*
X018506D01*
X018526Y022669D02*
Y022802D01*
X018592Y022869D01*
X018659Y022802D01*
Y022669D01*
Y022769D01*
X018526D01*
X018496Y012009D02*
Y012142D01*
X018562Y012209D01*
X018629Y012142D01*
Y012009D01*
Y012109D01*
X018496D01*
X018536Y015729D02*
Y015862D01*
X018602Y015929D01*
X018669Y015862D01*
Y015729D01*
Y015829D01*
X018536D01*
X018516Y019189D02*
Y019322D01*
X018582Y019389D01*
X018649Y019322D01*
Y019189D01*
Y019289D01*
X018516D01*
X023916Y019739D02*
Y019872D01*
X023982Y019939D01*
X024049Y019872D01*
Y019739D01*
Y019839D01*
X023916D01*
X027536Y019639D02*
Y019772D01*
X027602Y019839D01*
X027669Y019772D01*
Y019639D01*
Y019739D01*
X027536D01*
X032136Y020449D02*
Y020582D01*
X032202Y020649D01*
X032269Y020582D01*
Y020449D01*
Y020549D01*
X032136D01*
X035246Y019739D02*
Y019872D01*
X035312Y019939D01*
X035379Y019872D01*
Y019739D01*
Y019839D01*
X035246D01*
X038966Y019759D02*
Y019892D01*
X039032Y019959D01*
X039099Y019892D01*
Y019759D01*
Y019859D01*
X038966D01*
X042716Y019739D02*
Y019872D01*
X042782Y019939D01*
X042849Y019872D01*
Y019739D01*
Y019839D01*
X042716D01*
X046286Y019809D02*
Y019942D01*
X046352Y020009D01*
X046419Y019942D01*
Y019809D01*
Y019909D01*
X046286D01*
X049836Y019789D02*
Y019922D01*
X049902Y019989D01*
X049969Y019922D01*
Y019789D01*
Y019889D01*
X049836D01*
X041931Y028355D02*
Y028488D01*
X041998Y028555D01*
X042064Y028488D01*
Y028355D01*
Y028455D01*
X041931D01*
X042526Y026559D02*
Y026692D01*
X042592Y026759D01*
X042659Y026692D01*
Y026559D01*
Y026659D01*
X042526D01*
X042347Y027559D02*
Y027692D01*
X042414Y027759D01*
X042481Y027692D01*
Y027559D01*
Y027659D01*
X042347D01*
X042238Y028279D02*
X042278D01*
X042318Y028319D01*
X042358Y028279D01*
X042398D01*
Y028319D01*
X042358Y028359D01*
X042398Y028399D01*
Y028439D01*
X042358D01*
X042318Y028399D01*
X042278Y028439D01*
X042238D01*
Y028399D01*
X042278Y028359D01*
X042238Y028319D01*
Y028279D01*
X042278Y028319D02*
X042298D01*
X042318Y028339D01*
X042338Y028319D01*
X042358D01*
Y028339D01*
X042338Y028359D01*
X042358Y028379D01*
Y028399D01*
X042338D01*
X042318Y028379D01*
X042298Y028399D01*
X042278D01*
Y028379D01*
X042298Y028359D01*
X042278Y028339D01*
Y028319D01*
X043326Y026539D02*
Y026672D01*
X043392Y026739D01*
X043459Y026672D01*
Y026539D01*
Y026639D01*
X043326D01*
X054806Y019739D02*
Y019872D01*
X054872Y019939D01*
X054939Y019872D01*
Y019739D01*
Y019839D01*
X054806D01*
X053246Y018929D02*
Y019062D01*
X053312Y019129D01*
X053379Y019062D01*
Y018929D01*
Y019029D01*
X053246D01*
X038916Y02637D02*
Y026503D01*
X038983Y02657D01*
X03905Y026503D01*
Y02637D01*
Y02647D01*
X038916D01*
X034926Y026139D02*
Y026272D01*
X034992Y026339D01*
X035059Y026272D01*
Y026139D01*
Y026239D01*
X034926D01*
X038416Y031299D02*
Y031432D01*
X038482Y031499D01*
X038549Y031432D01*
Y031299D01*
Y031399D01*
X038416D01*
X033936Y029279D02*
Y029412D01*
X034002Y029479D01*
X034069Y029412D01*
Y029279D01*
Y029379D01*
X033936D01*
X035856Y029019D02*
Y029152D01*
X035922Y029219D01*
X035989Y029152D01*
Y029019D01*
Y029119D01*
X035856D01*
X054836Y016449D02*
Y016582D01*
X054902Y016649D01*
X054969Y016582D01*
Y016449D01*
Y016549D01*
X054836D01*
X027026Y027919D02*
Y028052D01*
X027092Y028119D01*
X027159Y028052D01*
Y027919D01*
Y028019D01*
X027026D01*
X025356Y035389D02*
Y035522D01*
X025422Y035589D01*
X025489Y035522D01*
Y035389D01*
Y035489D01*
X025356D01*
X025036Y035389D02*
Y035522D01*
X025102Y035589D01*
X025169Y035522D01*
Y035389D01*
Y035489D01*
X025036D01*
X025206Y035589D02*
Y035722D01*
X025272Y035789D01*
X025339Y035722D01*
Y035589D01*
Y035689D01*
X025206D01*
X024886Y035589D02*
Y035722D01*
X024952Y035789D01*
X025019Y035722D01*
Y035589D01*
Y035689D01*
X024886D01*
X026656Y031229D02*
Y031362D01*
X026722Y031429D01*
X026789Y031362D01*
Y031229D01*
Y031329D01*
X026656D01*
X027706Y027979D02*
Y028112D01*
X027772Y028179D01*
X027839Y028112D01*
Y027979D01*
Y028079D01*
X027706D01*
X027556Y028199D02*
Y028332D01*
X027622Y028399D01*
X027689Y028332D01*
Y028199D01*
Y028299D01*
X027556D01*
X029506Y026569D02*
Y026702D01*
X029572Y026769D01*
X029639Y026702D01*
Y026569D01*
Y026669D01*
X029506D01*
X031148Y027106D02*
Y02724D01*
X031215Y027306D01*
X031281Y02724D01*
Y027106D01*
Y027206D01*
X031148D01*
X029566Y027709D02*
Y027842D01*
X029632Y027909D01*
X029699Y027842D01*
Y027709D01*
Y027809D01*
X029566D01*
X032979Y027059D02*
Y027192D01*
X033045Y027259D01*
X033112Y027192D01*
Y027059D01*
Y027159D01*
X032979D01*
X033356Y027419D02*
Y027552D01*
X033422Y027619D01*
X033489Y027552D01*
Y027419D01*
Y027519D01*
X033356D01*
X033654Y027726D02*
Y027859D01*
X03372Y027926D01*
X033787Y027859D01*
Y027726D01*
Y027826D01*
X033654D01*
X033364Y027094D02*
Y027227D01*
X033431Y027294D01*
X033498Y027227D01*
Y027094D01*
Y027194D01*
X033364D01*
X033054Y026768D02*
Y026902D01*
X033121Y026968D01*
X033187Y026902D01*
Y026768D01*
Y026868D01*
X033054D01*
X033329Y028036D02*
Y028169D01*
X033396Y028236D01*
X033462Y028169D01*
Y028036D01*
Y028136D01*
X033329D01*
X032376Y028004D02*
Y028137D01*
X032442Y028204D01*
X032509Y028137D01*
Y028004D01*
Y028104D01*
X032376D01*
X03269Y028003D02*
Y028136D01*
X032757Y028203D01*
X032823Y028136D01*
Y028003D01*
Y028103D01*
X03269D01*
X032496Y028308D02*
Y028442D01*
X032563Y028508D01*
X032629Y028442D01*
Y028308D01*
Y028408D01*
X032496D01*
X032091Y026775D02*
Y026908D01*
X032158Y026975D01*
X032224Y026908D01*
Y026775D01*
Y026875D01*
X032091D01*
X031734Y026783D02*
Y026917D01*
X0318Y026983D01*
X031867Y026917D01*
Y026783D01*
Y026883D01*
X031734D01*
X03145Y026807D02*
Y02694D01*
X031517Y027007D01*
X031583Y02694D01*
Y026807D01*
Y026907D01*
X03145D01*
X022446Y033219D02*
Y033352D01*
X022512Y033419D01*
X022579Y033352D01*
Y033219D01*
Y033319D01*
X022446D01*
X039696Y030459D02*
Y030592D01*
X039762Y030659D01*
X039829Y030592D01*
Y030459D01*
Y030559D01*
X039696D01*
X042296Y032641D02*
Y032774D01*
X042362Y03284D01*
X042429Y032774D01*
Y032641D01*
Y032741D01*
X042296D01*
X042136Y032439D02*
Y032572D01*
X042202Y032639D01*
X042269Y032572D01*
Y032439D01*
Y032539D01*
X042136D01*
X038256Y028969D02*
Y029102D01*
X038322Y029169D01*
X038389Y029102D01*
Y028969D01*
Y029069D01*
X038256D01*
X037507Y028878D02*
Y029011D01*
X037574Y029078D01*
X037641Y029011D01*
Y028878D01*
Y028978D01*
X037507D01*
X037337Y028708D02*
Y028841D01*
X037404Y028908D01*
X03747Y028841D01*
Y028708D01*
Y028808D01*
X037337D01*
X037143Y029053D02*
Y029187D01*
X03721Y029253D01*
X037276Y029187D01*
Y029053D01*
Y029153D01*
X037143D01*
X036786Y029129D02*
Y029262D01*
X036852Y029329D01*
X036919Y029262D01*
Y029129D01*
Y029229D01*
X036786D01*
X034696Y029829D02*
Y029962D01*
X034762Y030029D01*
X034829Y029962D01*
Y029829D01*
Y029929D01*
X034696D01*
X032476Y030109D02*
Y030242D01*
X032542Y030309D01*
X032609Y030242D01*
Y030109D01*
Y030209D01*
X032476D01*
X028566Y031029D02*
Y031162D01*
X028632Y031229D01*
X028699Y031162D01*
Y031029D01*
Y031129D01*
X028566D01*
X016936Y032549D02*
Y032682D01*
X017002Y032749D01*
X017069Y032682D01*
Y032549D01*
Y032649D01*
X016936D01*
X032434Y027407D02*
Y02754D01*
X032501Y027606D01*
X032567Y02754D01*
Y027407D01*
Y027506D01*
X032434D01*
X032097Y027056D02*
Y027189D01*
X032163Y027256D01*
X03223Y027189D01*
Y027056D01*
Y027156D01*
X032097D01*
X032081Y027386D02*
Y027519D01*
X032148Y027586D01*
X032214Y027519D01*
Y027386D01*
Y027486D01*
X032081D01*
X037996Y030449D02*
Y030582D01*
X038062Y030649D01*
X038129Y030582D01*
Y030449D01*
Y030549D01*
X037996D01*
X042586Y032709D02*
Y032842D01*
X042652Y032909D01*
X042719Y032842D01*
Y032709D01*
Y032809D01*
X042586D01*
X045266Y032569D02*
Y032702D01*
X045332Y032769D01*
X045399Y032702D01*
Y032569D01*
Y032669D01*
X045266D01*
X046226Y033219D02*
Y033352D01*
X046292Y033419D01*
X046359Y033352D01*
Y033219D01*
Y033319D01*
X046226D01*
X045726Y035549D02*
Y035682D01*
X045792Y035749D01*
X045859Y035682D01*
Y035549D01*
Y035649D01*
X045726D01*
X043096Y034519D02*
Y034652D01*
X043162Y034719D01*
X043229Y034652D01*
Y034519D01*
Y034619D01*
X043096D01*
X043806Y034079D02*
Y034212D01*
X043872Y034279D01*
X043939Y034212D01*
Y034079D01*
Y034179D01*
X043806D01*
X03539Y027484D02*
Y027617D01*
X035456Y027684D01*
X035523Y027617D01*
Y027484D01*
Y027584D01*
X03539D01*
X032907Y032749D02*
Y032882D01*
X032974Y032949D01*
X033041Y032882D01*
Y032749D01*
Y032849D01*
X032907D01*
X03332Y029441D02*
Y029574D01*
X033387Y02964D01*
X033454Y029574D01*
Y029441D01*
Y029541D01*
X03332D01*
X041116Y025209D02*
Y025342D01*
X041182Y025409D01*
X041249Y025342D01*
Y025209D01*
Y025309D01*
X041116D01*
X041146Y023999D02*
Y024132D01*
X041212Y024199D01*
X041279Y024132D01*
Y023999D01*
Y024099D01*
X041146D01*
X042516Y023559D02*
Y023692D01*
X042582Y023759D01*
X042649Y023692D01*
Y023559D01*
Y023659D01*
X042516D01*
X032406Y038689D02*
Y038822D01*
X032472Y038889D01*
X032539Y038822D01*
Y038689D01*
Y038789D01*
X032406D01*
X033226Y038749D02*
Y038882D01*
X033292Y038949D01*
X033359Y038882D01*
Y038749D01*
Y038849D01*
X033226D01*
X032526Y038479D02*
Y038612D01*
X032592Y038679D01*
X032659Y038612D01*
Y038479D01*
Y038579D01*
X032526D01*
X032856Y038469D02*
Y038602D01*
X032922Y038669D01*
X032989Y038602D01*
Y038469D01*
Y038569D01*
X032856D01*
X032626Y038649D02*
Y038782D01*
X032692Y038849D01*
X032759Y038782D01*
Y038649D01*
Y038749D01*
X032626D01*
X032946Y038679D02*
Y038812D01*
X033012Y038879D01*
X033079Y038812D01*
Y038679D01*
Y038779D01*
X032946D01*
X044016Y025429D02*
Y025562D01*
X044082Y025629D01*
X044149Y025562D01*
Y025429D01*
Y025529D01*
X044016D01*
X041066Y027696D02*
Y027829D01*
X041132Y027895D01*
X041199Y027829D01*
Y027696D01*
Y027796D01*
X041066D01*
X041116Y027059D02*
Y027192D01*
X041182Y027259D01*
X041249Y027192D01*
Y027059D01*
Y027159D01*
X041116D01*
X040866Y027127D02*
Y02726D01*
X040932Y027326D01*
X040999Y02726D01*
Y027127D01*
Y027227D01*
X040866D01*
X039346Y026969D02*
Y027102D01*
X039412Y027169D01*
X039479Y027102D01*
Y026969D01*
Y027069D01*
X039346D01*
Y025239D02*
Y025372D01*
X039412Y025439D01*
X039479Y025372D01*
Y025239D01*
Y025339D01*
X039346D01*
X039384Y024959D02*
Y025092D01*
X039451Y025159D01*
X039517Y025092D01*
Y024959D01*
Y025059D01*
X039384D01*
X041356Y023089D02*
Y023222D01*
X041422Y023289D01*
X041489Y023222D01*
Y023089D01*
Y023189D01*
X041356D01*
X039816Y023109D02*
Y023242D01*
X039882Y023309D01*
X039949Y023242D01*
Y023109D01*
Y023209D01*
X039816D01*
X027906Y020909D02*
Y021042D01*
X027972Y021109D01*
X028039Y021042D01*
Y020909D01*
Y021009D01*
X027906D01*
X027526Y019889D02*
Y020022D01*
X027592Y020089D01*
X027659Y020022D01*
Y019889D01*
Y019989D01*
X027526D01*
X042556Y031629D02*
Y031762D01*
X042622Y031829D01*
X042689Y031762D01*
Y031629D01*
Y031729D01*
X042556D01*
X041086Y028579D02*
Y028712D01*
X041152Y028779D01*
X041219Y028712D01*
Y028579D01*
Y028679D01*
X041086D01*
X049566Y027529D02*
Y027662D01*
X049632Y027729D01*
X049699Y027662D01*
Y027529D01*
Y027629D01*
X049566D01*
X052876Y027269D02*
Y027402D01*
X052942Y027469D01*
X053009Y027402D01*
Y027269D01*
Y027369D01*
X052876D01*
Y026459D02*
Y026592D01*
X052942Y026659D01*
X053009Y026592D01*
Y026459D01*
Y026559D01*
X052876D01*
X053806Y025529D02*
Y025662D01*
X053872Y025729D01*
X053939Y025662D01*
Y025529D01*
Y025629D01*
X053806D01*
X052316Y022699D02*
Y022832D01*
X052382Y022899D01*
X052449Y022832D01*
Y022699D01*
Y022799D01*
X052316D01*
X049286Y023539D02*
Y023672D01*
X049352Y023739D01*
X049419Y023672D01*
Y023539D01*
Y023639D01*
X049286D01*
X049365Y02385D02*
Y023983D01*
X049432Y02405D01*
X049498Y023983D01*
Y02385D01*
Y02395D01*
X049365D01*
X049556Y023709D02*
Y023842D01*
X049622Y023909D01*
X049689Y023842D01*
Y023709D01*
Y023809D01*
X049556D01*
X046486Y027759D02*
Y027892D01*
X046552Y027959D01*
X046619Y027892D01*
Y027759D01*
Y027859D01*
X046486D01*
X046536Y028739D02*
Y028872D01*
X046602Y028939D01*
X046669Y028872D01*
Y028739D01*
Y028839D01*
X046536D01*
X044706Y031369D02*
Y031502D01*
X044772Y031569D01*
X044839Y031502D01*
Y031369D01*
Y031469D01*
X044706D01*
X046486Y032139D02*
Y032272D01*
X046552Y032339D01*
X046619Y032272D01*
Y032139D01*
Y032239D01*
X046486D01*
X046256Y032149D02*
Y032282D01*
X046322Y032349D01*
X046389Y032282D01*
Y032149D01*
Y032249D01*
X046256D01*
X046816Y031169D02*
Y031302D01*
X046882Y031369D01*
X046949Y031302D01*
Y031169D01*
Y031269D01*
X046816D01*
X043506Y026049D02*
Y026182D01*
X043572Y026249D01*
X043639Y026182D01*
Y026049D01*
Y026149D01*
X043506D01*
X029476Y026349D02*
Y026482D01*
X029542Y026549D01*
X029609Y026482D01*
Y026349D01*
Y026449D01*
X029476D01*
X029256Y026339D02*
Y026472D01*
X029322Y026539D01*
X029389Y026472D01*
Y026339D01*
Y026439D01*
X029256D01*
X029086Y021789D02*
Y021922D01*
X029152Y021989D01*
X029219Y021922D01*
Y021789D01*
Y021889D01*
X029086D01*
X029236Y022019D02*
Y022152D01*
X029302Y022219D01*
X029369Y022152D01*
Y022019D01*
Y022119D01*
X029236D01*
X028889Y028085D02*
Y028218D01*
X028956Y028285D01*
X029023Y028218D01*
Y028085D01*
Y028185D01*
X028889D01*
X036866Y032449D02*
Y032582D01*
X036932Y032649D01*
X036999Y032582D01*
Y032449D01*
Y032549D01*
X036866D01*
X036496Y037699D02*
Y037832D01*
X036562Y037899D01*
X036629Y037832D01*
Y037699D01*
Y037799D01*
X036496D01*
X036826Y037759D02*
Y037892D01*
X036892Y037959D01*
X036959Y037892D01*
Y037759D01*
Y037859D01*
X036826D01*
X036496Y037929D02*
Y038062D01*
X036562Y038129D01*
X036629Y038062D01*
Y037929D01*
Y038029D01*
X036496D01*
X040596Y035089D02*
Y035222D01*
X040662Y035289D01*
X040729Y035222D01*
Y035089D01*
Y035189D01*
X040596D01*
X04062Y035979D02*
Y036112D01*
X040687Y036179D01*
X040754Y036112D01*
Y035979D01*
Y036079D01*
X04062D01*
X041396Y035809D02*
Y035942D01*
X041462Y036009D01*
X041529Y035942D01*
Y035809D01*
Y035909D01*
X041396D01*
X041926Y035269D02*
Y035402D01*
X041992Y035469D01*
X042059Y035402D01*
Y035269D01*
Y035369D01*
X041926D01*
X036496Y037469D02*
Y037602D01*
X036562Y037669D01*
X036629Y037602D01*
Y037469D01*
Y037569D01*
X036496D01*
X026626Y034269D02*
Y034402D01*
X026692Y034469D01*
X026759Y034402D01*
Y034269D01*
Y034369D01*
X026626D01*
Y033609D02*
Y033742D01*
X026692Y033809D01*
X026759Y033742D01*
Y033609D01*
Y033709D01*
X026626D01*
X037396Y030731D02*
Y030864D01*
X037462Y03093D01*
X037529Y030864D01*
Y030731D01*
Y030831D01*
X037396D01*
X036876Y030819D02*
Y030952D01*
X036942Y031019D01*
X037009Y030952D01*
Y030819D01*
Y030919D01*
X036876D01*
X036226Y030919D02*
Y031052D01*
X036292Y031119D01*
X036359Y031052D01*
Y030919D01*
Y031019D01*
X036226D01*
X041776Y032209D02*
Y032342D01*
X041842Y032409D01*
X041909Y032342D01*
Y032209D01*
Y032309D01*
X041776D01*
X041397Y032383D02*
Y032517D01*
X041464Y032583D01*
X04153Y032517D01*
Y032383D01*
Y032483D01*
X041397D01*
X040826Y029939D02*
Y030072D01*
X040892Y030139D01*
X040959Y030072D01*
Y029939D01*
Y030039D01*
X040826D01*
X038846Y031339D02*
Y031472D01*
X038912Y031539D01*
X038979Y031472D01*
Y031339D01*
Y031439D01*
X038846D01*
X039406Y031231D02*
Y031364D01*
X039472Y031431D01*
X039539Y031364D01*
Y031231D01*
Y031331D01*
X039406D01*
X036586Y030689D02*
Y030822D01*
X036652Y030889D01*
X036719Y030822D01*
Y030689D01*
Y030789D01*
X036586D01*
X036276Y030699D02*
Y030832D01*
X036342Y030899D01*
X036409Y030832D01*
Y030699D01*
Y030799D01*
X036276D01*
X036056Y030769D02*
Y030902D01*
X036122Y030969D01*
X036189Y030902D01*
Y030769D01*
Y030869D01*
X036056D01*
X032246Y033559D02*
Y033692D01*
X032312Y033759D01*
X032379Y033692D01*
Y033559D01*
Y033659D01*
X032246D01*
X032516Y033559D02*
Y033692D01*
X032582Y033759D01*
X032649Y033692D01*
Y033559D01*
Y033659D01*
X032516D01*
X032136Y034509D02*
Y034642D01*
X032202Y034709D01*
X032269Y034642D01*
Y034509D01*
Y034609D01*
X032136D01*
X032416Y034509D02*
Y034642D01*
X032482Y034709D01*
X032549Y034642D01*
Y034509D01*
Y034609D01*
X032416D01*
X032686Y034509D02*
Y034642D01*
X032752Y034709D01*
X032819Y034642D01*
Y034509D01*
Y034609D01*
X032686D01*
X049156Y016589D02*
Y016722D01*
X049222Y016789D01*
X049289Y016722D01*
Y016589D01*
Y016689D01*
X049156D01*
X045496Y016599D02*
Y016732D01*
X045562Y016799D01*
X045629Y016732D01*
Y016599D01*
Y016699D01*
X045496D01*
X041726Y016609D02*
Y016742D01*
X041792Y016809D01*
X041859Y016742D01*
Y016609D01*
Y016709D01*
X041726D01*
X037976Y016589D02*
Y016722D01*
X038042Y016789D01*
X038109Y016722D01*
Y016589D01*
Y016689D01*
X037976D01*
X034186Y016589D02*
Y016722D01*
X034252Y016789D01*
X034319Y016722D01*
Y016589D01*
Y016689D01*
X034186D01*
X030426Y016589D02*
Y016722D01*
X030492Y016789D01*
X030559Y016722D01*
Y016589D01*
Y016689D01*
X030426D01*
X026636Y016589D02*
Y016722D01*
X026702Y016789D01*
X026769Y016722D01*
Y016589D01*
Y016689D01*
X026636D01*
X022836Y016609D02*
Y016742D01*
X022902Y016809D01*
X022969Y016742D01*
Y016609D01*
Y016709D01*
X022836D01*
X032406Y019269D02*
Y019402D01*
X032472Y019469D01*
X032539Y019402D01*
Y019269D01*
Y019369D01*
X032406D01*
X034676Y018819D02*
Y018952D01*
X034742Y019019D01*
X034809Y018952D01*
Y018819D01*
Y018919D01*
X034676D01*
X034766Y021199D02*
Y021332D01*
X034832Y021399D01*
X034899Y021332D01*
Y021199D01*
Y021299D01*
X034766D01*
X040256Y025219D02*
Y025352D01*
X040322Y025419D01*
X040389Y025352D01*
Y025219D01*
Y025319D01*
X040256D01*
X039386Y023809D02*
Y023942D01*
X039452Y024009D01*
X039519Y023942D01*
Y023809D01*
Y023909D01*
X039386D01*
X038966Y024069D02*
Y024202D01*
X039032Y024269D01*
X039099Y024202D01*
Y024069D01*
Y024169D01*
X038966D01*
X038336Y024739D02*
Y024872D01*
X038402Y024939D01*
X038469Y024872D01*
Y024739D01*
Y024839D01*
X038336D01*
X038806Y026609D02*
Y026742D01*
X038872Y026809D01*
X038939Y026742D01*
Y026609D01*
Y026709D01*
X038806D01*
X038126Y026519D02*
Y026652D01*
X038192Y026719D01*
X038259Y026652D01*
Y026519D01*
Y026619D01*
X038126D01*
X017336Y034749D02*
Y034882D01*
X017402Y034949D01*
X017469Y034882D01*
Y034749D01*
Y034849D01*
X017336D01*
X022966Y033209D02*
Y033342D01*
X023032Y033409D01*
X023099Y033342D01*
Y033209D01*
Y033309D01*
X022966D01*
X021336Y031849D02*
Y031982D01*
X021402Y032049D01*
X021469Y031982D01*
Y031849D01*
Y031949D01*
X021336D01*
X021016Y031889D02*
Y032022D01*
X021082Y032089D01*
X021149Y032022D01*
Y031889D01*
Y031989D01*
X021016D01*
X019836Y031649D02*
Y031782D01*
X019902Y031849D01*
X019969Y031782D01*
Y031649D01*
Y031749D01*
X019836D01*
X015886Y040859D02*
Y040992D01*
X015952Y041059D01*
X016019Y040992D01*
Y040859D01*
Y040959D01*
X015886D01*
X015246Y037409D02*
Y037542D01*
X015312Y037609D01*
X015379Y037542D01*
Y037409D01*
Y037509D01*
X015246D01*
X014376Y037409D02*
Y037542D01*
X014442Y037609D01*
X014509Y037542D01*
Y037409D01*
Y037509D01*
X014376D01*
X038146Y036479D02*
Y036612D01*
X038212Y036679D01*
X038279Y036612D01*
Y036479D01*
Y036579D01*
X038146D01*
X039966Y027029D02*
Y027162D01*
X040032Y027229D01*
X040099Y027162D01*
Y027029D01*
Y027129D01*
X039966D01*
X036766Y027798D02*
Y027931D01*
X036832Y027998D01*
X036899Y027931D01*
Y027798D01*
Y027898D01*
X036766D01*
X015596Y035659D02*
Y035792D01*
X015662Y035859D01*
X015729Y035792D01*
Y035659D01*
Y035759D01*
X015596D01*
X020106Y032619D02*
Y032752D01*
X020172Y032819D01*
X020239Y032752D01*
Y032619D01*
Y032719D01*
X020106D01*
X020476Y032589D02*
Y032722D01*
X020542Y032789D01*
X020609Y032722D01*
Y032589D01*
Y032689D01*
X020476D01*
X020844Y032479D02*
Y032612D01*
X020911Y032679D01*
X020978Y032612D01*
Y032479D01*
Y032579D01*
X020844D01*
X032606Y035279D02*
Y035412D01*
X032672Y035479D01*
X032739Y035412D01*
Y035279D01*
Y035379D01*
X032606D01*
X033754Y030599D02*
Y030732D01*
X033821Y030799D01*
X033888Y030732D01*
Y030599D01*
Y030699D01*
X033754D01*
X033805Y03423D02*
Y034364D01*
X033871Y03443D01*
X033938Y034364D01*
Y03423D01*
Y03433D01*
X033805D01*
X033827Y033748D02*
Y033881D01*
X033894Y033948D01*
X03396Y033881D01*
Y033748D01*
Y033848D01*
X033827D01*
X034096Y034959D02*
Y035092D01*
X034162Y035159D01*
X034229Y035092D01*
Y034959D01*
Y035059D01*
X034096D01*
X038524Y032178D02*
Y032311D01*
X038591Y032378D01*
X038658Y032311D01*
Y032178D01*
Y032278D01*
X038524D01*
X032718Y028637D02*
Y02877D01*
X032785Y028837D01*
X032852Y02877D01*
Y028637D01*
Y028737D01*
X032718D01*
X028941Y034584D02*
Y034718D01*
X029008Y034784D01*
X029074Y034718D01*
Y034584D01*
Y034684D01*
X028941D01*
X029641Y034594D02*
Y034728D01*
X029708Y034794D01*
X029774Y034728D01*
Y034594D01*
Y034694D01*
X029641D01*
X029661Y034954D02*
Y035088D01*
X029728Y035154D01*
X029794Y035088D01*
Y034954D01*
Y035054D01*
X029661D01*
X028941Y034964D02*
Y035098D01*
X029008Y035164D01*
X029074Y035098D01*
Y034964D01*
Y035064D01*
X028941D01*
X029292Y034774D02*
Y034907D01*
X029359Y034974D01*
X029426Y034907D01*
Y034774D01*
Y034874D01*
X029292D01*
X022711Y042864D02*
Y042998D01*
X022778Y043064D01*
X022844Y042998D01*
Y042864D01*
Y042964D01*
X022711D01*
X022171Y042894D02*
Y043028D01*
X022238Y043094D01*
X022304Y043028D01*
Y042894D01*
Y042994D01*
X022171D01*
X022711Y043754D02*
Y043888D01*
X022778Y043954D01*
X022844Y043888D01*
Y043754D01*
Y043854D01*
X022711D01*
X022151Y043754D02*
Y043888D01*
X022218Y043954D01*
X022284Y043888D01*
Y043754D01*
Y043854D01*
X022151D01*
X022421Y043314D02*
Y043448D01*
X022488Y043514D01*
X022554Y043448D01*
Y043314D01*
Y043414D01*
X022421D01*
X020896Y037139D02*
Y037272D01*
X020962Y037339D01*
X021029Y037272D01*
Y037139D01*
Y037239D01*
X020896D01*
Y036299D02*
Y036432D01*
X020962Y036499D01*
X021029Y036432D01*
Y036299D01*
Y036399D01*
X020896D01*
X020106Y035519D02*
Y035652D01*
X020172Y035719D01*
X020239Y035652D01*
Y035519D01*
Y035619D01*
X020106D01*
Y036309D02*
Y036442D01*
X020172Y036509D01*
X020239Y036442D01*
Y036309D01*
Y036409D01*
X020106D01*
X020896Y035529D02*
Y035662D01*
X020962Y035729D01*
X021029Y035662D01*
Y035529D01*
Y035629D01*
X020896D01*
X020106Y037139D02*
Y037272D01*
X020172Y037339D01*
X020239Y037272D01*
Y037139D01*
Y037239D01*
X020106D01*
X019316Y037139D02*
Y037272D01*
X019382Y037339D01*
X019449Y037272D01*
Y037139D01*
Y037239D01*
X019316D01*
X035736Y026339D02*
Y026472D01*
X035802Y026539D01*
X035869Y026472D01*
Y026339D01*
Y026439D01*
X035736D01*
X035416Y026437D02*
Y02657D01*
X035483Y026637D01*
X035549Y02657D01*
Y026437D01*
Y026537D01*
X035416D01*
X035237Y026616D02*
Y026749D01*
X035304Y026816D01*
X03537Y026749D01*
Y026616D01*
Y026716D01*
X035237D01*
X049406Y024899D02*
Y025032D01*
X049472Y025099D01*
X049539Y025032D01*
Y024899D01*
Y024999D01*
X049406D01*
X048956Y024899D02*
Y025032D01*
X049022Y025099D01*
X049089Y025032D01*
Y024899D01*
Y024999D01*
X048956D01*
X049411Y025539D02*
Y025672D01*
X049477Y025739D01*
X049544Y025672D01*
Y025539D01*
Y025639D01*
X049411D01*
X048956Y025539D02*
Y025672D01*
X049022Y025739D01*
X049089Y025672D01*
Y025539D01*
Y025639D01*
X048956D01*
X049411Y026169D02*
Y026302D01*
X049477Y026369D01*
X049544Y026302D01*
Y026169D01*
Y026269D01*
X049411D01*
X048956Y026169D02*
Y026302D01*
X049022Y026369D01*
X049089Y026302D01*
Y026169D01*
Y026269D01*
X048956D01*
X049866Y026169D02*
Y026302D01*
X049932Y026369D01*
X049999Y026302D01*
Y026169D01*
Y026269D01*
X049866D01*
X050626Y026239D02*
Y026372D01*
X050692Y026439D01*
X050759Y026372D01*
Y026239D01*
Y026339D01*
X050626D01*
X034894Y028942D02*
Y029076D01*
X034961Y029142D01*
X035028Y029076D01*
Y028942D01*
Y029042D01*
X034894D01*
X017576Y039939D02*
Y040072D01*
X017642Y040139D01*
X017709Y040072D01*
Y039939D01*
Y040039D01*
X017576D01*
X020246Y040139D02*
Y040272D01*
X020312Y040339D01*
X020379Y040272D01*
Y040139D01*
Y040239D01*
X020246D01*
X024486Y042019D02*
Y042152D01*
X024552Y042219D01*
X024619Y042152D01*
Y042019D01*
Y042119D01*
X024486D01*
X025586Y042359D02*
Y042492D01*
X025652Y042559D01*
X025719Y042492D01*
Y042359D01*
Y042459D01*
X025586D01*
X031493Y027394D02*
Y027527D01*
X03156Y027594D01*
X031626Y027527D01*
Y027394D01*
Y027494D01*
X031493D01*
X033691Y028004D02*
Y028137D01*
X033758Y028204D01*
X033824Y028137D01*
Y028004D01*
Y028104D01*
X033691D01*
X034578Y026425D02*
Y026558D01*
X034644Y026625D01*
X034711Y026558D01*
Y026425D01*
Y026525D01*
X034578D01*
X033334Y026151D02*
Y026284D01*
X0334Y026351D01*
X033467Y026284D01*
Y026151D01*
Y026251D01*
X033334D01*
X033Y026222D02*
Y026355D01*
X033066Y026422D01*
X033133Y026355D01*
Y026222D01*
Y026322D01*
X033D01*
X032786Y017468D02*
Y017601D01*
X032852Y017668D01*
X032919Y017601D01*
Y017468D01*
Y017568D01*
X032786D01*
X032046Y017468D02*
Y017601D01*
X032112Y017668D01*
X032179Y017601D01*
Y017468D01*
Y017568D01*
X032046D01*
X024396Y032189D02*
Y032322D01*
X024462Y032389D01*
X024529Y032322D01*
Y032189D01*
Y032289D01*
X024396D01*
X033972Y024556D02*
Y024689D01*
X034038Y024756D01*
X034105Y024689D01*
Y024556D01*
Y024656D01*
X033972D01*
X0204Y025783D02*
Y025916D01*
X020466Y025983D01*
X020533Y025916D01*
Y025783D01*
Y025883D01*
X0204D01*
X031576Y033049D02*
Y033182D01*
X031642Y033249D01*
X031709Y033182D01*
Y033049D01*
Y033149D01*
X031576D01*
X016526Y037779D02*
Y037912D01*
X016592Y037979D01*
X016659Y037912D01*
Y037779D01*
Y037879D01*
X016526D01*
X016366Y035089D02*
Y035222D01*
X016432Y035289D01*
X016499Y035222D01*
Y035089D01*
Y035189D01*
X016366D01*
X017416Y031519D02*
Y031652D01*
X017482Y031719D01*
X017549Y031652D01*
Y031519D01*
Y031619D01*
X017416D01*
X043766Y035219D02*
Y035352D01*
X043832Y035419D01*
X043899Y035352D01*
Y035219D01*
Y035319D01*
X043766D01*
X034766Y032199D02*
Y032332D01*
X034832Y032399D01*
X034899Y032332D01*
Y032199D01*
Y032299D01*
X034766D01*
X044086Y03333D02*
Y033464D01*
X044152Y03353D01*
X044219Y033464D01*
Y03333D01*
Y03343D01*
X044086D01*
X047076Y029929D02*
Y030062D01*
X047142Y030129D01*
X047209Y030062D01*
Y029929D01*
Y030029D01*
X047076D01*
X038566Y028049D02*
Y028182D01*
X038632Y028249D01*
X038699Y028182D01*
Y028049D01*
Y028149D01*
X038566D01*
X046656Y026969D02*
Y027102D01*
X046722Y027169D01*
X046789Y027102D01*
Y026969D01*
Y027069D01*
X046656D01*
X041106Y025849D02*
Y025982D01*
X041172Y026049D01*
X041239Y025982D01*
Y025849D01*
Y025949D01*
X041106D01*
X043632Y026583D02*
Y026716D01*
X043699Y026783D01*
X043766Y026716D01*
Y026583D01*
Y026683D01*
X043632D01*
X0446Y026589D02*
Y026722D01*
X044666Y026789D01*
X044733Y026722D01*
Y026589D01*
Y026689D01*
X0446D01*
X044596Y026288D02*
Y026421D01*
X044662Y026488D01*
X044729Y026421D01*
Y026288D01*
Y026388D01*
X044596D01*
X043566Y021019D02*
Y021152D01*
X043632Y021219D01*
X043699Y021152D01*
Y021019D01*
Y021119D01*
X043566D01*
X043832Y032905D02*
Y033039D01*
X043899Y033105D01*
X043965Y033039D01*
Y032905D01*
Y033005D01*
X043832D01*
X046456Y032439D02*
Y032572D01*
X046522Y032639D01*
X046589Y032572D01*
Y032439D01*
Y032539D01*
X046456D01*
X041046Y033189D02*
Y033322D01*
X041112Y033389D01*
X041179Y033322D01*
Y033189D01*
Y033289D01*
X041046D01*
X047425Y037349D02*
Y037482D01*
X047491Y037549D01*
X047558Y037482D01*
Y037349D01*
Y037449D01*
X047425D01*
X039156Y032099D02*
Y032232D01*
X039222Y032299D01*
X039289Y032232D01*
Y032099D01*
Y032199D01*
X039156D01*
X039776Y033199D02*
Y033332D01*
X039842Y033399D01*
X039909Y033332D01*
Y033199D01*
Y033299D01*
X039776D01*
X037396Y035679D02*
Y035812D01*
X037462Y035879D01*
X037529Y035812D01*
Y035679D01*
Y035779D01*
X037396D01*
X041376Y032649D02*
Y032782D01*
X041442Y032849D01*
X041509Y032782D01*
Y032649D01*
Y032749D01*
X041376D01*
X038778Y033299D02*
Y033432D01*
X038845Y033499D01*
X038911Y033432D01*
Y033299D01*
Y033399D01*
X038778D01*
X039376Y033279D02*
Y033412D01*
X039442Y033479D01*
X039509Y033412D01*
Y033279D01*
Y033379D01*
X039376D01*
X040506Y033399D02*
Y033532D01*
X040572Y033599D01*
X040639Y033532D01*
Y033399D01*
Y033499D01*
X040506D01*
X035266Y032629D02*
Y032762D01*
X035332Y032829D01*
X035399Y032762D01*
Y032629D01*
Y032729D01*
X035266D01*
X042136Y028153D02*
Y028286D01*
X042202Y028353D01*
X042269Y028286D01*
Y028153D01*
Y028253D01*
X042136D01*
X042086Y027139D02*
Y027272D01*
X042152Y027339D01*
X042219Y027272D01*
Y027139D01*
Y027239D01*
X042086D01*
X040286Y027029D02*
Y027162D01*
X040352Y027229D01*
X040419Y027162D01*
Y027029D01*
Y027129D01*
X040286D01*
X041074Y027434D02*
Y027567D01*
X041141Y027634D01*
X041208Y027567D01*
Y027434D01*
Y027534D01*
X041074D01*
X037016Y026271D02*
Y026404D01*
X037082Y02647D01*
X037149Y026404D01*
Y026271D01*
Y026371D01*
X037016D01*
X037246Y026449D02*
Y026582D01*
X037312Y026649D01*
X037379Y026582D01*
Y026449D01*
Y026549D01*
X037246D01*
X033983Y026138D02*
Y026271D01*
X03405Y026338D01*
X034116Y026271D01*
Y026138D01*
Y026238D01*
X033983D01*
X038966Y026138D02*
Y026271D01*
X039032Y026338D01*
X039099Y026271D01*
Y026138D01*
Y026238D01*
X038966D01*
X039656Y025719D02*
Y025852D01*
X039722Y025919D01*
X039789Y025852D01*
Y025719D01*
Y025819D01*
X039656D01*
X040436Y025729D02*
Y025862D01*
X040502Y025929D01*
X040569Y025862D01*
Y025729D01*
Y025829D01*
X040436D01*
X040026Y025729D02*
Y025862D01*
X040092Y025929D01*
X040159Y025862D01*
Y025729D01*
Y025829D01*
X040026D01*
X043096Y034099D02*
Y034232D01*
X043162Y034299D01*
X043229Y034232D01*
Y034099D01*
Y034199D01*
X043096D01*
X021626Y013509D02*
Y013642D01*
X021692Y013709D01*
X021759Y013642D01*
Y013509D01*
Y013609D01*
X021626D01*
X033361Y028661D02*
Y028795D01*
X033427Y028861D01*
X033494Y028795D01*
Y028661D01*
Y028761D01*
X033361D01*
X033976Y028639D02*
Y028772D01*
X034042Y028839D01*
X034109Y028772D01*
Y028639D01*
Y028739D01*
X033976D01*
X033816Y033319D02*
Y033452D01*
X033882Y033519D01*
X033949Y033452D01*
Y033319D01*
Y033419D01*
X033816D01*
X034296Y028329D02*
Y028462D01*
X034362Y028529D01*
X034429Y028462D01*
Y028329D01*
Y028429D01*
X034296D01*
X034264Y027374D02*
Y027507D01*
X034331Y027574D01*
X034397Y027507D01*
Y027374D01*
Y027474D01*
X034264D01*
X034623Y028038D02*
Y028171D01*
X034689Y028238D01*
X034756Y028171D01*
Y028038D01*
Y028138D01*
X034623D01*
X034606Y027691D02*
Y027825D01*
X034672Y027891D01*
X034739Y027825D01*
Y027691D01*
Y027791D01*
X034606D01*
X034223Y027959D02*
Y028093D01*
X03429Y028159D01*
X034357Y028093D01*
Y027959D01*
Y028059D01*
X034223D01*
X033951Y027689D02*
Y027822D01*
X034017Y027889D01*
X034084Y027822D01*
Y027689D01*
Y027789D01*
X033951D01*
X033951Y027374D02*
Y027507D01*
X034017Y027574D01*
X034084Y027507D01*
Y027374D01*
Y027474D01*
X033951D01*
X022356Y030427D02*
Y03056D01*
X022422Y030627D01*
X022489Y03056D01*
Y030427D01*
Y030527D01*
X022356D01*
X022066Y030259D02*
Y030392D01*
X022132Y030459D01*
X022199Y030392D01*
Y030259D01*
Y030359D01*
X022066D01*
X021693Y030159D02*
Y030293D01*
X021759Y030359D01*
X021826Y030293D01*
Y030159D01*
Y030259D01*
X021693D01*
X020666Y025769D02*
Y025902D01*
X020732Y025969D01*
X020799Y025902D01*
Y025769D01*
Y025869D01*
X020666D01*
X022396Y029899D02*
Y030032D01*
X022462Y030099D01*
X022529Y030032D01*
Y029899D01*
Y029999D01*
X022396D01*
X021216Y023549D02*
Y023682D01*
X021282Y023749D01*
X021349Y023682D01*
Y023549D01*
Y023649D01*
X021216D01*
X021266Y025089D02*
Y025222D01*
X021332Y025289D01*
X021399Y025222D01*
Y025089D01*
Y025189D01*
X021266D01*
X024064Y020507D02*
Y02064D01*
X024131Y020707D01*
X024197Y02064D01*
Y020507D01*
Y020607D01*
X024064D01*
X021316Y016639D02*
Y016772D01*
X021382Y016839D01*
X021449Y016772D01*
Y016639D01*
Y016739D01*
X021316D01*
X021336Y018139D02*
Y018272D01*
X021402Y018339D01*
X021469Y018272D01*
Y018139D01*
Y018239D01*
X021336D01*
X021196Y012949D02*
Y013082D01*
X021262Y013149D01*
X021329Y013082D01*
Y012949D01*
Y013049D01*
X021196D01*
X021226Y014439D02*
Y014572D01*
X021292Y014639D01*
X021359Y014572D01*
Y014439D01*
Y014539D01*
X021226D01*
X018676Y039209D02*
Y039342D01*
X018742Y039409D01*
X018809Y039342D01*
Y039209D01*
Y039309D01*
X018676D01*
X019746Y033449D02*
Y033582D01*
X019812Y033649D01*
X019879Y033582D01*
Y033449D01*
Y033549D01*
X019746D01*
X019596Y027899D02*
Y028032D01*
X019662Y028099D01*
X019729Y028032D01*
Y027899D01*
Y027999D01*
X019596D01*
X019836Y028078D02*
Y028211D01*
X019902Y028278D01*
X019969Y028211D01*
Y028078D01*
Y028178D01*
X019836D01*
X022486Y029159D02*
Y029292D01*
X022552Y029359D01*
X022619Y029292D01*
Y029159D01*
Y029259D01*
X022486D01*
X022366Y028759D02*
Y028892D01*
X022432Y028959D01*
X022499Y028892D01*
Y028759D01*
Y028859D01*
X022366D01*
X031166Y026749D02*
Y026883D01*
X031232Y026949D01*
X031299Y026883D01*
Y026749D01*
Y026849D01*
X031166D01*
X035536Y024099D02*
Y024232D01*
X035602Y024299D01*
X035669Y024232D01*
Y024099D01*
Y024199D01*
X035536D01*
X031472Y027701D02*
Y027834D01*
X031539Y027901D01*
X031606Y027834D01*
Y027701D01*
Y027801D01*
X031472D01*
X031472Y028024D02*
Y028157D01*
X031539Y028224D01*
X031606Y028157D01*
Y028024D01*
Y028124D01*
X031472D01*
X034462Y023742D02*
Y023875D01*
X034529Y023942D01*
X034595Y023875D01*
Y023742D01*
Y023842D01*
X034462D01*
X029186Y028131D02*
Y028265D01*
X029252Y028331D01*
X029319Y028265D01*
Y028131D01*
Y028231D01*
X029186D01*
X025667Y03681D02*
Y036944D01*
X025734Y03701D01*
X0258Y036944D01*
Y03681D01*
Y03691D01*
X025667D01*
X025526Y033879D02*
Y034012D01*
X025592Y034079D01*
X025659Y034012D01*
Y033879D01*
Y033979D01*
X025526D01*
X024776Y048639D02*
Y048772D01*
X024842Y048839D01*
X024909Y048772D01*
Y048639D01*
Y048739D01*
X024776D01*
X024786Y048979D02*
Y049112D01*
X024852Y049179D01*
X024919Y049112D01*
Y048979D01*
Y049079D01*
X024786D01*
Y049349D02*
Y049482D01*
X024852Y049549D01*
X024919Y049482D01*
Y049349D01*
Y049449D01*
X024786D01*
Y049669D02*
Y049802D01*
X024852Y049869D01*
X024919Y049802D01*
Y049669D01*
Y049769D01*
X024786D01*
X037336Y034889D02*
Y035022D01*
X037402Y035089D01*
X037469Y035022D01*
Y034889D01*
Y034989D01*
X037336D01*
X037576Y038419D02*
Y038552D01*
X037642Y038619D01*
X037709Y038552D01*
Y038419D01*
Y038519D01*
X037576D01*
X041386Y034799D02*
Y034932D01*
X041452Y034999D01*
X041519Y034932D01*
Y034799D01*
Y034899D01*
X041386D01*
X041016Y036559D02*
Y036692D01*
X041082Y036759D01*
X041149Y036692D01*
Y036559D01*
Y036659D01*
X041016D01*
X045036Y033899D02*
Y034032D01*
X045102Y034099D01*
X045169Y034032D01*
Y033899D01*
Y033999D01*
X045036D01*
X045406Y033939D02*
Y034072D01*
X045472Y034139D01*
X045539Y034072D01*
Y033939D01*
Y034039D01*
X045406D01*
X038376Y027819D02*
Y027952D01*
X038442Y028019D01*
X038509Y027952D01*
Y027819D01*
Y027919D01*
X038376D01*
X032729Y02835D02*
Y028483D01*
X032796Y02855D01*
X032863Y028483D01*
Y02835D01*
Y02845D01*
X032729D01*
X032453Y028958D02*
Y029092D01*
X03252Y029158D01*
X032586Y029092D01*
Y028958D01*
Y029058D01*
X032453D01*
X03393Y02819D02*
Y028323D01*
X033996Y02839D01*
X034063Y028323D01*
Y02819D01*
Y02829D01*
X03393D01*
X033982Y028996D02*
Y029129D01*
X034049Y029196D01*
X034116Y029129D01*
Y028996D01*
Y029096D01*
X033982D01*
X034916Y027701D02*
Y027834D01*
X034982Y0279D01*
X035049Y027834D01*
Y027701D01*
Y027801D01*
X034916D01*
X032946Y022319D02*
Y022452D01*
X033012Y022519D01*
X033079Y022452D01*
Y022319D01*
Y022419D01*
X032946D01*
X032846Y022549D02*
Y022682D01*
X032912Y022749D01*
X032979Y022682D01*
Y022549D01*
Y022649D01*
X032846D01*
X032206Y022359D02*
Y022492D01*
X032272Y022559D01*
X032339Y022492D01*
Y022359D01*
Y022459D01*
X032206D01*
X032216Y022609D02*
Y022742D01*
X032282Y022809D01*
X032349Y022742D01*
Y022609D01*
Y022709D01*
X032216D01*
X028462Y025015D02*
Y025149D01*
X028529Y025215D01*
X028595Y025149D01*
Y025015D01*
Y025115D01*
X028462D01*
X032746Y024224D02*
Y024358D01*
X032813Y024424D01*
X032879Y024358D01*
Y024224D01*
Y024324D01*
X032746D01*
X034611Y025513D02*
Y025646D01*
X034678Y025713D01*
X034745Y025646D01*
Y025513D01*
Y025613D01*
X034611D01*
X033023Y025865D02*
Y025998D01*
X03309Y026065D01*
X033156Y025998D01*
Y025865D01*
Y025965D01*
X033023D01*
X033034Y025508D02*
Y025641D01*
X033101Y025708D01*
X033168Y025641D01*
Y025508D01*
Y025608D01*
X033034D01*
X033336Y025509D02*
Y025642D01*
X033402Y025709D01*
X033469Y025642D01*
Y025509D01*
Y025609D01*
X033336D01*
X033346Y025199D02*
Y025332D01*
X033412Y025399D01*
X033479Y025332D01*
Y025199D01*
Y025299D01*
X033346D01*
X033042Y024896D02*
Y02503D01*
X033109Y025096D01*
X033176Y02503D01*
Y024896D01*
Y024996D01*
X033042D01*
X032673Y024867D02*
Y025D01*
X03274Y025067D01*
X032807Y025D01*
Y024867D01*
Y024967D01*
X032673D01*
X032416Y025199D02*
Y025332D01*
X032482Y025399D01*
X032549Y025332D01*
Y025199D01*
Y025299D01*
X032416D01*
X03274Y025199D02*
Y025332D01*
X032807Y025399D01*
X032874Y025332D01*
Y025199D01*
Y025299D01*
X03274D01*
X033031Y024539D02*
Y024672D01*
X033097Y024739D01*
X033164Y024672D01*
Y024539D01*
Y024639D01*
X033031D01*
X031158Y025188D02*
Y025321D01*
X031225Y025388D01*
X031291Y025321D01*
Y025188D01*
Y025288D01*
X031158D01*
X032095Y02518D02*
Y025313D01*
X032162Y02538D01*
X032228Y025313D01*
Y02518D01*
Y02528D01*
X032095D01*
X030204Y026149D02*
Y026282D01*
X030271Y026349D01*
X030337Y026282D01*
Y026149D01*
Y026249D01*
X030204D01*
X030904Y026488D02*
Y026621D01*
X03097Y026688D01*
X031037Y026621D01*
Y026488D01*
Y026588D01*
X030904D01*
X031785Y026468D02*
Y026602D01*
X031852Y026668D01*
X031918Y026602D01*
Y026468D01*
Y026568D01*
X031785D01*
X031158Y025831D02*
Y025964D01*
X031225Y02603D01*
X031291Y025964D01*
Y025831D01*
Y02593D01*
X031158D01*
X031456Y026459D02*
Y026592D01*
X031522Y026659D01*
X031589Y026592D01*
Y026459D01*
Y026559D01*
X031456D01*
X031158Y026139D02*
Y026272D01*
X031225Y026339D01*
X031291Y026272D01*
Y026139D01*
Y026239D01*
X031158D01*
X031212Y023323D02*
Y023456D01*
X031279Y023523D01*
X031345Y023456D01*
Y023323D01*
Y023423D01*
X031212D01*
X031789Y027386D02*
Y027519D01*
X031855Y027586D01*
X031922Y027519D01*
Y027386D01*
Y027486D01*
X031789D01*
X031149Y027704D02*
Y027837D01*
X031216Y027904D01*
X031283Y027837D01*
Y027704D01*
Y027804D01*
X031149D01*
X031766Y027701D02*
Y027834D01*
X031832Y027901D01*
X031899Y027834D01*
Y027701D01*
Y027801D01*
X031766D01*
X032413Y027702D02*
Y027836D01*
X032479Y027902D01*
X032546Y027836D01*
Y027702D01*
Y027802D01*
X032413D01*
X032715Y027392D02*
Y027525D01*
X032781Y027592D01*
X032848Y027525D01*
Y027392D01*
Y027492D01*
X032715D01*
X033351Y026769D02*
Y026902D01*
X033417Y026969D01*
X033484Y026902D01*
Y026769D01*
Y026869D01*
X033351D01*
X033346Y026469D02*
Y026602D01*
X033412Y026669D01*
X033479Y026602D01*
Y026469D01*
Y026569D01*
X033346D01*
X034293Y02614D02*
Y026274D01*
X03436Y02634D01*
X034427Y026274D01*
Y02614D01*
Y02624D01*
X034293D01*
X034296Y026449D02*
Y026582D01*
X034362Y026649D01*
X034429Y026582D01*
Y026449D01*
Y026549D01*
X034296D01*
X033666Y027389D02*
Y027522D01*
X033732Y027589D01*
X033799Y027522D01*
Y027389D01*
Y027489D01*
X033666D01*
X033956Y027029D02*
Y027163D01*
X034022Y027229D01*
X034089Y027163D01*
Y027029D01*
Y027129D01*
X033956D01*
X034307Y027077D02*
Y02721D01*
X034373Y027276D01*
X03444Y02721D01*
Y027077D01*
Y027176D01*
X034307D01*
X034624Y027078D02*
Y027212D01*
X03469Y027278D01*
X034757Y027212D01*
Y027078D01*
Y027178D01*
X034624D01*
X034929Y027068D02*
Y027202D01*
X034995Y027268D01*
X035062Y027202D01*
Y027068D01*
Y027168D01*
X034929D01*
X034928Y027395D02*
Y027528D01*
X034994Y027595D01*
X035061Y027528D01*
Y027395D01*
Y027495D01*
X034928D01*
X034617Y027387D02*
Y027521D01*
X034684Y027587D01*
X034751Y027521D01*
Y027387D01*
Y027487D01*
X034617D01*
X034223Y027669D02*
Y027802D01*
X03429Y027869D01*
X034357Y027802D01*
Y027669D01*
Y027769D01*
X034223D01*
X033675Y028358D02*
Y028491D01*
X033742Y028558D01*
X033808Y028491D01*
Y028358D01*
Y028458D01*
X033675D01*
X033666Y028659D02*
Y028792D01*
X033732Y028859D01*
X033799Y028792D01*
Y028659D01*
Y028759D01*
X033666D01*
X032077Y028358D02*
Y028491D01*
X032143Y028558D01*
X03221Y028491D01*
Y028358D01*
Y028458D01*
X032077D01*
X032396Y028659D02*
Y028792D01*
X032462Y028859D01*
X032529Y028792D01*
Y028659D01*
Y028759D01*
X032396D01*
X032096Y028959D02*
Y029092D01*
X032162Y029159D01*
X032229Y029092D01*
Y028959D01*
Y029059D01*
X032096D01*
X030514Y028007D02*
Y02814D01*
X03058Y028207D01*
X030647Y02814D01*
Y028007D01*
Y028107D01*
X030514D01*
X030826Y028335D02*
Y028468D01*
X030892Y028535D01*
X030959Y028468D01*
Y028335D01*
Y028435D01*
X030826D01*
X031137Y028668D02*
Y028801D01*
X031204Y028868D01*
X03127Y028801D01*
Y028668D01*
Y028768D01*
X031137D01*
X031447Y028673D02*
Y028806D01*
X031513Y028873D01*
X03158Y028806D01*
Y028673D01*
Y028773D01*
X031447D01*
X031776Y028349D02*
Y028482D01*
X031842Y028549D01*
X031909Y028482D01*
Y028349D01*
Y028449D01*
X031776D01*
X040246Y018089D02*
Y018222D01*
X040312Y018289D01*
X040379Y018222D01*
Y018089D01*
Y018189D01*
X040246D01*
X038736Y019089D02*
Y019222D01*
X038802Y019289D01*
X038869Y019222D01*
Y019089D01*
Y019189D01*
X038736D01*
X034406Y023489D02*
Y023622D01*
X034472Y023689D01*
X034539Y023622D01*
Y023489D01*
Y023589D01*
X034406D01*
X030486Y023258D02*
Y023391D01*
X030553Y023458D01*
X030619Y023391D01*
Y023258D01*
Y023358D01*
X030486D01*
X030841Y023357D02*
Y02349D01*
X030908Y023557D01*
X030975Y02349D01*
Y023357D01*
Y023457D01*
X030841D01*
X038966Y025019D02*
Y025152D01*
X039032Y025219D01*
X039099Y025152D01*
Y025019D01*
Y025119D01*
X038966D01*
X016386Y040139D02*
Y040272D01*
X016452Y040339D01*
X016519Y040272D01*
Y040139D01*
Y040239D01*
X016386D01*
X021606Y026709D02*
Y026842D01*
X021672Y026909D01*
X021739Y026842D01*
Y026709D01*
Y026809D01*
X021606D01*
X020496Y033479D02*
Y033612D01*
X020562Y033679D01*
X020629Y033612D01*
Y033479D01*
Y033579D01*
X020496D01*
X019836Y032469D02*
Y032602D01*
X019902Y032669D01*
X019969Y032602D01*
Y032469D01*
Y032569D01*
X019836D01*
X027917Y0514D02*
Y051533D01*
X027984Y0516D01*
X02805Y051533D01*
Y0514D01*
Y0515D01*
X027917D01*
X028046Y051599D02*
Y051732D01*
X028112Y051799D01*
X028179Y051732D01*
Y051599D01*
Y051699D01*
X028046D01*
X027516Y051509D02*
Y051642D01*
X027582Y051709D01*
X027649Y051642D01*
Y051509D01*
Y051609D01*
X027516D01*
X027256Y051539D02*
Y051672D01*
X027322Y051739D01*
X027389Y051672D01*
Y051539D01*
Y051639D01*
X027256D01*
X028346Y050339D02*
Y050472D01*
X028412Y050539D01*
X028479Y050472D01*
Y050339D01*
Y050439D01*
X028346D01*
X050612Y027727D02*
Y027861D01*
X050679Y027927D01*
X050745Y027861D01*
Y027727D01*
Y027827D01*
X050612D01*
X049689Y028469D02*
Y028603D01*
X049755Y028669D01*
X049822Y028603D01*
Y028469D01*
Y028569D01*
X049689D01*
X04965Y028204D02*
Y028338D01*
X049717Y028404D01*
X049784Y028338D01*
Y028204D01*
Y028304D01*
X04965D01*
X053216Y030969D02*
Y031102D01*
X053282Y031169D01*
X053349Y031102D01*
Y030969D01*
Y031069D01*
X053216D01*
X053226Y031389D02*
Y031522D01*
X053292Y031589D01*
X053359Y031522D01*
Y031389D01*
Y031489D01*
X053226D01*
X044466Y030289D02*
Y030422D01*
X044532Y030489D01*
X044599Y030422D01*
Y030289D01*
Y030389D01*
X044466D01*
X051535Y025698D02*
Y025831D01*
X051601Y025898D01*
X051668Y025831D01*
Y025698D01*
Y025798D01*
X051535D01*
X051566Y026089D02*
Y026222D01*
X051632Y026289D01*
X051699Y026222D01*
Y026089D01*
Y026189D01*
X051566D01*
X052306Y027549D02*
Y027682D01*
X052372Y027749D01*
X052439Y027682D01*
Y027549D01*
Y027649D01*
X052306D01*
X052036Y026449D02*
Y026582D01*
X052102Y026649D01*
X052169Y026582D01*
Y026449D01*
Y026549D01*
X052036D01*
X053136Y026239D02*
Y026372D01*
X053202Y026439D01*
X053269Y026372D01*
Y026239D01*
Y026339D01*
X053136D01*
X052786Y020959D02*
Y021092D01*
X052852Y021159D01*
X052919Y021092D01*
Y020959D01*
Y021059D01*
X052786D01*
X053936Y019899D02*
Y020032D01*
X054002Y020099D01*
X054069Y020032D01*
Y019899D01*
Y019999D01*
X053936D01*
X051266Y021659D02*
Y021792D01*
X051332Y021859D01*
X051399Y021792D01*
Y021659D01*
Y021759D01*
X051266D01*
X051516Y021869D02*
Y022002D01*
X051582Y022069D01*
X051649Y022002D01*
Y021869D01*
Y021969D01*
X051516D01*
X053776Y020978D02*
Y021111D01*
X053842Y021178D01*
X053909Y021111D01*
Y020978D01*
Y021078D01*
X053776D01*
X050656Y025299D02*
Y025432D01*
X050722Y025499D01*
X050789Y025432D01*
Y025299D01*
Y025399D01*
X050656D01*
X049221Y021474D02*
Y021607D01*
X049287Y021674D01*
X049354Y021607D01*
Y021474D01*
Y021574D01*
X049221D01*
X049146Y021249D02*
Y021382D01*
X049212Y021449D01*
X049279Y021382D01*
Y021249D01*
Y021349D01*
X049146D01*
X050816Y024124D02*
Y024257D01*
X050883Y024324D01*
X05095Y024257D01*
Y024124D01*
Y024224D01*
X050816D01*
X050979Y023899D02*
Y024032D01*
X051046Y024099D01*
X051112Y024032D01*
Y023899D01*
Y023999D01*
X050979D01*
X051206Y02374D02*
Y023873D01*
X051272Y02394D01*
X051339Y023873D01*
Y02374D01*
Y02384D01*
X051206D01*
X051471Y023659D02*
Y023793D01*
X051538Y023859D01*
X051604Y023793D01*
Y023659D01*
Y023759D01*
X051471D01*
X051741Y023598D02*
Y023731D01*
X051808Y023798D01*
X051874Y023731D01*
Y023598D01*
Y023698D01*
X051741D01*
X052018Y023596D02*
Y02373D01*
X052085Y023796D01*
X052152Y02373D01*
Y023596D01*
Y023696D01*
X052018D01*
X052492Y023461D02*
Y023594D01*
X052559Y023661D01*
X052625Y023594D01*
Y023461D01*
Y023561D01*
X052492D01*
X05253Y023186D02*
Y023319D01*
X052597Y023386D01*
X052663Y023319D01*
Y023186D01*
Y023286D01*
X05253D01*
X052668Y022946D02*
Y023079D01*
X052734Y023146D01*
X052801Y023079D01*
Y022946D01*
Y023046D01*
X052668D01*
X052885Y022774D02*
Y022907D01*
X052952Y022974D01*
X053019Y022907D01*
Y022774D01*
Y022874D01*
X052885D01*
X053152Y022699D02*
Y022833D01*
X053219Y022899D01*
X053286Y022833D01*
Y022699D01*
Y022799D01*
X053152D01*
X053429Y022696D02*
Y022829D01*
X053496Y022896D01*
X053563Y022829D01*
Y022696D01*
Y022796D01*
X053429D01*
X05341Y023084D02*
Y023217D01*
X053476Y023284D01*
X053543Y023217D01*
Y023084D01*
Y023184D01*
X05341D01*
X053133Y023095D02*
Y023228D01*
X053199Y023295D01*
X053266Y023228D01*
Y023095D01*
Y023195D01*
X053133D01*
X052794Y023807D02*
Y023941D01*
X052861Y024007D01*
X052927Y023941D01*
Y023807D01*
Y023907D01*
X052794D01*
X052039Y024089D02*
Y024222D01*
X052106Y024289D01*
X052172Y024222D01*
Y024089D01*
Y024189D01*
X052039D01*
X051488Y02405D02*
Y024183D01*
X051554Y02425D01*
X051621Y024183D01*
Y02405D01*
Y02415D01*
X051488D01*
X051245Y024184D02*
Y024317D01*
X051312Y024384D01*
X051378Y024317D01*
Y024184D01*
Y024284D01*
X051245D01*
X051213Y024459D02*
Y024592D01*
X05128Y024659D01*
X051346Y024592D01*
Y024459D01*
Y024559D01*
X051213D01*
X051356Y025509D02*
Y025642D01*
X051423Y025709D01*
X051489Y025642D01*
Y025509D01*
Y025609D01*
X051356D01*
X051198Y025333D02*
Y025466D01*
X051264Y025533D01*
X051331Y025466D01*
Y025333D01*
Y025433D01*
X051198D01*
X046536Y022969D02*
Y023102D01*
X046602Y023169D01*
X046669Y023102D01*
Y022969D01*
Y023069D01*
X046536D01*
X051566Y019219D02*
Y019352D01*
X051632Y019419D01*
X051699Y019352D01*
Y019219D01*
Y019319D01*
X051566D01*
X050056Y019199D02*
Y019332D01*
X050122Y019399D01*
X050189Y019332D01*
Y019199D01*
Y019299D01*
X050056D01*
X047806Y019199D02*
Y019332D01*
X047872Y019399D01*
X047939Y019332D01*
Y019199D01*
Y019299D01*
X047806D01*
X046286Y019209D02*
Y019342D01*
X046352Y019409D01*
X046419Y019342D01*
Y019209D01*
Y019309D01*
X046286D01*
X025986Y024709D02*
Y024842D01*
X026052Y024909D01*
X026119Y024842D01*
Y024709D01*
Y024809D01*
X025986D01*
X047634Y024695D02*
Y024828D01*
X047701Y024895D01*
X047768Y024828D01*
Y024695D01*
Y024795D01*
X047634D01*
X047836Y02457D02*
Y024703D01*
X047902Y02477D01*
X047969Y024703D01*
Y02457D01*
Y02467D01*
X047836D01*
X047777Y025359D02*
Y025492D01*
X047844Y025558D01*
X04791Y025492D01*
Y025359D01*
Y025458D01*
X047777D01*
X047642Y024932D02*
Y025065D01*
X047709Y025132D01*
X047776Y025065D01*
Y024932D01*
Y025032D01*
X047642D01*
X047634Y025169D02*
Y025302D01*
X047701Y025369D01*
X047768Y025302D01*
Y025169D01*
Y025269D01*
X047634D01*
X031006Y019849D02*
Y019982D01*
X031072Y020049D01*
X031139Y019982D01*
Y019849D01*
Y019949D01*
X031006D01*
X030229Y024283D02*
Y024416D01*
X030295Y024483D01*
X030362Y024416D01*
Y024283D01*
Y024383D01*
X030229D01*
X031172Y028003D02*
Y028136D01*
X031239Y028203D01*
X031305Y028136D01*
Y028003D01*
Y028103D01*
X031172D01*
X033001Y018427D02*
Y01856D01*
X033068Y018627D01*
X033135Y01856D01*
Y018427D01*
Y018527D01*
X033001D01*
X032084Y029809D02*
Y029942D01*
X032151Y030009D01*
X032218Y029942D01*
Y029809D01*
Y029909D01*
X032084D01*
X051226Y026399D02*
Y026532D01*
X051292Y026599D01*
X051359Y026532D01*
Y026399D01*
Y026499D01*
X051226D01*
X045796Y020539D02*
Y020672D01*
X045862Y020739D01*
X045929Y020672D01*
Y020539D01*
Y020639D01*
X045796D01*
X046966Y026679D02*
Y026812D01*
X047032Y026879D01*
X047099Y026812D01*
Y026679D01*
Y026779D01*
X046966D01*
X048256Y015479D02*
Y015612D01*
X048322Y015679D01*
X048389Y015612D01*
Y015479D01*
Y015579D01*
X048256D01*
X052016Y015419D02*
Y015552D01*
X052082Y015619D01*
X052149Y015552D01*
Y015419D01*
Y015519D01*
X052016D01*
X049656Y015429D02*
Y015562D01*
X049722Y015629D01*
X049789Y015562D01*
Y015429D01*
Y015529D01*
X049656D01*
X045856Y015459D02*
Y015592D01*
X045922Y015659D01*
X045989Y015592D01*
Y015459D01*
Y015559D01*
X045856D01*
X044456Y015449D02*
Y015582D01*
X044522Y015649D01*
X044589Y015582D01*
Y015449D01*
Y015549D01*
X044456D01*
X042096Y015439D02*
Y015572D01*
X042162Y015639D01*
X042229Y015572D01*
Y015439D01*
Y015539D01*
X042096D01*
X040686Y015439D02*
Y015572D01*
X040752Y015639D01*
X040819Y015572D01*
Y015439D01*
Y015539D01*
X040686D01*
X038336Y015449D02*
Y015582D01*
X038402Y015649D01*
X038469Y015582D01*
Y015449D01*
Y015549D01*
X038336D01*
X036936Y015439D02*
Y015572D01*
X037002Y015639D01*
X037069Y015572D01*
Y015439D01*
Y015539D01*
X036936D01*
X034546Y015449D02*
Y015582D01*
X034612Y015649D01*
X034679Y015582D01*
Y015449D01*
Y015549D01*
X034546D01*
X033136Y015429D02*
Y015562D01*
X033202Y015629D01*
X033269Y015562D01*
Y015429D01*
Y015529D01*
X033136D01*
X030786Y015439D02*
Y015572D01*
X030852Y015639D01*
X030919Y015572D01*
Y015439D01*
Y015539D01*
X030786D01*
X029356Y015429D02*
Y015562D01*
X029422Y015629D01*
X029489Y015562D01*
Y015429D01*
Y015529D01*
X029356D01*
X027026Y015449D02*
Y015582D01*
X027092Y015649D01*
X027159Y015582D01*
Y015449D01*
Y015549D01*
X027026D01*
X025566Y015419D02*
Y015552D01*
X025632Y015619D01*
X025699Y015552D01*
Y015419D01*
Y015519D01*
X025566D01*
X023306Y015439D02*
Y015572D01*
X023372Y015639D01*
X023439Y015572D01*
Y015439D01*
Y015539D01*
X023306D01*
X020076Y026369D02*
Y026502D01*
X020142Y026569D01*
X020209Y026502D01*
Y026369D01*
Y026469D01*
X020076D01*
X038016Y028861D02*
Y028994D01*
X038082Y02906D01*
X038149Y028994D01*
Y028861D01*
Y028961D01*
X038016D01*
X049106Y024499D02*
Y024632D01*
X049172Y024699D01*
X049239Y024632D01*
Y024499D01*
Y024599D01*
X049106D01*
X054026Y013359D02*
Y013492D01*
X054092Y013559D01*
X054159Y013492D01*
Y013359D01*
Y013459D01*
X054026D01*
X054006Y013619D02*
Y013752D01*
X054072Y013819D01*
X054139Y013752D01*
Y013619D01*
Y013719D01*
X054006D01*
X051666Y014289D02*
Y014422D01*
X051732Y014489D01*
X051799Y014422D01*
Y014289D01*
Y014389D01*
X051666D01*
X051916Y014329D02*
Y014462D01*
X051982Y014529D01*
X052049Y014462D01*
Y014329D01*
Y014429D01*
X051916D01*
X050276Y026619D02*
Y026752D01*
X050342Y026819D01*
X050409Y026752D01*
Y026619D01*
Y026719D01*
X050276D01*
X051256Y02611D02*
Y026243D01*
X051323Y02631D01*
X05139Y026243D01*
Y02611D01*
Y02621D01*
X051256D01*
X031096Y017289D02*
Y017422D01*
X031162Y017489D01*
X031229Y017422D01*
Y017289D01*
Y017389D01*
X031096D01*
Y017599D02*
Y017732D01*
X031162Y017799D01*
X031229Y017732D01*
Y017599D01*
Y017699D01*
X031096D01*
X030606Y019129D02*
Y019262D01*
X030672Y019329D01*
X030739Y019262D01*
Y019129D01*
Y019229D01*
X030606D01*
X031213Y017887D02*
Y01802D01*
X031279Y018087D01*
X031346Y01802D01*
Y017887D01*
Y017987D01*
X031213D01*
X031666Y017779D02*
Y017912D01*
X031732Y017979D01*
X031799Y017912D01*
Y017779D01*
Y017879D01*
X031666D01*
X031386Y018049D02*
Y018182D01*
X031452Y018249D01*
X031519Y018182D01*
Y018049D01*
Y018149D01*
X031386D01*
X055266Y017929D02*
Y018062D01*
X055332Y018129D01*
X055399Y018062D01*
Y017929D01*
Y018029D01*
X055266D01*
X055326Y018719D02*
Y018852D01*
X055392Y018919D01*
X055459Y018852D01*
Y018719D01*
Y018819D01*
X055326D01*
X054516Y019899D02*
Y020032D01*
X054582Y020099D01*
X054649Y020032D01*
Y019899D01*
Y019999D01*
X054516D01*
X053986Y019549D02*
Y019682D01*
X054052Y019749D01*
X054119Y019682D01*
Y019549D01*
Y019649D01*
X053986D01*
X053456Y019769D02*
Y019902D01*
X053522Y019969D01*
X053589Y019902D01*
Y019769D01*
Y019869D01*
X053456D01*
X033283Y018459D02*
Y018593D01*
X033349Y018659D01*
X033416Y018593D01*
Y018459D01*
Y018559D01*
X033283D01*
X029886Y019379D02*
Y019512D01*
X029952Y019579D01*
X030019Y019512D01*
Y019379D01*
Y019479D01*
X029886D01*
X033776Y019028D02*
Y019161D01*
X033842Y019228D01*
X033909Y019161D01*
Y019028D01*
Y019128D01*
X033776D01*
X033536Y018939D02*
Y019072D01*
X033602Y019139D01*
X033669Y019072D01*
Y018939D01*
Y019039D01*
X033536D01*
X043996Y019209D02*
Y019342D01*
X044062Y019409D01*
X044129Y019342D01*
Y019209D01*
Y019309D01*
X043996D01*
X042526Y019239D02*
Y019372D01*
X042592Y019439D01*
X042659Y019372D01*
Y019239D01*
Y019339D01*
X042526D01*
X027416Y018169D02*
Y018302D01*
X027482Y018369D01*
X027549Y018302D01*
Y018169D01*
Y018269D01*
X027416D01*
X029416Y018639D02*
Y018772D01*
X029482Y018839D01*
X029549Y018772D01*
Y018639D01*
Y018739D01*
X029416D01*
X032786Y019339D02*
Y019472D01*
X032852Y019539D01*
X032919Y019472D01*
Y019339D01*
Y019439D01*
X032786D01*
X030266Y021039D02*
Y021172D01*
X030332Y021239D01*
X030399Y021172D01*
Y021039D01*
Y021139D01*
X030266D01*
X034106Y021099D02*
Y021232D01*
X034172Y021299D01*
X034239Y021232D01*
Y021099D01*
Y021199D01*
X034106D01*
X033386Y021199D02*
Y021332D01*
X033452Y021399D01*
X033519Y021332D01*
Y021199D01*
Y021299D01*
X033386D01*
X033666Y021159D02*
Y021292D01*
X033732Y021359D01*
X033799Y021292D01*
Y021159D01*
Y021259D01*
X033666D01*
X028206Y025019D02*
Y025152D01*
X028272Y025219D01*
X028339Y025152D01*
Y025019D01*
Y025119D01*
X028206D01*
X032453Y027045D02*
Y027178D01*
X03252Y027245D01*
X032587Y027178D01*
Y027045D01*
Y027145D01*
X032453D01*
X044476Y023329D02*
Y023462D01*
X044542Y023529D01*
X044609Y023462D01*
Y023329D01*
Y023429D01*
X044476D01*
X044376Y023549D02*
Y023682D01*
X044442Y023749D01*
X044509Y023682D01*
Y023549D01*
Y023649D01*
X044376D01*
X044146Y023649D02*
Y023782D01*
X044212Y023849D01*
X044279Y023782D01*
Y023649D01*
Y023749D01*
X044146D01*
X043976Y023862D02*
Y023996D01*
X044043Y024062D01*
X04411Y023996D01*
Y023862D01*
Y023962D01*
X043976D01*
X043776Y023989D02*
Y024122D01*
X043842Y024189D01*
X043909Y024122D01*
Y023989D01*
Y024089D01*
X043776D01*
Y024279D02*
Y024412D01*
X043842Y024479D01*
X043909Y024412D01*
Y024279D01*
Y024379D01*
X043776D01*
X034265Y025225D02*
Y025358D01*
X034332Y025425D01*
X034399Y025358D01*
Y025225D01*
Y025325D01*
X034265D01*
X046656Y025844D02*
Y025978D01*
X046723Y026044D01*
X04679Y025978D01*
Y025844D01*
Y025944D01*
X046656D01*
X046626Y025609D02*
Y025742D01*
X046692Y025809D01*
X046759Y025742D01*
Y025609D01*
Y025709D01*
X046626D01*
X043716Y024559D02*
Y024692D01*
X043782Y024759D01*
X043849Y024692D01*
Y024559D01*
Y024659D01*
X043716D01*
X048696Y024469D02*
Y024602D01*
X048762Y024669D01*
X048829Y024602D01*
Y024469D01*
Y024569D01*
X048696D01*
X040366Y036559D02*
Y036692D01*
X040432Y036759D01*
X040499Y036692D01*
Y036559D01*
Y036659D01*
X040366D01*
X038796Y036539D02*
Y036672D01*
X038862Y036739D01*
X038929Y036672D01*
Y036539D01*
Y036639D01*
X038796D01*
X044906Y027659D02*
Y027792D01*
X044973Y027859D01*
X04504Y027792D01*
Y027659D01*
Y027759D01*
X044906D01*
X044316Y027659D02*
Y027792D01*
X044382Y027859D01*
X044449Y027792D01*
Y027659D01*
Y027759D01*
X044316D01*
X043725Y027659D02*
Y027792D01*
X043792Y027859D01*
X043859Y027792D01*
Y027659D01*
Y027759D01*
X043725D01*
X044906Y028249D02*
Y028382D01*
X044973Y028449D01*
X04504Y028382D01*
Y028249D01*
Y028349D01*
X044906D01*
X044316Y028249D02*
Y028382D01*
X044382Y028449D01*
X044449Y028382D01*
Y028249D01*
Y028349D01*
X044316D01*
X043725Y028249D02*
Y028382D01*
X043792Y028449D01*
X043859Y028382D01*
Y028249D01*
Y028349D01*
X043725D01*
X044906Y02884D02*
Y028973D01*
X044973Y02904D01*
X04504Y028973D01*
Y02884D01*
Y02894D01*
X044906D01*
X044316Y02884D02*
Y028973D01*
X044382Y02904D01*
X044449Y028973D01*
Y02884D01*
Y02894D01*
X044316D01*
X043725Y02884D02*
Y028973D01*
X043792Y02904D01*
X043859Y028973D01*
Y02884D01*
Y02894D01*
X043725D01*
X038229Y033865D02*
Y033665D01*
X038329D01*
X038363Y033698D01*
Y033732D01*
X038329Y033765D01*
X038229D01*
X038329D01*
X038363Y033798D01*
Y033831D01*
X038329Y033865D01*
X038229D01*
X039242Y036351D02*
Y036151D01*
X039342D01*
X039375Y036184D01*
Y036218D01*
X039342Y036251D01*
X039242D01*
X039342D01*
X039375Y036284D01*
Y036318D01*
X039342Y036351D01*
X039242D01*
Y035847D02*
Y035647D01*
X039342D01*
X039375Y03568D01*
Y035714D01*
X039342Y035747D01*
X039242D01*
X039342D01*
X039375Y03578D01*
Y035814D01*
X039342Y035847D01*
X039242D01*
Y033831D02*
Y033631D01*
X039342D01*
X039375Y033665D01*
Y033698D01*
X039342Y033731D01*
X039242D01*
X039342D01*
X039375Y033765D01*
Y033798D01*
X039342Y033831D01*
X039242D01*
Y034335D02*
Y034135D01*
X039342D01*
X039375Y034169D01*
Y034202D01*
X039342Y034235D01*
X039242D01*
X039342D01*
X039375Y034268D01*
Y034302D01*
X039342Y034335D01*
X039242D01*
X039242Y034839D02*
Y034639D01*
X039342D01*
X039375Y034672D01*
Y034706D01*
X039342Y034739D01*
X039242D01*
X039342D01*
X039375Y034772D01*
Y034806D01*
X039342Y034839D01*
X039242D01*
Y035343D02*
Y035143D01*
X039342D01*
X039375Y035176D01*
Y03521D01*
X039342Y035243D01*
X039242D01*
X039342D01*
X039375Y035276D01*
Y03531D01*
X039342Y035343D01*
X039242D01*
X039746Y036351D02*
Y036151D01*
X039846D01*
X039879Y036184D01*
Y036218D01*
X039846Y036251D01*
X039746D01*
X039846D01*
X039879Y036284D01*
Y036318D01*
X039846Y036351D01*
X039746D01*
Y035847D02*
Y035647D01*
X039846D01*
X039879Y03568D01*
Y035714D01*
X039846Y035747D01*
X039746D01*
X039846D01*
X039879Y03578D01*
Y035814D01*
X039846Y035847D01*
X039746D01*
Y033831D02*
Y033631D01*
X039846D01*
X039879Y033665D01*
Y033698D01*
X039846Y033731D01*
X039746D01*
X039846D01*
X039879Y033765D01*
Y033798D01*
X039846Y033831D01*
X039746D01*
Y034335D02*
Y034135D01*
X039846D01*
X039879Y034169D01*
Y034202D01*
X039846Y034235D01*
X039746D01*
X039846D01*
X039879Y034268D01*
Y034302D01*
X039846Y034335D01*
X039746D01*
X039746Y034839D02*
Y034639D01*
X039846D01*
X039879Y034672D01*
Y034706D01*
X039846Y034739D01*
X039746D01*
X039846D01*
X039879Y034772D01*
Y034806D01*
X039846Y034839D01*
X039746D01*
Y035343D02*
Y035143D01*
X039846D01*
X039879Y035176D01*
Y03521D01*
X039846Y035243D01*
X039746D01*
X039846D01*
X039879Y035276D01*
Y03531D01*
X039846Y035343D01*
X039746D01*
X04025Y036351D02*
Y036151D01*
X04035D01*
X040383Y036184D01*
Y036218D01*
X04035Y036251D01*
X04025D01*
X04035D01*
X040383Y036284D01*
Y036318D01*
X04035Y036351D01*
X04025D01*
Y035847D02*
Y035647D01*
X04035D01*
X040383Y03568D01*
Y035714D01*
X04035Y035747D01*
X04025D01*
X04035D01*
X040383Y03578D01*
Y035814D01*
X04035Y035847D01*
X04025D01*
Y033831D02*
Y033631D01*
X04035D01*
X040383Y033665D01*
Y033698D01*
X04035Y033731D01*
X04025D01*
X04035D01*
X040383Y033765D01*
Y033798D01*
X04035Y033831D01*
X04025D01*
Y034335D02*
Y034135D01*
X04035D01*
X040383Y034169D01*
Y034202D01*
X04035Y034235D01*
X04025D01*
X04035D01*
X040383Y034268D01*
Y034302D01*
X04035Y034335D01*
X04025D01*
X04025Y034839D02*
Y034639D01*
X04035D01*
X040383Y034672D01*
Y034706D01*
X04035Y034739D01*
X04025D01*
X04035D01*
X040383Y034772D01*
Y034806D01*
X04035Y034839D01*
X04025D01*
Y035343D02*
Y035143D01*
X04035D01*
X040383Y035176D01*
Y03521D01*
X04035Y035243D01*
X04025D01*
X04035D01*
X040383Y035276D01*
Y03531D01*
X04035Y035343D01*
X04025D01*
X03773Y036351D02*
Y036151D01*
X03783D01*
X037863Y036184D01*
Y036218D01*
X03783Y036251D01*
X03773D01*
X03783D01*
X037863Y036284D01*
Y036318D01*
X03783Y036351D01*
X03773D01*
X03773Y035847D02*
Y035647D01*
X03783D01*
X037863Y03568D01*
Y035714D01*
X03783Y035747D01*
X03773D01*
X03783D01*
X037863Y03578D01*
Y035814D01*
X03783Y035847D01*
X03773D01*
X03773Y033831D02*
Y033631D01*
X03783D01*
X037863Y033665D01*
Y033698D01*
X03783Y033731D01*
X03773D01*
X03783D01*
X037863Y033765D01*
Y033798D01*
X03783Y033831D01*
X03773D01*
X03773Y034335D02*
Y034135D01*
X03783D01*
X037863Y034169D01*
Y034202D01*
X03783Y034235D01*
X03773D01*
X03783D01*
X037863Y034268D01*
Y034302D01*
X03783Y034335D01*
X03773D01*
X03773Y034839D02*
Y034639D01*
X03783D01*
X037863Y034672D01*
Y034706D01*
X03783Y034739D01*
X03773D01*
X03783D01*
X037863Y034772D01*
Y034806D01*
X03783Y034839D01*
X03773D01*
X038234Y036351D02*
Y036151D01*
X038334D01*
X038367Y036184D01*
Y036218D01*
X038334Y036251D01*
X038234D01*
X038334D01*
X038367Y036284D01*
Y036318D01*
X038334Y036351D01*
X038234D01*
X038234Y035847D02*
Y035647D01*
X038334D01*
X038367Y03568D01*
Y035714D01*
X038334Y035747D01*
X038234D01*
X038334D01*
X038367Y03578D01*
Y035814D01*
X038334Y035847D01*
X038234D01*
Y034335D02*
Y034135D01*
X038334D01*
X038367Y034169D01*
Y034202D01*
X038334Y034235D01*
X038234D01*
X038334D01*
X038367Y034268D01*
Y034302D01*
X038334Y034335D01*
X038234D01*
Y034839D02*
Y034639D01*
X038334D01*
X038367Y034672D01*
Y034706D01*
X038334Y034739D01*
X038234D01*
X038334D01*
X038367Y034772D01*
Y034806D01*
X038334Y034839D01*
X038234D01*
Y035343D02*
Y035143D01*
X038334D01*
X038367Y035176D01*
Y03521D01*
X038334Y035243D01*
X038234D01*
X038334D01*
X038367Y035276D01*
Y03531D01*
X038334Y035343D01*
X038234D01*
X038738Y036351D02*
Y036151D01*
X038838D01*
X038871Y036184D01*
Y036218D01*
X038838Y036251D01*
X038738D01*
X038838D01*
X038871Y036284D01*
Y036318D01*
X038838Y036351D01*
X038738D01*
Y035847D02*
Y035647D01*
X038838D01*
X038871Y03568D01*
Y035714D01*
X038838Y035747D01*
X038738D01*
X038838D01*
X038871Y03578D01*
Y035814D01*
X038838Y035847D01*
X038738D01*
Y033831D02*
Y033631D01*
X038838D01*
X038871Y033665D01*
Y033698D01*
X038838Y033731D01*
X038738D01*
X038838D01*
X038871Y033765D01*
Y033798D01*
X038838Y033831D01*
X038738D01*
Y034335D02*
Y034135D01*
X038838D01*
X038871Y034169D01*
Y034202D01*
X038838Y034235D01*
X038738D01*
X038838D01*
X038871Y034268D01*
Y034302D01*
X038838Y034335D01*
X038738D01*
X038738Y034839D02*
Y034639D01*
X038838D01*
X038871Y034672D01*
Y034706D01*
X038838Y034739D01*
X038738D01*
X038838D01*
X038871Y034772D01*
Y034806D01*
X038838Y034839D01*
X038738D01*
Y035343D02*
Y035143D01*
X038838D01*
X038871Y035176D01*
Y03521D01*
X038838Y035243D01*
X038738D01*
X038838D01*
X038871Y035276D01*
Y03531D01*
X038838Y035343D01*
X038738D01*
X044256Y031779D02*
Y031912D01*
X044322Y031979D01*
X044389Y031912D01*
Y031779D01*
Y031879D01*
X044256D01*
X043876Y031779D02*
Y031912D01*
X043942Y031979D01*
X044009Y031912D01*
Y031779D01*
Y031879D01*
X043876D01*
X043466Y031789D02*
Y031922D01*
X043532Y031989D01*
X043599Y031922D01*
Y031789D01*
Y031889D01*
X043466D01*
X043076Y031779D02*
Y031912D01*
X043142Y031979D01*
X043209Y031912D01*
Y031779D01*
Y031879D01*
X043076D01*
X037656Y026359D02*
Y026492D01*
X037722Y026559D01*
X037789Y026492D01*
Y026359D01*
Y026459D01*
X037656D01*
X045016Y029889D02*
Y030022D01*
X045082Y030089D01*
X045149Y030022D01*
Y029889D01*
Y029989D01*
X045016D01*
X032196Y020169D02*
Y020302D01*
X032262Y020369D01*
X032329Y020302D01*
Y020169D01*
Y020269D01*
X032196D01*
X029316Y019639D02*
Y019772D01*
X029382Y019839D01*
X029449Y019772D01*
Y019639D01*
Y019739D01*
X029316D01*
X034889Y024289D02*
Y024422D01*
X034956Y024489D01*
X035023Y024422D01*
Y024289D01*
Y024389D01*
X034889D01*
X033915Y025089D02*
Y025223D01*
X033982Y025289D01*
X034049Y025223D01*
Y025089D01*
Y025189D01*
X033915D01*
X047016Y022949D02*
Y023082D01*
X047082Y023149D01*
X047149Y023082D01*
Y022949D01*
Y023049D01*
X047016D01*
X034506Y022689D02*
Y022822D01*
X034572Y022889D01*
X034639Y022822D01*
Y022689D01*
Y022789D01*
X034506D01*
X034546Y022999D02*
Y023132D01*
X034612Y023199D01*
X034679Y023132D01*
Y022999D01*
Y023099D01*
X034546D01*
X029486Y028299D02*
Y028432D01*
X029552Y028499D01*
X029619Y028432D01*
Y028299D01*
Y028399D01*
X029486D01*
X033826Y032789D02*
Y032922D01*
X033892Y032989D01*
X033959Y032922D01*
Y032789D01*
Y032889D01*
X033826D01*
X036526Y034779D02*
Y034912D01*
X036593Y034979D01*
X036659Y034912D01*
Y034779D01*
Y034879D01*
X036526D01*
X037781Y032449D02*
Y032582D01*
X037847Y032649D01*
X037914Y032582D01*
Y032449D01*
Y032549D01*
X037781D01*
X049386Y024469D02*
Y024602D01*
X049452Y024669D01*
X049519Y024602D01*
Y024469D01*
Y024569D01*
X049386D01*
X045156Y021919D02*
Y022052D01*
X045222Y022119D01*
X045289Y022052D01*
Y021919D01*
Y022019D01*
X045156D01*
X047196Y021929D02*
Y022062D01*
X047262Y022129D01*
X047329Y022062D01*
Y021929D01*
Y022029D01*
X047196D01*
X031476Y035409D02*
Y035542D01*
X031542Y035609D01*
X031609Y035542D01*
Y035409D01*
Y035509D01*
X031476D01*
X029136Y032909D02*
Y033042D01*
X029202Y033109D01*
X029269Y033042D01*
Y032909D01*
Y033009D01*
X029136D01*
X027326Y033239D02*
Y033372D01*
X027392Y033439D01*
X027459Y033372D01*
Y033239D01*
Y033339D01*
X027326D01*
X029136Y040309D02*
Y040442D01*
X029202Y040509D01*
X029269Y040442D01*
Y040309D01*
Y040409D01*
X029136D01*
X029056Y042599D02*
Y042732D01*
X029122Y042799D01*
X029189Y042732D01*
Y042599D01*
Y042699D01*
X029056D01*
X022286Y036239D02*
Y036372D01*
X022352Y036439D01*
X022419Y036372D01*
Y036239D01*
Y036339D01*
X022286D01*
X020846Y033839D02*
Y033972D01*
X020912Y034039D01*
X020979Y033972D01*
Y033839D01*
Y033939D01*
X020846D01*
X019986Y034119D02*
Y034252D01*
X020052Y034319D01*
X020119Y034252D01*
Y034119D01*
Y034219D01*
X019986D01*
X019656Y034249D02*
Y034382D01*
X019722Y034449D01*
X019789Y034382D01*
Y034249D01*
Y034349D01*
X019656D01*
X019446Y035099D02*
Y035232D01*
X019512Y035299D01*
X019579Y035232D01*
Y035099D01*
Y035199D01*
X019446D01*
X016496Y037039D02*
Y037172D01*
X016562Y037239D01*
X016629Y037172D01*
Y037039D01*
Y037139D01*
X016496D01*
X017866Y035658D02*
Y035792D01*
X017932Y035858D01*
X017999Y035792D01*
Y035658D01*
Y035758D01*
X017866D01*
X031096Y037429D02*
Y037562D01*
X031162Y037629D01*
X031229Y037562D01*
Y037429D01*
Y037529D01*
X031096D01*
X044346Y029868D02*
X044386D01*
X044426Y029908D01*
X044466Y029868D01*
X044506D01*
Y029908D01*
X044466Y029948D01*
X044506Y029988D01*
Y030028D01*
X044466D01*
X044426Y029988D01*
X044386Y030028D01*
X044346D01*
Y029988D01*
X044386Y029948D01*
X044346Y029908D01*
Y029868D01*
X044386Y029908D02*
X044406D01*
X044426Y029928D01*
X044446Y029908D01*
X044466D01*
Y029928D01*
X044446Y029948D01*
X044466Y029968D01*
Y029988D01*
X044446D01*
X044426Y029968D01*
X044406Y029988D01*
X044386D01*
Y029968D01*
X044406Y029948D01*
X044386Y029928D01*
Y029908D01*
X043206Y025159D02*
Y025292D01*
X043272Y025359D01*
X043339Y025292D01*
Y025159D01*
Y025259D01*
X043206D01*
X034265Y02491D02*
Y025043D01*
X034332Y02511D01*
X034399Y025043D01*
Y02491D01*
Y02501D01*
X034265D01*
X025996Y024409D02*
Y024542D01*
X026062Y024609D01*
X026129Y024542D01*
Y024409D01*
Y024509D01*
X025996D01*
X031801Y026114D02*
Y026247D01*
X031868Y026314D01*
X031935Y026247D01*
Y026114D01*
Y026214D01*
X031801D01*
X032691Y026484D02*
Y026618D01*
X032757Y026684D01*
X032824Y026618D01*
Y026484D01*
Y026584D01*
X032691D01*
X032116Y026169D02*
Y026303D01*
X032183Y026369D01*
X03225Y026303D01*
Y026169D01*
Y026269D01*
X032116D01*
X032358Y026515D02*
Y026648D01*
X032424Y026715D01*
X032491Y026648D01*
Y026515D01*
Y026615D01*
X032358D01*
X037346Y033909D02*
Y034042D01*
X037412Y034109D01*
X037479Y034042D01*
Y033909D01*
Y034009D01*
X037346D01*
X039576Y036569D02*
Y036702D01*
X039642Y036769D01*
X039709Y036702D01*
Y036569D01*
Y036669D01*
X039576D01*
X040616Y034689D02*
Y034822D01*
X040682Y034889D01*
X040749Y034822D01*
Y034689D01*
Y034789D01*
X040616D01*
X040619Y034202D02*
Y034335D01*
X040685Y034402D01*
X040752Y034335D01*
Y034202D01*
Y034302D01*
X040619D01*
X040166Y033199D02*
Y033332D01*
X040232Y033399D01*
X040299Y033332D01*
Y033199D01*
Y033299D01*
X040166D01*
X038396Y033189D02*
Y033322D01*
X038462Y033389D01*
X038529Y033322D01*
Y033189D01*
Y033289D01*
X038396D01*
D294*
X053638Y012143D02*
G03*
X053638Y012143I-00008J0D01*
G01*
Y015544D02*
G03*
X053638Y015544I-00008J0D01*
G01*
X029632Y050101D02*
G03*
X029632Y050101I-00008J0D01*
G01*
X026231D02*
G03*
X026231Y050101I-00008J0D01*
G01*
X031526Y040438D02*
G03*
X031526Y040438I-00008J0D01*
G01*
X032526Y040438D02*
G03*
X032526Y040438I-00008J0D01*
G01*
X035326D02*
G03*
X035326Y040438I-00008J0D01*
G01*
X036326D02*
G03*
X036326Y040438I-00008J0D01*
G01*
X040826Y040438D02*
G03*
X040826Y040438I-00008J0D01*
G01*
X041826Y040438D02*
G03*
X041826Y040438I-00008J0D01*
G01*
X038026Y040438D02*
G03*
X038026Y040438I-00008J0D01*
G01*
X037026D02*
G03*
X037026Y040438I-00008J0D01*
G01*
X042526Y040438D02*
G03*
X042526Y040438I-00008J0D01*
G01*
X043526Y040438D02*
G03*
X043526Y040438I-00008J0D01*
G01*
X046326D02*
G03*
X046326Y040438I-00008J0D01*
G01*
X047326Y040438D02*
G03*
X047326Y040438I-00008J0D01*
G01*
X051826Y040438D02*
G03*
X051826Y040438I-00008J0D01*
G01*
X052826Y040438D02*
G03*
X052826Y040438I-00008J0D01*
G01*
X049026Y040438D02*
G03*
X049026Y040438I-00008J0D01*
G01*
X048026D02*
G03*
X048026Y040438I-00008J0D01*
G01*
D295*
X031486Y040438D02*
G03*
X031486Y040438I-00004J0D01*
G01*
X032486Y040438D02*
G03*
X032486Y040438I-00004J0D01*
G01*
X035286D02*
G03*
X035286Y040438I-00004J0D01*
G01*
X036286D02*
G03*
X036286Y040438I-00004J0D01*
G01*
X040786Y040438D02*
G03*
X040786Y040438I-00004J0D01*
G01*
X041786Y040438D02*
G03*
X041786Y040438I-00004J0D01*
G01*
X037986Y040438D02*
G03*
X037986Y040438I-00004J0D01*
G01*
X036986D02*
G03*
X036986Y040438I-00004J0D01*
G01*
X042486Y040438D02*
G03*
X042486Y040438I-00004J0D01*
G01*
X043486Y040438D02*
G03*
X043486Y040438I-00004J0D01*
G01*
X046286D02*
G03*
X046286Y040438I-00004J0D01*
G01*
X047286Y040438D02*
G03*
X047286Y040438I-00004J0D01*
G01*
X051786Y040438D02*
G03*
X051786Y040438I-00004J0D01*
G01*
X052786Y040438D02*
G03*
X052786Y040438I-00004J0D01*
G01*
X048986Y040438D02*
G03*
X048986Y040438I-00004J0D01*
G01*
X047986D02*
G03*
X047986Y040438I-00004J0D01*
G01*
M02*
