G04*
G04 #@! TF.GenerationSoftware,Altium Limited,Altium Designer,21.6.4 (81)*
G04*
G04 Layer_Color=16711935*
%FSTAX24Y24*%
%MOIN*%
G70*
G04*
G04 #@! TF.SameCoordinates,CFC9D6D8-CD49-4BFF-A4EB-002DC6F40297*
G04*
G04*
G04 #@! TF.FilePolarity,Negative*
G04*
G01*
G75*
%ADD103R,0.0312X0.0312*%
%ADD107R,0.0395X0.0434*%
%ADD140R,0.0434X0.0395*%
%ADD157R,0.0611X0.0454*%
%ADD158R,0.1084X0.0887*%
G04:AMPARAMS|DCode=159|XSize=18.2mil|YSize=43.4mil|CornerRadius=5.3mil|HoleSize=0mil|Usage=FLASHONLY|Rotation=180.000|XOffset=0mil|YOffset=0mil|HoleType=Round|Shape=RoundedRectangle|*
%AMROUNDEDRECTD159*
21,1,0.0182,0.0329,0,0,180.0*
21,1,0.0077,0.0434,0,0,180.0*
1,1,0.0106,-0.0038,0.0164*
1,1,0.0106,0.0038,0.0164*
1,1,0.0106,0.0038,-0.0164*
1,1,0.0106,-0.0038,-0.0164*
%
%ADD159ROUNDEDRECTD159*%
G04:AMPARAMS|DCode=160|XSize=43.4mil|YSize=18.2mil|CornerRadius=5.3mil|HoleSize=0mil|Usage=FLASHONLY|Rotation=180.000|XOffset=0mil|YOffset=0mil|HoleType=Round|Shape=RoundedRectangle|*
%AMROUNDEDRECTD160*
21,1,0.0434,0.0077,0,0,180.0*
21,1,0.0329,0.0182,0,0,180.0*
1,1,0.0106,-0.0164,0.0038*
1,1,0.0106,0.0164,0.0038*
1,1,0.0106,0.0164,-0.0038*
1,1,0.0106,-0.0164,-0.0038*
%
%ADD160ROUNDEDRECTD160*%
%ADD161R,0.0312X0.0312*%
%ADD163R,0.0454X0.0611*%
%ADD164R,0.0749X0.0454*%
%ADD172R,0.0336X0.0395*%
%ADD174R,0.0395X0.0336*%
%ADD177C,0.0867*%
%ADD178O,0.0907X0.0493*%
%ADD179O,0.0789X0.0434*%
%ADD180C,0.0336*%
%ADD181C,0.1458*%
%ADD182C,0.0674*%
%ADD183R,0.1084X0.1084*%
%ADD184C,0.1084*%
%ADD185O,0.0493X0.0907*%
%ADD186O,0.0434X0.0789*%
%ADD187R,0.0789X0.0789*%
%ADD188C,0.0789*%
%ADD189C,0.0680*%
%ADD190C,0.0755*%
%ADD191C,0.0710*%
%ADD192C,0.0905*%
%ADD193C,0.1360*%
%ADD194C,0.0769*%
%ADD195R,0.0769X0.0769*%
%ADD196C,0.0550*%
%ADD197C,0.1280*%
%ADD254R,0.0543X0.0790*%
%ADD259C,0.0235*%
G04:AMPARAMS|DCode=260|XSize=76.9mil|YSize=45.4mil|CornerRadius=5mil|HoleSize=0mil|Usage=FLASHONLY|Rotation=90.000|XOffset=0mil|YOffset=0mil|HoleType=Round|Shape=RoundedRectangle|*
%AMROUNDEDRECTD260*
21,1,0.0769,0.0354,0,0,90.0*
21,1,0.0669,0.0454,0,0,90.0*
1,1,0.0099,0.0177,0.0335*
1,1,0.0099,0.0177,-0.0335*
1,1,0.0099,-0.0177,-0.0335*
1,1,0.0099,-0.0177,0.0335*
%
%ADD260ROUNDEDRECTD260*%
%ADD261R,0.1025X0.1379*%
%ADD262R,0.0847X0.0847*%
G04:AMPARAMS|DCode=263|XSize=27.6mil|YSize=65mil|CornerRadius=5.5mil|HoleSize=0mil|Usage=FLASHONLY|Rotation=90.000|XOffset=0mil|YOffset=0mil|HoleType=Round|Shape=RoundedRectangle|*
%AMROUNDEDRECTD263*
21,1,0.0276,0.0539,0,0,90.0*
21,1,0.0165,0.0650,0,0,90.0*
1,1,0.0110,0.0270,0.0083*
1,1,0.0110,0.0270,-0.0083*
1,1,0.0110,-0.0270,-0.0083*
1,1,0.0110,-0.0270,0.0083*
%
%ADD263ROUNDEDRECTD263*%
%ADD264R,0.0360X0.0155*%
%ADD265R,0.0383X0.0155*%
G04:AMPARAMS|DCode=266|XSize=31.6mil|YSize=51.3mil|CornerRadius=6.4mil|HoleSize=0mil|Usage=FLASHONLY|Rotation=270.000|XOffset=0mil|YOffset=0mil|HoleType=Round|Shape=RoundedRectangle|*
%AMROUNDEDRECTD266*
21,1,0.0316,0.0386,0,0,270.0*
21,1,0.0189,0.0513,0,0,270.0*
1,1,0.0127,-0.0193,-0.0094*
1,1,0.0127,-0.0193,0.0094*
1,1,0.0127,0.0193,0.0094*
1,1,0.0127,0.0193,-0.0094*
%
%ADD266ROUNDEDRECTD266*%
D103*
X016979Y035129D02*
D03*
X017333D02*
D03*
X016259Y039029D02*
D03*
X018793Y036609D02*
D03*
X027569Y020679D02*
D03*
X029046Y021429D02*
D03*
X04712Y027799D02*
D03*
X04297Y028349D02*
D03*
X042983Y027579D02*
D03*
X047143Y028849D02*
D03*
X04297Y029149D02*
D03*
X035973Y034781D02*
D03*
X041957Y036481D02*
D03*
X040183Y034211D02*
D03*
X040603Y035521D02*
D03*
X040186Y035101D02*
D03*
Y034681D02*
D03*
X037797Y033911D02*
D03*
X041954Y035821D02*
D03*
X0378Y035899D02*
D03*
X037943Y034949D02*
D03*
X042007Y034801D02*
D03*
X036473Y029009D02*
D03*
X036093Y026569D02*
D03*
X029069Y025009D02*
D03*
X036093Y026989D02*
D03*
X033239Y032269D02*
D03*
X032573Y032259D02*
D03*
X030846Y032189D02*
D03*
X030393Y032179D02*
D03*
X037797Y033481D02*
D03*
X038612Y024329D02*
D03*
X042169Y023809D02*
D03*
X018439Y036609D02*
D03*
X016613Y039029D02*
D03*
X042523Y023809D02*
D03*
X040016D02*
D03*
X039661D02*
D03*
X038966Y024329D02*
D03*
X039639Y025039D02*
D03*
X039993D02*
D03*
X038966Y024739D02*
D03*
X038612D02*
D03*
X043529Y025149D02*
D03*
X043883D02*
D03*
X037443Y033481D02*
D03*
X030039Y032179D02*
D03*
X0312Y032189D02*
D03*
X032219Y032259D02*
D03*
X033593Y032269D02*
D03*
X035739Y026989D02*
D03*
X029423Y025009D02*
D03*
X035739Y026569D02*
D03*
X036119Y029009D02*
D03*
X041653Y034801D02*
D03*
X037589Y034949D02*
D03*
X037446Y035899D02*
D03*
X0416Y035821D02*
D03*
X037443Y033911D02*
D03*
X04054Y034681D02*
D03*
Y035101D02*
D03*
X040957Y035521D02*
D03*
X040537Y034211D02*
D03*
X041603Y036481D02*
D03*
X036327Y034781D02*
D03*
X042616Y029149D02*
D03*
X046789Y028849D02*
D03*
X042629Y027579D02*
D03*
X042616Y028349D02*
D03*
X046766Y027799D02*
D03*
X027923Y020139D02*
D03*
X027569D02*
D03*
X028691Y021429D02*
D03*
X027923Y020679D02*
D03*
D107*
X046186Y031169D02*
D03*
X045556D02*
D03*
X018421Y035679D02*
D03*
X019051D02*
D03*
X028741Y025509D02*
D03*
X041641Y033079D02*
D03*
X036936Y036939D02*
D03*
X045556Y030599D02*
D03*
X046186D02*
D03*
X036306Y036939D02*
D03*
X042271Y033079D02*
D03*
X029371Y025509D02*
D03*
D140*
X034386Y030429D02*
D03*
X039826Y032109D02*
D03*
X040956Y031969D02*
D03*
Y032599D02*
D03*
X039826Y031479D02*
D03*
X034386Y029799D02*
D03*
D157*
X045666Y028775D02*
D03*
X044066Y027848D02*
D03*
X037146Y031375D02*
D03*
Y032103D02*
D03*
X044066Y02712D02*
D03*
X045666Y029503D02*
D03*
D158*
X033679Y020002D02*
D03*
D159*
X034171Y019339D02*
D03*
X033974D02*
D03*
X033777Y019339D02*
D03*
X033581Y019339D02*
D03*
X033384Y019339D02*
D03*
X033187D02*
D03*
X033187Y020666D02*
D03*
X033384Y020666D02*
D03*
X033581D02*
D03*
X033777Y020666D02*
D03*
X033974D02*
D03*
X034171D02*
D03*
D160*
X032917Y019707D02*
D03*
X032917Y020298D02*
D03*
X034441Y020298D02*
D03*
X034441Y019707D02*
D03*
D161*
X034496Y021202D02*
D03*
Y021556D02*
D03*
Y018789D02*
D03*
Y018435D02*
D03*
X040906Y025166D02*
D03*
Y024812D02*
D03*
X033336Y030096D02*
D03*
X033886D02*
D03*
X044616Y027403D02*
D03*
X043516D02*
D03*
X043416Y029172D02*
D03*
X044416Y029122D02*
D03*
X041082Y030159D02*
D03*
X041569D02*
D03*
X042556D02*
D03*
X042069D02*
D03*
X0402Y033678D02*
D03*
X038816Y036105D02*
D03*
X038406D02*
D03*
X03839Y033685D02*
D03*
X03977Y033678D02*
D03*
X040366Y036105D02*
D03*
X0397Y038028D02*
D03*
X0377Y031834D02*
D03*
X03881Y033685D02*
D03*
X03935Y033675D02*
D03*
X03812Y031837D02*
D03*
X039576Y036105D02*
D03*
X047316Y044046D02*
D03*
X046906D02*
D03*
X042816D02*
D03*
X042406D02*
D03*
X050266D02*
D03*
X050676D02*
D03*
X048316D02*
D03*
X047906D02*
D03*
X041676D02*
D03*
X041266D02*
D03*
X037466D02*
D03*
X037056D02*
D03*
X036366D02*
D03*
X035966D02*
D03*
X033476D02*
D03*
X033896D02*
D03*
X032266Y030096D02*
D03*
X028356Y051036D02*
D03*
X027176D02*
D03*
X040486Y023825D02*
D03*
Y024179D02*
D03*
X040906Y024366D02*
D03*
Y024012D02*
D03*
X032926Y030096D02*
D03*
Y029742D02*
D03*
X027176Y050682D02*
D03*
X028356D02*
D03*
X032266Y029742D02*
D03*
X032486Y039406D02*
D03*
Y039052D02*
D03*
X035236Y039406D02*
D03*
Y039052D02*
D03*
X033896Y043692D02*
D03*
X033476D02*
D03*
X035966D02*
D03*
X036366D02*
D03*
X037986Y039406D02*
D03*
Y039052D02*
D03*
X040706Y039406D02*
D03*
Y039052D02*
D03*
X037056Y043692D02*
D03*
X037466D02*
D03*
X041266D02*
D03*
X041676D02*
D03*
X051746Y039052D02*
D03*
Y039406D02*
D03*
X048886Y039406D02*
D03*
Y039052D02*
D03*
X047906Y043692D02*
D03*
X048316Y043692D02*
D03*
X050676D02*
D03*
X050266D02*
D03*
X046216Y039406D02*
D03*
Y039052D02*
D03*
X043456Y039406D02*
D03*
Y039052D02*
D03*
X042406Y043692D02*
D03*
X042816D02*
D03*
X046906D02*
D03*
X047316D02*
D03*
X039576Y036459D02*
D03*
X03812Y032191D02*
D03*
X03935Y033321D02*
D03*
X03881Y033331D02*
D03*
X0377Y032188D02*
D03*
X0397Y037674D02*
D03*
X040366Y036459D02*
D03*
X03977Y033324D02*
D03*
X03839Y033331D02*
D03*
X038406Y036459D02*
D03*
X038816D02*
D03*
X0402Y033324D02*
D03*
X042069Y030513D02*
D03*
Y030986D02*
D03*
Y031341D02*
D03*
X042556Y030986D02*
D03*
Y031341D02*
D03*
Y030513D02*
D03*
X041569D02*
D03*
X041082D02*
D03*
X041569Y030986D02*
D03*
Y031341D02*
D03*
X041082Y030986D02*
D03*
Y031341D02*
D03*
X044416Y029476D02*
D03*
X043416Y029526D02*
D03*
X043516Y027049D02*
D03*
X044616D02*
D03*
X033336Y029742D02*
D03*
X033886D02*
D03*
D163*
X04686Y029449D02*
D03*
X047588D02*
D03*
X042474Y034221D02*
D03*
X038506Y032761D02*
D03*
X036182Y035809D02*
D03*
X016646Y035639D02*
D03*
X017374D02*
D03*
X016642Y036489D02*
D03*
X01737D02*
D03*
X016067Y038439D02*
D03*
X016796D02*
D03*
X03691Y035809D02*
D03*
X039234Y032761D02*
D03*
X041746Y034221D02*
D03*
D164*
X025336Y05099D02*
D03*
Y049789D02*
D03*
D172*
X045586Y030069D02*
D03*
X046235D02*
D03*
X036336Y036419D02*
D03*
X036986Y036419D02*
D03*
X04043Y032641D02*
D03*
X03978D02*
D03*
X042315Y033611D02*
D03*
X041665D02*
D03*
D174*
X036536Y032174D02*
D03*
Y031524D02*
D03*
X046276Y029574D02*
D03*
Y028924D02*
D03*
D177*
X037466Y024919D02*
D03*
X024671Y028561D02*
D03*
Y021277D02*
D03*
D178*
X053558Y012143D02*
D03*
Y015544D02*
D03*
D179*
X055204Y012143D02*
D03*
Y015544D02*
D03*
D180*
X053755Y014981D02*
D03*
Y012706D02*
D03*
X028989Y050298D02*
D03*
X026714D02*
D03*
D181*
X055276Y010669D02*
D03*
X013937Y051811D02*
D03*
X055276D02*
D03*
X013937Y010669D02*
D03*
D182*
X015563Y051627D02*
D03*
X019894D02*
D03*
X025238D02*
D03*
X020908D02*
D03*
D183*
X016744Y04769D02*
D03*
X022089D02*
D03*
D184*
X018713D02*
D03*
X024057Y04769D02*
D03*
D185*
X029552Y050101D02*
D03*
X026151D02*
D03*
D186*
X029552Y051747D02*
D03*
X026151D02*
D03*
D187*
X025396Y041119D02*
D03*
D188*
Y040119D02*
D03*
D189*
X036246Y041438D02*
D03*
X035446D02*
D03*
X034646D02*
D03*
X033046D02*
D03*
X032246D02*
D03*
X031446D02*
D03*
X041746D02*
D03*
X040946D02*
D03*
X040146D02*
D03*
X038546D02*
D03*
X037746D02*
D03*
X036946D02*
D03*
X035846Y042438D02*
D03*
X035046D02*
D03*
X034246D02*
D03*
X033446D02*
D03*
X032646Y042438D02*
D03*
X031846Y042438D02*
D03*
X041346Y042438D02*
D03*
X040546Y042438D02*
D03*
X039746Y042438D02*
D03*
X038946Y042438D02*
D03*
X038146D02*
D03*
X037346D02*
D03*
X047246Y041438D02*
D03*
X046446D02*
D03*
X045646D02*
D03*
X044046D02*
D03*
X043246D02*
D03*
X042446D02*
D03*
X052746D02*
D03*
X051946D02*
D03*
X051146D02*
D03*
X049546D02*
D03*
X048746D02*
D03*
X047946D02*
D03*
X046846Y042438D02*
D03*
X046046D02*
D03*
X045246D02*
D03*
X044446Y042438D02*
D03*
X043646Y042438D02*
D03*
X042846Y042438D02*
D03*
X052346Y042438D02*
D03*
X051546Y042438D02*
D03*
X050746Y042438D02*
D03*
X049946D02*
D03*
X049146D02*
D03*
X048346D02*
D03*
D190*
X031446Y040438D02*
D03*
X032446Y040438D02*
D03*
X035246D02*
D03*
X040746Y040438D02*
D03*
X037946D02*
D03*
X043446D02*
D03*
X046246D02*
D03*
X051746Y040438D02*
D03*
X052746Y040438D02*
D03*
X048946Y040438D02*
D03*
D191*
X036246D02*
D03*
X041746D02*
D03*
X036946Y040438D02*
D03*
X042446Y040438D02*
D03*
X047246Y040438D02*
D03*
X047946Y040438D02*
D03*
D192*
X030671Y045188D02*
D03*
X053521D02*
D03*
Y049688D02*
D03*
X030671D02*
D03*
D193*
X052846Y048438D02*
D03*
X031346D02*
D03*
D194*
X055267Y042324D02*
D03*
Y041324D02*
D03*
Y043324D02*
D03*
D195*
Y040324D02*
D03*
D196*
X049303Y033694D02*
D03*
X048303Y034194D02*
D03*
X049303Y034694D02*
D03*
X048303Y035194D02*
D03*
X049303Y035694D02*
D03*
X048303Y036194D02*
D03*
X049303Y036694D02*
D03*
X048303Y037194D02*
D03*
X049303Y037694D02*
D03*
X053403Y032878D02*
D03*
X053403Y033878D02*
D03*
X053403Y037108D02*
D03*
Y038108D02*
D03*
X048303Y033194D02*
D03*
D197*
X051803Y033198D02*
D03*
Y03769D02*
D03*
D254*
X033626Y031229D02*
D03*
X032138D02*
D03*
D259*
X030041Y029134D02*
D03*
Y028819D02*
D03*
Y028504D02*
D03*
X030041Y028189D02*
D03*
X030041Y027874D02*
D03*
Y027559D02*
D03*
Y027244D02*
D03*
X030041Y026929D02*
D03*
X030041Y026614D02*
D03*
Y026299D02*
D03*
X030041Y025984D02*
D03*
X030041Y025669D02*
D03*
Y025354D02*
D03*
X030041Y025039D02*
D03*
Y024724D02*
D03*
X030041Y024409D02*
D03*
Y024094D02*
D03*
X030356Y029134D02*
D03*
Y028504D02*
D03*
Y028189D02*
D03*
Y027874D02*
D03*
Y027559D02*
D03*
Y027244D02*
D03*
Y026929D02*
D03*
Y026614D02*
D03*
Y026299D02*
D03*
Y025984D02*
D03*
Y025669D02*
D03*
Y025354D02*
D03*
X030356Y025039D02*
D03*
X030356Y024724D02*
D03*
X030356Y024094D02*
D03*
X030671Y029134D02*
D03*
Y028819D02*
D03*
X030671Y028504D02*
D03*
Y028189D02*
D03*
X030671Y027874D02*
D03*
Y027559D02*
D03*
X030671Y027244D02*
D03*
Y026929D02*
D03*
Y026614D02*
D03*
Y026299D02*
D03*
X030671Y025984D02*
D03*
Y025669D02*
D03*
Y025354D02*
D03*
Y025039D02*
D03*
X030671Y024724D02*
D03*
Y024409D02*
D03*
X030671Y024094D02*
D03*
X030986Y029134D02*
D03*
Y028819D02*
D03*
X030986Y028504D02*
D03*
Y027874D02*
D03*
Y027559D02*
D03*
X030986Y027244D02*
D03*
Y026929D02*
D03*
X030986Y026299D02*
D03*
Y025984D02*
D03*
Y025669D02*
D03*
Y025354D02*
D03*
X030986Y025039D02*
D03*
X030986Y024724D02*
D03*
X030986Y024409D02*
D03*
X030986Y024094D02*
D03*
X031301Y029134D02*
D03*
Y028819D02*
D03*
X031301Y028504D02*
D03*
Y028189D02*
D03*
X031301Y027874D02*
D03*
Y027559D02*
D03*
Y027244D02*
D03*
X031301Y026929D02*
D03*
X031301Y026614D02*
D03*
X031301Y026299D02*
D03*
X031301Y025984D02*
D03*
Y025669D02*
D03*
Y025039D02*
D03*
X031301Y024724D02*
D03*
Y024409D02*
D03*
X031301Y024094D02*
D03*
X031616Y029134D02*
D03*
Y028819D02*
D03*
X031616Y028504D02*
D03*
X031616Y028189D02*
D03*
Y027874D02*
D03*
Y027559D02*
D03*
Y027244D02*
D03*
X031616Y026929D02*
D03*
Y026614D02*
D03*
X031616Y026299D02*
D03*
X031616Y025984D02*
D03*
Y025669D02*
D03*
Y025354D02*
D03*
X031616Y025039D02*
D03*
Y024724D02*
D03*
Y024409D02*
D03*
Y024094D02*
D03*
X031931Y029134D02*
D03*
Y028819D02*
D03*
Y028504D02*
D03*
Y028189D02*
D03*
Y027874D02*
D03*
Y027559D02*
D03*
Y026929D02*
D03*
Y026614D02*
D03*
Y026299D02*
D03*
Y025669D02*
D03*
Y025354D02*
D03*
Y025039D02*
D03*
Y024724D02*
D03*
X031931Y024409D02*
D03*
X031931Y024094D02*
D03*
X032246Y029134D02*
D03*
X032246Y028819D02*
D03*
Y028504D02*
D03*
Y028189D02*
D03*
Y027874D02*
D03*
X032246Y027559D02*
D03*
Y027244D02*
D03*
X032246Y026929D02*
D03*
Y026614D02*
D03*
Y026299D02*
D03*
Y025984D02*
D03*
Y025669D02*
D03*
X032246Y025354D02*
D03*
X032246Y025039D02*
D03*
Y024724D02*
D03*
X032246Y024409D02*
D03*
Y024094D02*
D03*
X032561Y028819D02*
D03*
X032561Y028504D02*
D03*
X032561Y027244D02*
D03*
X032561Y026929D02*
D03*
Y026299D02*
D03*
X032561Y025984D02*
D03*
Y025669D02*
D03*
X032561Y025354D02*
D03*
X032561Y024724D02*
D03*
X032561Y024409D02*
D03*
X032561Y024094D02*
D03*
X032876Y029134D02*
D03*
Y028819D02*
D03*
X032876Y028504D02*
D03*
Y028189D02*
D03*
X032876Y027874D02*
D03*
Y027559D02*
D03*
X032876Y027244D02*
D03*
Y026929D02*
D03*
Y026614D02*
D03*
Y026299D02*
D03*
X032876Y025984D02*
D03*
Y025669D02*
D03*
Y025354D02*
D03*
Y025039D02*
D03*
X032876Y024724D02*
D03*
Y024409D02*
D03*
X032876Y024094D02*
D03*
X033191Y029134D02*
D03*
Y028819D02*
D03*
X033191Y028504D02*
D03*
X033191Y028189D02*
D03*
Y027874D02*
D03*
Y027559D02*
D03*
X033191Y026929D02*
D03*
X033191Y026614D02*
D03*
X033191Y026299D02*
D03*
X033191Y025669D02*
D03*
Y025354D02*
D03*
Y025039D02*
D03*
X033191Y024724D02*
D03*
X033191Y024409D02*
D03*
Y024094D02*
D03*
X033506Y029134D02*
D03*
Y028819D02*
D03*
X033506Y028504D02*
D03*
Y028189D02*
D03*
X033506Y027559D02*
D03*
Y027244D02*
D03*
X033506Y026929D02*
D03*
X033506Y026614D02*
D03*
X033506Y026299D02*
D03*
X033506Y025984D02*
D03*
Y025669D02*
D03*
Y025354D02*
D03*
Y025039D02*
D03*
X033506Y024724D02*
D03*
Y024409D02*
D03*
X033506Y024094D02*
D03*
X033821Y029134D02*
D03*
Y028819D02*
D03*
X033821Y028504D02*
D03*
X033821Y028189D02*
D03*
Y027874D02*
D03*
Y027559D02*
D03*
X033821Y026929D02*
D03*
Y026614D02*
D03*
X033821Y025984D02*
D03*
Y025669D02*
D03*
Y025354D02*
D03*
X033821Y025039D02*
D03*
Y024724D02*
D03*
Y024409D02*
D03*
Y024094D02*
D03*
X034136Y029134D02*
D03*
Y028819D02*
D03*
Y028504D02*
D03*
X034136Y027874D02*
D03*
Y027559D02*
D03*
Y027244D02*
D03*
X034136Y026929D02*
D03*
Y026614D02*
D03*
Y026299D02*
D03*
X034136Y025984D02*
D03*
X034136Y025669D02*
D03*
Y025354D02*
D03*
X034136Y024724D02*
D03*
X034136Y024409D02*
D03*
X034136Y024094D02*
D03*
X034451Y029134D02*
D03*
X034451Y028819D02*
D03*
Y028504D02*
D03*
Y028189D02*
D03*
Y027874D02*
D03*
X034451Y027559D02*
D03*
Y027244D02*
D03*
X034451Y026929D02*
D03*
Y026614D02*
D03*
Y026299D02*
D03*
Y025984D02*
D03*
Y025669D02*
D03*
X034451Y025354D02*
D03*
X034451Y025039D02*
D03*
Y024724D02*
D03*
X034451Y024409D02*
D03*
Y024094D02*
D03*
X034766Y029134D02*
D03*
Y028504D02*
D03*
Y028189D02*
D03*
Y027874D02*
D03*
Y027559D02*
D03*
Y026929D02*
D03*
Y026614D02*
D03*
Y025984D02*
D03*
Y025669D02*
D03*
Y025354D02*
D03*
Y025039D02*
D03*
Y024724D02*
D03*
Y024094D02*
D03*
X035081Y029134D02*
D03*
Y028819D02*
D03*
Y028504D02*
D03*
Y028189D02*
D03*
Y027874D02*
D03*
Y027559D02*
D03*
Y027244D02*
D03*
X035081Y026929D02*
D03*
Y026614D02*
D03*
X035081Y026299D02*
D03*
Y025984D02*
D03*
Y025669D02*
D03*
Y025354D02*
D03*
X035081Y025039D02*
D03*
Y024724D02*
D03*
X035081Y024409D02*
D03*
Y024094D02*
D03*
X034766Y024409D02*
D03*
Y026299D02*
D03*
Y027244D02*
D03*
Y028819D02*
D03*
X034136Y025039D02*
D03*
Y028189D02*
D03*
X033821Y026299D02*
D03*
X033821Y027244D02*
D03*
X033506Y027874D02*
D03*
X033191Y025984D02*
D03*
Y027244D02*
D03*
X032561Y025039D02*
D03*
Y026614D02*
D03*
X032561Y027559D02*
D03*
X032561Y027874D02*
D03*
X032561Y028189D02*
D03*
Y029134D02*
D03*
X031931Y025984D02*
D03*
Y027244D02*
D03*
X031301Y025354D02*
D03*
X030986Y026614D02*
D03*
Y028189D02*
D03*
X030356Y024409D02*
D03*
X030356Y028819D02*
D03*
D260*
X031148Y031379D02*
D03*
X030144D02*
D03*
D261*
X016567Y049609D02*
D03*
X019165D02*
D03*
D262*
X025398Y048839D02*
D03*
X026934D02*
D03*
D263*
X031695Y020657D02*
D03*
X031695Y020157D02*
D03*
X031695Y019657D02*
D03*
X028821Y020657D02*
D03*
Y020157D02*
D03*
Y019657D02*
D03*
Y019157D02*
D03*
X031695D02*
D03*
D264*
X039636Y024359D02*
D03*
X039636Y024497D02*
D03*
X039636Y024635D02*
D03*
X040026D02*
D03*
Y024497D02*
D03*
Y024359D02*
D03*
Y024221D02*
D03*
D265*
X039648Y024221D02*
D03*
D266*
X041756Y024402D02*
D03*
Y024776D02*
D03*
X042779Y02515D02*
D03*
X042779Y024402D02*
D03*
X041756Y02515D02*
D03*
M02*
