G04*
G04 #@! TF.GenerationSoftware,Altium Limited,Altium Designer,21.6.4 (81)*
G04*
G04 Layer_Color=8388736*
%FSTAX24Y24*%
%MOIN*%
G70*
G04*
G04 #@! TF.SameCoordinates,CFC9D6D8-CD49-4BFF-A4EB-002DC6F40297*
G04*
G04*
G04 #@! TF.FilePolarity,Negative*
G04*
G01*
G75*
%ADD31R,0.0660X0.0290*%
%ADD54R,0.0450X0.0410*%
%ADD55R,0.0890X0.0410*%
%ADD103R,0.0312X0.0312*%
%ADD104C,0.0611*%
%ADD105R,0.0529X0.0316*%
%ADD106R,0.0529X0.0198*%
%ADD107R,0.0395X0.0434*%
%ADD108R,0.1379X0.1045*%
%ADD109R,0.0887X0.0611*%
%ADD110R,0.0198X0.0651*%
%ADD111R,0.0651X0.0198*%
%ADD112R,0.2127X0.2127*%
%ADD113R,0.0267X0.0198*%
%ADD114R,0.0513X0.0316*%
%ADD115R,0.0464X0.0749*%
%ADD116R,0.0832X0.0320*%
%ADD117R,0.0997X0.1348*%
%ADD118R,0.0237X0.0230*%
%ADD119R,0.0230X0.0237*%
%ADD120R,0.0295X0.0126*%
%ADD121R,0.0126X0.0295*%
%ADD122R,0.1694X0.1694*%
G04:AMPARAMS|DCode=123|XSize=31.6mil|YSize=69mil|CornerRadius=7.5mil|HoleSize=0mil|Usage=FLASHONLY|Rotation=270.000|XOffset=0mil|YOffset=0mil|HoleType=Round|Shape=RoundedRectangle|*
%AMROUNDEDRECTD123*
21,1,0.0316,0.0539,0,0,270.0*
21,1,0.0165,0.0690,0,0,270.0*
1,1,0.0151,-0.0270,-0.0083*
1,1,0.0151,-0.0270,0.0083*
1,1,0.0151,0.0270,0.0083*
1,1,0.0151,0.0270,-0.0083*
%
%ADD123ROUNDEDRECTD123*%
%ADD124R,0.0277X0.0277*%
G04:AMPARAMS|DCode=125|XSize=41.5mil|YSize=37.5mil|CornerRadius=8.4mil|HoleSize=0mil|Usage=FLASHONLY|Rotation=135.000|XOffset=0mil|YOffset=0mil|HoleType=Round|Shape=RoundedRectangle|*
%AMROUNDEDRECTD125*
21,1,0.0415,0.0207,0,0,135.0*
21,1,0.0246,0.0375,0,0,135.0*
1,1,0.0169,-0.0014,0.0160*
1,1,0.0169,0.0160,-0.0014*
1,1,0.0169,0.0014,-0.0160*
1,1,0.0169,-0.0160,0.0014*
%
%ADD125ROUNDEDRECTD125*%
%ADD126R,0.1103X0.0454*%
%ADD127R,0.0351X0.1158*%
%ADD128R,0.0671X0.1419*%
%ADD129R,0.0474X0.1458*%
%ADD130R,0.0316X0.0529*%
%ADD131R,0.0198X0.0529*%
%ADD132R,0.1005X0.1359*%
%ADD133R,0.0375X0.0414*%
%ADD134R,0.1419X0.2049*%
%ADD135R,0.0545X0.1789*%
%ADD136R,0.0395X0.0710*%
%ADD137R,0.0946X0.1064*%
%ADD138R,0.0218X0.0198*%
%ADD139R,0.0423X0.0173*%
%ADD140R,0.0434X0.0395*%
%ADD141R,0.0454X0.0749*%
%ADD142R,0.0178X0.0395*%
%ADD143R,0.1123X0.0769*%
G04:AMPARAMS|DCode=144|XSize=29.1mil|YSize=66.5mil|CornerRadius=6.3mil|HoleSize=0mil|Usage=FLASHONLY|Rotation=0.000|XOffset=0mil|YOffset=0mil|HoleType=Round|Shape=RoundedRectangle|*
%AMROUNDEDRECTD144*
21,1,0.0291,0.0539,0,0,0.0*
21,1,0.0165,0.0665,0,0,0.0*
1,1,0.0126,0.0083,-0.0270*
1,1,0.0126,-0.0083,-0.0270*
1,1,0.0126,-0.0083,0.0270*
1,1,0.0126,0.0083,0.0270*
%
%ADD144ROUNDEDRECTD144*%
%ADD145R,0.0178X0.0267*%
%ADD146R,0.0267X0.0178*%
%ADD147R,0.0512X0.0160*%
G04:AMPARAMS|DCode=148|XSize=13.8mil|YSize=27.6mil|CornerRadius=3.4mil|HoleSize=0mil|Usage=FLASHONLY|Rotation=180.000|XOffset=0mil|YOffset=0mil|HoleType=Round|Shape=RoundedRectangle|*
%AMROUNDEDRECTD148*
21,1,0.0138,0.0207,0,0,180.0*
21,1,0.0069,0.0276,0,0,180.0*
1,1,0.0069,-0.0034,0.0103*
1,1,0.0069,0.0034,0.0103*
1,1,0.0069,0.0034,-0.0103*
1,1,0.0069,-0.0034,-0.0103*
%
%ADD148ROUNDEDRECTD148*%
G04:AMPARAMS|DCode=149|XSize=13.8mil|YSize=27.6mil|CornerRadius=3.4mil|HoleSize=0mil|Usage=FLASHONLY|Rotation=270.000|XOffset=0mil|YOffset=0mil|HoleType=Round|Shape=RoundedRectangle|*
%AMROUNDEDRECTD149*
21,1,0.0138,0.0207,0,0,270.0*
21,1,0.0069,0.0276,0,0,270.0*
1,1,0.0069,-0.0103,-0.0034*
1,1,0.0069,-0.0103,0.0034*
1,1,0.0069,0.0103,0.0034*
1,1,0.0069,0.0103,-0.0034*
%
%ADD149ROUNDEDRECTD149*%
%ADD150R,0.2047X0.2047*%
G04:AMPARAMS|DCode=151|XSize=61.1mil|YSize=53.2mil|CornerRadius=0mil|HoleSize=0mil|Usage=FLASHONLY|Rotation=315.000|XOffset=0mil|YOffset=0mil|HoleType=Round|Shape=Rectangle|*
%AMROTATEDRECTD151*
4,1,4,-0.0404,0.0028,-0.0028,0.0404,0.0404,-0.0028,0.0028,-0.0404,-0.0404,0.0028,0.0*
%
%ADD151ROTATEDRECTD151*%

G04:AMPARAMS|DCode=152|XSize=165.5mil|YSize=67.1mil|CornerRadius=12.9mil|HoleSize=0mil|Usage=FLASHONLY|Rotation=0.000|XOffset=0mil|YOffset=0mil|HoleType=Round|Shape=RoundedRectangle|*
%AMROUNDEDRECTD152*
21,1,0.1655,0.0413,0,0,0.0*
21,1,0.1398,0.0671,0,0,0.0*
1,1,0.0257,0.0699,-0.0207*
1,1,0.0257,-0.0699,-0.0207*
1,1,0.0257,-0.0699,0.0207*
1,1,0.0257,0.0699,0.0207*
%
%ADD152ROUNDEDRECTD152*%
%ADD153C,0.0123*%
%ADD154O,0.0117X0.0340*%
%ADD155O,0.0340X0.0117*%
G04:AMPARAMS|DCode=156|XSize=283.6mil|YSize=283.6mil|CornerRadius=10.9mil|HoleSize=0mil|Usage=FLASHONLY|Rotation=270.000|XOffset=0mil|YOffset=0mil|HoleType=Round|Shape=RoundedRectangle|*
%AMROUNDEDRECTD156*
21,1,0.2836,0.2618,0,0,270.0*
21,1,0.2618,0.2836,0,0,270.0*
1,1,0.0218,-0.1309,-0.1309*
1,1,0.0218,-0.1309,0.1309*
1,1,0.0218,0.1309,0.1309*
1,1,0.0218,0.1309,-0.1309*
%
%ADD156ROUNDEDRECTD156*%
%ADD157R,0.0611X0.0454*%
%ADD158R,0.1084X0.0887*%
G04:AMPARAMS|DCode=159|XSize=18.2mil|YSize=43.4mil|CornerRadius=5.3mil|HoleSize=0mil|Usage=FLASHONLY|Rotation=180.000|XOffset=0mil|YOffset=0mil|HoleType=Round|Shape=RoundedRectangle|*
%AMROUNDEDRECTD159*
21,1,0.0182,0.0329,0,0,180.0*
21,1,0.0077,0.0434,0,0,180.0*
1,1,0.0106,-0.0038,0.0164*
1,1,0.0106,0.0038,0.0164*
1,1,0.0106,0.0038,-0.0164*
1,1,0.0106,-0.0038,-0.0164*
%
%ADD159ROUNDEDRECTD159*%
G04:AMPARAMS|DCode=160|XSize=43.4mil|YSize=18.2mil|CornerRadius=5.3mil|HoleSize=0mil|Usage=FLASHONLY|Rotation=180.000|XOffset=0mil|YOffset=0mil|HoleType=Round|Shape=RoundedRectangle|*
%AMROUNDEDRECTD160*
21,1,0.0434,0.0077,0,0,180.0*
21,1,0.0329,0.0182,0,0,180.0*
1,1,0.0106,-0.0164,0.0038*
1,1,0.0106,0.0164,0.0038*
1,1,0.0106,0.0164,-0.0038*
1,1,0.0106,-0.0164,-0.0038*
%
%ADD160ROUNDEDRECTD160*%
%ADD161R,0.0312X0.0312*%
G04:AMPARAMS|DCode=162|XSize=29.1mil|YSize=66.5mil|CornerRadius=6.3mil|HoleSize=0mil|Usage=FLASHONLY|Rotation=270.000|XOffset=0mil|YOffset=0mil|HoleType=Round|Shape=RoundedRectangle|*
%AMROUNDEDRECTD162*
21,1,0.0291,0.0539,0,0,270.0*
21,1,0.0165,0.0665,0,0,270.0*
1,1,0.0126,-0.0270,-0.0083*
1,1,0.0126,-0.0270,0.0083*
1,1,0.0126,0.0270,0.0083*
1,1,0.0126,0.0270,-0.0083*
%
%ADD162ROUNDEDRECTD162*%
%ADD163R,0.0454X0.0611*%
%ADD164R,0.0749X0.0454*%
%ADD165P,0.0441X4X360.0*%
%ADD166P,0.0441X4X90.0*%
%ADD167R,0.0532X0.0611*%
%ADD168R,0.0155X0.0383*%
G04:AMPARAMS|DCode=169|XSize=31.6mil|YSize=51.3mil|CornerRadius=6.4mil|HoleSize=0mil|Usage=FLASHONLY|Rotation=0.000|XOffset=0mil|YOffset=0mil|HoleType=Round|Shape=RoundedRectangle|*
%AMROUNDEDRECTD169*
21,1,0.0316,0.0386,0,0,0.0*
21,1,0.0189,0.0513,0,0,0.0*
1,1,0.0127,0.0094,-0.0193*
1,1,0.0127,-0.0094,-0.0193*
1,1,0.0127,-0.0094,0.0193*
1,1,0.0127,0.0094,0.0193*
%
%ADD169ROUNDEDRECTD169*%
%ADD170R,0.1064X0.0946*%
%ADD171R,0.0454X0.1103*%
%ADD172R,0.0336X0.0395*%
%ADD173R,0.0155X0.0360*%
%ADD174R,0.0395X0.0336*%
%ADD175R,0.1419X0.0671*%
%ADD176R,0.1458X0.0474*%
%ADD177C,0.0867*%
%ADD178O,0.0907X0.0493*%
%ADD179O,0.0789X0.0434*%
%ADD180C,0.0336*%
%ADD181C,0.1458*%
%ADD182C,0.0674*%
%ADD183R,0.1084X0.1084*%
%ADD184C,0.1084*%
%ADD185O,0.0493X0.0907*%
%ADD186O,0.0434X0.0789*%
%ADD187R,0.0789X0.0789*%
%ADD188C,0.0789*%
%ADD189C,0.0680*%
%ADD190C,0.0755*%
%ADD191C,0.0710*%
%ADD192C,0.0905*%
%ADD193C,0.1360*%
%ADD194C,0.0769*%
%ADD195R,0.0769X0.0769*%
%ADD196C,0.0550*%
%ADD197C,0.1280*%
G36*
X040523Y036821D02*
X040606Y036821D01*
X04061Y03682D01*
X040612Y03682D01*
X040614Y036819D01*
X040614Y036819D01*
D01*
X040617Y036817D01*
X04062Y036815D01*
X04062Y036815D01*
Y036815D01*
X04062D01*
X040621Y036814D01*
X040623Y036812D01*
X040625Y036808D01*
D01*
X040625Y036808D01*
X040625Y036807D01*
X040626Y036804D01*
X040626Y036801D01*
X040626Y036682D01*
Y036682D01*
Y036682D01*
X040626Y036679D01*
X040625Y036676D01*
X040625Y036675D01*
X040625Y036675D01*
D01*
X040623Y036671D01*
X040621Y036669D01*
X04062Y036668D01*
X04062D01*
Y036668D01*
X04062Y036668D01*
X040617Y036666D01*
X040614Y036664D01*
D01*
X040614Y036664D01*
X040612Y036663D01*
X04061Y036663D01*
X040606Y036662D01*
X040606D01*
X040606D01*
X040523D01*
X040523D01*
X040523D01*
X040519Y036663D01*
X040517Y036663D01*
X040516Y036664D01*
X040516Y036664D01*
D01*
X040512Y036666D01*
X04051Y036667D01*
X040509Y036668D01*
X040509Y036668D01*
X040509Y036668D01*
X040508Y036669D01*
X040507Y036671D01*
X040505Y036675D01*
D01*
X040505Y036675D01*
X040504Y036676D01*
X040504Y036679D01*
X040503Y036682D01*
Y036682D01*
Y036682D01*
X040503Y036801D01*
X040504Y036804D01*
X040504Y036807D01*
X040505Y036808D01*
X040505Y036808D01*
D01*
X040507Y036812D01*
X040508Y036814D01*
X040509Y036815D01*
X040509Y036815D01*
X040509Y036815D01*
X04051Y036816D01*
X040512Y036817D01*
X040516Y036819D01*
D01*
X040516Y036819D01*
X040517Y03682D01*
X040519Y03682D01*
X040523Y036821D01*
X040523D01*
D01*
D01*
D02*
G37*
G36*
X040413Y03682D02*
X040415Y03682D01*
X040417Y036819D01*
X040417Y036819D01*
D01*
X04042Y036817D01*
X040423Y036815D01*
X040423Y036815D01*
Y036815D01*
X040423D01*
X040424Y036814D01*
X040426Y036812D01*
X040428Y036808D01*
D01*
X040428Y036808D01*
X040428Y036807D01*
X040429Y036804D01*
X040429Y036801D01*
X040429Y036682D01*
Y036682D01*
Y036682D01*
X040429Y036679D01*
X040428Y036676D01*
X040428Y036675D01*
X040428Y036675D01*
D01*
X040426Y036671D01*
X040424Y036669D01*
X040423Y036668D01*
X040423D01*
Y036668D01*
X040423Y036668D01*
X04042Y036666D01*
X040417Y036664D01*
D01*
X040417Y036664D01*
X040415Y036663D01*
X040413Y036663D01*
X040409Y036662D01*
X040409D01*
X040409D01*
X040327D01*
X040327D01*
X040327D01*
X040323Y036663D01*
X04032Y036663D01*
X040319Y036664D01*
X040319Y036664D01*
D01*
X040315Y036666D01*
X040313Y036668D01*
X040312Y036668D01*
Y036668D01*
X040312D01*
X040312Y036669D01*
X04031Y036671D01*
X040308Y036675D01*
D01*
X040308Y036675D01*
X040308Y036676D01*
X040307Y036679D01*
X040306Y036682D01*
Y036682D01*
Y036682D01*
X040306Y036801D01*
X040307Y036804D01*
X040308Y036807D01*
X040308Y036808D01*
X040308Y036808D01*
D01*
X04031Y036812D01*
X040312Y036814D01*
X040312Y036815D01*
X040312D01*
Y036815D01*
X040313Y036815D01*
X040315Y036817D01*
X040319Y036819D01*
D01*
X040319Y036819D01*
X04032Y03682D01*
X040323Y03682D01*
X040327Y036821D01*
X040409Y036821D01*
D01*
D01*
X040409D01*
X040413Y03682D01*
D02*
G37*
G36*
X040216D02*
X040219Y03682D01*
X04022Y036819D01*
X04022Y036819D01*
D01*
X040224Y036817D01*
X040226Y036815D01*
X040227Y036815D01*
Y036815D01*
X040227D01*
X040227Y036814D01*
X040229Y036812D01*
X040231Y036808D01*
D01*
X040231Y036808D01*
X040231Y036807D01*
X040232Y036804D01*
X040232Y036801D01*
X040232Y036682D01*
Y036682D01*
Y036682D01*
X040232Y036679D01*
X040231Y036676D01*
X040231Y036675D01*
X040231Y036675D01*
D01*
X040229Y036671D01*
X040227Y036669D01*
X040227Y036668D01*
X040227D01*
Y036668D01*
X040226Y036668D01*
X040224Y036666D01*
X04022Y036664D01*
D01*
X04022Y036664D01*
X040219Y036663D01*
X040216Y036663D01*
X040212Y036662D01*
X040212D01*
X040212D01*
X04013D01*
X04013D01*
X04013D01*
X040126Y036663D01*
X040123Y036663D01*
X040122Y036664D01*
X040122Y036664D01*
D01*
X040119Y036666D01*
X040117Y036667D01*
X040115Y036668D01*
X040115Y036668D01*
X040115Y036668D01*
X040115Y036669D01*
X040113Y036671D01*
X040111Y036675D01*
D01*
X040111Y036675D01*
X040111Y036676D01*
X04011Y036679D01*
X04011Y036682D01*
Y036682D01*
Y036682D01*
X04011Y036801D01*
X04011Y036804D01*
X040111Y036807D01*
X040111Y036808D01*
X040111Y036808D01*
D01*
X040113Y036812D01*
X040115Y036814D01*
X040115Y036815D01*
X040115Y036815D01*
X040115Y036815D01*
X040117Y036816D01*
X040119Y036817D01*
X040122Y036819D01*
D01*
X040122Y036819D01*
X040123Y03682D01*
X040126Y03682D01*
X04013Y036821D01*
X040212Y036821D01*
D01*
D01*
X040212D01*
X040216Y03682D01*
D02*
G37*
G36*
X039736Y036821D02*
X039819Y036821D01*
X039823Y03682D01*
X039825Y03682D01*
X039826Y036819D01*
X039826Y036819D01*
D01*
X03983Y036817D01*
X039832Y036815D01*
X039833Y036815D01*
Y036815D01*
X039833D01*
X039833Y036814D01*
X039835Y036812D01*
X039837Y036808D01*
D01*
X039837Y036808D01*
X039838Y036807D01*
X039838Y036804D01*
X039839Y036801D01*
X039839Y036682D01*
Y036682D01*
Y036682D01*
X039838Y036679D01*
X039838Y036676D01*
X039837Y036675D01*
X039837Y036675D01*
D01*
X039835Y036671D01*
X039833Y036669D01*
X039833Y036668D01*
X039833D01*
Y036668D01*
X039832Y036668D01*
X03983Y036666D01*
X039826Y036664D01*
D01*
X039826Y036664D01*
X039825Y036663D01*
X039823Y036663D01*
X039819Y036662D01*
X039819D01*
X039819D01*
X039736D01*
X039736D01*
X039736D01*
X039732Y036663D01*
X03973Y036663D01*
X039728Y036664D01*
X039728Y036664D01*
D01*
X039725Y036666D01*
X039722Y036668D01*
X039722Y036668D01*
Y036668D01*
X039722D01*
X039721Y036669D01*
X039719Y036671D01*
X039717Y036675D01*
D01*
X039717Y036675D01*
X039717Y036676D01*
X039716Y036679D01*
X039716Y036682D01*
Y036682D01*
Y036682D01*
X039716Y036801D01*
X039716Y036804D01*
X039717Y036807D01*
X039717Y036808D01*
X039717Y036808D01*
D01*
X039719Y036812D01*
X039721Y036814D01*
X039722Y036815D01*
X039722D01*
Y036815D01*
X039722Y036815D01*
X039725Y036817D01*
X039728Y036819D01*
D01*
X039728Y036819D01*
X03973Y03682D01*
X039732Y03682D01*
X039736Y036821D01*
X039736D01*
D01*
D01*
D02*
G37*
G36*
X039539D02*
X039622Y036821D01*
X039626Y03682D01*
X039628Y03682D01*
X039629Y036819D01*
X039629Y036819D01*
D01*
X039633Y036817D01*
X039635Y036815D01*
X039636Y036815D01*
Y036815D01*
X039636D01*
X039637Y036814D01*
X039639Y036812D01*
X03964Y036808D01*
D01*
X03964Y036808D01*
X039641Y036807D01*
X039642Y036804D01*
X039642Y036801D01*
X039642Y036682D01*
Y036682D01*
Y036682D01*
X039642Y036679D01*
X039641Y036676D01*
X03964Y036675D01*
X03964Y036675D01*
D01*
X039639Y036671D01*
X039637Y036669D01*
X039636Y036668D01*
X039636D01*
Y036668D01*
X039635Y036668D01*
X039633Y036666D01*
X03963Y036664D01*
D01*
X039629Y036664D01*
X039628Y036663D01*
X039626Y036663D01*
X039622Y036662D01*
X039622D01*
X039622D01*
X039539D01*
X039539D01*
X039539D01*
X039535Y036663D01*
X039533Y036663D01*
X039531Y036664D01*
X039531Y036664D01*
D01*
X039528Y036666D01*
X039526Y036668D01*
X039525Y036668D01*
Y036668D01*
X039525D01*
X039524Y036669D01*
X039522Y036671D01*
X039521Y036675D01*
D01*
X039521Y036675D01*
X03952Y036676D01*
X039519Y036679D01*
X039519Y036682D01*
Y036682D01*
Y036682D01*
X039519Y036801D01*
X039519Y036804D01*
X03952Y036807D01*
X039521Y036808D01*
X039521Y036808D01*
D01*
X039522Y036812D01*
X039524Y036814D01*
X039525Y036815D01*
X039525D01*
Y036815D01*
X039526Y036815D01*
X039528Y036817D01*
X039531Y036819D01*
D01*
X039531Y036819D01*
X039533Y03682D01*
X039535Y03682D01*
X039539Y036821D01*
X039539D01*
D01*
D01*
D02*
G37*
G36*
X037854Y03682D02*
X037856Y03682D01*
X037858Y036819D01*
X037858Y036819D01*
D01*
X037861Y036817D01*
X037863Y036816D01*
X037864Y036815D01*
X037864Y036815D01*
X037864Y036815D01*
X037865Y036814D01*
X037867Y036812D01*
X037869Y036808D01*
D01*
X037869Y036808D01*
X037869Y036807D01*
X03787Y036804D01*
X03787Y036801D01*
X03787Y036682D01*
Y036682D01*
Y036682D01*
X03787Y036679D01*
X037869Y036676D01*
X037869Y036675D01*
X037869Y036675D01*
D01*
X037867Y036671D01*
X037865Y036669D01*
X037864Y036668D01*
X037864Y036668D01*
X037864Y036668D01*
X037863Y036667D01*
X037861Y036666D01*
X037858Y036664D01*
D01*
X037858Y036664D01*
X037856Y036663D01*
X037854Y036663D01*
X03785Y036662D01*
X03785D01*
X03785D01*
X037767D01*
X037767D01*
X037767D01*
X037764Y036663D01*
X037761Y036663D01*
X03776Y036664D01*
X03776Y036664D01*
D01*
X037756Y036666D01*
X037754Y036668D01*
X037753Y036668D01*
Y036668D01*
X037753D01*
X037753Y036669D01*
X037751Y036671D01*
X037749Y036675D01*
D01*
X037749Y036675D01*
X037748Y036676D01*
X037748Y036679D01*
X037747Y036682D01*
Y036682D01*
Y036682D01*
X037747Y036801D01*
X037748Y036804D01*
X037748Y036807D01*
X037749Y036808D01*
X037749Y036808D01*
D01*
X037751Y036812D01*
X037753Y036814D01*
X037753Y036815D01*
X037753D01*
Y036815D01*
X037754Y036815D01*
X037756Y036817D01*
X03776Y036819D01*
D01*
X03776Y036819D01*
X037761Y03682D01*
X037764Y03682D01*
X037767Y036821D01*
X03785Y036821D01*
D01*
D01*
X03785D01*
X037854Y03682D01*
D02*
G37*
G36*
X037657D02*
X037659Y03682D01*
X037661Y036819D01*
X037661Y036819D01*
D01*
X037664Y036817D01*
X037666Y036816D01*
X037668Y036815D01*
X037668Y036815D01*
X037668Y036815D01*
X037668Y036814D01*
X03767Y036812D01*
X037672Y036808D01*
D01*
X037672Y036808D01*
X037672Y036807D01*
X037673Y036804D01*
X037673Y036801D01*
X037673Y036682D01*
Y036682D01*
Y036682D01*
X037673Y036679D01*
X037672Y036676D01*
X037672Y036675D01*
X037672Y036675D01*
D01*
X03767Y036671D01*
X037668Y036669D01*
X037668Y036668D01*
X037668Y036668D01*
X037668Y036668D01*
X037666Y036667D01*
X037664Y036666D01*
X037661Y036664D01*
D01*
X037661Y036664D01*
X03766Y036663D01*
X037657Y036663D01*
X037653Y036662D01*
X037653D01*
X037653D01*
X037571D01*
X037571D01*
X037571D01*
X037567Y036663D01*
X037564Y036663D01*
X037563Y036664D01*
X037563Y036664D01*
D01*
X037559Y036666D01*
X037557Y036668D01*
X037556Y036668D01*
Y036668D01*
X037556D01*
X037556Y036669D01*
X037554Y036671D01*
X037552Y036675D01*
D01*
X037552Y036675D01*
X037552Y036676D01*
X037551Y036679D01*
X037551Y036682D01*
Y036682D01*
Y036682D01*
X037551Y036801D01*
X037551Y036804D01*
X037552Y036807D01*
X037552Y036808D01*
X037552Y036808D01*
D01*
X037554Y036812D01*
X037556Y036814D01*
X037556Y036815D01*
X037556D01*
Y036815D01*
X037557Y036815D01*
X037559Y036817D01*
X037563Y036819D01*
D01*
X037563Y036819D01*
X037564Y03682D01*
X037567Y03682D01*
X037571Y036821D01*
X037653Y036821D01*
D01*
D01*
X037653D01*
X037657Y03682D01*
D02*
G37*
G36*
X039429Y03682D02*
X039431Y03682D01*
X039433Y036819D01*
X039433Y036819D01*
D01*
X039436Y036817D01*
X039438Y036815D01*
X039439Y036815D01*
Y036815D01*
X039439D01*
X03944Y036814D01*
X039442Y036812D01*
X039444Y036808D01*
D01*
X039444Y036808D01*
X039444Y036807D01*
X039445Y036804D01*
X039445Y036801D01*
X039445Y036682D01*
Y036682D01*
Y036682D01*
X039445Y036679D01*
X039444Y036676D01*
X039444Y036675D01*
X039444Y036675D01*
D01*
X039442Y036671D01*
X03944Y036669D01*
X039439Y036668D01*
X039439D01*
Y036668D01*
X039439Y036668D01*
X039436Y036666D01*
X039433Y036664D01*
D01*
X039433Y036664D01*
X039431Y036663D01*
X039429Y036663D01*
X039425Y036662D01*
X039425D01*
X039425D01*
X039342D01*
X039342D01*
X039342D01*
X039341Y036662D01*
X039338Y036663D01*
X039335Y036664D01*
D01*
X039335Y036664D01*
X039333Y036665D01*
X039331Y036666D01*
X039328Y036668D01*
X039328Y036668D01*
X039328Y036668D01*
X039326Y036671D01*
X039324Y036673D01*
X039324Y036675D01*
X039324Y036675D01*
D01*
X039323Y036679D01*
X039322Y036681D01*
X039322Y036682D01*
Y036682D01*
Y036682D01*
X039322Y036801D01*
X039322Y036802D01*
X039323Y036804D01*
X039324Y036808D01*
D01*
X039324Y036808D01*
X039324Y03681D01*
X039326Y036812D01*
X039328Y036815D01*
X039328Y036815D01*
X039328Y036815D01*
X039331Y036817D01*
X039333Y036818D01*
X039335Y036819D01*
X039335Y036819D01*
D01*
X039338Y03682D01*
X039341Y036821D01*
X039342Y036821D01*
X039425D01*
X039429Y03682D01*
D02*
G37*
G36*
X038641D02*
X038644Y03682D01*
X038645Y036819D01*
X038645Y036819D01*
D01*
X038649Y036817D01*
X038651Y036816D01*
X038652Y036815D01*
X038652Y036815D01*
X038652Y036815D01*
X038653Y036814D01*
X038654Y036812D01*
X038656Y036808D01*
D01*
X038656Y036808D01*
X038657Y036807D01*
X038657Y036804D01*
X038658Y036801D01*
X038658Y036682D01*
Y036682D01*
Y036682D01*
X038657Y036679D01*
X038657Y036676D01*
X038656Y036675D01*
X038656Y036675D01*
D01*
X038654Y036671D01*
X038653Y036669D01*
X038652Y036668D01*
X038652Y036668D01*
X038652Y036668D01*
X038651Y036667D01*
X038649Y036666D01*
X038645Y036664D01*
D01*
X038645Y036664D01*
X038644Y036663D01*
X038641Y036663D01*
X038638Y036662D01*
X038638D01*
X038638D01*
X038555D01*
X038555D01*
X038555D01*
X038551Y036663D01*
X038549Y036663D01*
X038547Y036664D01*
X038547Y036664D01*
D01*
X038544Y036666D01*
X038542Y036667D01*
X038541Y036668D01*
X038541Y036668D01*
X038541Y036668D01*
X03854Y036669D01*
X038538Y036671D01*
X038536Y036675D01*
D01*
X038536Y036675D01*
X038536Y036676D01*
X038535Y036679D01*
X038535Y036682D01*
Y036682D01*
Y036682D01*
X038535Y036801D01*
X038535Y036804D01*
X038536Y036807D01*
X038536Y036808D01*
X038536Y036808D01*
D01*
X038538Y036812D01*
X03854Y036814D01*
X038541Y036815D01*
X038541Y036815D01*
X038541Y036815D01*
X038542Y036816D01*
X038544Y036817D01*
X038547Y036819D01*
D01*
X038547Y036819D01*
X038549Y03682D01*
X038551Y03682D01*
X038555Y036821D01*
X038638D01*
X038641Y03682D01*
D02*
G37*
G36*
X038445D02*
X038447Y03682D01*
X038448Y036819D01*
X038448Y036819D01*
D01*
X038452Y036817D01*
X038454Y036816D01*
X038455Y036815D01*
X038455Y036815D01*
X038455Y036815D01*
X038456Y036814D01*
X038457Y036812D01*
X038459Y036808D01*
D01*
X038459Y036808D01*
X03846Y036807D01*
X03846Y036804D01*
X038461Y036801D01*
X038461Y036682D01*
Y036682D01*
Y036682D01*
X03846Y036679D01*
X03846Y036676D01*
X038459Y036675D01*
X038459Y036675D01*
D01*
X038457Y036671D01*
X038456Y036669D01*
X038455Y036668D01*
X038455Y036668D01*
X038455Y036668D01*
X038454Y036667D01*
X038452Y036666D01*
X038448Y036664D01*
D01*
X038448Y036664D01*
X038447Y036663D01*
X038445Y036663D01*
X038441Y036662D01*
X038441D01*
X038441D01*
X038358D01*
X038358D01*
X038358D01*
X038354Y036663D01*
X038352Y036663D01*
X03835Y036664D01*
X03835Y036664D01*
D01*
X038347Y036666D01*
X038345Y036667D01*
X038344Y036668D01*
X038344Y036668D01*
X038344Y036668D01*
X038343Y036669D01*
X038341Y036671D01*
X038339Y036675D01*
D01*
X038339Y036675D01*
X038339Y036676D01*
X038338Y036679D01*
X038338Y036682D01*
Y036682D01*
Y036682D01*
X038338Y036801D01*
X038338Y036804D01*
X038339Y036807D01*
X038339Y036808D01*
X038339Y036808D01*
D01*
X038341Y036812D01*
X038343Y036814D01*
X038344Y036815D01*
X038344Y036815D01*
X038344Y036815D01*
X038345Y036816D01*
X038347Y036817D01*
X03835Y036819D01*
D01*
X03835Y036819D01*
X038352Y03682D01*
X038354Y03682D01*
X038358Y036821D01*
X038441D01*
X038445Y03682D01*
D02*
G37*
G36*
X038248D02*
X03825Y03682D01*
X038252Y036819D01*
X038252Y036819D01*
D01*
X038255Y036817D01*
X038257Y036816D01*
X038258Y036815D01*
X038258Y036815D01*
X038258Y036815D01*
X038259Y036814D01*
X038261Y036812D01*
X038262Y036808D01*
D01*
X038262Y036808D01*
X038263Y036807D01*
X038264Y036804D01*
X038264Y036801D01*
X038264Y036682D01*
Y036682D01*
Y036682D01*
X038264Y036679D01*
X038263Y036676D01*
X038262Y036675D01*
X038262Y036675D01*
D01*
X038261Y036671D01*
X038259Y036669D01*
X038258Y036668D01*
X038258Y036668D01*
X038258Y036668D01*
X038257Y036667D01*
X038255Y036666D01*
X038252Y036664D01*
D01*
X038252Y036664D01*
X03825Y036663D01*
X038248Y036663D01*
X038244Y036662D01*
X038244D01*
X038244D01*
X038161D01*
X038161D01*
X038161D01*
X038157Y036663D01*
X038155Y036663D01*
X038153Y036664D01*
X038153Y036664D01*
D01*
X03815Y036666D01*
X038148Y036668D01*
X038147Y036668D01*
Y036668D01*
X038147D01*
X038146Y036669D01*
X038144Y036671D01*
X038143Y036675D01*
D01*
X038143Y036675D01*
X038142Y036676D01*
X038141Y036679D01*
X038141Y036682D01*
Y036682D01*
Y036682D01*
X038141Y036801D01*
X038141Y036804D01*
X038142Y036807D01*
X038143Y036808D01*
X038143Y036808D01*
D01*
X038144Y036812D01*
X038146Y036814D01*
X038147Y036815D01*
X038147D01*
Y036815D01*
X038148Y036815D01*
X03815Y036817D01*
X038153Y036819D01*
D01*
X038153Y036819D01*
X038155Y03682D01*
X038157Y03682D01*
X038161Y036821D01*
X038244D01*
X038248Y03682D01*
D02*
G37*
G36*
X038051D02*
X038054Y036819D01*
X038055Y036819D01*
X038055Y036819D01*
D01*
X038058Y036817D01*
X03806Y036816D01*
X038061Y036815D01*
X038061Y036815D01*
X038061Y036815D01*
X038062Y036814D01*
X038064Y036812D01*
X038066Y036808D01*
D01*
X038066Y036808D01*
X038066Y036807D01*
X038067Y036804D01*
X038067Y036801D01*
X038067Y036682D01*
Y036682D01*
Y036682D01*
X038067Y036679D01*
X038066Y036676D01*
X038066Y036675D01*
X038066Y036675D01*
D01*
X038064Y036671D01*
X038062Y036669D01*
X038061Y036668D01*
X038061Y036668D01*
X038061Y036668D01*
X03806Y036667D01*
X038058Y036666D01*
X038055Y036664D01*
D01*
X038055Y036664D01*
X038054Y036664D01*
X038051Y036663D01*
X038047Y036662D01*
X038047D01*
X038047D01*
X037964Y036662D01*
X037964D01*
X037964D01*
X03796Y036663D01*
X037958Y036663D01*
X037957Y036664D01*
X037957Y036664D01*
D01*
X037953Y036666D01*
X037951Y036668D01*
X03795Y036668D01*
Y036668D01*
X03795D01*
X03795Y036669D01*
X037948Y036671D01*
X037946Y036675D01*
D01*
X037946Y036675D01*
X037945Y036676D01*
X037945Y036679D01*
X037944Y036682D01*
Y036682D01*
Y036682D01*
X037944Y036801D01*
X037945Y036804D01*
X037945Y036807D01*
X037946Y036808D01*
X037946Y036808D01*
D01*
X037948Y036812D01*
X03795Y036814D01*
X03795Y036815D01*
X03795D01*
Y036815D01*
X037951Y036815D01*
X037953Y036817D01*
X037957Y036819D01*
D01*
X037957Y036819D01*
X037958Y03682D01*
X03796Y03682D01*
X037964Y036821D01*
X038047D01*
X038051Y03682D01*
D02*
G37*
G36*
X03746D02*
X037463Y036819D01*
X037464Y036819D01*
X037464Y036819D01*
D01*
X037468Y036817D01*
X03747Y036816D01*
X037471Y036815D01*
X037471Y036815D01*
X037471Y036815D01*
X037472Y036814D01*
X037473Y036812D01*
X037475Y036808D01*
D01*
X037475Y036808D01*
X037475Y036807D01*
X037476Y036804D01*
X037477Y036801D01*
X037477Y036682D01*
Y036682D01*
Y036682D01*
X037476Y036679D01*
X037475Y036676D01*
X037475Y036675D01*
X037475Y036675D01*
D01*
X037473Y036671D01*
X037472Y036669D01*
X037471Y036668D01*
X037471Y036668D01*
X037471Y036668D01*
X03747Y036667D01*
X037468Y036666D01*
X037464Y036664D01*
D01*
X037464Y036664D01*
X037463Y036664D01*
X03746Y036663D01*
X037456Y036662D01*
X037456D01*
X037456D01*
X037374D01*
X037374D01*
X037374D01*
X03737Y036663D01*
X037368Y036663D01*
X037366Y036664D01*
X037363Y036666D01*
X03736Y036668D01*
Y036668D01*
X03736D01*
X037357Y036671D01*
X037355Y036675D01*
X037355Y036677D01*
X037354Y036679D01*
X037354Y036682D01*
Y036682D01*
Y036682D01*
X037354Y036801D01*
X037354Y036804D01*
X037355Y036806D01*
X037355Y036808D01*
X037357Y036812D01*
X03736Y036815D01*
X03736D01*
Y036815D01*
X037363Y036817D01*
X037366Y036819D01*
X037368Y03682D01*
X03737Y03682D01*
X037374Y036821D01*
X037456D01*
X03746Y03682D01*
D02*
G37*
G36*
X040019D02*
X040022Y03682D01*
X040023Y036819D01*
X040023Y036819D01*
D01*
X040027Y036817D01*
X040029Y036816D01*
X04003Y036815D01*
X04003Y036815D01*
X04003Y036815D01*
X040031Y036814D01*
X040032Y036812D01*
X040034Y036808D01*
D01*
X040034Y036808D01*
X040035Y036807D01*
X040035Y036804D01*
X040036Y036801D01*
X040036Y036682D01*
Y036682D01*
Y036682D01*
X040035Y036679D01*
X040035Y036676D01*
X040034Y036675D01*
X040034Y036675D01*
D01*
X040032Y036671D01*
X040031Y036669D01*
X04003Y036668D01*
X04003Y036668D01*
X04003Y036668D01*
X040029Y036667D01*
X040027Y036666D01*
X040023Y036664D01*
D01*
X040023Y036664D01*
X040022Y036663D01*
X040019Y036663D01*
X040016Y036662D01*
X040016D01*
X040016D01*
X039933Y036662D01*
X039933D01*
X039933D01*
X039929Y036663D01*
X039927Y036663D01*
X039925Y036664D01*
X039925Y036664D01*
D01*
X039922Y036666D01*
X03992Y036667D01*
X039919Y036668D01*
X039919Y036668D01*
X039919Y036668D01*
X039918Y036669D01*
X039916Y036671D01*
X039914Y036675D01*
D01*
X039914Y036675D01*
X039914Y036676D01*
X039913Y036679D01*
X039913Y036682D01*
Y036682D01*
Y036682D01*
X039913Y036801D01*
X039913Y036804D01*
X039914Y036807D01*
X039914Y036808D01*
X039914Y036808D01*
D01*
X039916Y036812D01*
X039918Y036814D01*
X039919Y036815D01*
X039919Y036815D01*
X039919Y036815D01*
X03992Y036816D01*
X039922Y036817D01*
X039925Y036819D01*
D01*
X039925Y036819D01*
X039927Y03682D01*
X039929Y03682D01*
X039933Y036821D01*
X040016D01*
X040019Y03682D01*
D02*
G37*
G36*
X039232D02*
X039234Y03682D01*
X039236Y036819D01*
X039236Y036819D01*
D01*
X039239Y036817D01*
X039241Y036816D01*
X039242Y036815D01*
X039242Y036815D01*
X039242Y036815D01*
X039243Y036814D01*
X039245Y036812D01*
X039247Y036808D01*
D01*
X039247Y036808D01*
X039247Y036807D01*
X039248Y036804D01*
X039248Y036801D01*
X039248Y036682D01*
Y036682D01*
Y036682D01*
X039248Y036679D01*
X039247Y036676D01*
X039247Y036675D01*
X039247Y036675D01*
D01*
X039245Y036671D01*
X039243Y036669D01*
X039242Y036668D01*
X039242Y036668D01*
X039242Y036668D01*
X039241Y036667D01*
X039239Y036666D01*
X039236Y036664D01*
D01*
X039236Y036664D01*
X039234Y036663D01*
X039232Y036663D01*
X039228Y036662D01*
X039228D01*
X039228D01*
X039145Y036662D01*
X039145D01*
X039145D01*
X039141Y036663D01*
X039139Y036663D01*
X039138Y036664D01*
X039138Y036664D01*
D01*
X039134Y036666D01*
X039132Y036667D01*
X039131Y036668D01*
X039131Y036668D01*
X039131Y036668D01*
X03913Y036669D01*
X039129Y036671D01*
X039127Y036675D01*
D01*
X039127Y036675D01*
X039126Y036676D01*
X039126Y036679D01*
X039125Y036682D01*
Y036682D01*
Y036682D01*
X039125Y036801D01*
X039126Y036804D01*
X039126Y036807D01*
X039127Y036808D01*
X039127Y036808D01*
D01*
X039129Y036812D01*
X03913Y036814D01*
X039131Y036815D01*
X039131Y036815D01*
X039131Y036815D01*
X039132Y036816D01*
X039134Y036817D01*
X039138Y036819D01*
D01*
X039138Y036819D01*
X039139Y03682D01*
X039142Y03682D01*
X039145Y036821D01*
X039228D01*
X039232Y03682D01*
D02*
G37*
G36*
X039035D02*
X039037Y03682D01*
X039039Y036819D01*
X039039Y036819D01*
D01*
X039042Y036817D01*
X039044Y036816D01*
X039045Y036815D01*
X039045Y036815D01*
X039045Y036815D01*
X039046Y036814D01*
X039048Y036812D01*
X03905Y036808D01*
D01*
X03905Y036808D01*
X03905Y036807D01*
X039051Y036804D01*
X039051Y036801D01*
X039051Y036682D01*
Y036682D01*
Y036682D01*
X039051Y036679D01*
X03905Y036676D01*
X03905Y036675D01*
X03905Y036675D01*
D01*
X039048Y036671D01*
X039046Y036669D01*
X039045Y036668D01*
X039045Y036668D01*
X039045Y036668D01*
X039044Y036667D01*
X039042Y036666D01*
X039039Y036664D01*
D01*
X039039Y036664D01*
X039037Y036663D01*
X039035Y036663D01*
X039031Y036662D01*
X039031D01*
X039031D01*
X038949Y036662D01*
X038949D01*
X038949D01*
X038945Y036663D01*
X038942Y036663D01*
X038941Y036664D01*
X038941Y036664D01*
D01*
X038937Y036666D01*
X038935Y036667D01*
X038934Y036668D01*
X038934Y036668D01*
X038934Y036668D01*
X038933Y036669D01*
X038932Y036671D01*
X03893Y036675D01*
D01*
X03893Y036675D01*
X03893Y036676D01*
X038929Y036679D01*
X038928Y036682D01*
Y036682D01*
Y036682D01*
X038928Y036801D01*
X038929Y036804D01*
X03893Y036807D01*
X03893Y036808D01*
X03893Y036808D01*
D01*
X038932Y036812D01*
X038933Y036814D01*
X038934Y036815D01*
X038934Y036815D01*
X038934Y036815D01*
X038935Y036816D01*
X038937Y036817D01*
X038941Y036819D01*
D01*
X038941Y036819D01*
X038942Y03682D01*
X038945Y03682D01*
X038949Y036821D01*
X039031D01*
X039035Y03682D01*
D02*
G37*
G36*
X038838D02*
X038841Y03682D01*
X038842Y036819D01*
X038842Y036819D01*
D01*
X038846Y036817D01*
X038848Y036815D01*
X038849Y036815D01*
Y036815D01*
X038849D01*
X038849Y036814D01*
X038851Y036812D01*
X038853Y036808D01*
D01*
X038853Y036808D01*
X038853Y036807D01*
X038854Y036804D01*
X038854Y036801D01*
X038855Y036682D01*
Y036682D01*
Y036682D01*
X038854Y036679D01*
X038853Y036676D01*
X038853Y036675D01*
X038853Y036675D01*
D01*
X038851Y036671D01*
X038849Y036669D01*
X038849Y036668D01*
X038849D01*
Y036668D01*
X038848Y036668D01*
X038846Y036666D01*
X038842Y036664D01*
D01*
X038842Y036664D01*
X038841Y036663D01*
X038838Y036663D01*
X038834Y036662D01*
X038834D01*
X038834D01*
X038752D01*
X038752D01*
X038752D01*
X038748Y036663D01*
X038746Y036663D01*
X038744Y036664D01*
X038744Y036664D01*
D01*
X038741Y036666D01*
X038738Y036668D01*
X038738Y036668D01*
Y036668D01*
X038738D01*
X038737Y036669D01*
X038735Y036671D01*
X038733Y036675D01*
D01*
X038733Y036675D01*
X038733Y036676D01*
X038732Y036679D01*
X038732Y036682D01*
Y036682D01*
Y036682D01*
X038732Y036801D01*
X038732Y036804D01*
X038733Y036807D01*
X038733Y036808D01*
X038733Y036808D01*
D01*
X038735Y036812D01*
X038737Y036814D01*
X038738Y036815D01*
X038738D01*
Y036815D01*
X038738Y036815D01*
X038741Y036817D01*
X038744Y036819D01*
D01*
X038744Y036819D01*
X038746Y03682D01*
X038748Y03682D01*
X038752Y036821D01*
X038834D01*
X038838Y03682D01*
D02*
G37*
G36*
X040899Y036527D02*
X040903Y036527D01*
X040906Y036526D01*
X040907Y036526D01*
X040907Y036526D01*
D01*
X040911Y036524D01*
X040913Y036522D01*
X040914Y036521D01*
Y036521D01*
X040914D01*
X040914Y036521D01*
X040916Y036518D01*
X040918Y036515D01*
D01*
X040918Y036515D01*
X040918Y036513D01*
X040919Y036511D01*
X040919Y036507D01*
Y036425D01*
X040919Y036421D01*
X040918Y036418D01*
X040918Y036417D01*
X040918Y036417D01*
D01*
X040916Y036413D01*
X040914Y036411D01*
X040914Y03641D01*
X040914Y03641D01*
X040914Y03641D01*
X040912Y036409D01*
X040911Y036408D01*
X040907Y036406D01*
D01*
X040907Y036406D01*
X040906Y036406D01*
X040903Y036405D01*
X040899Y036404D01*
X040781Y036404D01*
X040781D01*
X040781D01*
X040777Y036405D01*
X040775Y036406D01*
X040774Y036406D01*
X040774Y036406D01*
D01*
X04077Y036408D01*
X040768Y036409D01*
X040767Y03641D01*
X040767Y03641D01*
X040767Y03641D01*
X040766Y036411D01*
X040765Y036413D01*
X040763Y036417D01*
D01*
X040763Y036417D01*
X040762Y036418D01*
X040762Y036421D01*
X040761Y036425D01*
Y036425D01*
Y036425D01*
X040761Y036507D01*
Y036507D01*
Y036507D01*
X040762Y036511D01*
X040762Y036513D01*
X040763Y036515D01*
X040763Y036515D01*
D01*
X040765Y036518D01*
X040767Y036521D01*
X040767Y036521D01*
X040767D01*
Y036521D01*
X040768Y036522D01*
X04077Y036524D01*
X040774Y036526D01*
D01*
X040774Y036526D01*
X040775Y036526D01*
X040777Y036527D01*
X040781Y036527D01*
X040781D01*
X040781D01*
X040899Y036527D01*
D02*
G37*
G36*
X037202Y036527D02*
X037205Y036526D01*
X037206Y036526D01*
X037206Y036526D01*
D01*
X03721Y036524D01*
X037212Y036522D01*
X037213Y036521D01*
X037213Y036521D01*
X037213Y036521D01*
X037214Y03652D01*
X037215Y036518D01*
X037217Y036515D01*
D01*
X037217Y036515D01*
X037218Y036513D01*
X037218Y036511D01*
X037219Y036507D01*
Y036507D01*
Y036507D01*
X037219Y036425D01*
Y036425D01*
Y036425D01*
X037218Y036421D01*
X037218Y036418D01*
X037217Y036417D01*
X037217Y036417D01*
D01*
X037215Y036413D01*
X037213Y036411D01*
X037213Y03641D01*
X037213D01*
Y03641D01*
X037212Y03641D01*
X03721Y036408D01*
X037206Y036406D01*
D01*
X037206Y036406D01*
X037205Y036406D01*
X037202Y036405D01*
X037199Y036404D01*
X037199D01*
X037199D01*
X03708Y036404D01*
X037077Y036405D01*
X037074Y036406D01*
X037073Y036406D01*
X037073Y036406D01*
D01*
X037069Y036408D01*
X037067Y03641D01*
X037066Y03641D01*
Y03641D01*
X037066D01*
X037066Y036411D01*
X037064Y036413D01*
X037062Y036417D01*
D01*
X037062Y036417D01*
X037061Y036418D01*
X037061Y036421D01*
X03706Y036425D01*
Y036425D01*
D01*
D01*
X03706Y036507D01*
X037061Y036511D01*
X037061Y036513D01*
X037062Y036515D01*
X037062Y036515D01*
D01*
X037064Y036518D01*
X037065Y03652D01*
X037066Y036521D01*
X037066Y036521D01*
X037066Y036521D01*
X037067Y036522D01*
X037069Y036524D01*
X037073Y036526D01*
D01*
X037073Y036526D01*
X037074Y036526D01*
X037077Y036527D01*
X03708Y036527D01*
X037199Y036527D01*
X037199D01*
X037199D01*
X037202Y036527D01*
D02*
G37*
G36*
X040899Y03633D02*
X040903Y03633D01*
X040906Y036329D01*
X040907Y036329D01*
X040907Y036329D01*
D01*
X040911Y036327D01*
X040913Y036325D01*
X040914Y036325D01*
Y036325D01*
X040914D01*
X040914Y036324D01*
X040916Y036322D01*
X040918Y036318D01*
D01*
X040918Y036318D01*
X040918Y036317D01*
X040919Y036314D01*
X040919Y03631D01*
Y036228D01*
X040919Y036224D01*
X040918Y036222D01*
X040918Y03622D01*
X040918Y03622D01*
D01*
X040916Y036217D01*
X040914Y036215D01*
X040914Y036214D01*
X040914Y036214D01*
X040914Y036214D01*
X040912Y036213D01*
X040911Y036211D01*
X040907Y036209D01*
D01*
X040907Y036209D01*
X040906Y036209D01*
X040903Y036208D01*
X040899Y036208D01*
X040781Y036208D01*
X040781D01*
X040781D01*
X040777Y036208D01*
X040775Y036209D01*
X040774Y036209D01*
X040774Y036209D01*
D01*
X04077Y036211D01*
X040768Y036213D01*
X040767Y036214D01*
X040767Y036214D01*
X040767Y036214D01*
X040766Y036215D01*
X040765Y036217D01*
X040763Y03622D01*
D01*
X040763Y03622D01*
X040762Y036221D01*
X040762Y036224D01*
X040761Y036228D01*
Y036228D01*
Y036228D01*
Y03631D01*
Y03631D01*
Y03631D01*
X040762Y036314D01*
X040762Y036317D01*
X040763Y036318D01*
X040763Y036318D01*
D01*
X040765Y036322D01*
X040767Y036324D01*
X040767Y036325D01*
X040767D01*
Y036325D01*
X040768Y036325D01*
X04077Y036327D01*
X040774Y036329D01*
D01*
X040774Y036329D01*
X040775Y036329D01*
X040777Y03633D01*
X040781Y03633D01*
X040781D01*
X040781D01*
X040899Y03633D01*
D02*
G37*
G36*
X037202Y03633D02*
X037205Y036329D01*
X037206Y036329D01*
X037206Y036329D01*
D01*
X03721Y036327D01*
X037212Y036326D01*
X037213Y036325D01*
X037213Y036325D01*
X037213Y036325D01*
X037214Y036324D01*
X037215Y036322D01*
X037217Y036318D01*
D01*
X037217Y036318D01*
X037218Y036317D01*
X037218Y036314D01*
X037219Y03631D01*
Y03631D01*
Y03631D01*
X037219Y036228D01*
Y036228D01*
Y036228D01*
X037218Y036224D01*
X037218Y036221D01*
X037217Y03622D01*
X037217Y03622D01*
D01*
X037215Y036217D01*
X037213Y036214D01*
X037213Y036213D01*
X037213D01*
Y036213D01*
X037212Y036213D01*
X03721Y036211D01*
X037206Y036209D01*
D01*
X037206Y036209D01*
X037205Y036209D01*
X037202Y036208D01*
X037199Y036208D01*
X037199D01*
X037199D01*
X03708Y036208D01*
X037077Y036208D01*
X037074Y036209D01*
X037073Y036209D01*
X037073Y036209D01*
D01*
X037069Y036211D01*
X037067Y036213D01*
X037066Y036214D01*
Y036214D01*
X037066D01*
X037066Y036214D01*
X037064Y036217D01*
X037062Y03622D01*
D01*
X037062Y03622D01*
X037061Y036222D01*
X037061Y036224D01*
X03706Y036228D01*
Y036228D01*
D01*
D01*
X03706Y03631D01*
X037061Y036314D01*
X037061Y036317D01*
X037062Y036318D01*
X037062Y036318D01*
D01*
X037064Y036322D01*
X037065Y036323D01*
X037066Y036325D01*
X037066Y036325D01*
X037066Y036325D01*
X037067Y036325D01*
X037069Y036327D01*
X037073Y036329D01*
D01*
X037073Y036329D01*
X037074Y036329D01*
X037077Y03633D01*
X03708Y03633D01*
X037199Y03633D01*
X037199D01*
X037199D01*
X037202Y03633D01*
D02*
G37*
G36*
X040899Y036134D02*
X040903Y036133D01*
X040906Y036133D01*
X040907Y036132D01*
X040907Y036132D01*
D01*
X040911Y03613D01*
X040913Y036128D01*
X040914Y036128D01*
Y036128D01*
X040914D01*
X040914Y036127D01*
X040916Y036125D01*
X040918Y036121D01*
D01*
X040918Y036121D01*
X040918Y03612D01*
X040919Y036117D01*
X040919Y036114D01*
Y036031D01*
X040919Y036027D01*
X040918Y036025D01*
X040918Y036023D01*
X040918Y036023D01*
D01*
X040916Y03602D01*
X040914Y036018D01*
X040914Y036017D01*
X040914Y036017D01*
X040914Y036017D01*
X040912Y036016D01*
X040911Y036014D01*
X040907Y036012D01*
D01*
X040907Y036012D01*
X040906Y036012D01*
X040903Y036011D01*
X040899Y036011D01*
X040781Y036011D01*
X040781D01*
X040781D01*
X040777Y036011D01*
X040775Y036012D01*
X040774Y036012D01*
X040774Y036012D01*
D01*
X04077Y036014D01*
X040768Y036016D01*
X040767Y036017D01*
X040767Y036017D01*
X040767Y036017D01*
X040766Y036018D01*
X040765Y03602D01*
X040763Y036023D01*
D01*
X040763Y036023D01*
X040762Y036025D01*
X040762Y036027D01*
X040761Y036031D01*
Y036031D01*
Y036031D01*
X040761Y036114D01*
Y036114D01*
Y036114D01*
X040762Y036117D01*
X040762Y03612D01*
X040763Y036121D01*
X040763Y036121D01*
D01*
X040765Y036125D01*
X040767Y036127D01*
X040767Y036128D01*
X040767D01*
Y036128D01*
X040768Y036128D01*
X04077Y03613D01*
X040774Y036132D01*
D01*
X040774Y036132D01*
X040775Y036133D01*
X040777Y036133D01*
X040781Y036134D01*
X040781D01*
X040781D01*
X040899Y036134D01*
D02*
G37*
G36*
X037202Y036133D02*
X037205Y036133D01*
X037206Y036132D01*
X037206Y036132D01*
D01*
X03721Y03613D01*
X037212Y036128D01*
X037213Y036128D01*
Y036128D01*
X037213D01*
X037213Y036127D01*
X037215Y036125D01*
X037217Y036121D01*
D01*
X037217Y036121D01*
X037218Y03612D01*
X037218Y036117D01*
X037219Y036114D01*
Y036114D01*
Y036114D01*
Y036031D01*
Y036031D01*
Y036031D01*
X037218Y036027D01*
X037218Y036025D01*
X037217Y036023D01*
X037217Y036023D01*
D01*
X037215Y03602D01*
X037214Y036018D01*
X037213Y036017D01*
X037213Y036017D01*
X037213Y036017D01*
X037212Y036016D01*
X03721Y036014D01*
X037206Y036012D01*
D01*
X037206Y036012D01*
X037205Y036012D01*
X037202Y036011D01*
X037199Y036011D01*
X037199D01*
X037199D01*
X03708Y036011D01*
X037077Y036011D01*
X037074Y036012D01*
X037073Y036012D01*
X037073Y036012D01*
D01*
X037069Y036014D01*
X037067Y036016D01*
X037066Y036017D01*
X037066Y036017D01*
X037066Y036017D01*
X037065Y036018D01*
X037064Y03602D01*
X037062Y036023D01*
D01*
X037062Y036023D01*
X037061Y036025D01*
X037061Y036027D01*
X03706Y036031D01*
Y036031D01*
D01*
D01*
X03706Y036114D01*
X037061Y036117D01*
X037061Y03612D01*
X037062Y036121D01*
X037062Y036121D01*
D01*
X037064Y036125D01*
X037066Y036127D01*
X037066Y036128D01*
X037066D01*
Y036128D01*
X037067Y036128D01*
X037069Y03613D01*
X037073Y036132D01*
D01*
X037073Y036132D01*
X037074Y036133D01*
X037077Y036133D01*
X03708Y036134D01*
X037199Y036134D01*
X037199D01*
X037199D01*
X037202Y036133D01*
D02*
G37*
G36*
X040899Y035937D02*
X040903Y035936D01*
X040906Y035936D01*
X040907Y035935D01*
X040907Y035935D01*
D01*
X040911Y035933D01*
X040913Y035931D01*
X040914Y035931D01*
Y035931D01*
X040914D01*
X040914Y03593D01*
X040916Y035928D01*
X040918Y035924D01*
D01*
X040918Y035924D01*
X040918Y035923D01*
X040919Y035921D01*
X040919Y035917D01*
Y035834D01*
X040919Y03583D01*
X040918Y035828D01*
X040918Y035826D01*
X040918Y035826D01*
D01*
X040916Y035823D01*
X040914Y035821D01*
X040914Y03582D01*
X040914Y03582D01*
X040914Y03582D01*
X040912Y035819D01*
X040911Y035817D01*
X040907Y035815D01*
D01*
X040907Y035815D01*
X040906Y035815D01*
X040903Y035814D01*
X040899Y035814D01*
X040781Y035814D01*
X040781D01*
X040781D01*
X040777Y035814D01*
X040775Y035815D01*
X040774Y035815D01*
X040774Y035815D01*
D01*
X04077Y035817D01*
X040768Y035819D01*
X040767Y03582D01*
X040767Y03582D01*
X040767Y03582D01*
X040766Y035821D01*
X040765Y035823D01*
X040763Y035826D01*
D01*
X040763Y035826D01*
X040762Y035828D01*
X040762Y03583D01*
X040761Y035834D01*
Y035834D01*
Y035834D01*
Y035917D01*
Y035917D01*
Y035917D01*
X040762Y035921D01*
X040762Y035923D01*
X040763Y035924D01*
X040763Y035924D01*
D01*
X040765Y035928D01*
X040767Y03593D01*
X040767Y035931D01*
X040767D01*
Y035931D01*
X040768Y035931D01*
X04077Y035933D01*
X040774Y035935D01*
D01*
X040774Y035935D01*
X040775Y035936D01*
X040777Y035936D01*
X040781Y035937D01*
X040781D01*
X040781D01*
X040899Y035937D01*
D02*
G37*
G36*
X037203Y035936D02*
X037206Y035935D01*
X037206Y035935D01*
D01*
X037206Y035935D01*
X03721Y035933D01*
X037212Y035932D01*
X037213Y035931D01*
X037213Y035931D01*
X037213Y035931D01*
X037213Y03593D01*
X037215Y035928D01*
X037217Y035924D01*
X037217Y035924D01*
D01*
X037217Y035924D01*
X037218Y035921D01*
X037219Y035917D01*
Y035917D01*
Y035917D01*
X037219Y035834D01*
Y035834D01*
D01*
X037218Y03583D01*
X037218Y035829D01*
X037217Y035826D01*
X037215Y035823D01*
X037213Y03582D01*
X037213D01*
Y03582D01*
X03721Y035817D01*
X037206Y035815D01*
X037204Y035815D01*
X037202Y035814D01*
X037199Y035814D01*
D01*
X037199D01*
X03708Y035814D01*
X037077Y035814D01*
X037074Y035815D01*
X037073Y035815D01*
X037073Y035815D01*
D01*
X037069Y035817D01*
X037067Y035819D01*
X037066Y03582D01*
X037066Y03582D01*
X037066Y03582D01*
X037065Y035821D01*
X037064Y035823D01*
X037062Y035826D01*
D01*
X037062Y035826D01*
X037061Y035828D01*
X037061Y03583D01*
X03706Y035834D01*
Y035834D01*
D01*
D01*
X03706Y035917D01*
X037061Y035921D01*
X037061Y035923D01*
X037062Y035924D01*
X037062Y035924D01*
D01*
X037064Y035928D01*
X037065Y03593D01*
X037066Y035931D01*
X037066Y035931D01*
X037066Y035931D01*
X037067Y035932D01*
X037069Y035933D01*
X037073Y035935D01*
D01*
X037073Y035935D01*
X037074Y035936D01*
X037077Y035936D01*
X03708Y035937D01*
X037199Y035937D01*
X037199D01*
X037199D01*
X037203Y035936D01*
D02*
G37*
G36*
X040899Y03574D02*
X040903Y03574D01*
X040906Y035739D01*
X040907Y035738D01*
X040907Y035738D01*
D01*
X040911Y035737D01*
X040913Y035735D01*
X040914Y035734D01*
Y035734D01*
X040914D01*
X040914Y035733D01*
X040916Y035731D01*
X040918Y035728D01*
D01*
X040918Y035728D01*
X040918Y035726D01*
X040919Y035724D01*
X040919Y03572D01*
Y035637D01*
X040919Y035633D01*
X040918Y035631D01*
X040918Y035629D01*
X040918Y035629D01*
D01*
X040916Y035626D01*
X040914Y035624D01*
X040914Y035623D01*
X040914Y035623D01*
X040914Y035623D01*
X040912Y035622D01*
X040911Y03562D01*
X040907Y035619D01*
D01*
X040907Y035619D01*
X040906Y035618D01*
X040903Y035617D01*
X040899Y035617D01*
X040781Y035617D01*
X040781D01*
X040781D01*
X040777Y035617D01*
X040775Y035618D01*
X040774Y035619D01*
X040774Y035619D01*
D01*
X04077Y03562D01*
X040768Y035622D01*
X040767Y035623D01*
X040767Y035623D01*
X040767Y035623D01*
X040766Y035624D01*
X040765Y035626D01*
X040763Y035629D01*
D01*
X040763Y035629D01*
X040762Y035631D01*
X040762Y035633D01*
X040761Y035637D01*
Y035637D01*
Y035637D01*
X040761Y03572D01*
Y03572D01*
Y03572D01*
X040762Y035724D01*
X040762Y035726D01*
X040763Y035728D01*
X040763Y035728D01*
D01*
X040765Y035731D01*
X040767Y035733D01*
X040767Y035734D01*
X040767D01*
Y035734D01*
X040768Y035735D01*
X04077Y035737D01*
X040774Y035738D01*
D01*
X040774Y035738D01*
X040775Y035739D01*
X040777Y03574D01*
X040781Y03574D01*
X040781D01*
X040781D01*
X040899Y03574D01*
D02*
G37*
G36*
X037203Y03574D02*
X037206Y035739D01*
X037206Y035738D01*
D01*
X037206Y035738D01*
X03721Y035737D01*
X037212Y035735D01*
X037213Y035734D01*
X037213Y035734D01*
X037213Y035734D01*
X037213Y035733D01*
X037215Y035731D01*
X037217Y035728D01*
X037217Y035728D01*
D01*
X037217Y035727D01*
X037218Y035724D01*
X037219Y03572D01*
Y03572D01*
Y03572D01*
X037219Y035637D01*
Y035637D01*
D01*
X037218Y035633D01*
X037218Y035632D01*
X037217Y035629D01*
X037215Y035626D01*
X037213Y035623D01*
X037213D01*
Y035623D01*
X03721Y03562D01*
X037206Y035619D01*
X037204Y035618D01*
X037202Y035617D01*
X037199Y035617D01*
D01*
X037199D01*
X03708Y035617D01*
X037077Y035617D01*
X037074Y035618D01*
X037073Y035619D01*
X037073Y035619D01*
D01*
X037069Y03562D01*
X037067Y035622D01*
X037066Y035623D01*
X037066Y035623D01*
X037066Y035623D01*
X037065Y035624D01*
X037064Y035626D01*
X037062Y035629D01*
D01*
X037062Y035629D01*
X037061Y035631D01*
X037061Y035633D01*
X03706Y035637D01*
Y035637D01*
D01*
D01*
X03706Y03572D01*
X037061Y035724D01*
X037061Y035726D01*
X037062Y035728D01*
X037062Y035728D01*
D01*
X037064Y035731D01*
X037065Y035733D01*
X037066Y035734D01*
X037066Y035734D01*
X037066Y035734D01*
X037067Y035735D01*
X037069Y035737D01*
X037073Y035738D01*
D01*
X037073Y035738D01*
X037074Y035739D01*
X037077Y03574D01*
X03708Y03574D01*
X037199Y03574D01*
X037199D01*
X037199D01*
X037203Y03574D01*
D02*
G37*
G36*
X040899Y035543D02*
X040903Y035543D01*
X040906Y035542D01*
X040907Y035542D01*
X040907Y035542D01*
D01*
X040911Y03554D01*
X040913Y035538D01*
X040914Y035537D01*
Y035537D01*
X040914D01*
X040914Y035537D01*
X040916Y035534D01*
X040918Y035531D01*
D01*
X040918Y035531D01*
X040918Y035529D01*
X040919Y035527D01*
X040919Y035523D01*
Y035523D01*
D01*
D01*
X040919Y03544D01*
X040919Y035436D01*
X040918Y035434D01*
X040918Y035433D01*
X040918Y035433D01*
D01*
X040916Y035429D01*
X040914Y035427D01*
X040914Y035426D01*
X040914Y035426D01*
X040914Y035426D01*
X040912Y035425D01*
X040911Y035424D01*
X040907Y035422D01*
D01*
X040907Y035422D01*
X040906Y035421D01*
X040903Y035421D01*
X040899Y03542D01*
X040781Y03542D01*
X040781D01*
X040781D01*
X040777Y035421D01*
X040775Y035421D01*
X040774Y035422D01*
X040774Y035422D01*
D01*
X04077Y035424D01*
X040768Y035425D01*
X040767Y035426D01*
X040767Y035426D01*
X040767Y035426D01*
X040766Y035427D01*
X040765Y035429D01*
X040763Y035433D01*
D01*
X040763Y035433D01*
X040762Y035434D01*
X040762Y035436D01*
X040761Y03544D01*
Y03544D01*
Y03544D01*
X040761Y035523D01*
Y035523D01*
Y035523D01*
X040762Y035527D01*
X040762Y035529D01*
X040763Y035531D01*
X040763Y035531D01*
D01*
X040765Y035534D01*
X040767Y035537D01*
X040767Y035537D01*
X040767D01*
Y035537D01*
X040768Y035538D01*
X04077Y03554D01*
X040774Y035542D01*
D01*
X040774Y035542D01*
X040775Y035542D01*
X040777Y035543D01*
X040781Y035543D01*
X040781D01*
X040781D01*
X040899Y035543D01*
D02*
G37*
G36*
X037202Y035543D02*
X037205Y035542D01*
X037206Y035542D01*
X037206Y035542D01*
D01*
X03721Y03554D01*
X037212Y035538D01*
X037213Y035537D01*
Y035537D01*
X037213D01*
X037213Y035537D01*
X037215Y035534D01*
X037217Y035531D01*
D01*
X037217Y035531D01*
X037218Y035529D01*
X037218Y035527D01*
X037219Y035523D01*
Y035523D01*
Y035523D01*
X037219Y03544D01*
Y03544D01*
Y03544D01*
X037218Y035436D01*
X037218Y035434D01*
X037217Y035433D01*
X037217Y035433D01*
D01*
X037215Y035429D01*
X037213Y035427D01*
X037213Y035426D01*
X037213D01*
Y035426D01*
X037212Y035426D01*
X03721Y035424D01*
X037206Y035422D01*
D01*
X037206Y035422D01*
X037205Y035421D01*
X037202Y035421D01*
X037199Y03542D01*
X037199D01*
X037199D01*
X03708Y03542D01*
X037077Y035421D01*
X037074Y035421D01*
X037073Y035422D01*
X037073Y035422D01*
D01*
X037069Y035424D01*
X037067Y035426D01*
X037066Y035426D01*
Y035426D01*
X037066D01*
X037066Y035427D01*
X037064Y035429D01*
X037062Y035433D01*
D01*
X037062Y035433D01*
X037061Y035434D01*
X037061Y035436D01*
X03706Y03544D01*
Y035523D01*
X037061Y035527D01*
X037061Y035529D01*
X037062Y035531D01*
X037062Y035531D01*
D01*
X037064Y035534D01*
X037066Y035537D01*
X037066Y035537D01*
X037066D01*
Y035537D01*
X037067Y035538D01*
X037069Y03554D01*
X037073Y035542D01*
D01*
X037073Y035542D01*
X037074Y035542D01*
X037077Y035543D01*
X03708Y035543D01*
X037199Y035543D01*
X037199D01*
X037199D01*
X037202Y035543D01*
D02*
G37*
G36*
X040899Y035346D02*
X040903Y035346D01*
X040906Y035345D01*
X040907Y035345D01*
X040907Y035345D01*
D01*
X040911Y035343D01*
X040913Y035341D01*
X040914Y03534D01*
Y03534D01*
X040914D01*
X040914Y03534D01*
X040916Y035337D01*
X040918Y035334D01*
D01*
X040918Y035334D01*
X040918Y035332D01*
X040919Y03533D01*
X040919Y035326D01*
X040919Y035243D01*
D01*
D01*
Y035243D01*
X040919Y03524D01*
X040918Y035237D01*
X040918Y035236D01*
X040918Y035236D01*
D01*
X040916Y035232D01*
X040914Y03523D01*
X040914Y035229D01*
X040914Y035229D01*
X040914Y035229D01*
X040912Y035228D01*
X040911Y035227D01*
X040907Y035225D01*
D01*
X040907Y035225D01*
X040906Y035224D01*
X040903Y035224D01*
X040899Y035223D01*
X040781Y035223D01*
X040781D01*
X040781D01*
X040777Y035224D01*
X040775Y035224D01*
X040774Y035225D01*
X040774Y035225D01*
D01*
X04077Y035227D01*
X040768Y035228D01*
X040767Y035229D01*
X040767Y035229D01*
X040767Y035229D01*
X040766Y03523D01*
X040765Y035232D01*
X040763Y035236D01*
D01*
X040763Y035236D01*
X040762Y035237D01*
X040762Y03524D01*
X040761Y035243D01*
Y035243D01*
Y035243D01*
Y035326D01*
Y035326D01*
Y035326D01*
X040762Y03533D01*
X040762Y035332D01*
X040763Y035334D01*
X040763Y035334D01*
D01*
X040765Y035337D01*
X040767Y03534D01*
X040767Y03534D01*
X040767D01*
Y03534D01*
X040768Y035341D01*
X04077Y035343D01*
X040774Y035345D01*
D01*
X040774Y035345D01*
X040775Y035345D01*
X040777Y035346D01*
X040781Y035346D01*
X040781D01*
X040781D01*
X040899Y035346D01*
D02*
G37*
G36*
X037202Y035346D02*
X037205Y035345D01*
X037206Y035345D01*
X037206Y035345D01*
D01*
X03721Y035343D01*
X037212Y035341D01*
X037213Y03534D01*
X037213Y03534D01*
X037213Y03534D01*
X037214Y035339D01*
X037215Y035337D01*
X037217Y035334D01*
D01*
X037217Y035334D01*
X037218Y035332D01*
X037218Y03533D01*
X037219Y035326D01*
Y035326D01*
Y035326D01*
X037219Y035243D01*
Y035243D01*
Y035243D01*
X037218Y03524D01*
X037218Y035237D01*
X037217Y035236D01*
X037217Y035236D01*
D01*
X037215Y035232D01*
X037213Y03523D01*
X037213Y035229D01*
X037213D01*
Y035229D01*
X037212Y035229D01*
X03721Y035227D01*
X037206Y035225D01*
D01*
X037206Y035225D01*
X037205Y035224D01*
X037202Y035224D01*
X037199Y035223D01*
X037199D01*
X037199D01*
X03708Y035223D01*
X037077Y035224D01*
X037074Y035224D01*
X037073Y035225D01*
X037073Y035225D01*
D01*
X037069Y035227D01*
X037067Y035229D01*
X037066Y035229D01*
Y035229D01*
X037066D01*
X037066Y03523D01*
X037064Y035232D01*
X037062Y035236D01*
D01*
X037062Y035236D01*
X037061Y035237D01*
X037061Y03524D01*
X03706Y035243D01*
Y035326D01*
X037061Y03533D01*
X037061Y035332D01*
X037062Y035334D01*
X037062Y035334D01*
D01*
X037064Y035337D01*
X037065Y035339D01*
X037066Y03534D01*
X037066Y03534D01*
X037066Y03534D01*
X037067Y035341D01*
X037069Y035343D01*
X037073Y035345D01*
D01*
X037073Y035345D01*
X037074Y035345D01*
X037077Y035346D01*
X03708Y035346D01*
X037199Y035346D01*
X037199D01*
X037199D01*
X037202Y035346D01*
D02*
G37*
G36*
X040899Y035149D02*
X040903Y035149D01*
X040906Y035148D01*
X040907Y035148D01*
X040907Y035148D01*
D01*
X040911Y035146D01*
X040913Y035144D01*
X040914Y035144D01*
Y035144D01*
X040914D01*
X040914Y035143D01*
X040916Y03514D01*
X040918Y035137D01*
D01*
X040918Y035137D01*
X040918Y035136D01*
X040919Y035133D01*
X040919Y035129D01*
Y035047D01*
X040919Y035043D01*
X040918Y03504D01*
X040918Y035039D01*
X040918Y035039D01*
D01*
X040916Y035035D01*
X040914Y035033D01*
X040914Y035032D01*
X040914D01*
Y035032D01*
X040913Y035032D01*
X040911Y03503D01*
X040907Y035028D01*
D01*
X040907Y035028D01*
X040906Y035028D01*
X040903Y035027D01*
X040899Y035027D01*
X040781Y035027D01*
X040781D01*
X040781D01*
X040777Y035027D01*
X040775Y035028D01*
X040774Y035028D01*
X040774Y035028D01*
D01*
X04077Y03503D01*
X040768Y035032D01*
X040767Y035032D01*
Y035032D01*
X040767D01*
X040767Y035033D01*
X040765Y035035D01*
X040763Y035039D01*
D01*
X040763Y035039D01*
X040762Y03504D01*
X040762Y035043D01*
X040761Y035047D01*
Y035047D01*
Y035047D01*
Y035129D01*
Y035129D01*
Y035129D01*
X040762Y035133D01*
X040762Y035136D01*
X040763Y035137D01*
X040763Y035137D01*
D01*
X040765Y03514D01*
X040767Y035143D01*
X040767Y035144D01*
X040767D01*
Y035144D01*
X040768Y035144D01*
X04077Y035146D01*
X040774Y035148D01*
D01*
X040774Y035148D01*
X040775Y035148D01*
X040777Y035149D01*
X040781Y035149D01*
X040781D01*
X040781D01*
X040899Y035149D01*
D02*
G37*
G36*
X037202Y035149D02*
X037205Y035148D01*
X037206Y035148D01*
X037206Y035148D01*
D01*
X03721Y035146D01*
X037212Y035144D01*
X037213Y035144D01*
X037213Y035144D01*
X037213Y035144D01*
X037214Y035142D01*
X037215Y03514D01*
X037217Y035137D01*
D01*
X037217Y035137D01*
X037217Y035136D01*
X037218Y035133D01*
X037219Y035129D01*
Y035129D01*
Y035129D01*
X037219Y035047D01*
Y035047D01*
Y035047D01*
X037218Y035043D01*
X037218Y03504D01*
X037217Y035039D01*
X037217Y035039D01*
D01*
X037215Y035035D01*
X037214Y035033D01*
X037213Y035032D01*
X037213Y035032D01*
X037213Y035032D01*
X037212Y035031D01*
X03721Y03503D01*
X037206Y035028D01*
D01*
X037206Y035028D01*
X037205Y035028D01*
X037202Y035027D01*
X037199Y035027D01*
X037199D01*
X037199D01*
X03708Y035027D01*
X037077Y035027D01*
X037074Y035028D01*
X037073Y035028D01*
X037073Y035028D01*
D01*
X037069Y03503D01*
X037067Y035032D01*
X037066Y035032D01*
X037066Y035032D01*
X037066Y035032D01*
X037065Y035034D01*
X037064Y035035D01*
X037062Y035039D01*
D01*
X037062Y035039D01*
X037061Y03504D01*
X037061Y035043D01*
X03706Y035047D01*
Y035129D01*
X037061Y035133D01*
X037062Y035136D01*
X037062Y035137D01*
X037062Y035137D01*
D01*
X037064Y03514D01*
X037065Y035142D01*
X037066Y035143D01*
X037066Y035143D01*
X037066Y035143D01*
X037067Y035144D01*
X037069Y035146D01*
X037073Y035148D01*
D01*
X037073Y035148D01*
X037074Y035148D01*
X037077Y035149D01*
X03708Y035149D01*
X037199Y035149D01*
X037199D01*
X037199D01*
X037202Y035149D01*
D02*
G37*
G36*
X040899Y034953D02*
X040903Y034952D01*
X040906Y034951D01*
X040907Y034951D01*
X040907Y034951D01*
D01*
X040911Y034949D01*
X040913Y034947D01*
X040914Y034947D01*
Y034947D01*
X040914D01*
X040914Y034946D01*
X040916Y034944D01*
X040918Y03494D01*
D01*
X040918Y03494D01*
X040918Y034939D01*
X040919Y034936D01*
X040919Y034932D01*
Y03485D01*
X040919Y034846D01*
X040918Y034844D01*
X040918Y034842D01*
X040918Y034842D01*
D01*
X040916Y034839D01*
X040914Y034837D01*
X040914Y034836D01*
X040914Y034836D01*
X040914Y034836D01*
X040912Y034835D01*
X040911Y034833D01*
X040907Y034831D01*
D01*
X040907Y034831D01*
X040906Y034831D01*
X040903Y03483D01*
X040899Y03483D01*
X040781Y03483D01*
X040781D01*
X040781D01*
X040777Y03483D01*
X040775Y034831D01*
X040774Y034831D01*
X040774Y034831D01*
D01*
X04077Y034833D01*
X040768Y034835D01*
X040767Y034836D01*
X040767Y034836D01*
X040767Y034836D01*
X040766Y034837D01*
X040765Y034839D01*
X040763Y034842D01*
D01*
X040763Y034842D01*
X040762Y034844D01*
X040762Y034846D01*
X040761Y03485D01*
Y03485D01*
Y03485D01*
Y034932D01*
Y034932D01*
Y034932D01*
X040762Y034936D01*
X040762Y034939D01*
X040763Y03494D01*
X040763Y03494D01*
D01*
X040765Y034944D01*
X040767Y034946D01*
X040767Y034947D01*
X040767D01*
Y034947D01*
X040768Y034947D01*
X04077Y034949D01*
X040774Y034951D01*
D01*
X040774Y034951D01*
X040775Y034951D01*
X040777Y034952D01*
X040781Y034953D01*
X040781D01*
X040781D01*
X040899Y034953D01*
D02*
G37*
G36*
X037202Y034952D02*
X037205Y034951D01*
X037206Y034951D01*
X037206Y034951D01*
D01*
X03721Y034949D01*
X037212Y034948D01*
X037213Y034947D01*
X037213Y034947D01*
X037213Y034947D01*
X037214Y034946D01*
X037215Y034944D01*
X037217Y03494D01*
D01*
X037217Y03494D01*
X037218Y034939D01*
X037218Y034936D01*
X037219Y034932D01*
Y034932D01*
Y034932D01*
Y03485D01*
Y03485D01*
Y03485D01*
X037218Y034846D01*
X037218Y034844D01*
X037217Y034842D01*
X037217Y034842D01*
D01*
X037215Y034839D01*
X037213Y034836D01*
X037213Y034836D01*
X037213D01*
Y034836D01*
X037212Y034835D01*
X03721Y034833D01*
X037206Y034831D01*
D01*
X037206Y034831D01*
X037205Y034831D01*
X037202Y03483D01*
X037199Y03483D01*
X037199D01*
X037199D01*
X03708Y03483D01*
X037077Y03483D01*
X037074Y034831D01*
X037073Y034831D01*
X037073Y034831D01*
D01*
X037069Y034833D01*
X037067Y034835D01*
X037066Y034836D01*
Y034836D01*
X037066D01*
X037066Y034836D01*
X037064Y034839D01*
X037062Y034842D01*
D01*
X037062Y034842D01*
X037061Y034844D01*
X037061Y034846D01*
X03706Y03485D01*
X03706Y034932D01*
D01*
D01*
Y034932D01*
X037061Y034936D01*
X037061Y034939D01*
X037062Y03494D01*
X037062Y03494D01*
D01*
X037064Y034944D01*
X037065Y034946D01*
X037066Y034947D01*
X037066Y034947D01*
X037066Y034947D01*
X037067Y034948D01*
X037069Y034949D01*
X037073Y034951D01*
D01*
X037073Y034951D01*
X037074Y034951D01*
X037077Y034952D01*
X03708Y034953D01*
X037199Y034953D01*
X037199D01*
X037199D01*
X037202Y034952D01*
D02*
G37*
G36*
X040899Y034756D02*
X040903Y034755D01*
X040906Y034755D01*
X040907Y034754D01*
X040907Y034754D01*
D01*
X040911Y034752D01*
X040913Y03475D01*
X040914Y03475D01*
Y03475D01*
X040914D01*
X040914Y034749D01*
X040916Y034747D01*
X040918Y034743D01*
D01*
X040918Y034743D01*
X040918Y034742D01*
X040919Y03474D01*
X040919Y034736D01*
Y034736D01*
D01*
D01*
X040919Y034653D01*
X040919Y034649D01*
X040918Y034647D01*
X040918Y034645D01*
X040918Y034645D01*
D01*
X040916Y034642D01*
X040914Y03464D01*
X040914Y034639D01*
X040914Y034639D01*
X040914Y034639D01*
X040912Y034638D01*
X040911Y034636D01*
X040907Y034634D01*
D01*
X040907Y034634D01*
X040906Y034634D01*
X040903Y034633D01*
X040899Y034633D01*
X040781Y034633D01*
X040781D01*
X040781D01*
X040777Y034633D01*
X040775Y034634D01*
X040774Y034634D01*
X040774Y034634D01*
D01*
X04077Y034636D01*
X040768Y034638D01*
X040767Y034639D01*
X040767Y034639D01*
X040767Y034639D01*
X040766Y03464D01*
X040765Y034642D01*
X040763Y034645D01*
D01*
X040763Y034645D01*
X040762Y034647D01*
X040762Y034649D01*
X040761Y034653D01*
Y034653D01*
Y034653D01*
X040761Y034736D01*
Y034736D01*
Y034736D01*
X040762Y03474D01*
X040762Y034742D01*
X040763Y034743D01*
X040763Y034743D01*
D01*
X040765Y034747D01*
X040767Y034749D01*
X040767Y03475D01*
X040767D01*
Y03475D01*
X040768Y03475D01*
X04077Y034752D01*
X040774Y034754D01*
D01*
X040774Y034754D01*
X040775Y034755D01*
X040777Y034755D01*
X040781Y034756D01*
X040781D01*
X040781D01*
X040899Y034756D01*
D02*
G37*
G36*
X037202Y034755D02*
X037205Y034755D01*
X037206Y034754D01*
X037206Y034754D01*
D01*
X03721Y034752D01*
X037212Y034751D01*
X037213Y03475D01*
X037213Y03475D01*
X037213Y03475D01*
X037214Y034749D01*
X037215Y034747D01*
X037217Y034743D01*
D01*
X037217Y034743D01*
X037218Y034742D01*
X037218Y03474D01*
X037219Y034736D01*
Y034736D01*
Y034736D01*
Y034653D01*
Y034653D01*
Y034653D01*
X037218Y034649D01*
X037218Y034647D01*
X037217Y034645D01*
X037217Y034645D01*
D01*
X037215Y034642D01*
X037213Y034639D01*
X037213Y034639D01*
X037213D01*
Y034639D01*
X037212Y034638D01*
X03721Y034636D01*
X037206Y034634D01*
D01*
X037206Y034634D01*
X037205Y034634D01*
X037202Y034633D01*
X037199Y034633D01*
X037199D01*
X037199D01*
X03708Y034633D01*
X037077Y034633D01*
X037074Y034634D01*
X037073Y034634D01*
X037073Y034634D01*
D01*
X037069Y034636D01*
X037067Y034638D01*
X037066Y034639D01*
Y034639D01*
X037066D01*
X037066Y034639D01*
X037064Y034642D01*
X037062Y034645D01*
D01*
X037062Y034645D01*
X037061Y034647D01*
X037061Y034649D01*
X03706Y034653D01*
X03706Y034736D01*
D01*
D01*
Y034736D01*
X037061Y034739D01*
X037061Y034742D01*
X037062Y034743D01*
X037062Y034743D01*
D01*
X037064Y034747D01*
X037065Y034749D01*
X037066Y03475D01*
X037066Y03475D01*
X037066Y03475D01*
X037067Y034751D01*
X037069Y034752D01*
X037073Y034754D01*
D01*
X037073Y034754D01*
X037074Y034755D01*
X037077Y034755D01*
X03708Y034756D01*
X037199Y034756D01*
X037199D01*
X037199D01*
X037202Y034755D01*
D02*
G37*
G36*
X040899Y034559D02*
X040903Y034558D01*
X040906Y034558D01*
X040907Y034557D01*
X040907Y034557D01*
D01*
X040911Y034555D01*
X040913Y034553D01*
X040914Y034553D01*
Y034553D01*
X040914D01*
X040914Y034552D01*
X040916Y03455D01*
X040918Y034546D01*
D01*
X040918Y034546D01*
X040918Y034545D01*
X040919Y034543D01*
X040919Y034539D01*
Y034456D01*
X040919Y034452D01*
X040918Y03445D01*
X040918Y034448D01*
X040918Y034448D01*
D01*
X040916Y034445D01*
X040914Y034443D01*
X040914Y034442D01*
X040914Y034442D01*
X040914Y034442D01*
X040912Y034441D01*
X040911Y034439D01*
X040907Y034438D01*
D01*
X040907Y034438D01*
X040906Y034437D01*
X040903Y034436D01*
X040899Y034436D01*
X040781Y034436D01*
X040781D01*
X040781D01*
X040777Y034436D01*
X040775Y034437D01*
X040774Y034437D01*
X040774Y034437D01*
D01*
X04077Y034439D01*
X040768Y034441D01*
X040767Y034442D01*
X040767Y034442D01*
X040767Y034442D01*
X040766Y034443D01*
X040765Y034445D01*
X040763Y034448D01*
D01*
X040763Y034448D01*
X040762Y03445D01*
X040762Y034452D01*
X040761Y034456D01*
Y034456D01*
Y034456D01*
Y034539D01*
Y034539D01*
Y034539D01*
X040762Y034543D01*
X040762Y034545D01*
X040763Y034546D01*
X040763Y034546D01*
D01*
X040765Y03455D01*
X040767Y034552D01*
X040767Y034553D01*
X040767D01*
Y034553D01*
X040768Y034554D01*
X04077Y034555D01*
X040774Y034557D01*
D01*
X040774Y034557D01*
X040775Y034558D01*
X040777Y034558D01*
X040781Y034559D01*
X040781D01*
X040781D01*
X040899Y034559D01*
D02*
G37*
G36*
X037202Y034558D02*
X037204Y034558D01*
X037206Y034557D01*
X03721Y034555D01*
X037213Y034553D01*
Y034553D01*
X037213D01*
X037215Y03455D01*
X037217Y034546D01*
X037218Y034544D01*
X037218Y034543D01*
X037219Y034539D01*
Y034539D01*
Y034539D01*
X037219Y034456D01*
Y034456D01*
Y034456D01*
X037218Y034452D01*
X037217Y034449D01*
X037217Y034448D01*
D01*
X037217Y034448D01*
X037215Y034445D01*
X037213Y034442D01*
X037213Y034442D01*
X037213Y034442D01*
X037213Y034442D01*
X037212Y034441D01*
X03721Y034439D01*
X037206Y034437D01*
X037206Y034437D01*
D01*
X037206Y034437D01*
X037203Y034436D01*
X037199Y034436D01*
X037199D01*
X037199D01*
X03708Y034436D01*
X037077Y034436D01*
X037074Y034437D01*
X037073Y034437D01*
X037073Y034437D01*
D01*
X037069Y034439D01*
X037067Y034441D01*
X037066Y034442D01*
Y034442D01*
X037066D01*
X037066Y034443D01*
X037064Y034445D01*
X037062Y034448D01*
D01*
X037062Y034448D01*
X037061Y03445D01*
X037061Y034452D01*
X03706Y034456D01*
Y034456D01*
D01*
D01*
X03706Y034539D01*
X037061Y034543D01*
X037062Y034545D01*
X037062Y034546D01*
X037062Y034546D01*
D01*
X037064Y03455D01*
X037065Y034552D01*
X037066Y034553D01*
X037066Y034553D01*
X037066Y034553D01*
X037067Y034554D01*
X037069Y034555D01*
X037073Y034557D01*
D01*
X037073Y034557D01*
X037074Y034558D01*
X037077Y034558D01*
X03708Y034559D01*
X037199Y034559D01*
X037199D01*
X037199D01*
X037202Y034558D01*
D02*
G37*
G36*
X040899Y034362D02*
X040903Y034362D01*
X040906Y034361D01*
X040907Y03436D01*
X040907Y03436D01*
D01*
X040911Y034359D01*
X040913Y034357D01*
X040914Y034356D01*
Y034356D01*
X040914D01*
X040914Y034355D01*
X040916Y034353D01*
X040918Y03435D01*
D01*
X040918Y03435D01*
X040918Y034348D01*
X040919Y034346D01*
X040919Y034342D01*
Y034259D01*
X040919Y034255D01*
X040918Y034253D01*
X040918Y034252D01*
X040918Y034252D01*
D01*
X040916Y034248D01*
X040914Y034246D01*
X040914Y034245D01*
X040914Y034245D01*
X040914Y034245D01*
X040912Y034244D01*
X040911Y034243D01*
X040907Y034241D01*
D01*
X040907Y034241D01*
X040906Y03424D01*
X040903Y03424D01*
X040899Y034239D01*
X040781Y034239D01*
X040781D01*
X040781D01*
X040777Y034239D01*
X040775Y03424D01*
X040774Y034241D01*
X040774Y034241D01*
D01*
X04077Y034242D01*
X040768Y034244D01*
X040767Y034245D01*
X040767Y034245D01*
X040767Y034245D01*
X040766Y034246D01*
X040765Y034248D01*
X040763Y034252D01*
D01*
X040763Y034252D01*
X040762Y034253D01*
X040762Y034255D01*
X040761Y034259D01*
Y034259D01*
Y034259D01*
X040761Y034342D01*
Y034342D01*
Y034342D01*
X040762Y034346D01*
X040762Y034348D01*
X040763Y03435D01*
X040763Y03435D01*
D01*
X040765Y034353D01*
X040767Y034355D01*
X040767Y034356D01*
X040767D01*
Y034356D01*
X040768Y034357D01*
X04077Y034359D01*
X040774Y03436D01*
D01*
X040774Y03436D01*
X040775Y034361D01*
X040777Y034362D01*
X040781Y034362D01*
X040781D01*
X040781D01*
X040899Y034362D01*
D02*
G37*
G36*
X037202Y034362D02*
X037205Y034361D01*
X037206Y03436D01*
X037206Y03436D01*
D01*
X03721Y034359D01*
X037212Y034357D01*
X037213Y034356D01*
X037213Y034356D01*
X037213Y034356D01*
X037214Y034355D01*
X037215Y034353D01*
X037217Y03435D01*
D01*
X037217Y03435D01*
X037217Y034348D01*
X037218Y034346D01*
X037219Y034342D01*
Y034342D01*
Y034342D01*
X037219Y034259D01*
Y034259D01*
Y034259D01*
X037218Y034255D01*
X037218Y034253D01*
X037217Y034252D01*
X037217Y034252D01*
D01*
X037215Y034248D01*
X037214Y034246D01*
X037213Y034245D01*
X037213Y034245D01*
X037213Y034245D01*
X037212Y034244D01*
X03721Y034242D01*
X037206Y034241D01*
D01*
X037206Y034241D01*
X037205Y03424D01*
X037202Y034239D01*
X037199Y034239D01*
X037199D01*
X037199D01*
X03708Y034239D01*
X037077Y034239D01*
X037074Y03424D01*
X037073Y034241D01*
X037073Y034241D01*
D01*
X037069Y034242D01*
X037067Y034244D01*
X037066Y034245D01*
X037066Y034245D01*
X037066Y034245D01*
X037065Y034246D01*
X037064Y034248D01*
X037062Y034252D01*
D01*
X037062Y034252D01*
X037061Y034253D01*
X037061Y034255D01*
X03706Y034259D01*
Y034342D01*
X037061Y034346D01*
X037062Y034348D01*
X037062Y03435D01*
X037062Y03435D01*
D01*
X037064Y034353D01*
X037065Y034355D01*
X037066Y034356D01*
X037066Y034356D01*
X037066Y034356D01*
X037067Y034357D01*
X037069Y034359D01*
X037073Y03436D01*
D01*
X037073Y03436D01*
X037074Y034361D01*
X037077Y034362D01*
X03708Y034362D01*
X037199Y034362D01*
X037199D01*
X037199D01*
X037202Y034362D01*
D02*
G37*
G36*
X040899Y034165D02*
X040903Y034165D01*
X040906Y034164D01*
X040907Y034164D01*
X040907Y034164D01*
D01*
X040911Y034162D01*
X040913Y03416D01*
X040914Y034159D01*
Y034159D01*
X040914D01*
X040914Y034159D01*
X040916Y034156D01*
X040918Y034153D01*
D01*
X040918Y034153D01*
X040918Y034151D01*
X040919Y034149D01*
X040919Y034145D01*
X040919Y034062D01*
D01*
D01*
Y034062D01*
X040919Y034058D01*
X040918Y034056D01*
X040918Y034055D01*
X040918Y034055D01*
D01*
X040916Y034051D01*
X040914Y034049D01*
X040914Y034048D01*
X040914Y034048D01*
X040914Y034048D01*
X040912Y034047D01*
X040911Y034046D01*
X040907Y034044D01*
D01*
X040907Y034044D01*
X040906Y034043D01*
X040903Y034043D01*
X040899Y034042D01*
X040781Y034042D01*
X040781D01*
X040781D01*
X040777Y034043D01*
X040775Y034043D01*
X040774Y034044D01*
X040774Y034044D01*
D01*
X04077Y034046D01*
X040768Y034047D01*
X040767Y034048D01*
X040767Y034048D01*
X040767Y034048D01*
X040766Y034049D01*
X040765Y034051D01*
X040763Y034055D01*
D01*
X040763Y034055D01*
X040762Y034056D01*
X040762Y034058D01*
X040761Y034062D01*
Y034062D01*
Y034062D01*
Y034145D01*
Y034145D01*
Y034145D01*
X040762Y034149D01*
X040762Y034151D01*
X040763Y034153D01*
X040763Y034153D01*
D01*
X040765Y034156D01*
X040767Y034159D01*
X040767Y034159D01*
X040767D01*
Y034159D01*
X040768Y03416D01*
X04077Y034162D01*
X040774Y034164D01*
D01*
X040774Y034164D01*
X040775Y034164D01*
X040777Y034165D01*
X040781Y034165D01*
X040781D01*
X040781D01*
X040899Y034165D01*
D02*
G37*
G36*
X037202Y034165D02*
X037205Y034164D01*
X037206Y034164D01*
X037206Y034164D01*
D01*
X03721Y034162D01*
X037212Y03416D01*
X037213Y034159D01*
X037213Y034159D01*
X037213Y034159D01*
X037214Y034158D01*
X037215Y034156D01*
X037217Y034153D01*
D01*
X037217Y034153D01*
X037218Y034151D01*
X037218Y034149D01*
X037219Y034145D01*
Y034145D01*
Y034145D01*
Y034062D01*
Y034062D01*
Y034062D01*
X037218Y034058D01*
X037218Y034056D01*
X037217Y034055D01*
X037217Y034055D01*
D01*
X037215Y034051D01*
X037213Y034049D01*
X037213Y034048D01*
X037213D01*
Y034048D01*
X037212Y034048D01*
X03721Y034046D01*
X037206Y034044D01*
D01*
X037206Y034044D01*
X037205Y034043D01*
X037202Y034043D01*
X037199Y034042D01*
X037199D01*
X037199D01*
X03708Y034042D01*
X037077Y034043D01*
X037074Y034043D01*
X037073Y034044D01*
X037073Y034044D01*
D01*
X037069Y034046D01*
X037067Y034048D01*
X037066Y034048D01*
Y034048D01*
X037066D01*
X037066Y034049D01*
X037064Y034051D01*
X037062Y034055D01*
D01*
X037062Y034055D01*
X037061Y034056D01*
X037061Y034058D01*
X03706Y034062D01*
Y034145D01*
X037061Y034149D01*
X037061Y034151D01*
X037062Y034153D01*
X037062Y034153D01*
D01*
X037064Y034156D01*
X037065Y034158D01*
X037066Y034159D01*
X037066Y034159D01*
X037066Y034159D01*
X037067Y03416D01*
X037069Y034162D01*
X037073Y034164D01*
D01*
X037073Y034164D01*
X037074Y034164D01*
X037077Y034165D01*
X03708Y034165D01*
X037199Y034165D01*
X037199D01*
X037199D01*
X037202Y034165D01*
D02*
G37*
G36*
X040899Y033968D02*
X040903Y033968D01*
X040906Y033967D01*
X040907Y033967D01*
X040907Y033967D01*
D01*
X040911Y033965D01*
X040913Y033963D01*
X040914Y033962D01*
Y033962D01*
X040914D01*
X040914Y033962D01*
X040916Y033959D01*
X040918Y033956D01*
D01*
X040918Y033956D01*
X040918Y033954D01*
X040919Y033952D01*
X040919Y033948D01*
Y033948D01*
D01*
D01*
X040919Y033866D01*
X040919Y033862D01*
X040918Y033859D01*
X040918Y033858D01*
X040918Y033858D01*
D01*
X040916Y033854D01*
X040914Y033852D01*
X040914Y033851D01*
X040914Y033851D01*
X040914Y033851D01*
X040912Y03385D01*
X040911Y033849D01*
X040907Y033847D01*
D01*
X040907Y033847D01*
X040906Y033847D01*
X040903Y033846D01*
X040899Y033845D01*
X040781Y033845D01*
X040781D01*
X040781D01*
X040777Y033846D01*
X040775Y033846D01*
X040774Y033847D01*
X040774Y033847D01*
D01*
X04077Y033849D01*
X040768Y03385D01*
X040767Y033851D01*
X040767Y033851D01*
X040767Y033851D01*
X040766Y033852D01*
X040765Y033854D01*
X040763Y033858D01*
D01*
X040763Y033858D01*
X040762Y033859D01*
X040762Y033862D01*
X040761Y033866D01*
Y033866D01*
Y033866D01*
Y033948D01*
Y033948D01*
Y033948D01*
X040762Y033952D01*
X040762Y033954D01*
X040763Y033956D01*
X040763Y033956D01*
D01*
X040765Y033959D01*
X040767Y033962D01*
X040767Y033962D01*
X040767D01*
Y033962D01*
X040768Y033963D01*
X04077Y033965D01*
X040774Y033967D01*
D01*
X040774Y033967D01*
X040775Y033967D01*
X040777Y033968D01*
X040781Y033968D01*
X040781D01*
X040781D01*
X040899Y033968D01*
D02*
G37*
G36*
X037202Y033968D02*
X037205Y033967D01*
X037206Y033967D01*
X037206Y033967D01*
D01*
X03721Y033965D01*
X037212Y033963D01*
X037213Y033962D01*
X037213Y033962D01*
X037213Y033962D01*
X037214Y033961D01*
X037215Y033959D01*
X037217Y033956D01*
D01*
X037217Y033956D01*
X037218Y033954D01*
X037218Y033952D01*
X037219Y033948D01*
Y033948D01*
Y033948D01*
Y033865D01*
Y033865D01*
Y033865D01*
X037218Y033862D01*
X037218Y03386D01*
X037217Y033858D01*
X037215Y033854D01*
X037213Y033851D01*
X037213D01*
Y033851D01*
X03721Y033849D01*
X037206Y033847D01*
X037204Y033846D01*
X037202Y033846D01*
X037199Y033845D01*
X037199D01*
X037199D01*
X03708Y033845D01*
X037077Y033846D01*
X037075Y033846D01*
X037073Y033847D01*
X037069Y033849D01*
X037066Y033851D01*
Y033851D01*
X037066D01*
X037064Y033854D01*
X037062Y033858D01*
X037061Y03386D01*
X037061Y033862D01*
X03706Y033866D01*
X03706Y033948D01*
D01*
D01*
Y033948D01*
X037061Y033952D01*
X037061Y033954D01*
X037062Y033956D01*
X037062Y033956D01*
D01*
X037064Y033959D01*
X037065Y033961D01*
X037066Y033962D01*
X037066Y033962D01*
X037066Y033962D01*
X037067Y033963D01*
X037069Y033965D01*
X037073Y033967D01*
D01*
X037073Y033967D01*
X037074Y033967D01*
X037077Y033968D01*
X03708Y033968D01*
X037199Y033968D01*
X037199D01*
X037199D01*
X037202Y033968D01*
D02*
G37*
G36*
X040899Y033771D02*
X040903Y033771D01*
X040906Y03377D01*
X040907Y03377D01*
X040907Y03377D01*
D01*
X040911Y033768D01*
X040912Y033766D01*
X040914Y033766D01*
X040914Y033766D01*
X040914Y033766D01*
X040914Y033764D01*
X040916Y033763D01*
X040918Y033759D01*
D01*
X040918Y033759D01*
X040918Y033758D01*
X040919Y033755D01*
X040919Y033751D01*
X040919Y033669D01*
D01*
D01*
Y033669D01*
X040919Y033665D01*
X040918Y033662D01*
X040918Y033661D01*
X040918Y033661D01*
D01*
X040916Y033658D01*
X040914Y033656D01*
X040914Y033654D01*
X040914Y033654D01*
X040914Y033654D01*
X040912Y033654D01*
X040911Y033652D01*
X040907Y03365D01*
D01*
X040907Y03365D01*
X040906Y03365D01*
X040903Y033649D01*
X040899Y033649D01*
X040781Y033649D01*
X040781D01*
X040781D01*
X040777Y033649D01*
X040775Y03365D01*
X040774Y03365D01*
X040774Y03365D01*
D01*
X04077Y033652D01*
X040768Y033654D01*
X040767Y033654D01*
X040767Y033654D01*
X040767Y033654D01*
X040766Y033656D01*
X040765Y033658D01*
X040763Y033661D01*
D01*
X040763Y033661D01*
X040762Y033662D01*
X040762Y033665D01*
X040761Y033669D01*
Y033669D01*
Y033669D01*
Y033751D01*
Y033751D01*
Y033751D01*
X040762Y033755D01*
X040762Y033758D01*
X040763Y033759D01*
X040763Y033759D01*
D01*
X040765Y033763D01*
X040766Y033764D01*
X040767Y033766D01*
X040767Y033766D01*
X040767Y033766D01*
X040768Y033766D01*
X04077Y033768D01*
X040774Y03377D01*
D01*
X040774Y03377D01*
X040775Y03377D01*
X040777Y033771D01*
X040781Y033771D01*
X040781D01*
X040781D01*
X040899Y033771D01*
D02*
G37*
G36*
X037202Y033771D02*
X037205Y03377D01*
X037206Y03377D01*
X037206Y03377D01*
D01*
X03721Y033768D01*
X037212Y033766D01*
X037213Y033766D01*
X037213Y033766D01*
X037213Y033766D01*
X037214Y033764D01*
X037215Y033763D01*
X037217Y033759D01*
D01*
X037217Y033759D01*
X037218Y033758D01*
X037218Y033755D01*
X037219Y033751D01*
Y033751D01*
Y033751D01*
Y033669D01*
Y033669D01*
Y033669D01*
X037218Y033665D01*
X037218Y033662D01*
X037217Y033661D01*
X037217Y033661D01*
D01*
X037215Y033657D01*
X037213Y033655D01*
X037213Y033654D01*
X037213D01*
Y033654D01*
X037212Y033654D01*
X03721Y033652D01*
X037206Y03365D01*
D01*
X037206Y03365D01*
X037205Y03365D01*
X037202Y033649D01*
X037199Y033649D01*
X037199D01*
X037199D01*
X03708Y033649D01*
X037077Y033649D01*
X037074Y03365D01*
X037073Y03365D01*
X037073Y03365D01*
D01*
X037069Y033652D01*
X037067Y033654D01*
X037066Y033654D01*
Y033654D01*
X037066D01*
X037066Y033655D01*
X037064Y033658D01*
X037062Y033661D01*
D01*
X037062Y033661D01*
X037061Y033662D01*
X037061Y033665D01*
X03706Y033669D01*
X03706Y033751D01*
D01*
D01*
Y033751D01*
X037061Y033755D01*
X037061Y033758D01*
X037062Y033759D01*
X037062Y033759D01*
D01*
X037064Y033762D01*
X037065Y033764D01*
X037066Y033766D01*
X037066Y033766D01*
X037066Y033766D01*
X037067Y033766D01*
X037069Y033768D01*
X037073Y03377D01*
D01*
X037073Y03377D01*
X037074Y03377D01*
X037077Y033771D01*
X03708Y033771D01*
X037199Y033771D01*
X037199D01*
X037199D01*
X037202Y033771D01*
D02*
G37*
G36*
X040899Y033575D02*
X040903Y033574D01*
X040906Y033574D01*
X040907Y033573D01*
X040907Y033573D01*
D01*
X040911Y033571D01*
X040913Y033569D01*
X040914Y033569D01*
Y033569D01*
X040914D01*
X040914Y033568D01*
X040916Y033566D01*
X040918Y033562D01*
D01*
X040918Y033562D01*
X040918Y033561D01*
X040919Y033558D01*
X040919Y033554D01*
Y033472D01*
X040919Y033468D01*
X040918Y033466D01*
X040918Y033464D01*
X040918Y033464D01*
D01*
X040916Y033461D01*
X040914Y033459D01*
X040914Y033458D01*
X040914Y033458D01*
X040914Y033458D01*
X040912Y033457D01*
X040911Y033455D01*
X040907Y033453D01*
D01*
X040907Y033453D01*
X040906Y033453D01*
X040903Y033452D01*
X040899Y033452D01*
X040781Y033452D01*
X040781D01*
X040781D01*
X040777Y033452D01*
X040775Y033453D01*
X040774Y033453D01*
X040774Y033453D01*
D01*
X04077Y033455D01*
X040768Y033457D01*
X040767Y033458D01*
X040767Y033458D01*
X040767Y033458D01*
X040766Y033459D01*
X040765Y033461D01*
X040763Y033464D01*
D01*
X040763Y033464D01*
X040762Y033466D01*
X040762Y033468D01*
X040761Y033472D01*
Y033472D01*
Y033472D01*
X040761Y033555D01*
Y033555D01*
Y033555D01*
X040762Y033558D01*
X040762Y033561D01*
X040763Y033562D01*
X040763Y033562D01*
D01*
X040765Y033566D01*
X040767Y033568D01*
X040767Y033569D01*
X040767D01*
Y033569D01*
X040768Y033569D01*
X04077Y033571D01*
X040774Y033573D01*
D01*
X040774Y033573D01*
X040775Y033574D01*
X040777Y033574D01*
X040781Y033575D01*
X040781D01*
X040781D01*
X040899Y033575D01*
D02*
G37*
G36*
X037202Y033574D02*
X037205Y033574D01*
X037206Y033573D01*
X037206Y033573D01*
D01*
X03721Y033571D01*
X037212Y03357D01*
X037213Y033569D01*
X037213Y033569D01*
X037213Y033569D01*
X037214Y033568D01*
X037215Y033566D01*
X037217Y033562D01*
D01*
X037217Y033562D01*
X037218Y033561D01*
X037218Y033558D01*
X037219Y033554D01*
Y033554D01*
Y033554D01*
Y033472D01*
Y033472D01*
Y033472D01*
X037218Y033468D01*
X037218Y033466D01*
X037217Y033464D01*
X037217Y033464D01*
D01*
X037215Y033461D01*
X037213Y033458D01*
X037213Y033458D01*
X037213D01*
Y033458D01*
X037212Y033457D01*
X03721Y033455D01*
X037206Y033453D01*
D01*
X037206Y033453D01*
X037205Y033453D01*
X037202Y033452D01*
X037199Y033452D01*
X037199D01*
X037199D01*
X03708Y033452D01*
X037077Y033452D01*
X037074Y033453D01*
X037073Y033453D01*
X037073Y033453D01*
D01*
X037069Y033455D01*
X037067Y033457D01*
X037066Y033458D01*
Y033458D01*
X037066D01*
X037066Y033458D01*
X037064Y033461D01*
X037062Y033464D01*
D01*
X037062Y033464D01*
X037061Y033466D01*
X037061Y033468D01*
X03706Y033472D01*
X03706Y033554D01*
D01*
D01*
Y033554D01*
X037061Y033558D01*
X037061Y033561D01*
X037062Y033562D01*
X037062Y033562D01*
D01*
X037064Y033566D01*
X037065Y033568D01*
X037066Y033569D01*
X037066Y033569D01*
X037066Y033569D01*
X037067Y03357D01*
X037069Y033571D01*
X037073Y033573D01*
D01*
X037073Y033573D01*
X037074Y033573D01*
X037077Y033574D01*
X03708Y033575D01*
X037199Y033575D01*
X037199D01*
X037199D01*
X037202Y033574D01*
D02*
G37*
G36*
X040899Y033378D02*
X040903Y033377D01*
X040906Y033377D01*
X040907Y033376D01*
X040907Y033376D01*
D01*
X040911Y033374D01*
X040913Y033372D01*
X040914Y033372D01*
Y033372D01*
X040914D01*
X040914Y033371D01*
X040916Y033369D01*
X040918Y033365D01*
D01*
X040918Y033365D01*
X040918Y033364D01*
X040919Y033362D01*
X040919Y033358D01*
Y033275D01*
X040919Y033271D01*
X040918Y033269D01*
X040918Y033267D01*
X040918Y033267D01*
D01*
X040916Y033264D01*
X040914Y033262D01*
X040914Y033261D01*
X040914Y033261D01*
X040914Y033261D01*
X040912Y03326D01*
X040911Y033258D01*
X040907Y033256D01*
D01*
X040907Y033256D01*
X040906Y033256D01*
X040903Y033255D01*
X040899Y033255D01*
X040781Y033255D01*
X040781D01*
X040781D01*
X040777Y033255D01*
X040775Y033256D01*
X040774Y033256D01*
X040774Y033256D01*
D01*
X04077Y033258D01*
X040768Y03326D01*
X040767Y033261D01*
X040767Y033261D01*
X040767Y033261D01*
X040766Y033262D01*
X040765Y033264D01*
X040763Y033267D01*
D01*
X040763Y033267D01*
X040762Y033269D01*
X040762Y033271D01*
X040761Y033275D01*
Y033275D01*
Y033275D01*
X040761Y033358D01*
Y033358D01*
Y033358D01*
X040762Y033362D01*
X040762Y033364D01*
X040763Y033365D01*
X040763Y033365D01*
D01*
X040765Y033369D01*
X040767Y033371D01*
X040767Y033372D01*
X040767D01*
Y033372D01*
X040768Y033372D01*
X04077Y033374D01*
X040774Y033376D01*
D01*
X040774Y033376D01*
X040775Y033377D01*
X040777Y033377D01*
X040781Y033378D01*
X040781D01*
X040781D01*
X040899Y033378D01*
D02*
G37*
G36*
X037202Y033377D02*
X037205Y033377D01*
X037206Y033376D01*
X037206Y033376D01*
D01*
X03721Y033374D01*
X037212Y033372D01*
X037213Y033372D01*
Y033372D01*
X037213D01*
X037213Y033371D01*
X037215Y033369D01*
X037217Y033365D01*
D01*
X037217Y033365D01*
X037218Y033364D01*
X037218Y033362D01*
X037219Y033358D01*
Y033358D01*
Y033358D01*
Y033275D01*
Y033275D01*
Y033275D01*
X037218Y033271D01*
X037218Y033269D01*
X037217Y033267D01*
X037217Y033267D01*
D01*
X037215Y033264D01*
X037213Y033261D01*
X037213Y033261D01*
X037213D01*
Y033261D01*
X037212Y03326D01*
X03721Y033258D01*
X037206Y033256D01*
D01*
X037206Y033256D01*
X037205Y033256D01*
X037202Y033255D01*
X037199Y033255D01*
X037199D01*
X037199D01*
X03708Y033255D01*
X037077Y033255D01*
X037074Y033256D01*
X037073Y033256D01*
X037073Y033256D01*
D01*
X037069Y033258D01*
X037067Y03326D01*
X037066Y033261D01*
Y033261D01*
X037066D01*
X037066Y033261D01*
X037064Y033264D01*
X037062Y033267D01*
D01*
X037062Y033267D01*
X037061Y033269D01*
X037061Y033271D01*
X03706Y033275D01*
X03706Y033358D01*
D01*
D01*
Y033358D01*
X037061Y033362D01*
X037061Y033364D01*
X037062Y033365D01*
X037062Y033365D01*
D01*
X037064Y033369D01*
X037066Y033371D01*
X037066Y033372D01*
X037066D01*
Y033372D01*
X037067Y033372D01*
X037069Y033374D01*
X037073Y033376D01*
D01*
X037073Y033376D01*
X037074Y033377D01*
X037077Y033377D01*
X03708Y033378D01*
X037199Y033378D01*
X037199D01*
X037199D01*
X037202Y033377D01*
D02*
G37*
G36*
X040019Y033119D02*
X040022Y033119D01*
X040023Y033118D01*
X040023Y033118D01*
D01*
X040027Y033116D01*
X040029Y033115D01*
X04003Y033114D01*
Y033114D01*
X04003D01*
X04003Y033113D01*
X040032Y033111D01*
X040034Y033107D01*
D01*
X040034Y033107D01*
X040035Y033106D01*
X040035Y033104D01*
X040036Y0331D01*
Y0331D01*
Y0331D01*
X040036Y032982D01*
X040035Y032978D01*
X040035Y032975D01*
X040034Y032974D01*
X040034Y032974D01*
D01*
X040032Y03297D01*
X04003Y032968D01*
X04003Y032967D01*
X04003D01*
Y032967D01*
X040029Y032967D01*
X040027Y032965D01*
X040023Y032963D01*
D01*
X040023Y032963D01*
X040022Y032963D01*
X040019Y032962D01*
X040016Y032962D01*
X039933D01*
X039929Y032962D01*
X039926Y032963D01*
X039925Y032963D01*
X039925Y032963D01*
D01*
X039922Y032965D01*
X03992Y032967D01*
X039919Y032967D01*
X039919Y032967D01*
X039919Y032967D01*
X039918Y032969D01*
X039916Y03297D01*
X039914Y032974D01*
D01*
X039914Y032974D01*
X039914Y032975D01*
X039913Y032978D01*
X039913Y032982D01*
X039913Y0331D01*
Y0331D01*
Y0331D01*
X039913Y033104D01*
X039914Y033106D01*
X039914Y033107D01*
X039914Y033107D01*
D01*
X039916Y033111D01*
X039918Y033113D01*
X039919Y033114D01*
X039919Y033114D01*
X039919Y033114D01*
X03992Y033115D01*
X039922Y033116D01*
X039925Y033118D01*
D01*
X039925Y033118D01*
X039926Y033119D01*
X039929Y033119D01*
X039933Y03312D01*
X039933D01*
X039933D01*
X040016Y03312D01*
X040016D01*
X040016D01*
X040019Y033119D01*
D02*
G37*
G36*
X039823D02*
X039825Y033119D01*
X039826Y033118D01*
X039826Y033118D01*
D01*
X03983Y033116D01*
X039832Y033115D01*
X039833Y033114D01*
Y033114D01*
X039833D01*
X039833Y033113D01*
X039835Y033111D01*
X039837Y033107D01*
D01*
X039837Y033107D01*
X039838Y033106D01*
X039838Y033104D01*
X039839Y0331D01*
Y0331D01*
Y0331D01*
X039839Y032982D01*
X039838Y032978D01*
X039838Y032975D01*
X039837Y032974D01*
X039837Y032974D01*
D01*
X039835Y03297D01*
X039833Y032968D01*
X039833Y032967D01*
X039833D01*
Y032967D01*
X039832Y032967D01*
X03983Y032965D01*
X039826Y032963D01*
D01*
X039826Y032963D01*
X039825Y032963D01*
X039823Y032962D01*
X039819Y032962D01*
X039736D01*
X039732Y032962D01*
X03973Y032963D01*
X039728Y032963D01*
X039728Y032963D01*
D01*
X039725Y032965D01*
X039723Y032967D01*
X039722Y032967D01*
X039722Y032967D01*
X039722Y032967D01*
X039721Y032969D01*
X039719Y03297D01*
X039717Y032974D01*
D01*
X039717Y032974D01*
X039717Y032975D01*
X039716Y032978D01*
X039716Y032982D01*
X039716Y0331D01*
Y0331D01*
Y0331D01*
X039716Y033104D01*
X039717Y033106D01*
X039717Y033107D01*
X039717Y033107D01*
D01*
X039719Y033111D01*
X039721Y033113D01*
X039722Y033114D01*
X039722Y033114D01*
X039722Y033114D01*
X039723Y033115D01*
X039725Y033116D01*
X039728Y033118D01*
D01*
X039728Y033118D01*
X03973Y033119D01*
X039732Y033119D01*
X039736Y03312D01*
X039736D01*
X039736D01*
X039819D01*
X039819D01*
X039819D01*
X039823Y033119D01*
D02*
G37*
G36*
X040216Y033119D02*
X040219Y033119D01*
X04022Y033118D01*
X04022Y033118D01*
D01*
X040224Y033116D01*
X040226Y033115D01*
X040227Y033114D01*
Y033114D01*
X040227D01*
X040227Y033113D01*
X040229Y033111D01*
X040231Y033107D01*
D01*
X040231Y033107D01*
X040231Y033106D01*
X040232Y033104D01*
X040232Y0331D01*
Y0331D01*
Y0331D01*
X040232Y032982D01*
X040232Y032978D01*
X040231Y032975D01*
X040231Y032974D01*
X040231Y032974D01*
D01*
X040229Y03297D01*
X040227Y032968D01*
X040227Y032967D01*
X040227D01*
Y032967D01*
X040226Y032967D01*
X040224Y032965D01*
X04022Y032963D01*
D01*
X04022Y032963D01*
X040219Y032963D01*
X040216Y032962D01*
X040212Y032962D01*
X04013D01*
X040126Y032962D01*
X040123Y032963D01*
X040122Y032963D01*
X040122Y032963D01*
D01*
X040119Y032965D01*
X040117Y032967D01*
X040115Y032967D01*
X040115Y032967D01*
X040115Y032967D01*
X040115Y032969D01*
X040113Y03297D01*
X040111Y032974D01*
D01*
X040111Y032974D01*
X040111Y032975D01*
X04011Y032978D01*
X04011Y032982D01*
X04011Y0331D01*
Y0331D01*
Y0331D01*
X04011Y033104D01*
X040111Y033106D01*
X040111Y033107D01*
X040111Y033107D01*
D01*
X040113Y033111D01*
X040115Y033113D01*
X040115Y033114D01*
X040115Y033114D01*
X040115Y033114D01*
X040117Y033115D01*
X040119Y033116D01*
X040122Y033118D01*
D01*
X040122Y033118D01*
X040123Y033119D01*
X040126Y033119D01*
X04013Y03312D01*
X04013D01*
X04013D01*
X040212D01*
X040212D01*
X040212D01*
X040216Y033119D01*
D02*
G37*
G36*
X039035D02*
X039037Y033119D01*
X039039Y033118D01*
X039039Y033118D01*
D01*
X039042Y033116D01*
X039044Y033115D01*
X039045Y033114D01*
X039045Y033114D01*
X039045Y033114D01*
X039046Y033113D01*
X039048Y033111D01*
X03905Y033107D01*
D01*
X03905Y033107D01*
X03905Y033106D01*
X039051Y033104D01*
X039051Y0331D01*
Y0331D01*
Y0331D01*
X039051Y032982D01*
X039051Y032978D01*
X03905Y032975D01*
X03905Y032974D01*
X03905Y032974D01*
D01*
X039048Y03297D01*
X039046Y032969D01*
X039045Y032967D01*
X039045Y032967D01*
X039045Y032967D01*
X039044Y032967D01*
X039042Y032965D01*
X039039Y032963D01*
D01*
X039039Y032963D01*
X039037Y032963D01*
X039035Y032962D01*
X039031Y032962D01*
X038949D01*
X038945Y032962D01*
X038942Y032963D01*
X038941Y032963D01*
X038941Y032963D01*
D01*
X038937Y032965D01*
X038935Y032967D01*
X038934Y032967D01*
X038934Y032967D01*
X038934Y032967D01*
X038933Y032969D01*
X038932Y03297D01*
X03893Y032974D01*
D01*
X03893Y032974D01*
X03893Y032975D01*
X038929Y032978D01*
X038928Y032982D01*
X038928Y0331D01*
Y0331D01*
Y0331D01*
X038929Y033104D01*
X03893Y033106D01*
X03893Y033107D01*
X03893Y033107D01*
D01*
X038932Y033111D01*
X038933Y033113D01*
X038934Y033114D01*
X038934Y033114D01*
X038934Y033114D01*
X038935Y033115D01*
X038937Y033116D01*
X038941Y033118D01*
D01*
X038941Y033118D01*
X038942Y033119D01*
X038945Y033119D01*
X038949Y03312D01*
X038949D01*
X038949D01*
X039031D01*
X039031D01*
X039031D01*
X039035Y033119D01*
D02*
G37*
G36*
X040606Y03312D02*
X040606D01*
X040606D01*
X04061Y033119D01*
X040612Y033119D01*
X040614Y033118D01*
X040614Y033118D01*
D01*
X040617Y033116D01*
X04062Y033115D01*
X04062Y033114D01*
Y033114D01*
X04062D01*
X040621Y033113D01*
X040623Y033111D01*
X040625Y033107D01*
D01*
X040625Y033107D01*
X040625Y033106D01*
X040626Y033104D01*
X040626Y0331D01*
Y0331D01*
Y0331D01*
X040626Y032982D01*
X040626Y032978D01*
X040625Y032975D01*
X040625Y032974D01*
X040625Y032974D01*
D01*
X040623Y03297D01*
X040621Y032968D01*
X04062Y032967D01*
X04062D01*
Y032967D01*
X04062Y032967D01*
X040617Y032965D01*
X040614Y032963D01*
D01*
X040614Y032963D01*
X040612Y032963D01*
X04061Y032962D01*
X040606Y032962D01*
X040523D01*
X040522Y032962D01*
X040519Y032962D01*
X040516Y032963D01*
D01*
X040516Y032963D01*
X040514Y032964D01*
X040512Y032965D01*
X040509Y032967D01*
X040509Y032967D01*
X040509Y032967D01*
X040507Y03297D01*
X040506Y032973D01*
X040505Y032974D01*
X040505Y032974D01*
D01*
X040504Y032978D01*
X040503Y03298D01*
X040503Y032982D01*
X040503Y0331D01*
Y0331D01*
Y0331D01*
X040503Y033101D01*
X040504Y033104D01*
X040505Y033107D01*
D01*
X040505Y033107D01*
X040506Y033109D01*
X040507Y033111D01*
X040509Y033114D01*
X040509Y033114D01*
X040509Y033114D01*
X040512Y033116D01*
X040514Y033118D01*
X040516Y033118D01*
X040516Y033118D01*
D01*
X040519Y033119D01*
X040522Y03312D01*
X040523Y03312D01*
X040523D01*
X040523D01*
X040606Y03312D01*
D02*
G37*
G36*
X040409D02*
X040409D01*
X040409D01*
X040413Y033119D01*
X040415Y033119D01*
X040417Y033118D01*
X040417Y033118D01*
D01*
X04042Y033116D01*
X040423Y033115D01*
X040423Y033114D01*
Y033114D01*
X040423D01*
X040424Y033113D01*
X040426Y033111D01*
X040428Y033107D01*
D01*
X040428Y033107D01*
X040428Y033106D01*
X040429Y033104D01*
X040429Y0331D01*
Y0331D01*
Y0331D01*
X040429Y032982D01*
X040429Y032978D01*
X040428Y032975D01*
X040428Y032974D01*
X040428Y032974D01*
D01*
X040426Y03297D01*
X040424Y032968D01*
X040423Y032967D01*
X040423D01*
Y032967D01*
X040423Y032967D01*
X04042Y032965D01*
X040417Y032963D01*
D01*
X040417Y032963D01*
X040415Y032963D01*
X040413Y032962D01*
X040409Y032962D01*
X040327D01*
X040323Y032962D01*
X04032Y032963D01*
X040319Y032963D01*
X040319Y032963D01*
D01*
X040315Y032965D01*
X040313Y032967D01*
X040312Y032967D01*
X040312Y032967D01*
X040312Y032967D01*
X040311Y032969D01*
X04031Y03297D01*
X040308Y032974D01*
D01*
X040308Y032974D01*
X040308Y032975D01*
X040307Y032978D01*
X040306Y032982D01*
X040306Y0331D01*
Y0331D01*
Y0331D01*
X040307Y033104D01*
X040308Y033106D01*
X040308Y033107D01*
X040308Y033107D01*
D01*
X04031Y033111D01*
X040311Y033113D01*
X040312Y033114D01*
X040312Y033114D01*
X040312Y033114D01*
X040313Y033115D01*
X040315Y033116D01*
X040319Y033118D01*
D01*
X040319Y033118D01*
X04032Y033119D01*
X040323Y033119D01*
X040327Y03312D01*
X040327D01*
X040327D01*
X040409Y03312D01*
D02*
G37*
G36*
X039622D02*
X039622D01*
X039622D01*
X039626Y033119D01*
X039628Y033119D01*
X03963Y033118D01*
X03963Y033118D01*
D01*
X039633Y033116D01*
X039635Y033115D01*
X039636Y033114D01*
Y033114D01*
X039636D01*
X039637Y033113D01*
X039639Y033111D01*
X03964Y033107D01*
D01*
X03964Y033107D01*
X039641Y033106D01*
X039642Y033104D01*
X039642Y0331D01*
Y0331D01*
Y0331D01*
X039642Y032982D01*
X039642Y032978D01*
X039641Y032975D01*
X03964Y032974D01*
X03964Y032974D01*
D01*
X039639Y03297D01*
X039637Y032968D01*
X039636Y032967D01*
X039636D01*
Y032967D01*
X039635Y032967D01*
X039633Y032965D01*
X039629Y032963D01*
D01*
X039629Y032963D01*
X039628Y032963D01*
X039626Y032962D01*
X039622Y032962D01*
X039539D01*
X039535Y032962D01*
X039533Y032963D01*
X039531Y032963D01*
X039531Y032963D01*
D01*
X039528Y032965D01*
X039526Y032967D01*
X039525Y032967D01*
X039525Y032967D01*
X039525Y032967D01*
X039524Y032969D01*
X039522Y03297D01*
X039521Y032974D01*
D01*
X039521Y032974D01*
X03952Y032975D01*
X039519Y032978D01*
X039519Y032982D01*
X039519Y0331D01*
Y0331D01*
Y0331D01*
X039519Y033104D01*
X03952Y033106D01*
X039521Y033107D01*
X039521Y033107D01*
D01*
X039522Y033111D01*
X039524Y033113D01*
X039525Y033114D01*
X039525Y033114D01*
X039525Y033114D01*
X039526Y033115D01*
X039528Y033116D01*
X039531Y033118D01*
D01*
X039531Y033118D01*
X039533Y033119D01*
X039535Y033119D01*
X039539Y03312D01*
X039539D01*
X039539D01*
X039622Y03312D01*
D02*
G37*
G36*
X039429Y033119D02*
X039431Y033119D01*
X039433Y033118D01*
X039433Y033118D01*
D01*
X039436Y033116D01*
X039438Y033115D01*
X039439Y033114D01*
X039439Y033114D01*
X039439Y033114D01*
X03944Y033113D01*
X039442Y033111D01*
X039444Y033107D01*
D01*
X039444Y033107D01*
X039444Y033106D01*
X039445Y033104D01*
X039445Y0331D01*
Y0331D01*
Y0331D01*
X039445Y032982D01*
X039445Y032978D01*
X039444Y032975D01*
X039444Y032974D01*
X039444Y032974D01*
D01*
X039442Y03297D01*
X03944Y032969D01*
X039439Y032967D01*
X039439Y032967D01*
X039439Y032967D01*
X039438Y032967D01*
X039436Y032965D01*
X039433Y032963D01*
D01*
X039433Y032963D01*
X039431Y032963D01*
X039429Y032962D01*
X039425Y032962D01*
X039342D01*
X039338Y032962D01*
X039336Y032963D01*
X039335Y032963D01*
X039335Y032963D01*
D01*
X039331Y032965D01*
X039329Y032967D01*
X039328Y032967D01*
X039328Y032967D01*
X039328Y032967D01*
X039327Y032969D01*
X039326Y03297D01*
X039324Y032974D01*
D01*
X039324Y032974D01*
X039323Y032975D01*
X039323Y032978D01*
X039322Y032982D01*
X039322Y0331D01*
Y0331D01*
Y0331D01*
X039323Y033104D01*
X039323Y033106D01*
X039324Y033107D01*
X039324Y033107D01*
D01*
X039326Y033111D01*
X039327Y033113D01*
X039328Y033114D01*
X039328Y033114D01*
X039328Y033114D01*
X039329Y033115D01*
X039331Y033116D01*
X039335Y033118D01*
D01*
X039335Y033118D01*
X039336Y033119D01*
X039338Y033119D01*
X039342Y03312D01*
X039342D01*
X039342D01*
X039425D01*
X039425D01*
X039425D01*
X039429Y033119D01*
D02*
G37*
G36*
X039232D02*
X039234Y033119D01*
X039236Y033118D01*
X039236Y033118D01*
D01*
X039239Y033116D01*
X039242Y033115D01*
X039242Y033114D01*
Y033114D01*
X039242D01*
X039243Y033113D01*
X039245Y033111D01*
X039247Y033107D01*
D01*
X039247Y033107D01*
X039247Y033106D01*
X039248Y033104D01*
X039248Y0331D01*
Y0331D01*
Y0331D01*
X039248Y032982D01*
X039248Y032978D01*
X039247Y032975D01*
X039247Y032974D01*
X039247Y032974D01*
D01*
X039245Y03297D01*
X039243Y032968D01*
X039242Y032967D01*
X039242D01*
Y032967D01*
X039242Y032967D01*
X039239Y032965D01*
X039236Y032963D01*
D01*
X039236Y032963D01*
X039234Y032963D01*
X039232Y032962D01*
X039228Y032962D01*
X039145D01*
X039142Y032962D01*
X039139Y032963D01*
X039138Y032963D01*
X039138Y032963D01*
D01*
X039134Y032965D01*
X039132Y032967D01*
X039131Y032967D01*
X039131Y032967D01*
X039131Y032967D01*
X03913Y032969D01*
X039129Y03297D01*
X039127Y032974D01*
D01*
X039127Y032974D01*
X039126Y032975D01*
X039126Y032978D01*
X039125Y032982D01*
X039125Y0331D01*
Y0331D01*
Y0331D01*
X039126Y033104D01*
X039126Y033106D01*
X039127Y033107D01*
X039127Y033107D01*
D01*
X039129Y033111D01*
X03913Y033113D01*
X039131Y033114D01*
X039131Y033114D01*
X039131Y033114D01*
X039132Y033115D01*
X039134Y033116D01*
X039138Y033118D01*
D01*
X039138Y033118D01*
X039139Y033119D01*
X039142Y033119D01*
X039145Y03312D01*
X039145D01*
X039145D01*
X039228D01*
X039228D01*
X039228D01*
X039232Y033119D01*
D02*
G37*
G36*
X038445D02*
X038447Y033119D01*
X038448Y033118D01*
X038448Y033118D01*
D01*
X038452Y033116D01*
X038454Y033115D01*
X038455Y033114D01*
Y033114D01*
X038455D01*
X038455Y033113D01*
X038457Y033111D01*
X038459Y033107D01*
D01*
X038459Y033107D01*
X03846Y033106D01*
X03846Y033104D01*
X038461Y0331D01*
Y0331D01*
Y0331D01*
X038461Y032982D01*
X03846Y032978D01*
X03846Y032975D01*
X038459Y032974D01*
X038459Y032974D01*
D01*
X038457Y03297D01*
X038455Y032968D01*
X038455Y032967D01*
X038455D01*
Y032967D01*
X038454Y032967D01*
X038452Y032965D01*
X038448Y032963D01*
D01*
X038448Y032963D01*
X038447Y032963D01*
X038445Y032962D01*
X038441Y032962D01*
X038358D01*
X038354Y032962D01*
X038352Y032963D01*
X03835Y032963D01*
X03835Y032963D01*
D01*
X038347Y032965D01*
X038345Y032967D01*
X038344Y032967D01*
X038344Y032967D01*
X038344Y032967D01*
X038343Y032969D01*
X038341Y03297D01*
X038339Y032974D01*
D01*
X038339Y032974D01*
X038339Y032975D01*
X038338Y032978D01*
X038338Y032982D01*
X038338Y0331D01*
Y0331D01*
Y0331D01*
X038338Y033104D01*
X038339Y033106D01*
X038339Y033107D01*
X038339Y033107D01*
D01*
X038341Y033111D01*
X038343Y033113D01*
X038344Y033114D01*
X038344Y033114D01*
X038344Y033114D01*
X038345Y033115D01*
X038347Y033116D01*
X03835Y033118D01*
D01*
X03835Y033118D01*
X038352Y033119D01*
X038354Y033119D01*
X038358Y03312D01*
X038358D01*
X038358D01*
X038441D01*
X038441D01*
X038441D01*
X038445Y033119D01*
D02*
G37*
G36*
X038248D02*
X03825Y033119D01*
X038252Y033118D01*
X038252Y033118D01*
D01*
X038255Y033116D01*
X038257Y033115D01*
X038258Y033114D01*
Y033114D01*
X038258D01*
X038259Y033113D01*
X038261Y033111D01*
X038262Y033107D01*
D01*
X038262Y033107D01*
X038263Y033106D01*
X038264Y033104D01*
X038264Y0331D01*
Y0331D01*
Y0331D01*
X038264Y032982D01*
X038264Y032978D01*
X038263Y032975D01*
X038262Y032974D01*
X038262Y032974D01*
D01*
X038261Y03297D01*
X038259Y032968D01*
X038258Y032967D01*
X038258D01*
Y032967D01*
X038257Y032967D01*
X038255Y032965D01*
X038252Y032963D01*
D01*
X038252Y032963D01*
X03825Y032963D01*
X038248Y032962D01*
X038244Y032962D01*
X038161D01*
X038157Y032962D01*
X038155Y032963D01*
X038154Y032963D01*
X038154Y032963D01*
D01*
X03815Y032965D01*
X038148Y032967D01*
X038147Y032967D01*
Y032967D01*
X038147D01*
X038146Y032968D01*
X038144Y03297D01*
X038143Y032974D01*
D01*
X038143Y032974D01*
X038142Y032975D01*
X038141Y032978D01*
X038141Y032982D01*
X038141Y0331D01*
Y0331D01*
Y0331D01*
X038141Y033104D01*
X038142Y033106D01*
X038143Y033107D01*
X038143Y033107D01*
D01*
X038144Y033111D01*
X038146Y033113D01*
X038147Y033114D01*
X038147D01*
Y033114D01*
X038148Y033115D01*
X03815Y033116D01*
X038153Y033118D01*
D01*
X038153Y033118D01*
X038155Y033119D01*
X038157Y033119D01*
X038161Y03312D01*
X038161D01*
X038161D01*
X038244D01*
X038244D01*
X038244D01*
X038248Y033119D01*
D02*
G37*
G36*
X038838Y033119D02*
X038841Y033119D01*
X038842Y033118D01*
X038842Y033118D01*
D01*
X038846Y033116D01*
X038848Y033115D01*
X038849Y033114D01*
Y033114D01*
X038849D01*
X038849Y033113D01*
X038851Y033111D01*
X038853Y033107D01*
D01*
X038853Y033107D01*
X038853Y033106D01*
X038854Y033104D01*
X038855Y0331D01*
Y0331D01*
Y0331D01*
X038855Y032982D01*
X038854Y032978D01*
X038853Y032975D01*
X038853Y032974D01*
X038853Y032974D01*
D01*
X038851Y03297D01*
X038849Y032968D01*
X038849Y032967D01*
X038849D01*
Y032967D01*
X038848Y032967D01*
X038846Y032965D01*
X038842Y032963D01*
D01*
X038842Y032963D01*
X038841Y032963D01*
X038838Y032962D01*
X038834Y032962D01*
X038752D01*
X038748Y032962D01*
X038746Y032963D01*
X038744Y032963D01*
X038744Y032963D01*
D01*
X038741Y032965D01*
X038739Y032967D01*
X038738Y032967D01*
X038738Y032967D01*
X038738Y032967D01*
X038737Y032969D01*
X038735Y03297D01*
X038733Y032974D01*
D01*
X038733Y032974D01*
X038733Y032975D01*
X038732Y032978D01*
X038732Y032982D01*
X038732Y0331D01*
Y0331D01*
Y0331D01*
X038732Y033104D01*
X038733Y033106D01*
X038733Y033107D01*
X038733Y033107D01*
D01*
X038735Y033111D01*
X038737Y033113D01*
X038738Y033114D01*
X038738Y033114D01*
X038738Y033114D01*
X038739Y033115D01*
X038741Y033116D01*
X038744Y033118D01*
D01*
X038744Y033118D01*
X038746Y033119D01*
X038748Y033119D01*
X038752Y03312D01*
X038752D01*
X038752D01*
X038834D01*
X038834D01*
X038834D01*
X038838Y033119D01*
D02*
G37*
G36*
X038642D02*
X038644Y033119D01*
X038645Y033118D01*
X038645Y033118D01*
D01*
X038649Y033116D01*
X038651Y033115D01*
X038652Y033114D01*
Y033114D01*
X038652D01*
X038652Y033113D01*
X038654Y033111D01*
X038656Y033107D01*
D01*
X038656Y033107D01*
X038657Y033106D01*
X038657Y033104D01*
X038658Y0331D01*
Y0331D01*
Y0331D01*
X038658Y032982D01*
X038657Y032978D01*
X038657Y032975D01*
X038656Y032974D01*
X038656Y032974D01*
D01*
X038654Y03297D01*
X038652Y032968D01*
X038652Y032967D01*
X038652D01*
Y032967D01*
X038651Y032967D01*
X038649Y032965D01*
X038645Y032963D01*
D01*
X038645Y032963D01*
X038644Y032963D01*
X038641Y032962D01*
X038638Y032962D01*
X038555D01*
X038551Y032962D01*
X038549Y032963D01*
X038547Y032963D01*
X038547Y032963D01*
D01*
X038544Y032965D01*
X038541Y032967D01*
X038541Y032967D01*
Y032967D01*
X038541D01*
X03854Y032968D01*
X038538Y03297D01*
X038536Y032974D01*
D01*
X038536Y032974D01*
X038536Y032975D01*
X038535Y032978D01*
X038535Y032982D01*
X038535Y0331D01*
Y0331D01*
Y0331D01*
X038535Y033104D01*
X038536Y033106D01*
X038536Y033107D01*
X038536Y033107D01*
D01*
X038538Y033111D01*
X03854Y033113D01*
X038541Y033114D01*
X038541D01*
Y033114D01*
X038541Y033115D01*
X038544Y033116D01*
X038547Y033118D01*
D01*
X038547Y033118D01*
X038549Y033119D01*
X038551Y033119D01*
X038555Y03312D01*
X038555D01*
X038555D01*
X038638D01*
X038638D01*
X038638D01*
X038642Y033119D01*
D02*
G37*
G36*
X038051D02*
X038053Y033119D01*
X038055Y033118D01*
X038055Y033118D01*
D01*
X038058Y033116D01*
X038061Y033115D01*
X038061Y033114D01*
Y033114D01*
X038061D01*
X038062Y033113D01*
X038064Y033111D01*
X038066Y033107D01*
D01*
X038066Y033107D01*
X038066Y033106D01*
X038067Y033104D01*
X038067Y0331D01*
Y0331D01*
Y0331D01*
X038067Y032982D01*
X038067Y032978D01*
X038066Y032975D01*
X038066Y032974D01*
X038066Y032974D01*
D01*
X038064Y03297D01*
X038062Y032968D01*
X038061Y032967D01*
X038061D01*
Y032967D01*
X038061Y032967D01*
X038058Y032965D01*
X038055Y032963D01*
D01*
X038055Y032963D01*
X038053Y032963D01*
X038051Y032962D01*
X038047Y032962D01*
X037964D01*
X03796Y032962D01*
X037958Y032963D01*
X037957Y032963D01*
X037957Y032963D01*
D01*
X037953Y032965D01*
X037951Y032967D01*
X03795Y032967D01*
X03795Y032967D01*
X03795Y032967D01*
X037949Y032969D01*
X037948Y03297D01*
X037946Y032974D01*
D01*
X037946Y032974D01*
X037945Y032975D01*
X037945Y032978D01*
X037944Y032982D01*
X037944Y0331D01*
Y0331D01*
Y0331D01*
X037945Y033104D01*
X037945Y033106D01*
X037946Y033107D01*
X037946Y033107D01*
D01*
X037948Y033111D01*
X037949Y033113D01*
X03795Y033114D01*
X03795Y033114D01*
X03795Y033114D01*
X037951Y033115D01*
X037953Y033116D01*
X037957Y033118D01*
D01*
X037957Y033118D01*
X037958Y033119D01*
X03796Y033119D01*
X037964Y03312D01*
X037964D01*
X037964D01*
X038047D01*
X038047D01*
X038047D01*
X038051Y033119D01*
D02*
G37*
G36*
X037854D02*
X037856Y033119D01*
X037858Y033118D01*
X037858Y033118D01*
D01*
X037861Y033116D01*
X037864Y033115D01*
X037864Y033114D01*
Y033114D01*
X037864D01*
X037865Y033113D01*
X037867Y033111D01*
X037869Y033107D01*
D01*
X037869Y033107D01*
X037869Y033106D01*
X03787Y033104D01*
X03787Y0331D01*
Y0331D01*
Y0331D01*
X03787Y032982D01*
X03787Y032978D01*
X037869Y032975D01*
X037869Y032974D01*
X037869Y032974D01*
D01*
X037867Y03297D01*
X037865Y032968D01*
X037864Y032967D01*
X037864D01*
Y032967D01*
X037864Y032967D01*
X037861Y032965D01*
X037858Y032963D01*
D01*
X037858Y032963D01*
X037856Y032963D01*
X037854Y032962D01*
X03785Y032962D01*
X037767D01*
X037764Y032962D01*
X037761Y032963D01*
X03776Y032963D01*
X03776Y032963D01*
D01*
X037756Y032965D01*
X037754Y032967D01*
X037753Y032967D01*
X037753Y032967D01*
X037753Y032967D01*
X037752Y032969D01*
X037751Y03297D01*
X037749Y032974D01*
D01*
X037749Y032974D01*
X037748Y032975D01*
X037748Y032978D01*
X037747Y032982D01*
X037747Y0331D01*
Y0331D01*
Y0331D01*
X037748Y033104D01*
X037748Y033106D01*
X037749Y033107D01*
X037749Y033107D01*
D01*
X037751Y033111D01*
X037752Y033113D01*
X037753Y033114D01*
X037753Y033114D01*
X037753Y033114D01*
X037754Y033115D01*
X037756Y033116D01*
X03776Y033118D01*
D01*
X03776Y033118D01*
X037761Y033119D01*
X037764Y033119D01*
X037767Y03312D01*
X037767D01*
X037767D01*
X03785D01*
X03785D01*
X03785D01*
X037854Y033119D01*
D02*
G37*
G36*
X037657D02*
X03766Y033119D01*
X037661Y033118D01*
X037661Y033118D01*
D01*
X037664Y033116D01*
X037667Y033115D01*
X037668Y033114D01*
Y033114D01*
X037668D01*
X037668Y033113D01*
X03767Y033111D01*
X037672Y033107D01*
D01*
X037672Y033107D01*
X037672Y033106D01*
X037673Y033104D01*
X037673Y0331D01*
Y0331D01*
Y0331D01*
X037673Y032982D01*
X037673Y032978D01*
X037672Y032975D01*
X037672Y032974D01*
X037672Y032974D01*
D01*
X03767Y03297D01*
X037668Y032968D01*
X037668Y032967D01*
X037668D01*
Y032967D01*
X037667Y032967D01*
X037664Y032965D01*
X037661Y032963D01*
D01*
X037661Y032963D01*
X03766Y032963D01*
X037657Y032962D01*
X037653Y032962D01*
X037571D01*
X037567Y032962D01*
X037564Y032963D01*
X037563Y032963D01*
X037563Y032963D01*
D01*
X037559Y032965D01*
X037558Y032967D01*
X037556Y032967D01*
X037556Y032967D01*
X037556Y032967D01*
X037556Y032969D01*
X037554Y03297D01*
X037552Y032974D01*
D01*
X037552Y032974D01*
X037552Y032975D01*
X037551Y032978D01*
X037551Y032982D01*
X037551Y0331D01*
Y0331D01*
Y0331D01*
X037551Y033104D01*
X037552Y033106D01*
X037552Y033107D01*
X037552Y033107D01*
D01*
X037554Y033111D01*
X037556Y033113D01*
X037556Y033114D01*
X037556Y033114D01*
X037556Y033114D01*
X037558Y033115D01*
X037559Y033116D01*
X037563Y033118D01*
D01*
X037563Y033118D01*
X037564Y033119D01*
X037567Y033119D01*
X037571Y03312D01*
X037571D01*
X037571D01*
X037653D01*
X037653D01*
X037653D01*
X037657Y033119D01*
D02*
G37*
G36*
X03746D02*
X037463Y033119D01*
X037464Y033118D01*
X037464Y033118D01*
D01*
X037468Y033116D01*
X03747Y033115D01*
X037471Y033114D01*
Y033114D01*
X037471D01*
X037471Y033113D01*
X037473Y033111D01*
X037475Y033107D01*
D01*
X037475Y033107D01*
X037475Y033106D01*
X037476Y033104D01*
X037477Y0331D01*
Y0331D01*
Y0331D01*
X037477Y032982D01*
X037476Y032978D01*
X037475Y032975D01*
X037475Y032974D01*
X037475Y032974D01*
D01*
X037473Y03297D01*
X037471Y032968D01*
X037471Y032967D01*
X037471D01*
Y032967D01*
X03747Y032967D01*
X037468Y032965D01*
X037464Y032963D01*
D01*
X037464Y032963D01*
X037463Y032963D01*
X03746Y032962D01*
X037456Y032962D01*
X037374D01*
X03737Y032962D01*
X037368Y032963D01*
X037366Y032963D01*
X037366Y032963D01*
D01*
X037363Y032965D01*
X037361Y032967D01*
X03736Y032967D01*
X03736Y032967D01*
X03736Y032967D01*
X037359Y032969D01*
X037357Y03297D01*
X037355Y032974D01*
D01*
X037355Y032974D01*
X037355Y032975D01*
X037354Y032978D01*
X037354Y032982D01*
X037354Y0331D01*
Y0331D01*
Y0331D01*
X037354Y033104D01*
X037355Y033106D01*
X037355Y033107D01*
X037355Y033107D01*
D01*
X037357Y033111D01*
X037359Y033113D01*
X03736Y033114D01*
X03736Y033114D01*
X03736Y033114D01*
X037361Y033115D01*
X037363Y033116D01*
X037366Y033118D01*
D01*
X037366Y033118D01*
X037368Y033119D01*
X03737Y033119D01*
X037374Y03312D01*
X037374D01*
X037374D01*
X037456D01*
X037456D01*
X037456D01*
X03746Y033119D01*
D02*
G37*
G36*
X029433Y027659D02*
X029296Y027659D01*
Y0276D01*
X029433D01*
Y027403D01*
X028488Y027403D01*
Y0276D01*
X028626Y0276D01*
Y027659D01*
X028488Y027659D01*
X028488Y027856D01*
X029433D01*
Y027659D01*
D02*
G37*
D31*
X025396Y025419D02*
D03*
X023946Y024419D02*
D03*
X025396Y025919D02*
D03*
X023946D02*
D03*
Y025419D02*
D03*
X025396Y024919D02*
D03*
X023946D02*
D03*
X025396Y024419D02*
D03*
Y023919D02*
D03*
X023946D02*
D03*
D54*
X05388Y02289D02*
D03*
D55*
X05327Y022309D02*
D03*
Y023471D02*
D03*
D103*
X034579Y026749D02*
D03*
X034933D02*
D03*
X033379Y025839D02*
D03*
X033733D02*
D03*
X040066Y027669D02*
D03*
X039711D02*
D03*
X04088Y028179D02*
D03*
X040526D02*
D03*
X04088Y027669D02*
D03*
X040526D02*
D03*
X039263Y028596D02*
D03*
X038909D02*
D03*
X040066Y028179D02*
D03*
X039711D02*
D03*
X040066Y028596D02*
D03*
X039711D02*
D03*
X04088D02*
D03*
X040526D02*
D03*
X04088Y029089D02*
D03*
X040526D02*
D03*
X040066D02*
D03*
X039711D02*
D03*
X054809Y019489D02*
D03*
X055163D02*
D03*
Y017079D02*
D03*
X054809D02*
D03*
X031826Y027069D02*
D03*
X031472D02*
D03*
X016489Y034189D02*
D03*
X029413Y042319D02*
D03*
X031403Y039079D02*
D03*
X035846Y019265D02*
D03*
X043402D02*
D03*
X039624D02*
D03*
X032713Y026509D02*
D03*
X033591Y027729D02*
D03*
X033393Y027089D02*
D03*
X024512Y019265D02*
D03*
X02829D02*
D03*
X032068D02*
D03*
X018873Y012309D02*
D03*
X017539Y012739D02*
D03*
X021673Y042129D02*
D03*
X030459Y027709D02*
D03*
X051043Y019279D02*
D03*
X047183D02*
D03*
X028372Y049349D02*
D03*
X028352Y047709D02*
D03*
X022719Y024409D02*
D03*
X017539Y029459D02*
D03*
X018863Y029039D02*
D03*
X017539Y026529D02*
D03*
X018863Y026139D02*
D03*
X017539Y023369D02*
D03*
X018883Y022949D02*
D03*
X018876Y019459D02*
D03*
X017539Y019919D02*
D03*
X018893Y015989D02*
D03*
X017539Y016439D02*
D03*
X047053Y029459D02*
D03*
X041361Y026749D02*
D03*
X042747Y037911D02*
D03*
X042137Y033701D02*
D03*
X042796Y034929D02*
D03*
X035849Y035109D02*
D03*
X041977Y035571D02*
D03*
X03594Y036371D02*
D03*
X052665Y02601D02*
D03*
X052665Y026876D02*
D03*
X046154Y02025D02*
D03*
X030459Y026829D02*
D03*
X031769Y025769D02*
D03*
X034973Y027389D02*
D03*
X030879Y035419D02*
D03*
X031233Y035419D02*
D03*
X030879Y035809D02*
D03*
X031233D02*
D03*
X031049Y039079D02*
D03*
X028249Y042319D02*
D03*
X028603D02*
D03*
X029059D02*
D03*
X023099Y036629D02*
D03*
X023453D02*
D03*
X021133Y038839D02*
D03*
X020779D02*
D03*
X016843Y034189D02*
D03*
X016389Y039799D02*
D03*
X016743D02*
D03*
X018709Y038879D02*
D03*
X019063D02*
D03*
X024263Y042019D02*
D03*
X020189Y043049D02*
D03*
X017893Y012739D02*
D03*
X018519Y012309D02*
D03*
X031714Y019265D02*
D03*
X027935D02*
D03*
X024157D02*
D03*
X03927D02*
D03*
X043048D02*
D03*
X035492D02*
D03*
X050689Y019279D02*
D03*
X046829D02*
D03*
X028726Y049349D02*
D03*
X028706Y047709D02*
D03*
X023073Y024409D02*
D03*
X017893Y029459D02*
D03*
X018509Y029039D02*
D03*
X017893Y026529D02*
D03*
X018509Y026139D02*
D03*
X017893Y023369D02*
D03*
X018529Y022949D02*
D03*
X018521Y019459D02*
D03*
X017893Y019919D02*
D03*
X018539Y015989D02*
D03*
X017893Y016439D02*
D03*
X04527Y032769D02*
D03*
X044916D02*
D03*
X034619Y027389D02*
D03*
X032123Y025769D02*
D03*
X030813Y026829D02*
D03*
X0458Y02025D02*
D03*
X053863Y030989D02*
D03*
X053509D02*
D03*
X053863Y031409D02*
D03*
X053509D02*
D03*
X052249Y014539D02*
D03*
X052603D02*
D03*
X052311Y026876D02*
D03*
X052252Y013369D02*
D03*
X052606D02*
D03*
X052311Y02601D02*
D03*
X052311Y026443D02*
D03*
X052665D02*
D03*
X052311Y02727D02*
D03*
X052665Y02727D02*
D03*
X036294Y036371D02*
D03*
X041623Y035571D02*
D03*
X036203Y035109D02*
D03*
X042442Y034929D02*
D03*
X042442Y034519D02*
D03*
X042796D02*
D03*
X041783Y033701D02*
D03*
X042393Y037911D02*
D03*
X042976Y033431D02*
D03*
X04333D02*
D03*
X0428Y034091D02*
D03*
X042446D02*
D03*
X041769Y033019D02*
D03*
X042123D02*
D03*
X034454Y032391D02*
D03*
X0341D02*
D03*
Y032791D02*
D03*
X034454D02*
D03*
X0341Y033341D02*
D03*
X034454D02*
D03*
X0341Y033741D02*
D03*
X034454D02*
D03*
X034454Y034311D02*
D03*
X0341D02*
D03*
Y034711D02*
D03*
X034454D02*
D03*
X0341Y035271D02*
D03*
X034454D02*
D03*
X0341Y035671D02*
D03*
X034454D02*
D03*
X041716Y026749D02*
D03*
Y027139D02*
D03*
X041361D02*
D03*
X046699Y029459D02*
D03*
X041361Y025919D02*
D03*
X041716D02*
D03*
X038909Y027669D02*
D03*
X039263D02*
D03*
X038909Y028179D02*
D03*
X039263D02*
D03*
X038909Y029089D02*
D03*
X039263D02*
D03*
X041359Y026339D02*
D03*
X041713D02*
D03*
X041361Y027549D02*
D03*
X041716D02*
D03*
X041361Y029949D02*
D03*
X041716D02*
D03*
X041361Y029549D02*
D03*
X041716Y029549D02*
D03*
X030813Y027709D02*
D03*
X040801Y024942D02*
D03*
X040447D02*
D03*
X039643D02*
D03*
X039997D02*
D03*
X021319Y042129D02*
D03*
X023909Y042019D02*
D03*
X020543Y043049D02*
D03*
X024189Y042529D02*
D03*
X024543D02*
D03*
X033946Y027729D02*
D03*
X032359Y026509D02*
D03*
X033039Y027089D02*
D03*
X053616Y027969D02*
D03*
X053261D02*
D03*
D104*
X044166Y032479D02*
D03*
X043596Y020499D02*
D03*
X032646Y038989D02*
D03*
X015316Y036929D02*
D03*
Y036059D02*
D03*
X016616Y038509D02*
D03*
X015316Y034959D02*
D03*
X018566Y040429D02*
D03*
X019946Y047709D02*
D03*
X027756Y036659D02*
D03*
X031736Y036479D02*
D03*
X015316Y033859D02*
D03*
X018246Y032339D02*
D03*
X024026Y033699D02*
D03*
X016616Y039209D02*
D03*
X026386Y037959D02*
D03*
X023336Y039749D02*
D03*
X028256Y042919D02*
D03*
X028206Y038409D02*
D03*
X015946Y046789D02*
D03*
X026376Y033989D02*
D03*
X032416Y034019D02*
D03*
X042026Y021199D02*
D03*
X05363Y026246D02*
D03*
Y026955D02*
D03*
X050432Y030169D02*
D03*
X052587D02*
D03*
X053306D02*
D03*
X052803Y020539D02*
D03*
X053787Y020539D02*
D03*
X054772D02*
D03*
X055756D02*
D03*
X049418Y02054D02*
D03*
X050235Y02054D02*
D03*
X051052D02*
D03*
X051868Y02054D02*
D03*
X043146Y023775D02*
D03*
Y024481D02*
D03*
Y02307D02*
D03*
Y022365D02*
D03*
X042026Y021929D02*
D03*
Y020489D02*
D03*
X048601Y02054D02*
D03*
D105*
X053334Y012583D02*
D03*
X053334Y012898D02*
D03*
X053334Y014788D02*
D03*
X053334Y015103D02*
D03*
D106*
X053334Y013154D02*
D03*
Y013351D02*
D03*
Y013548D02*
D03*
Y013745D02*
D03*
Y013942D02*
D03*
Y014139D02*
D03*
X053334Y014335D02*
D03*
Y014532D02*
D03*
D107*
X053921Y016179D02*
D03*
X053291D02*
D03*
X016791Y036179D02*
D03*
X016901Y034679D02*
D03*
X016271D02*
D03*
X028771Y041079D02*
D03*
X027611Y034009D02*
D03*
X029511Y035969D02*
D03*
X028281D02*
D03*
X022731Y041989D02*
D03*
X036118Y019737D02*
D03*
X043658D02*
D03*
X039888D02*
D03*
X024807D02*
D03*
X028577D02*
D03*
X032347D02*
D03*
X026771Y043109D02*
D03*
X016161Y036179D02*
D03*
X019621Y038879D02*
D03*
X051191Y019789D02*
D03*
X047311D02*
D03*
X022381Y024909D02*
D03*
X028596Y026679D02*
D03*
X035921Y031189D02*
D03*
X047471Y030679D02*
D03*
X045721Y031819D02*
D03*
X026981Y034009D02*
D03*
X028911Y035969D02*
D03*
X030141D02*
D03*
X028141Y041079D02*
D03*
X020251Y038879D02*
D03*
X025571Y042009D02*
D03*
X027401Y043109D02*
D03*
X016411Y042479D02*
D03*
X031718Y019737D02*
D03*
X027947D02*
D03*
X024177D02*
D03*
X039258D02*
D03*
X043028D02*
D03*
X035488D02*
D03*
X050561Y019789D02*
D03*
X046681D02*
D03*
X023011Y024909D02*
D03*
X015201Y045179D02*
D03*
X046351Y031819D02*
D03*
X046841Y030679D02*
D03*
X035291Y031189D02*
D03*
X029226Y026679D02*
D03*
X024941Y042009D02*
D03*
X015781Y042479D02*
D03*
X014571Y045179D02*
D03*
X023361Y041989D02*
D03*
D108*
X014416Y049898D02*
D03*
Y0473D02*
D03*
D109*
X028684Y030563D02*
D03*
X032267D02*
D03*
X028684Y032335D02*
D03*
X032267D02*
D03*
D110*
X019053Y038013D02*
D03*
X01925D02*
D03*
X020234Y038013D02*
D03*
X020431Y038013D02*
D03*
X020628Y038013D02*
D03*
X020825D02*
D03*
X021022D02*
D03*
X021219D02*
D03*
Y034686D02*
D03*
X021022D02*
D03*
X020628Y034686D02*
D03*
X020037D02*
D03*
X019841Y034686D02*
D03*
X019644D02*
D03*
X019447D02*
D03*
X01925Y034686D02*
D03*
X019053D02*
D03*
X019447Y038013D02*
D03*
X019644D02*
D03*
X019841D02*
D03*
X020037Y038013D02*
D03*
X020825Y034686D02*
D03*
X020431Y034686D02*
D03*
X020234D02*
D03*
D111*
X021799Y037432D02*
D03*
Y037235D02*
D03*
Y036841D02*
D03*
Y036644D02*
D03*
X021799Y036448D02*
D03*
Y036251D02*
D03*
X021799Y036054D02*
D03*
Y035857D02*
D03*
Y03566D02*
D03*
Y035463D02*
D03*
Y035266D02*
D03*
X018472D02*
D03*
Y035463D02*
D03*
Y035857D02*
D03*
X018472Y036448D02*
D03*
X018472Y036644D02*
D03*
Y036841D02*
D03*
Y037038D02*
D03*
Y037235D02*
D03*
Y036054D02*
D03*
Y037432D02*
D03*
X021799Y037038D02*
D03*
X018472Y03566D02*
D03*
X018472Y036251D02*
D03*
D112*
X020136Y036349D02*
D03*
D113*
X028176Y040586D02*
D03*
Y040389D02*
D03*
X028836Y040192D02*
D03*
Y040389D02*
D03*
Y040586D02*
D03*
X028176Y040192D02*
D03*
D114*
X032128Y038483D02*
D03*
X032128Y037735D02*
D03*
X031104Y037735D02*
D03*
X031104Y038483D02*
D03*
X031104Y038109D02*
D03*
D115*
X031616Y038109D02*
D03*
D116*
X021323Y043067D02*
D03*
X021323Y042567D02*
D03*
X023512Y043067D02*
D03*
Y044067D02*
D03*
X023512Y042567D02*
D03*
Y043567D02*
D03*
X021323Y043567D02*
D03*
Y044067D02*
D03*
D117*
X022416Y043309D02*
D03*
D118*
X051715Y023845D02*
D03*
Y024066D02*
D03*
X052365D02*
D03*
Y023845D02*
D03*
D119*
X052153Y023845D02*
D03*
X051932D02*
D03*
D120*
X048219Y024514D02*
D03*
Y024671D02*
D03*
Y024829D02*
D03*
Y024986D02*
D03*
Y025144D02*
D03*
Y025301D02*
D03*
Y025459D02*
D03*
Y025616D02*
D03*
Y025774D02*
D03*
Y025931D02*
D03*
Y026089D02*
D03*
Y026246D02*
D03*
Y026404D02*
D03*
Y026561D02*
D03*
X050915D02*
D03*
Y026404D02*
D03*
Y026246D02*
D03*
Y026089D02*
D03*
Y025931D02*
D03*
Y025774D02*
D03*
Y025616D02*
D03*
Y025459D02*
D03*
Y025301D02*
D03*
Y025144D02*
D03*
Y024986D02*
D03*
Y024829D02*
D03*
Y024671D02*
D03*
Y024514D02*
D03*
D121*
X050276Y024189D02*
D03*
X050118D02*
D03*
X049961D02*
D03*
X049803D02*
D03*
X049646D02*
D03*
X049488D02*
D03*
X049331D02*
D03*
X049173D02*
D03*
X048858D02*
D03*
X048701D02*
D03*
X048543D02*
D03*
Y026886D02*
D03*
X048701D02*
D03*
X048858D02*
D03*
X049016D02*
D03*
X049173D02*
D03*
X049331D02*
D03*
X049488D02*
D03*
X049646D02*
D03*
X049961D02*
D03*
X050118D02*
D03*
X050276D02*
D03*
X050433D02*
D03*
X050591D02*
D03*
X049016Y024189D02*
D03*
X050433D02*
D03*
X050591D02*
D03*
X049803Y026886D02*
D03*
D122*
X049567Y025537D02*
D03*
D123*
X047591Y022417D02*
D03*
Y020917D02*
D03*
X047591Y021417D02*
D03*
Y021917D02*
D03*
X044717Y020917D02*
D03*
X044717Y021417D02*
D03*
X044717Y021917D02*
D03*
X044717Y022417D02*
D03*
D124*
X054189Y022852D02*
D03*
D125*
X050556Y022989D02*
D03*
X049888Y023073D02*
D03*
X05018Y023365D02*
D03*
X050264Y022697D02*
D03*
D126*
X014266Y04318D02*
D03*
Y041979D02*
D03*
X018296Y0449D02*
D03*
X019576Y0449D02*
D03*
X013686Y044029D02*
D03*
X018296Y043699D02*
D03*
X019576D02*
D03*
X013686Y04523D02*
D03*
D127*
X015606Y039078D02*
D03*
X015106D02*
D03*
X014606Y039078D02*
D03*
X014106Y039078D02*
D03*
X013606D02*
D03*
X015606Y04068D02*
D03*
X015106D02*
D03*
X014606Y04068D02*
D03*
X014106Y04068D02*
D03*
X013606D02*
D03*
D128*
X045792Y010335D02*
D03*
X04843D02*
D03*
X029531D02*
D03*
X026893D02*
D03*
X030673Y010335D02*
D03*
X033311D02*
D03*
X04087Y010335D02*
D03*
X038233D02*
D03*
X037091D02*
D03*
X034453D02*
D03*
X04465D02*
D03*
X042013D02*
D03*
X049572D02*
D03*
X05221D02*
D03*
X023113D02*
D03*
X025751D02*
D03*
D129*
X046718Y012599D02*
D03*
X047505D02*
D03*
X028606D02*
D03*
X027818D02*
D03*
X031598Y012599D02*
D03*
X032386Y012599D02*
D03*
X039945D02*
D03*
X039158D02*
D03*
X036165D02*
D03*
X035378D02*
D03*
X043725D02*
D03*
X042938D02*
D03*
X050498D02*
D03*
X051285D02*
D03*
X024038D02*
D03*
X024826D02*
D03*
D130*
X026907Y049877D02*
D03*
X028797Y049877D02*
D03*
X029111Y049877D02*
D03*
X026592Y049877D02*
D03*
D131*
X027163D02*
D03*
X02736D02*
D03*
X027556Y049877D02*
D03*
X027753D02*
D03*
X02795D02*
D03*
X028147D02*
D03*
X028344D02*
D03*
X028541D02*
D03*
D132*
X023836Y045679D02*
D03*
X021277D02*
D03*
D133*
X04747Y013815D02*
D03*
X046722Y013815D02*
D03*
X047096Y014603D02*
D03*
X039542D02*
D03*
X035766D02*
D03*
X043319D02*
D03*
X031989D02*
D03*
X028212D02*
D03*
X050866Y014603D02*
D03*
X024436Y014603D02*
D03*
X02481Y013815D02*
D03*
X024062D02*
D03*
X05124Y013815D02*
D03*
X050492D02*
D03*
X039917Y013815D02*
D03*
X039168D02*
D03*
X03614D02*
D03*
X035392D02*
D03*
X043693D02*
D03*
X042945D02*
D03*
X027838D02*
D03*
X028587D02*
D03*
X031615D02*
D03*
X032363D02*
D03*
D134*
X025146Y045439D02*
D03*
X02865D02*
D03*
D135*
X022334Y040164D02*
D03*
X021031D02*
D03*
D136*
X023971Y036369D02*
D03*
X024561D02*
D03*
D137*
X031616Y033849D02*
D03*
X030396D02*
D03*
X026635Y035129D02*
D03*
X027856D02*
D03*
D138*
X028597Y027245D02*
D03*
X029325Y027245D02*
D03*
D139*
X028977Y027238D02*
D03*
D140*
X025006Y034954D02*
D03*
X025006Y034324D02*
D03*
X017626Y033074D02*
D03*
Y033704D02*
D03*
X028236Y039714D02*
D03*
X031876Y035564D02*
D03*
X037216Y017024D02*
D03*
X040976D02*
D03*
X044796Y017034D02*
D03*
X020526Y044314D02*
D03*
X033416Y017014D02*
D03*
X029656Y017034D02*
D03*
X022716Y032574D02*
D03*
X023116Y037914D02*
D03*
X024426Y034324D02*
D03*
X018186Y039714D02*
D03*
X021956Y031454D02*
D03*
X014636Y043979D02*
D03*
X015206Y041854D02*
D03*
X052346Y017014D02*
D03*
X048526Y017044D02*
D03*
X055606Y044824D02*
D03*
X025946Y017039D02*
D03*
X040816Y030864D02*
D03*
X025536Y034324D02*
D03*
X025536Y034954D02*
D03*
X024426Y034954D02*
D03*
X031876Y034934D02*
D03*
X028236Y039084D02*
D03*
X029786Y040824D02*
D03*
Y041454D02*
D03*
X022716Y033204D02*
D03*
X023116Y038544D02*
D03*
X018186Y039084D02*
D03*
X021956Y032084D02*
D03*
X017586Y039084D02*
D03*
Y039714D02*
D03*
X020526Y043684D02*
D03*
X040816Y030234D02*
D03*
X025946Y016409D02*
D03*
X055606Y045454D02*
D03*
X048526Y016414D02*
D03*
X052346Y016384D02*
D03*
X015206Y042484D02*
D03*
X014636Y044609D02*
D03*
X025066Y043234D02*
D03*
X037216Y016394D02*
D03*
X040976D02*
D03*
X044796Y016404D02*
D03*
X029656D02*
D03*
X033416Y016384D02*
D03*
X025066Y042604D02*
D03*
X024216Y043384D02*
D03*
Y044014D02*
D03*
D141*
X046756Y015439D02*
D03*
X045555D02*
D03*
X028215Y037459D02*
D03*
X028156Y033289D02*
D03*
X026305Y041629D02*
D03*
X019035Y039629D02*
D03*
X050215Y031169D02*
D03*
X026955Y033289D02*
D03*
X029416Y037459D02*
D03*
X020236Y039629D02*
D03*
X027506Y041629D02*
D03*
X051416Y031169D02*
D03*
X024086Y015439D02*
D03*
X022885D02*
D03*
X025916D02*
D03*
X024715D02*
D03*
X048586D02*
D03*
X047385D02*
D03*
X052336D02*
D03*
X051135D02*
D03*
X050506D02*
D03*
X049305D02*
D03*
X025675Y048949D02*
D03*
X026876D02*
D03*
X035421Y015439D02*
D03*
X03422D02*
D03*
X031643D02*
D03*
X030442D02*
D03*
X037251D02*
D03*
X03605D02*
D03*
X033473D02*
D03*
X032272D02*
D03*
X04103D02*
D03*
X039829D02*
D03*
X0392D02*
D03*
X037999D02*
D03*
X044808D02*
D03*
X043607D02*
D03*
X042978D02*
D03*
X041777D02*
D03*
X028494D02*
D03*
X029695D02*
D03*
X026664D02*
D03*
X027865D02*
D03*
D142*
X02973Y035359D02*
D03*
X029553Y035359D02*
D03*
X029199D02*
D03*
X028844D02*
D03*
Y034178D02*
D03*
X029199D02*
D03*
X029376D02*
D03*
X02973Y034178D02*
D03*
X029376Y035359D02*
D03*
X029021D02*
D03*
Y034178D02*
D03*
X029553Y034178D02*
D03*
D143*
X029287Y034769D02*
D03*
D144*
X046296Y016489D02*
D03*
X046796D02*
D03*
X047296D02*
D03*
X046296Y018635D02*
D03*
X047796D02*
D03*
X046796D02*
D03*
X047296D02*
D03*
X047796Y016489D02*
D03*
X040242D02*
D03*
X039742Y018635D02*
D03*
X036465Y016489D02*
D03*
X035965Y018635D02*
D03*
X044019Y016489D02*
D03*
X043519Y018635D02*
D03*
X024633D02*
D03*
X025133Y016489D02*
D03*
X02841Y018635D02*
D03*
X02891Y016489D02*
D03*
X032187Y018635D02*
D03*
X032687Y016489D02*
D03*
X051066Y018635D02*
D03*
X051566Y016489D02*
D03*
X031687Y018635D02*
D03*
X02791D02*
D03*
X024133D02*
D03*
X043019D02*
D03*
X035465D02*
D03*
X039242D02*
D03*
X050566D02*
D03*
X050066Y016489D02*
D03*
X050566D02*
D03*
X051066D02*
D03*
X050066Y018635D02*
D03*
X051566D02*
D03*
X042519Y016489D02*
D03*
X038742D02*
D03*
X034965D02*
D03*
X031187D02*
D03*
X02741D02*
D03*
X023633D02*
D03*
X039242D02*
D03*
X039742D02*
D03*
X038742Y018635D02*
D03*
X040242D02*
D03*
X035465Y016489D02*
D03*
X035965D02*
D03*
X034965Y018635D02*
D03*
X036465D02*
D03*
X043019Y016489D02*
D03*
X043519D02*
D03*
X042519Y018635D02*
D03*
X044019D02*
D03*
X024633Y016489D02*
D03*
X024133D02*
D03*
X023633Y018635D02*
D03*
X025133D02*
D03*
X02841Y016489D02*
D03*
X02791D02*
D03*
X02741Y018635D02*
D03*
X02891D02*
D03*
X032187Y016489D02*
D03*
X031687D02*
D03*
X031187Y018635D02*
D03*
X032687D02*
D03*
D145*
X040061Y023651D02*
D03*
X040455Y02437D02*
D03*
X040061D02*
D03*
X040258D02*
D03*
Y023651D02*
D03*
X040455D02*
D03*
D146*
X040716Y024306D02*
D03*
X040716Y023715D02*
D03*
Y023912D02*
D03*
Y024109D02*
D03*
X0398Y024306D02*
D03*
X0398Y023715D02*
D03*
Y023912D02*
D03*
Y024109D02*
D03*
D147*
X029406Y048722D02*
D03*
X029406Y048525D02*
D03*
X027516Y048919D02*
D03*
Y048722D02*
D03*
Y048329D02*
D03*
Y048132D02*
D03*
X029406Y048132D02*
D03*
Y048329D02*
D03*
Y048919D02*
D03*
X027516Y048525D02*
D03*
D148*
X045399Y026911D02*
D03*
X045202D02*
D03*
X045005D02*
D03*
X044808D02*
D03*
X044611Y026911D02*
D03*
X044414Y026911D02*
D03*
X044217Y026911D02*
D03*
X044021D02*
D03*
X043824Y026911D02*
D03*
X043627Y026911D02*
D03*
X04343D02*
D03*
X043233Y026911D02*
D03*
Y029588D02*
D03*
X04343D02*
D03*
X043627D02*
D03*
X043824D02*
D03*
X044021Y029588D02*
D03*
X044217D02*
D03*
X044414Y029588D02*
D03*
X044611D02*
D03*
X044808D02*
D03*
X045005D02*
D03*
X045202D02*
D03*
X045399D02*
D03*
D149*
X042977Y027166D02*
D03*
Y027363D02*
D03*
Y02756D02*
D03*
X042977Y027757D02*
D03*
Y027954D02*
D03*
Y028151D02*
D03*
X042977Y028348D02*
D03*
X042977Y028741D02*
D03*
Y028938D02*
D03*
Y029135D02*
D03*
Y029332D02*
D03*
X045654Y029332D02*
D03*
Y029135D02*
D03*
Y028938D02*
D03*
X045654Y028741D02*
D03*
Y028544D02*
D03*
Y028348D02*
D03*
X045654Y028151D02*
D03*
X045654Y027954D02*
D03*
Y027757D02*
D03*
Y02756D02*
D03*
Y027363D02*
D03*
Y027166D02*
D03*
X042977Y028544D02*
D03*
D150*
X044316Y028249D02*
D03*
D151*
X045615Y024746D02*
D03*
X044557Y024913D02*
D03*
X045169Y0243D02*
D03*
X045002Y025358D02*
D03*
D152*
X016586Y046018D02*
D03*
Y0446D02*
D03*
D153*
X037415Y0331D02*
D03*
X038793D02*
D03*
X038596Y0331D02*
D03*
X038399D02*
D03*
X038203D02*
D03*
X037809Y0331D02*
D03*
X037612D02*
D03*
X040565Y0331D02*
D03*
X040368D02*
D03*
X040171Y0331D02*
D03*
X039974Y0331D02*
D03*
X039777D02*
D03*
X03958D02*
D03*
X039384D02*
D03*
X039187D02*
D03*
X03899D02*
D03*
X037199Y035875D02*
D03*
X037199Y036072D02*
D03*
X037199Y036466D02*
D03*
Y033316D02*
D03*
Y033513D02*
D03*
Y03371D02*
D03*
Y033907D02*
D03*
Y034104D02*
D03*
Y034301D02*
D03*
X037199Y034497D02*
D03*
X037199Y034694D02*
D03*
Y034891D02*
D03*
Y035088D02*
D03*
Y035285D02*
D03*
Y035482D02*
D03*
X037199Y035679D02*
D03*
X037415Y036682D02*
D03*
X037612D02*
D03*
X037809D02*
D03*
X038006D02*
D03*
X038203D02*
D03*
X038399D02*
D03*
X038596D02*
D03*
X038793D02*
D03*
X03899D02*
D03*
X039187D02*
D03*
X039384D02*
D03*
X03958D02*
D03*
X039777D02*
D03*
X039974D02*
D03*
X040171D02*
D03*
X040368D02*
D03*
X040565D02*
D03*
X040781Y035679D02*
D03*
X040781Y036072D02*
D03*
Y036269D02*
D03*
X040781Y036466D02*
D03*
X040781Y033907D02*
D03*
Y03371D02*
D03*
Y033513D02*
D03*
Y033316D02*
D03*
X040781Y035482D02*
D03*
Y035088D02*
D03*
Y034694D02*
D03*
X040781Y034301D02*
D03*
X040781Y034104D02*
D03*
X040781Y034497D02*
D03*
X040781Y034891D02*
D03*
X040781Y035285D02*
D03*
X040781Y035875D02*
D03*
X037199Y036269D02*
D03*
X038006Y0331D02*
D03*
D154*
X038891Y032733D02*
D03*
X038695Y032733D02*
D03*
X038498D02*
D03*
X038301D02*
D03*
X038104D02*
D03*
X03771D02*
D03*
X037514D02*
D03*
X040466D02*
D03*
X040269Y032733D02*
D03*
X040073D02*
D03*
X039876D02*
D03*
X039679Y032733D02*
D03*
X039482Y032733D02*
D03*
X039285D02*
D03*
X039088D02*
D03*
X037514Y037049D02*
D03*
X03771D02*
D03*
X037907D02*
D03*
X038104D02*
D03*
X038301D02*
D03*
X038498D02*
D03*
X038695D02*
D03*
X038891D02*
D03*
X039088D02*
D03*
X039285D02*
D03*
X039482D02*
D03*
X039679D02*
D03*
X039876D02*
D03*
X040073D02*
D03*
X040269D02*
D03*
X040466D02*
D03*
X037907Y032733D02*
D03*
D155*
X036832Y035777D02*
D03*
Y035974D02*
D03*
X036832Y036367D02*
D03*
Y033415D02*
D03*
Y033612D02*
D03*
Y033808D02*
D03*
Y034005D02*
D03*
Y034202D02*
D03*
X036832Y034399D02*
D03*
X036832Y034596D02*
D03*
Y034793D02*
D03*
Y03499D02*
D03*
X036832Y035186D02*
D03*
Y035383D02*
D03*
Y03558D02*
D03*
X041148Y035777D02*
D03*
X041148Y035974D02*
D03*
Y036171D02*
D03*
X041148Y036367D02*
D03*
X041148Y034005D02*
D03*
Y033808D02*
D03*
X041148Y033612D02*
D03*
X041148Y033415D02*
D03*
X041148Y03558D02*
D03*
Y035186D02*
D03*
Y03499D02*
D03*
Y034793D02*
D03*
Y034596D02*
D03*
Y034399D02*
D03*
Y034202D02*
D03*
Y035383D02*
D03*
X036832Y036171D02*
D03*
D156*
X03899Y034891D02*
D03*
D157*
X025636Y036403D02*
D03*
Y035675D02*
D03*
X017686Y027817D02*
D03*
Y027089D02*
D03*
X018706Y032945D02*
D03*
Y033673D02*
D03*
X023746Y037155D02*
D03*
X024056Y039025D02*
D03*
X016996Y032946D02*
D03*
Y033675D02*
D03*
X028896Y039693D02*
D03*
X030446Y037735D02*
D03*
X033286Y037705D02*
D03*
X025466Y037913D02*
D03*
X024716D02*
D03*
X023746Y037883D02*
D03*
X023706Y041143D02*
D03*
X024416Y041143D02*
D03*
X045076Y032083D02*
D03*
X03587Y031807D02*
D03*
X039676Y030025D02*
D03*
X033286Y038433D02*
D03*
X030446Y038463D02*
D03*
X028896Y038965D02*
D03*
X024056Y039753D02*
D03*
X024716Y037185D02*
D03*
X025466Y037185D02*
D03*
X024416Y040415D02*
D03*
X023706D02*
D03*
X039676Y030753D02*
D03*
X03587Y032535D02*
D03*
X045076Y031355D02*
D03*
X017686Y017713D02*
D03*
Y016985D02*
D03*
Y014053D02*
D03*
Y013325D02*
D03*
Y030713D02*
D03*
Y029985D02*
D03*
Y020455D02*
D03*
Y021183D02*
D03*
Y023935D02*
D03*
Y024663D02*
D03*
D158*
X054079Y018286D02*
D03*
D159*
X054571Y017623D02*
D03*
X054374D02*
D03*
X054177Y017623D02*
D03*
X053981Y017623D02*
D03*
X053784Y017623D02*
D03*
X053587Y017623D02*
D03*
X053587Y018949D02*
D03*
X053784D02*
D03*
X053981D02*
D03*
X054177D02*
D03*
X054374D02*
D03*
X054571D02*
D03*
D160*
X054841Y018581D02*
D03*
X054841Y017991D02*
D03*
X053317D02*
D03*
X053317Y018581D02*
D03*
D161*
X032396Y027042D02*
D03*
Y027396D02*
D03*
X04782Y023557D02*
D03*
X04782Y023203D02*
D03*
X046136Y023556D02*
D03*
Y023202D02*
D03*
X046539Y023557D02*
D03*
Y023203D02*
D03*
X047013Y023557D02*
D03*
X047013Y023203D02*
D03*
X047416Y023557D02*
D03*
X047416Y023203D02*
D03*
X023086Y037072D02*
D03*
X018106Y033402D02*
D03*
Y033756D02*
D03*
X023216Y032522D02*
D03*
X019366Y031882D02*
D03*
X019716Y032872D02*
D03*
X020496Y032872D02*
D03*
X023086Y037426D02*
D03*
X029276Y041126D02*
D03*
X032676Y037912D02*
D03*
X028726Y033142D02*
D03*
X030146Y034982D02*
D03*
X038195Y016952D02*
D03*
X034425D02*
D03*
X041966D02*
D03*
X032906Y027876D02*
D03*
X033946Y027309D02*
D03*
X032566Y025906D02*
D03*
X023114Y016952D02*
D03*
X026884D02*
D03*
X030655D02*
D03*
X021376Y030466D02*
D03*
X021336Y013866D02*
D03*
X020291Y031872D02*
D03*
X021746Y032872D02*
D03*
X020916Y032872D02*
D03*
X025056Y035982D02*
D03*
X022206Y032872D02*
D03*
X023156Y041229D02*
D03*
X032096Y028016D02*
D03*
X014796Y037662D02*
D03*
X049486Y016952D02*
D03*
X045736D02*
D03*
X041137Y022745D02*
D03*
X021376Y027603D02*
D03*
X021446Y024446D02*
D03*
X021376Y020996D02*
D03*
X021396Y017506D02*
D03*
X045716Y025735D02*
D03*
X040067Y022735D02*
D03*
X040717Y022745D02*
D03*
X046356Y026632D02*
D03*
X044806Y030739D02*
D03*
X043716Y025685D02*
D03*
X03911Y030471D02*
D03*
X04353Y036978D02*
D03*
X041546Y037956D02*
D03*
X03824Y031744D02*
D03*
X03645Y032274D02*
D03*
X03869Y030474D02*
D03*
X037596Y038046D02*
D03*
X039446Y038216D02*
D03*
X038606Y038036D02*
D03*
X039386Y031742D02*
D03*
X03872Y031747D02*
D03*
X039896Y031732D02*
D03*
X04052Y031724D02*
D03*
X052027Y024695D02*
D03*
X049766Y027886D02*
D03*
X052826Y02473D02*
D03*
X052421Y024695D02*
D03*
X052025Y022949D02*
D03*
X051237D02*
D03*
X051631D02*
D03*
X049306Y021809D02*
D03*
X049026Y023192D02*
D03*
X04849Y02181D02*
D03*
X047661Y027032D02*
D03*
X047271Y027032D02*
D03*
X033056Y031636D02*
D03*
X037706Y029216D02*
D03*
X045996Y033586D02*
D03*
X037596Y026852D02*
D03*
X029121Y033142D02*
D03*
Y033496D02*
D03*
X029516Y033142D02*
D03*
Y033496D02*
D03*
X028726D02*
D03*
X030146Y035336D02*
D03*
X032676Y038266D02*
D03*
X029276Y040772D02*
D03*
X020916Y033226D02*
D03*
X025056Y036336D02*
D03*
X023156Y040875D02*
D03*
X022206Y033226D02*
D03*
X023216Y032876D02*
D03*
X019366Y032236D02*
D03*
X019716Y033226D02*
D03*
X020496Y033226D02*
D03*
X020291Y032226D02*
D03*
X021746Y033226D02*
D03*
X021326Y032416D02*
D03*
Y032062D02*
D03*
X020096Y033226D02*
D03*
Y032872D02*
D03*
X019326Y033226D02*
D03*
Y032872D02*
D03*
X021326Y033226D02*
D03*
Y032872D02*
D03*
X019836Y032226D02*
D03*
Y031872D02*
D03*
X020746Y032226D02*
D03*
Y031872D02*
D03*
X023696Y034355D02*
D03*
Y034709D02*
D03*
X023296Y034355D02*
D03*
Y034709D02*
D03*
X022896Y034355D02*
D03*
Y034709D02*
D03*
X022496Y034355D02*
D03*
Y034709D02*
D03*
X039346Y025949D02*
D03*
Y025595D02*
D03*
Y026402D02*
D03*
Y026756D02*
D03*
X037596Y027206D02*
D03*
X045996Y033232D02*
D03*
X037706Y028862D02*
D03*
X045046Y035549D02*
D03*
Y035195D02*
D03*
X045486Y035549D02*
D03*
Y035195D02*
D03*
X037086Y027912D02*
D03*
Y028266D02*
D03*
X038826Y026842D02*
D03*
Y027196D02*
D03*
X038126Y026852D02*
D03*
Y027206D02*
D03*
X043796Y033806D02*
D03*
Y033452D02*
D03*
X033056Y031282D02*
D03*
X047271Y026677D02*
D03*
X047661D02*
D03*
X04849Y022165D02*
D03*
X048912Y022163D02*
D03*
Y021809D02*
D03*
X049026Y023546D02*
D03*
X049306Y022163D02*
D03*
X051631Y023304D02*
D03*
X051237D02*
D03*
X052025D02*
D03*
X052421Y025049D02*
D03*
X052826Y025085D02*
D03*
X049766Y027532D02*
D03*
X052027Y025049D02*
D03*
X04052Y032078D02*
D03*
X039896Y032086D02*
D03*
X03872Y032101D02*
D03*
X039386Y032096D02*
D03*
X038606Y037682D02*
D03*
X039446Y037862D02*
D03*
X037596Y037692D02*
D03*
X03869Y030828D02*
D03*
X03827Y030828D02*
D03*
Y030474D02*
D03*
X03645Y032628D02*
D03*
X03824Y032098D02*
D03*
X041546Y037602D02*
D03*
X04353Y036624D02*
D03*
X03911Y030825D02*
D03*
X0378Y031154D02*
D03*
Y031508D02*
D03*
X0374Y031154D02*
D03*
Y031508D02*
D03*
X03687Y031154D02*
D03*
Y031508D02*
D03*
X03647Y031154D02*
D03*
Y031508D02*
D03*
X043066Y031466D02*
D03*
Y031112D02*
D03*
X043466Y031466D02*
D03*
Y031112D02*
D03*
X044266Y031466D02*
D03*
Y031112D02*
D03*
X043866Y031466D02*
D03*
Y031112D02*
D03*
X044126Y026039D02*
D03*
Y025685D02*
D03*
X043716Y026039D02*
D03*
X044806Y030385D02*
D03*
X046356Y026986D02*
D03*
X042696Y025685D02*
D03*
Y026039D02*
D03*
X043196Y025685D02*
D03*
Y026039D02*
D03*
X040717Y023099D02*
D03*
X040067Y023089D02*
D03*
X045716Y026089D02*
D03*
X021396Y017152D02*
D03*
X021376Y020642D02*
D03*
X021446Y024092D02*
D03*
X021376Y027249D02*
D03*
X041137Y023099D02*
D03*
X045736Y016597D02*
D03*
X049486D02*
D03*
X014796Y038016D02*
D03*
X032096Y027662D02*
D03*
X021336Y013512D02*
D03*
X021376Y030112D02*
D03*
X013936Y037662D02*
D03*
X033946Y026955D02*
D03*
X032566Y025552D02*
D03*
X014366Y037662D02*
D03*
X041966Y016597D02*
D03*
X032906Y027522D02*
D03*
X038195Y016597D02*
D03*
X034425D02*
D03*
X030655D02*
D03*
X026884D02*
D03*
X023114D02*
D03*
X015226Y037662D02*
D03*
Y038016D02*
D03*
X027846Y031606D02*
D03*
Y031252D02*
D03*
X014366Y038016D02*
D03*
X013936D02*
D03*
D162*
X020659Y031099D02*
D03*
Y030099D02*
D03*
Y030599D02*
D03*
X018513D02*
D03*
Y030099D02*
D03*
Y029599D02*
D03*
X020659D02*
D03*
X018513Y031099D02*
D03*
X018519Y028209D02*
D03*
X018539Y025052D02*
D03*
X018519Y021583D02*
D03*
X018513Y014449D02*
D03*
X018539Y01812D02*
D03*
X018519Y026709D02*
D03*
X018539Y023552D02*
D03*
X018519Y020083D02*
D03*
X018513Y012949D02*
D03*
X018539Y01662D02*
D03*
Y01762D02*
D03*
Y01712D02*
D03*
X020685Y01812D02*
D03*
Y01762D02*
D03*
Y01712D02*
D03*
Y01662D02*
D03*
X018513Y013949D02*
D03*
Y013449D02*
D03*
X020659Y014449D02*
D03*
Y013949D02*
D03*
Y013449D02*
D03*
Y012949D02*
D03*
X018519Y021083D02*
D03*
Y020583D02*
D03*
X020665Y021583D02*
D03*
Y021083D02*
D03*
Y020583D02*
D03*
Y020083D02*
D03*
X020685Y024052D02*
D03*
Y024552D02*
D03*
Y025052D02*
D03*
X018539Y024552D02*
D03*
Y024052D02*
D03*
X020685Y023552D02*
D03*
X020665Y028209D02*
D03*
Y027209D02*
D03*
Y027709D02*
D03*
X018519D02*
D03*
Y027209D02*
D03*
X020665Y026709D02*
D03*
D163*
X016072Y037029D02*
D03*
X0168D02*
D03*
X016072Y035519D02*
D03*
X0168D02*
D03*
X028904Y041729D02*
D03*
X028482Y036649D02*
D03*
X026712Y042439D02*
D03*
X016072Y037779D02*
D03*
X04752Y030029D02*
D03*
X02921Y036649D02*
D03*
X028176Y041729D02*
D03*
X0168Y037779D02*
D03*
X02744Y042439D02*
D03*
X046792Y030029D02*
D03*
D164*
X029716Y04016D02*
D03*
X032586Y03609D02*
D03*
X054866Y044229D02*
D03*
X05337Y024307D02*
D03*
X032586Y034889D02*
D03*
X029716Y038959D02*
D03*
X05337Y025508D02*
D03*
X054866Y04543D02*
D03*
D165*
X045786Y023979D02*
D03*
X050571Y022364D02*
D03*
X050821Y022614D02*
D03*
X046036Y02423D02*
D03*
D166*
X044511Y024054D02*
D03*
X049881Y022454D02*
D03*
X049631Y022704D02*
D03*
X044261Y024304D02*
D03*
D167*
X042895Y037244D02*
D03*
X042265Y036378D02*
D03*
X042895Y036378D02*
D03*
X042265Y037244D02*
D03*
D168*
X03757Y027931D02*
D03*
D169*
X044665Y034349D02*
D03*
X045413D02*
D03*
X045039Y034349D02*
D03*
X044665Y033326D02*
D03*
X045413D02*
D03*
D170*
X027076Y039219D02*
D03*
Y04044D02*
D03*
D171*
X016456Y043429D02*
D03*
X015255D02*
D03*
X015166Y046119D02*
D03*
X013965D02*
D03*
D172*
X045751Y031279D02*
D03*
X046401D02*
D03*
X052163Y025537D02*
D03*
X052813D02*
D03*
D173*
X037708Y027919D02*
D03*
X037846D02*
D03*
X037984Y027919D02*
D03*
Y028309D02*
D03*
X037846D02*
D03*
X037708D02*
D03*
X03757D02*
D03*
D174*
X040286Y030184D02*
D03*
Y030834D02*
D03*
X03525Y032381D02*
D03*
Y031732D02*
D03*
X046306Y030704D02*
D03*
Y030054D02*
D03*
D175*
X013804Y014976D02*
D03*
Y012338D02*
D03*
X013806Y018567D02*
D03*
Y015929D02*
D03*
X013804Y022158D02*
D03*
Y01952D02*
D03*
Y025749D02*
D03*
Y023111D02*
D03*
Y02934D02*
D03*
Y026702D02*
D03*
Y032931D02*
D03*
Y030293D02*
D03*
D176*
X016068Y014051D02*
D03*
Y013263D02*
D03*
X01607Y017642D02*
D03*
Y016854D02*
D03*
X016068Y021233D02*
D03*
Y020445D02*
D03*
Y024824D02*
D03*
Y024036D02*
D03*
Y028415D02*
D03*
Y027627D02*
D03*
Y032006D02*
D03*
Y031218D02*
D03*
D177*
X037466Y024919D02*
D03*
X024671Y028561D02*
D03*
Y021277D02*
D03*
D178*
X053558Y012143D02*
D03*
Y015544D02*
D03*
D179*
X055204Y012143D02*
D03*
Y015544D02*
D03*
D180*
X053755Y014981D02*
D03*
Y012706D02*
D03*
X028989Y050298D02*
D03*
X026714D02*
D03*
D181*
X055276Y010669D02*
D03*
X013937Y051811D02*
D03*
X055276D02*
D03*
X013937Y010669D02*
D03*
D182*
X015563Y051627D02*
D03*
X019894D02*
D03*
X025238D02*
D03*
X020908D02*
D03*
D183*
X016744Y04769D02*
D03*
X022089D02*
D03*
D184*
X018713D02*
D03*
X024057Y04769D02*
D03*
D185*
X029552Y050101D02*
D03*
X026151D02*
D03*
D186*
X029552Y051747D02*
D03*
X026151D02*
D03*
D187*
X025396Y041119D02*
D03*
D188*
Y040119D02*
D03*
D189*
X036246Y041438D02*
D03*
X035446D02*
D03*
X034646D02*
D03*
X033046D02*
D03*
X032246D02*
D03*
X031446D02*
D03*
X041746D02*
D03*
X040946D02*
D03*
X040146D02*
D03*
X038546D02*
D03*
X037746D02*
D03*
X036946D02*
D03*
X035846Y042438D02*
D03*
X035046D02*
D03*
X034246D02*
D03*
X033446D02*
D03*
X032646Y042438D02*
D03*
X031846Y042438D02*
D03*
X041346Y042438D02*
D03*
X040546Y042438D02*
D03*
X039746Y042438D02*
D03*
X038946Y042438D02*
D03*
X038146D02*
D03*
X037346D02*
D03*
X047246Y041438D02*
D03*
X046446D02*
D03*
X045646D02*
D03*
X044046D02*
D03*
X043246D02*
D03*
X042446D02*
D03*
X052746D02*
D03*
X051946D02*
D03*
X051146D02*
D03*
X049546D02*
D03*
X048746D02*
D03*
X047946D02*
D03*
X046846Y042438D02*
D03*
X046046D02*
D03*
X045246D02*
D03*
X044446Y042438D02*
D03*
X043646Y042438D02*
D03*
X042846Y042438D02*
D03*
X052346Y042438D02*
D03*
X051546Y042438D02*
D03*
X050746Y042438D02*
D03*
X049946D02*
D03*
X049146D02*
D03*
X048346D02*
D03*
D190*
X031446Y040438D02*
D03*
X032446Y040438D02*
D03*
X035246D02*
D03*
X040746Y040438D02*
D03*
X037946D02*
D03*
X043446D02*
D03*
X046246D02*
D03*
X051746Y040438D02*
D03*
X052746Y040438D02*
D03*
X048946Y040438D02*
D03*
D191*
X036246D02*
D03*
X041746D02*
D03*
X036946Y040438D02*
D03*
X042446Y040438D02*
D03*
X047246Y040438D02*
D03*
X047946Y040438D02*
D03*
D192*
X030671Y045188D02*
D03*
X053521D02*
D03*
Y049688D02*
D03*
X030671D02*
D03*
D193*
X052846Y048438D02*
D03*
X031346D02*
D03*
D194*
X055267Y042324D02*
D03*
Y041324D02*
D03*
Y043324D02*
D03*
D195*
Y040324D02*
D03*
D196*
X049303Y033694D02*
D03*
X048303Y034194D02*
D03*
X049303Y034694D02*
D03*
X048303Y035194D02*
D03*
X049303Y035694D02*
D03*
X048303Y036194D02*
D03*
X049303Y036694D02*
D03*
X048303Y037194D02*
D03*
X049303Y037694D02*
D03*
X053403Y032878D02*
D03*
X053403Y033878D02*
D03*
X053403Y037108D02*
D03*
Y038108D02*
D03*
X048303Y033194D02*
D03*
D197*
X051803Y033198D02*
D03*
Y03769D02*
D03*
M02*
