G04*
G04 #@! TF.GenerationSoftware,Altium Limited,Altium Designer,21.6.4 (81)*
G04*
G04 Layer_Color=16711935*
%FSTAX24Y24*%
%MOIN*%
G70*
G04*
G04 #@! TF.SameCoordinates,CFC9D6D8-CD49-4BFF-A4EB-002DC6F40297*
G04*
G04*
G04 #@! TF.FilePolarity,Positive*
G04*
G01*
G75*
%ADD10C,0.0200*%
%ADD12C,0.0079*%
%ADD13C,0.0098*%
%ADD15C,0.0000*%
%ADD18C,0.0039*%
%ADD19C,0.0059*%
%ADD20C,0.0100*%
%ADD22C,0.0050*%
%ADD24C,0.0020*%
%ADD273C,0.0010*%
%ADD274R,0.2449X0.0376*%
%ADD275R,0.0709X0.0433*%
%ADD276R,0.0866X0.0242*%
%ADD277R,0.2362X0.0242*%
%ADD278R,0.0354X0.1339*%
%ADD279R,0.0315X0.1339*%
%ADD280R,0.0376X0.2449*%
%ADD281R,0.0372X0.1339*%
%ADD282R,0.0411X0.1339*%
%ADD283R,0.0197X0.0236*%
%ADD284R,0.0197X0.0236*%
%ADD285R,0.0229X0.1024*%
%ADD286R,0.0276X0.0787*%
%ADD287R,0.0236X0.0787*%
%ADD288R,0.1000X0.0543*%
G04:AMPARAMS|DCode=289|XSize=31.5mil|YSize=29.5mil|CornerRadius=0mil|HoleSize=0mil|Usage=FLASHONLY|Rotation=315.000|XOffset=0mil|YOffset=0mil|HoleType=Round|Shape=Rectangle|*
%AMROTATEDRECTD289*
4,1,4,-0.0216,0.0007,-0.0007,0.0216,0.0216,-0.0007,0.0007,-0.0216,-0.0216,0.0007,0.0*
%
%ADD289ROTATEDRECTD289*%

%ADD290R,0.0295X0.0315*%
D10*
X05267Y023471D02*
G03*
X05267Y023471I-00015J0D01*
G01*
X047703Y033194D02*
G03*
X047703Y033194I-00015J0D01*
G01*
D12*
X031165Y031449D02*
G03*
X031165Y031449I-000689J0D01*
G01*
X052463Y023845D02*
G03*
X052463Y023845I-000039J0D01*
G01*
X05136Y024514D02*
G03*
X05136Y024514I-000039J0D01*
G01*
X03011Y042415D02*
G03*
X03011Y042415I-000039J0D01*
G01*
X028311Y027757D02*
G03*
X028311Y027757I-000039J0D01*
G01*
X039319Y024152D02*
G03*
X039319Y024152I-000039J0D01*
G01*
X05526Y018601D02*
G03*
X05526Y018601I-000039J0D01*
G01*
X03486Y019687D02*
G03*
X03486Y019687I-000039J0D01*
G01*
X037541Y027563D02*
G03*
X037541Y027563I-000039J0D01*
G01*
X031657Y030268D02*
Y03263D01*
X029295Y030268D02*
Y03263D01*
X031657D01*
X029295Y030268D02*
X031657D01*
X026085Y039438D02*
Y041808D01*
X024707Y039438D02*
X026085D01*
X024707D02*
Y041808D01*
X026085D01*
X024732Y043431D02*
X029063D01*
X024732D02*
Y047447D01*
X029063D01*
Y043431D02*
Y047447D01*
D13*
X015669Y040155D02*
G03*
X015669Y040155I-000049J0D01*
G01*
D15*
X024046Y023919D02*
G03*
X024046Y023919I-0001J0D01*
G01*
D18*
X04704Y020978D02*
G03*
X04704Y020978I-000197J0D01*
G01*
X047873Y017995D02*
G03*
X047873Y017995I-000197J0D01*
G01*
X031144Y020596D02*
G03*
X031144Y020596I-000197J0D01*
G01*
X045546Y027216D02*
G03*
X045546Y027216I-000197J0D01*
G01*
X020216Y029719D02*
G03*
X020216Y029719I-000197J0D01*
G01*
X020242Y01674D02*
G03*
X020242Y01674I-000197J0D01*
G01*
X020216Y013069D02*
G03*
X020216Y013069I-000197J0D01*
G01*
X020222Y020203D02*
G03*
X020222Y020203I-000197J0D01*
G01*
X020242Y023672D02*
G03*
X020242Y023672I-000197J0D01*
G01*
X020222Y026829D02*
G03*
X020222Y026829I-000197J0D01*
G01*
X051643Y017995D02*
G03*
X051643Y017995I-000197J0D01*
G01*
X040318D02*
G03*
X040318Y017995I-000197J0D01*
G01*
X036541D02*
G03*
X036541Y017995I-000197J0D01*
G01*
X044095D02*
G03*
X044095Y017995I-000197J0D01*
G01*
X02521D02*
G03*
X02521Y017995I-000197J0D01*
G01*
X028987D02*
G03*
X028987Y017995I-000197J0D01*
G01*
X032764D02*
G03*
X032764Y017995I-000197J0D01*
G01*
X01564Y0472D02*
Y049999D01*
X013191Y0472D02*
X013191Y049999D01*
X01564Y049999D01*
X013191Y0472D02*
X01564D01*
X047197Y020624D02*
X047197Y02271D01*
X045111Y020624D02*
Y02271D01*
Y020624D02*
X047197Y020624D01*
X045111Y02271D02*
X047197Y02271D01*
X013356Y039204D02*
Y040554D01*
X015856D01*
Y039204D02*
Y040554D01*
X013356Y039204D02*
X015856D01*
X023975Y044455D02*
Y046904D01*
X021119Y044455D02*
Y046904D01*
Y044455D02*
X023975D01*
X021119Y046904D02*
X023975Y046904D01*
X016466Y050834D02*
X019265Y050834D01*
X016466Y048385D02*
X019265D01*
X019265Y050834D02*
X019265Y048385D01*
X016466D02*
Y050834D01*
X047671Y013953D02*
Y014465D01*
X046521Y013953D02*
Y014465D01*
X047671Y014465D01*
X046521Y013953D02*
X047671D01*
X027111Y048327D02*
Y049351D01*
X025221Y048327D02*
Y049351D01*
X027111D01*
X025221Y048327D02*
X027111D01*
X054767Y039824D02*
Y043824D01*
X055767Y039824D02*
Y043824D01*
X054767Y039824D02*
X055767D01*
X054767Y043824D02*
X055767D01*
X023833Y036015D02*
Y036723D01*
X024699Y036015D02*
Y036723D01*
X023833D02*
X024699D01*
X023833Y036015D02*
X024699D01*
X046062Y016775D02*
Y018349D01*
X04803Y016775D02*
Y018349D01*
X046062Y016775D02*
X04803D01*
X046062Y018349D02*
X04803D01*
X031301Y018864D02*
Y020951D01*
X029215Y018864D02*
Y020951D01*
X031301D01*
X029215Y018864D02*
X031301D01*
X042928Y029637D02*
X045704D01*
X042928Y026861D02*
X045704D01*
X042928D02*
Y029637D01*
X045704D02*
X045704Y026861D01*
X044292Y024927D02*
X044988Y025623D01*
X044292Y024927D02*
X045183Y024036D01*
X045879Y024732D01*
X044988Y025623D02*
X045879Y024732D01*
X015602Y046293D02*
X01757D01*
X015602Y044325D02*
X01757D01*
Y046293D01*
X015602Y044325D02*
Y046293D01*
X041923Y024176D02*
X041923Y025377D01*
X042612Y024176D02*
Y025377D01*
X041923Y024176D02*
X042612D01*
X041923Y025377D02*
X042612Y025377D01*
X018798Y031333D02*
X020373D01*
X018798Y029365D02*
X020373D01*
X018798D02*
Y031333D01*
X020373Y029365D02*
Y031333D01*
X044438Y034182D02*
X045639D01*
X044438Y033493D02*
X045639D01*
Y034182D01*
X044438Y033493D02*
Y034182D01*
X025011Y013953D02*
Y014465D01*
X023861Y013953D02*
Y014465D01*
X025011D01*
X023861Y013953D02*
X025011D01*
X042088Y036181D02*
Y037441D01*
X043072D01*
Y036181D02*
Y037441D01*
X042088Y036181D02*
X043072D01*
X018825Y018354D02*
X020399D01*
X018825Y016386D02*
X020399D01*
X018825D02*
Y018354D01*
X020399Y016386D02*
Y018354D01*
X018798Y014683D02*
X020373D01*
X018798Y012715D02*
X020373D01*
X018798D02*
Y014683D01*
X020373Y012715D02*
Y014683D01*
X018805Y021818D02*
X020379D01*
X018805Y019849D02*
X020379D01*
X018805D02*
Y021818D01*
X020379Y019849D02*
Y021818D01*
X018825Y025286D02*
X020399D01*
X018825Y023318D02*
X020399D01*
X018825D02*
Y025286D01*
X020399Y023318D02*
Y025286D01*
X018805Y028443D02*
X020379D01*
X018805Y026474D02*
X020379D01*
X018805D02*
Y028443D01*
X020379Y026474D02*
Y028443D01*
X049832Y016775D02*
Y018349D01*
X0518Y016775D02*
Y018349D01*
X049832Y016775D02*
X0518D01*
X049832Y018349D02*
X0518D01*
X051441Y013953D02*
Y014465D01*
X050291Y013953D02*
Y014465D01*
X051441D01*
X050291Y013953D02*
X051441D01*
X038507Y016775D02*
Y018349D01*
X040476Y016775D02*
Y018349D01*
X038507Y016775D02*
X040476D01*
X038507Y018349D02*
X040476D01*
X040117Y013953D02*
Y014465D01*
X038968Y013953D02*
Y014465D01*
X040117D01*
X038968Y013953D02*
X040117D01*
X036341D02*
Y014465D01*
X035191Y013953D02*
Y014465D01*
X036341D01*
X035191Y013953D02*
X036341D01*
X03473Y016775D02*
Y018349D01*
X036699Y016775D02*
Y018349D01*
X03473Y016775D02*
X036699D01*
X03473Y018349D02*
X036699D01*
X042284Y016775D02*
Y018349D01*
X044253Y016775D02*
Y018349D01*
X042284Y016775D02*
X044253D01*
X042284Y018349D02*
X044253D01*
X043894Y013953D02*
Y014465D01*
X042744Y013953D02*
Y014465D01*
X043894D01*
X042744Y013953D02*
X043894D01*
X027638D02*
X028787D01*
X027638Y014465D02*
X028787D01*
X027638Y013953D02*
Y014465D01*
X028787Y013953D02*
Y014465D01*
X023399Y018349D02*
X025367D01*
X023399Y016775D02*
X025367D01*
Y018349D01*
X023399Y016775D02*
Y018349D01*
X027176D02*
X029145D01*
X027176Y016775D02*
X029145D01*
Y018349D01*
X027176Y016775D02*
Y018349D01*
X030953D02*
X032922D01*
X030953Y016775D02*
X032922D01*
Y018349D01*
X030953Y016775D02*
Y018349D01*
X031414Y013953D02*
X032564D01*
X031414Y014465D02*
X032564D01*
X031414Y013953D02*
Y014465D01*
X032564Y013953D02*
Y014465D01*
D19*
X0395Y024365D02*
G03*
X0395Y024365I-00003J0D01*
G01*
D20*
X044234Y02494D02*
G03*
X044234Y02494I-000039J0D01*
G01*
X04317Y036102D02*
G03*
X04317Y036102I-000039J0D01*
G01*
D22*
X030624Y052734D02*
G03*
X030086Y049684I005423J-002529D01*
G01*
X054106D02*
G03*
X053568Y052734I-005961J000522D01*
G01*
X053334Y012083D02*
Y015603D01*
X056227D01*
X056227Y012083D01*
X053334D02*
X056227D01*
X051778Y023829D02*
Y024081D01*
X051652Y023829D02*
Y024081D01*
X051778D01*
X051652Y023829D02*
X051778D01*
X051917Y023908D02*
X052169D01*
X051917Y023782D02*
X052169D01*
X051917D02*
Y023908D01*
X052169Y023782D02*
Y023908D01*
X050945Y02416D02*
Y026915D01*
X048189Y02416D02*
Y026915D01*
Y02416D02*
X050945D01*
X048189Y026915D02*
X050945D01*
X019677Y049245D02*
Y051135D01*
X020347D01*
Y052119D01*
X019677D02*
X020347D01*
X019677D02*
Y052789D01*
X01578D02*
X019677D01*
X01578Y052119D02*
Y052789D01*
X01511Y052119D02*
X01578D01*
X01511Y051135D02*
Y052119D01*
Y051135D02*
X01578D01*
Y049245D02*
Y051135D01*
Y049245D02*
X019677D01*
X018516Y046804D02*
X01891D01*
X016744Y046607D02*
Y047001D01*
X016547Y046804D02*
X016941D01*
X048666Y009745D02*
Y012737D01*
X045556Y009745D02*
X048666D01*
X045556D02*
Y012737D01*
X048666D01*
X029611Y049877D02*
Y052771D01*
X026092Y052771D02*
X029611Y052771D01*
X026092Y049877D02*
Y052771D01*
Y049877D02*
X029611D01*
X030626Y052738D02*
X053566D01*
Y039738D02*
Y052738D01*
X030626Y039738D02*
X053566D01*
X030626D02*
Y052738D01*
X028557Y027098D02*
Y027905D01*
Y027098D02*
X029364D01*
Y027905D01*
X028557D02*
X029364D01*
X039668Y024503D02*
X040849D01*
Y023519D02*
Y024503D01*
X039668Y023519D02*
X040849Y023519D01*
X039668Y023519D02*
Y024503D01*
X039634Y024152D02*
X040028D01*
X040028Y024704D01*
X039634D02*
X040028D01*
X039634Y024152D02*
X039634Y024704D01*
X053292Y018975D02*
X054866Y018975D01*
X053292Y017597D02*
X054866D01*
Y018975D01*
X053292Y017597D02*
X053292Y018975D01*
X032892Y019313D02*
Y020691D01*
X034466D02*
X034466Y019313D01*
X032892Y020691D02*
X034466D01*
X032892Y019313D02*
X034466D01*
X037501Y027917D02*
Y028311D01*
X038053Y028311D01*
Y027917D02*
Y028311D01*
X037501Y027917D02*
X038053Y027917D01*
X052428Y023829D02*
Y024081D01*
X052302Y023829D02*
Y024081D01*
X052428D01*
X052302Y023829D02*
X052428D01*
X026657Y012737D02*
X029767D01*
X026657Y009745D02*
Y012737D01*
Y009745D02*
X029767D01*
Y012737D01*
X013214Y012102D02*
X016206D01*
X013214D02*
Y015212D01*
X016206D01*
Y012102D02*
Y015212D01*
X013215Y015693D02*
X016208D01*
X013215D02*
Y018803D01*
X016208D01*
Y015693D02*
Y018803D01*
X013214Y019284D02*
X016206D01*
X013214D02*
Y022394D01*
X016206D01*
Y019284D02*
Y022394D01*
X013214Y022875D02*
X016206D01*
X013214D02*
Y025985D01*
X016206D01*
Y022875D02*
Y025985D01*
X013214Y026466D02*
X016206D01*
X013214D02*
Y029576D01*
X016206D01*
Y026466D02*
Y029576D01*
X013214Y030057D02*
X016206D01*
X013214D02*
Y033167D01*
X016206D01*
Y030057D02*
Y033167D01*
X033547Y009745D02*
Y012737D01*
X030437Y009745D02*
X033547D01*
X030437D02*
Y012737D01*
X033547D01*
X021892Y046804D02*
X022286D01*
X022089Y046607D02*
X022089Y047001D01*
X02386Y046804D02*
X024254D01*
X021124Y049245D02*
X025022Y049245D01*
X021124Y049245D02*
Y051135D01*
X020455Y051135D02*
X021124Y051135D01*
X020455Y051135D02*
Y052119D01*
X021124D01*
Y052789D01*
X025022D01*
Y052119D02*
Y052789D01*
Y052119D02*
X025691D01*
Y051135D02*
Y052119D01*
X025022Y051135D02*
X025691D01*
X025022Y049245D02*
Y051135D01*
X037996Y012737D02*
X041107D01*
X037996Y009745D02*
Y012737D01*
Y009745D02*
X041107D01*
Y012737D01*
X034217D02*
X037327D01*
X034217Y009745D02*
Y012737D01*
Y009745D02*
X037327D01*
Y012737D01*
X041776D02*
X044887D01*
X041776Y009745D02*
Y012737D01*
Y009745D02*
X044887D01*
Y012737D01*
X052446Y009745D02*
Y012737D01*
X049336Y009745D02*
X052446D01*
X049336D02*
Y012737D01*
X052446D01*
X025987Y009745D02*
Y012737D01*
X022877Y009745D02*
X025987D01*
X022877D02*
Y012737D01*
X025987D01*
D24*
X029864Y032904D02*
Y034794D01*
X032148D01*
Y032904D02*
Y034794D01*
X029864Y032904D02*
X032148D01*
X027461Y049116D02*
X027461Y047935D01*
X027461Y049116D02*
X029465Y049116D01*
Y047935D02*
Y049116D01*
X027461Y047935D02*
X029465D01*
X028387Y034184D02*
Y036074D01*
X026104Y034184D02*
X028387D01*
X026104D02*
Y036074D01*
X028387Y036074D01*
X026131Y040971D02*
X028021D01*
X028021Y038688D01*
X026131D02*
X028021D01*
X026131Y040971D02*
X026131Y038688D01*
D273*
X024021Y023589D02*
X025331D01*
X024021D02*
Y026249D01*
X025331D01*
Y023589D02*
Y026249D01*
X031867Y030569D02*
X033897D01*
X031867D02*
Y031889D01*
X033897D01*
Y030569D02*
Y031889D01*
X05392Y02227D02*
Y02351D01*
X05262D02*
X05392D01*
X05262Y02227D02*
Y02351D01*
Y02227D02*
X05392D01*
X056035Y032314D02*
Y038574D01*
X04763D02*
X056035D01*
X04763Y032314D02*
Y038574D01*
Y032314D02*
X056035D01*
D274*
X014416Y047388D02*
D03*
D275*
X032011Y030563D02*
D03*
X032011Y032335D02*
D03*
X02894Y032335D02*
D03*
Y030563D02*
D03*
D276*
X013858Y040433D02*
D03*
X015354Y040433D02*
D03*
D277*
X014606Y039325D02*
D03*
D278*
X024131Y045679D02*
D03*
D279*
X020962Y045679D02*
D03*
D280*
X023787Y045679D02*
D03*
X016655Y049609D02*
D03*
D281*
X01628Y049609D02*
D03*
D282*
X019471Y049609D02*
D03*
D283*
X046722Y013835D02*
D03*
X04747Y013835D02*
D03*
X024062Y013835D02*
D03*
X02481Y013835D02*
D03*
X050492Y013835D02*
D03*
X05124Y013835D02*
D03*
X039169Y013835D02*
D03*
X039917Y013835D02*
D03*
X035392Y013835D02*
D03*
X03614Y013835D02*
D03*
X042945Y013835D02*
D03*
X043693Y013835D02*
D03*
X028587Y013835D02*
D03*
X027839Y013835D02*
D03*
X032363Y013835D02*
D03*
X031615Y013835D02*
D03*
D284*
X047096Y014583D02*
D03*
X024436Y014583D02*
D03*
X050866Y014583D02*
D03*
X039543Y014583D02*
D03*
X035766Y014583D02*
D03*
X043319Y014583D02*
D03*
X028213Y014583D02*
D03*
X031989Y014583D02*
D03*
D285*
X026995Y048839D02*
D03*
D286*
X027209Y048839D02*
D03*
D287*
X025102Y048839D02*
D03*
D288*
X055267Y040096D02*
D03*
D289*
X045663Y024739D02*
D03*
X045176Y024251D02*
D03*
X044508Y02492D02*
D03*
X044995Y025407D02*
D03*
D290*
X042235Y036339D02*
D03*
X042924D02*
D03*
Y037284D02*
D03*
X042235Y037284D02*
D03*
M02*
