G04*
G04 #@! TF.GenerationSoftware,Altium Limited,Altium Designer,21.6.4 (81)*
G04*
G04 Layer_Color=32768*
%FSTAX24Y24*%
%MOIN*%
G70*
G04*
G04 #@! TF.SameCoordinates,CFC9D6D8-CD49-4BFF-A4EB-002DC6F40297*
G04*
G04*
G04 #@! TF.FilePolarity,Positive*
G04*
G01*
G75*
%ADD18C,0.0039*%
G36*
X022429Y043813D02*
X022434D01*
X022438Y043813D01*
X022443Y043812D01*
X022455Y043811D01*
X022467Y043809D01*
X022479Y043807D01*
X022484Y043806D01*
X02249Y043804D01*
X02249D01*
X022491Y043804D01*
X022492Y043803D01*
X022494Y043802D01*
X022497Y043801D01*
X022499Y0438D01*
X022505Y043797D01*
X022512Y043793D01*
X022519Y043789D01*
X022526Y043783D01*
X022532Y043777D01*
Y043776D01*
X022533Y043776D01*
X022533Y043775D01*
X022534Y043773D01*
X022535Y043772D01*
X022537Y04377D01*
X022539Y043764D01*
X022542Y043758D01*
X022544Y04375D01*
X022546Y043741D01*
X022546Y043731D01*
Y043728D01*
X022546Y043725D01*
X022546Y043722D01*
X022545Y043719D01*
X022544Y043714D01*
X022543Y04371D01*
X022542Y043706D01*
X02254Y043701D01*
X022538Y043696D01*
X022536Y043692D01*
X022533Y043687D01*
X022529Y043682D01*
X022525Y043678D01*
X022521Y043674D01*
X02252Y043673D01*
X022519Y043673D01*
X022517Y043672D01*
X022514Y04367D01*
X022511Y043668D01*
X022507Y043666D01*
X022502Y043664D01*
X022496Y043661D01*
X022489Y043659D01*
X022482Y043657D01*
X022473Y043655D01*
X022464Y043653D01*
X022454Y043651D01*
X022443Y04365D01*
X022431Y043649D01*
X022418Y043649D01*
X022418D01*
X022416D01*
X022414D01*
X022411D01*
X022407Y043649D01*
X022402D01*
X022398Y04365D01*
X022392Y04365D01*
X022381Y043651D01*
X022369Y043653D01*
X022357Y043655D01*
X022351Y043657D01*
X022346Y043658D01*
X022346D01*
X022345Y043658D01*
X022343Y043659D01*
X022342Y04366D01*
X022339Y043661D01*
X022336Y043662D01*
X02233Y043665D01*
X022324Y043669D01*
X022317Y043673D01*
X02231Y043679D01*
X022304Y043685D01*
Y043686D01*
X022303Y043686D01*
X022303Y043687D01*
X022302Y043689D01*
X0223Y04369D01*
X022299Y043693D01*
X022296Y043698D01*
X022294Y043705D01*
X022291Y043712D01*
X02229Y043721D01*
X022289Y043731D01*
Y043735D01*
X022289Y043739D01*
X02229Y043743D01*
X022291Y043749D01*
X022293Y043755D01*
X022295Y043761D01*
X022297Y043767D01*
Y043767D01*
X022298Y043767D01*
X022299Y043769D01*
X022301Y043772D01*
X022303Y043776D01*
X022307Y04378D01*
X022311Y043784D01*
X022316Y043788D01*
X022321Y043792D01*
X022322Y043792D01*
X022324Y043794D01*
X022327Y043795D01*
X022332Y043798D01*
X022337Y0438D01*
X022343Y043803D01*
X022351Y043805D01*
X022359Y043808D01*
X022359D01*
X02236Y043808D01*
X022361Y043808D01*
X022363Y043809D01*
X022365Y043809D01*
X022367Y043809D01*
X022371Y04381D01*
X022374Y043811D01*
X022378Y043811D01*
X022383Y043812D01*
X022388Y043812D01*
X022393Y043813D01*
X022399Y043813D01*
X022405D01*
X022411Y043814D01*
X022418D01*
X022418D01*
X02242D01*
X022422D01*
X022425D01*
X022429Y043813D01*
D02*
G37*
G36*
Y043617D02*
X022434D01*
X022438Y043617D01*
X022443Y043617D01*
X022455Y043615D01*
X022467Y043614D01*
X022479Y043611D01*
X022484Y04361D01*
X02249Y043608D01*
X02249D01*
X022491Y043608D01*
X022492Y043607D01*
X022494Y043606D01*
X022497Y043606D01*
X022499Y043604D01*
X022505Y043601D01*
X022512Y043598D01*
X022519Y043593D01*
X022526Y043587D01*
X022532Y043581D01*
Y043581D01*
X022533Y04358D01*
X022533Y043579D01*
X022534Y043578D01*
X022535Y043576D01*
X022537Y043574D01*
X022539Y043569D01*
X022542Y043562D01*
X022544Y043554D01*
X022546Y043545D01*
X022546Y043535D01*
Y043532D01*
X022546Y043529D01*
X022546Y043526D01*
X022545Y043523D01*
X022544Y043519D01*
X022543Y043514D01*
X022542Y04351D01*
X02254Y043505D01*
X022538Y0435D01*
X022536Y043496D01*
X022533Y043491D01*
X022529Y043486D01*
X022525Y043482D01*
X022521Y043478D01*
X02252Y043478D01*
X022519Y043477D01*
X022517Y043476D01*
X022514Y043474D01*
X022511Y043472D01*
X022507Y04347D01*
X022502Y043468D01*
X022496Y043466D01*
X022489Y043463D01*
X022482Y043461D01*
X022473Y043459D01*
X022464Y043457D01*
X022454Y043455D01*
X022443Y043454D01*
X022431Y043454D01*
X022418Y043453D01*
X022418D01*
X022416D01*
X022414D01*
X022411D01*
X022407Y043454D01*
X022402D01*
X022398Y043454D01*
X022392Y043454D01*
X022381Y043455D01*
X022369Y043457D01*
X022357Y043459D01*
X022351Y043461D01*
X022346Y043462D01*
X022346D01*
X022345Y043463D01*
X022343Y043463D01*
X022342Y043464D01*
X022339Y043465D01*
X022336Y043466D01*
X02233Y043469D01*
X022324Y043473D01*
X022317Y043478D01*
X02231Y043483D01*
X022304Y04349D01*
Y04349D01*
X022303Y04349D01*
X022303Y043491D01*
X022302Y043493D01*
X0223Y043495D01*
X022299Y043497D01*
X022296Y043502D01*
X022294Y043509D01*
X022291Y043516D01*
X02229Y043526D01*
X022289Y043535D01*
Y043539D01*
X022289Y043543D01*
X02229Y043547D01*
X022291Y043553D01*
X022293Y043559D01*
X022295Y043565D01*
X022297Y043571D01*
Y043571D01*
X022298Y043571D01*
X022299Y043573D01*
X022301Y043576D01*
X022303Y04358D01*
X022307Y043584D01*
X022311Y043588D01*
X022316Y043592D01*
X022321Y043596D01*
X022322Y043597D01*
X022324Y043598D01*
X022327Y043599D01*
X022332Y043602D01*
X022337Y043604D01*
X022343Y043607D01*
X022351Y04361D01*
X022359Y043612D01*
X022359D01*
X02236Y043612D01*
X022361Y043613D01*
X022363Y043613D01*
X022365Y043613D01*
X022367Y043614D01*
X022371Y043614D01*
X022374Y043615D01*
X022378Y043615D01*
X022383Y043616D01*
X022388Y043616D01*
X022393Y043617D01*
X022399Y043617D01*
X022405D01*
X022411Y043618D01*
X022418D01*
X022418D01*
X02242D01*
X022422D01*
X022425D01*
X022429Y043617D01*
D02*
G37*
G36*
Y043421D02*
X022434D01*
X022438Y043421D01*
X022443Y043421D01*
X022455Y04342D01*
X022467Y043418D01*
X022479Y043416D01*
X022484Y043414D01*
X02249Y043412D01*
X02249D01*
X022491Y043412D01*
X022492Y043411D01*
X022494Y043411D01*
X022497Y04341D01*
X022499Y043408D01*
X022505Y043405D01*
X022512Y043402D01*
X022519Y043397D01*
X022526Y043392D01*
X022532Y043385D01*
Y043385D01*
X022533Y043384D01*
X022533Y043383D01*
X022534Y043382D01*
X022535Y04338D01*
X022537Y043378D01*
X022539Y043373D01*
X022542Y043366D01*
X022544Y043358D01*
X022546Y043349D01*
X022546Y04334D01*
Y043336D01*
X022546Y043333D01*
X022546Y04333D01*
X022545Y043327D01*
X022544Y043323D01*
X022543Y043318D01*
X022542Y043314D01*
X02254Y043309D01*
X022538Y043305D01*
X022536Y0433D01*
X022533Y043295D01*
X022529Y04329D01*
X022525Y043286D01*
X022521Y043282D01*
X02252Y043282D01*
X022519Y043281D01*
X022517Y04328D01*
X022514Y043278D01*
X022511Y043276D01*
X022507Y043274D01*
X022502Y043272D01*
X022496Y04327D01*
X022489Y043267D01*
X022482Y043265D01*
X022473Y043263D01*
X022464Y043261D01*
X022454Y04326D01*
X022443Y043258D01*
X022431Y043258D01*
X022418Y043257D01*
X022418D01*
X022416D01*
X022414D01*
X022411D01*
X022407Y043258D01*
X022402D01*
X022398Y043258D01*
X022392Y043258D01*
X022381Y04326D01*
X022369Y043261D01*
X022357Y043264D01*
X022351Y043265D01*
X022346Y043266D01*
X022346D01*
X022345Y043267D01*
X022343Y043267D01*
X022342Y043268D01*
X022339Y043269D01*
X022336Y04327D01*
X02233Y043273D01*
X022324Y043277D01*
X022317Y043282D01*
X02231Y043287D01*
X022304Y043294D01*
Y043294D01*
X022303Y043294D01*
X022303Y043296D01*
X022302Y043297D01*
X0223Y043299D01*
X022299Y043301D01*
X022296Y043306D01*
X022294Y043313D01*
X022291Y043321D01*
X02229Y04333D01*
X022289Y04334D01*
Y043343D01*
X022289Y043347D01*
X02229Y043352D01*
X022291Y043357D01*
X022293Y043363D01*
X022295Y043369D01*
X022297Y043375D01*
Y043375D01*
X022298Y043376D01*
X022299Y043377D01*
X022301Y04338D01*
X022303Y043384D01*
X022307Y043388D01*
X022311Y043392D01*
X022316Y043396D01*
X022321Y0434D01*
X022322Y043401D01*
X022324Y043402D01*
X022327Y043404D01*
X022332Y043406D01*
X022337Y043408D01*
X022343Y043411D01*
X022351Y043414D01*
X022359Y043416D01*
X022359D01*
X02236Y043416D01*
X022361Y043417D01*
X022363Y043417D01*
X022365Y043417D01*
X022367Y043418D01*
X022371Y043419D01*
X022374Y043419D01*
X022378Y04342D01*
X022383Y04342D01*
X022388Y04342D01*
X022393Y043421D01*
X022399Y043421D01*
X022405D01*
X022411Y043422D01*
X022418D01*
X022418D01*
X02242D01*
X022422D01*
X022425D01*
X022429Y043421D01*
D02*
G37*
G36*
X022542Y043147D02*
X022345D01*
X022346Y043147D01*
X022347Y043145D01*
X022349Y043143D01*
X022352Y043139D01*
X022355Y043135D01*
X022359Y04313D01*
X022363Y043124D01*
X022367Y043118D01*
Y043117D01*
X022367Y043117D01*
X022368Y043115D01*
X02237Y043111D01*
X022372Y043107D01*
X022375Y043102D01*
X022378Y043096D01*
X02238Y043091D01*
X022382Y043085D01*
X022352D01*
Y043085D01*
X022352Y043086D01*
X022351Y043088D01*
X02235Y04309D01*
X022349Y043092D01*
X022348Y043094D01*
X022344Y0431D01*
X02234Y043108D01*
X022335Y043115D01*
X022329Y043123D01*
X022323Y04313D01*
X022323Y043131D01*
X022322Y043131D01*
X022321Y043132D01*
X02232Y043134D01*
X022316Y043137D01*
X022312Y043141D01*
X022307Y043146D01*
X022301Y04315D01*
X022295Y043154D01*
X022289Y043158D01*
Y043178D01*
X022542D01*
Y043147D01*
D02*
G37*
G36*
X022445Y043018D02*
X022449D01*
X022453Y043018D01*
X022458Y043017D01*
X022467Y043016D01*
X022478Y043015D01*
X022487Y043013D01*
X022492Y043011D01*
X022497Y04301D01*
X022497D01*
X022498Y043009D01*
X022499Y043009D01*
X0225Y043008D01*
X022504Y043006D01*
X022509Y043003D01*
X022515Y042998D01*
X022521Y042993D01*
X022527Y042986D01*
X022533Y042978D01*
Y042978D01*
X022533Y042977D01*
X022534Y042976D01*
X022535Y042974D01*
X022536Y042972D01*
X022537Y042969D01*
X022538Y042966D01*
X02254Y042963D01*
X022541Y042959D01*
X022542Y042954D01*
X022543Y04295D01*
X022544Y042944D01*
X022545Y042939D01*
X022546Y042933D01*
X022546Y04292D01*
Y042917D01*
X022546Y042914D01*
Y042911D01*
X022546Y042908D01*
X022545Y042903D01*
X022545Y042899D01*
X022544Y04289D01*
X022541Y042881D01*
X022538Y042871D01*
X022534Y042862D01*
Y042862D01*
X022534Y042861D01*
X022533Y04286D01*
X022532Y042858D01*
X022529Y042854D01*
X022525Y04285D01*
X02252Y042844D01*
X022514Y042839D01*
X022507Y042834D01*
X022499Y04283D01*
X022499D01*
X022498Y04283D01*
X022497Y042829D01*
X022495Y042829D01*
X022493Y042828D01*
X02249Y042827D01*
X022486Y042826D01*
X022482Y042825D01*
X022478Y042825D01*
X022473Y042823D01*
X022468Y042823D01*
X022463Y042822D01*
X022457Y042821D01*
X02245Y042821D01*
X022443Y042821D01*
X022436D01*
X02229D01*
Y042854D01*
X022436D01*
X022436D01*
X022437D01*
X022439D01*
X022441D01*
X022444Y042854D01*
X022447D01*
X022454Y042855D01*
X022462Y042855D01*
X02247Y042857D01*
X022478Y042858D01*
X022481Y042859D01*
X022484Y04286D01*
X022485Y04286D01*
X022487Y042861D01*
X022489Y042863D01*
X022493Y042865D01*
X022497Y042867D01*
X022501Y042871D01*
X022505Y042875D01*
X022508Y042881D01*
X022508Y042881D01*
X022509Y042883D01*
X02251Y042886D01*
X022512Y042891D01*
X022514Y042896D01*
X022515Y042902D01*
X022516Y042909D01*
X022516Y042917D01*
Y042921D01*
X022516Y042923D01*
Y042926D01*
X022516Y042929D01*
X022514Y042937D01*
X022512Y042946D01*
X022509Y042954D01*
X022505Y042962D01*
X022503Y042966D01*
X0225Y042969D01*
X0225Y04297D01*
X022499Y04297D01*
X022498Y042971D01*
X022497Y042972D01*
X022494Y042973D01*
X022492Y042974D01*
X022489Y042976D01*
X022486Y042977D01*
X022482Y042979D01*
X022477Y04298D01*
X022471Y042981D01*
X022466Y042982D01*
X022459Y042984D01*
X022452Y042984D01*
X022444Y042985D01*
X022436D01*
X02229D01*
Y043019D01*
X022436D01*
X022436D01*
X022438D01*
X022439D01*
X022442D01*
X022445Y043018D01*
D02*
G37*
G36*
X040615Y036971D02*
X040615Y036971D01*
X040616Y036972D01*
X040617Y036973D01*
X040619Y036975D01*
X040621Y036977D01*
X040623Y036979D01*
X040626Y036982D01*
X040629Y036984D01*
X040637Y03699D01*
X040645Y036996D01*
X040655Y037002D01*
X040665Y037007D01*
Y036964D01*
X040665D01*
X040664Y036963D01*
X040662Y036962D01*
X040659Y036961D01*
X040655Y036958D01*
X04065Y036955D01*
X040644Y036951D01*
X040638Y036946D01*
X040632Y036941D01*
X040631Y03694D01*
X040631Y03694D01*
X040629Y036938D01*
X040626Y036934D01*
X040622Y036929D01*
X040618Y036924D01*
X040614Y036917D01*
X04061Y03691D01*
X040608Y036902D01*
X040576D01*
Y037149D01*
X040615D01*
Y036971D01*
D02*
G37*
%LPC*%
G36*
X022429Y043782D02*
X022418D01*
X022418D01*
X022417D01*
X022415D01*
X022412D01*
X022408Y043781D01*
X022403D01*
X022397Y043781D01*
X022391Y043781D01*
X022384Y04378D01*
X02237Y043778D01*
X022363Y043777D01*
X022357Y043776D01*
X022351Y043774D01*
X022345Y043772D01*
X02234Y04377D01*
X022335Y043767D01*
X022335D01*
X022335Y043767D01*
X022334Y043766D01*
X022332Y043765D01*
X022329Y043761D01*
X022325Y043757D01*
X022321Y043752D01*
X022318Y043746D01*
X022316Y043743D01*
X022315Y043739D01*
X022315Y043735D01*
X022315Y043731D01*
Y043729D01*
X022315Y043727D01*
X022316Y043723D01*
X022317Y043719D01*
X022319Y043713D01*
X022322Y043707D01*
X022324Y043704D01*
X022327Y043701D01*
X02233Y043699D01*
X022333Y043696D01*
X022333D01*
X022334Y043696D01*
X022335Y043695D01*
X022337Y043694D01*
X02234Y043693D01*
X022343Y043691D01*
X022347Y04369D01*
X022352Y043689D01*
X022358Y043687D01*
X022364Y043686D01*
X022371Y043684D01*
X022378Y043683D01*
X022387Y043682D01*
X022397Y043681D01*
X022407Y043681D01*
X022418Y043681D01*
X022419D01*
X022421D01*
X022424D01*
X022428Y043681D01*
X022433D01*
X022439Y043681D01*
X022445Y043682D01*
X022451Y043682D01*
X022466Y043684D01*
X022473Y043685D01*
X022479Y043687D01*
X022485Y043688D01*
X022491Y04369D01*
X022496Y043693D01*
X022501Y043695D01*
X022501D01*
X022501Y043696D01*
X022504Y043698D01*
X022507Y043701D01*
X022511Y043705D01*
X022514Y04371D01*
X022518Y043717D01*
X02252Y043724D01*
X022521Y043727D01*
X022521Y043731D01*
Y043733D01*
X022521Y043735D01*
X02252Y043739D01*
X022518Y043744D01*
X022516Y043749D01*
X022512Y043755D01*
X02251Y043758D01*
X022507Y043761D01*
X022504Y043764D01*
X022501Y043767D01*
X0225D01*
X0225Y043768D01*
X022498Y043768D01*
X022497Y043769D01*
X022494Y043771D01*
X022491Y043772D01*
X022487Y043773D01*
X022483Y043775D01*
X022477Y043776D01*
X022471Y043777D01*
X022465Y043779D01*
X022457Y04378D01*
X022449Y04378D01*
X022439Y043781D01*
X022429Y043782D01*
D02*
G37*
G36*
Y043586D02*
X022418D01*
X022418D01*
X022417D01*
X022415D01*
X022412D01*
X022408Y043586D01*
X022403D01*
X022397Y043585D01*
X022391Y043585D01*
X022384Y043584D01*
X02237Y043582D01*
X022363Y043581D01*
X022357Y04358D01*
X022351Y043578D01*
X022345Y043576D01*
X02234Y043574D01*
X022335Y043571D01*
X022335D01*
X022335Y043571D01*
X022334Y04357D01*
X022332Y043569D01*
X022329Y043566D01*
X022325Y043562D01*
X022321Y043556D01*
X022318Y04355D01*
X022316Y043547D01*
X022315Y043543D01*
X022315Y043539D01*
X022315Y043535D01*
Y043533D01*
X022315Y043531D01*
X022316Y043527D01*
X022317Y043523D01*
X022319Y043517D01*
X022322Y043511D01*
X022324Y043508D01*
X022327Y043506D01*
X02233Y043503D01*
X022333Y0435D01*
X022333D01*
X022334Y0435D01*
X022335Y043499D01*
X022337Y043498D01*
X02234Y043497D01*
X022343Y043495D01*
X022347Y043494D01*
X022352Y043493D01*
X022358Y043491D01*
X022364Y04349D01*
X022371Y043488D01*
X022378Y043487D01*
X022387Y043486D01*
X022397Y043486D01*
X022407Y043485D01*
X022418Y043485D01*
X022419D01*
X022421D01*
X022424D01*
X022428Y043485D01*
X022433D01*
X022439Y043486D01*
X022445Y043486D01*
X022451Y043487D01*
X022466Y043488D01*
X022473Y04349D01*
X022479Y043491D01*
X022485Y043492D01*
X022491Y043495D01*
X022496Y043497D01*
X022501Y043499D01*
X022501D01*
X022501Y0435D01*
X022504Y043502D01*
X022507Y043505D01*
X022511Y043509D01*
X022514Y043515D01*
X022518Y043521D01*
X02252Y043528D01*
X022521Y043531D01*
X022521Y043535D01*
Y043538D01*
X022521Y043539D01*
X02252Y043543D01*
X022518Y043548D01*
X022516Y043553D01*
X022512Y043559D01*
X02251Y043562D01*
X022507Y043565D01*
X022504Y043568D01*
X022501Y043571D01*
X0225D01*
X0225Y043572D01*
X022498Y043573D01*
X022497Y043573D01*
X022494Y043575D01*
X022491Y043576D01*
X022487Y043577D01*
X022483Y043579D01*
X022477Y04358D01*
X022471Y043581D01*
X022465Y043583D01*
X022457Y043584D01*
X022449Y043585D01*
X022439Y043585D01*
X022429Y043586D01*
D02*
G37*
G36*
Y04339D02*
X022418D01*
X022418D01*
X022417D01*
X022415D01*
X022412D01*
X022408Y04339D01*
X022403D01*
X022397Y043389D01*
X022391Y043389D01*
X022384Y043388D01*
X02237Y043387D01*
X022363Y043385D01*
X022357Y043384D01*
X022351Y043383D01*
X022345Y04338D01*
X02234Y043378D01*
X022335Y043376D01*
X022335D01*
X022335Y043375D01*
X022334Y043374D01*
X022332Y043373D01*
X022329Y04337D01*
X022325Y043366D01*
X022321Y04336D01*
X022318Y043354D01*
X022316Y043351D01*
X022315Y043347D01*
X022315Y043343D01*
X022315Y043339D01*
Y043337D01*
X022315Y043336D01*
X022316Y043332D01*
X022317Y043327D01*
X022319Y043321D01*
X022322Y043316D01*
X022324Y043313D01*
X022327Y04331D01*
X02233Y043307D01*
X022333Y043305D01*
X022333D01*
X022334Y043304D01*
X022335Y043303D01*
X022337Y043302D01*
X02234Y043301D01*
X022343Y0433D01*
X022347Y043298D01*
X022352Y043297D01*
X022358Y043296D01*
X022364Y043294D01*
X022371Y043293D01*
X022378Y043292D01*
X022387Y04329D01*
X022397Y04329D01*
X022407Y043289D01*
X022418Y043289D01*
X022419D01*
X022421D01*
X022424D01*
X022428Y043289D01*
X022433D01*
X022439Y04329D01*
X022445Y04329D01*
X022451Y043291D01*
X022466Y043293D01*
X022473Y043294D01*
X022479Y043295D01*
X022485Y043297D01*
X022491Y043299D01*
X022496Y043301D01*
X022501Y043304D01*
X022501D01*
X022501Y043304D01*
X022504Y043306D01*
X022507Y043309D01*
X022511Y043313D01*
X022514Y043319D01*
X022518Y043325D01*
X02252Y043332D01*
X022521Y043336D01*
X022521Y04334D01*
Y043342D01*
X022521Y043343D01*
X02252Y043347D01*
X022518Y043352D01*
X022516Y043357D01*
X022512Y043364D01*
X02251Y043367D01*
X022507Y043369D01*
X022504Y043372D01*
X022501Y043375D01*
X0225D01*
X0225Y043376D01*
X022498Y043377D01*
X022497Y043377D01*
X022494Y043379D01*
X022491Y04338D01*
X022487Y043381D01*
X022483Y043383D01*
X022477Y043384D01*
X022471Y043385D01*
X022465Y043387D01*
X022457Y043388D01*
X022449Y043389D01*
X022439Y043389D01*
X022429Y04339D01*
D02*
G37*
%LPD*%
D18*
X021591Y044459D02*
G03*
X021591Y044459I-000079J0D01*
G01*
X041123Y036844D02*
G03*
X041123Y036844I-00018J0D01*
G01*
X021827Y042372D02*
Y044262D01*
X023008Y042372D02*
Y044262D01*
X021827Y044262D02*
X023008Y044262D01*
X021827Y042372D02*
X023008Y042372D01*
X036825Y037056D02*
X041155D01*
X036825Y032726D02*
Y037056D01*
X041155Y032726D02*
Y037056D01*
X036825Y032726D02*
X041155D01*
M02*
